<?xml version="1.0" standalone="no"?>
<!DOCTYPE svg PUBLIC "-//W3C//DTD SVG 1.1//EN" "http://www.w3.org/Graphics/SVG/1.1/DTD/svg11.dtd">
<svg xmlns="http://www.w3.org/2000/svg" xmlns:xlink="http://www.w3.org/1999/xlink" version="1.1" viewBox="0 0 64 64" width="100%" height="100%"><g><circle stroke="white" fill="none" stroke-width="2px" cx="32" cy="32" r="30"></circle><path stroke="none" fill="white" d="M 40.9 26.9 m -1.85 0 a 1.85 1.85 0 1 0 3.7 0 a 1.85 1.85 0 1 0 -3.7 0 M 36.7 29.3 m -1.85 0 a 1.85 1.85 0 1 0 3.7 0 a 1.85 1.85 0 1 0 -3.7 0 M 32 32 m -1.85 0 a 1.85 1.85 0 1 0 3.7 0 a 1.85 1.85 0 1 0 -3.7 0 M 32 21.7 m -1.85 0 a 1.85 1.85 0 1 0 3.7 0 a 1.85 1.85 0 1 0 -3.7 0 M 32 26.6 m -1.85 0 a 1.85 1.85 0 1 0 3.7 0 a 1.85 1.85 0 1 0 -3.7 0 M 32 32 m -1.85 0 a 1.85 1.85 0 1 0 3.7 0 a 1.85 1.85 0 1 0 -3.7 0 M 23.1 26.9 m -1.85 0 a 1.85 1.85 0 1 0 3.7 0 a 1.85 1.85 0 1 0 -3.7 0 M 27.3 29.3 m -1.85 0 a 1.85 1.85 0 1 0 3.7 0 a 1.85 1.85 0 1 0 -3.7 0 M 32 32 m -1.85 0 a 1.85 1.85 0 1 0 3.7 0 a 1.85 1.85 0 1 0 -3.7 0 M 23.1 37.2 m -1.85 0 a 1.85 1.85 0 1 0 3.7 0 a 1.85 1.85 0 1 0 -3.7 0 M 27.3 34.7 m -1.85 0 a 1.85 1.85 0 1 0 3.7 0 a 1.85 1.85 0 1 0 -3.7 0 M 32 32 m -1.85 0 a 1.85 1.85 0 1 0 3.7 0 a 1.85 1.85 0 1 0 -3.7 0 M 32.1 42.3 m -1.85 0 a 1.85 1.85 0 1 0 3.7 0 a 1.85 1.85 0 1 0 -3.7 0 M 32 37.4 m -1.85 0 a 1.85 1.85 0 1 0 3.7 0 a 1.85 1.85 0 1 0 -3.7 0 M 32 32 m -1.85 0 a 1.85 1.85 0 1 0 3.7 0 a 1.85 1.85 0 1 0 -3.7 0 M 41 37.1 m -1.85 0 a 1.85 1.85 0 1 0 3.7 0 a 1.85 1.85 0 1 0 -3.7 0 M 36.7 34.7 m -1.85 0 a 1.85 1.85 0 1 0 3.7 0 a 1.85 1.85 0 1 0 -3.7 0 M 32 32 m -1.85 0 a 1.85 1.85 0 1 0 3.7 0 a 1.85 1.85 0 1 0 -3.7 0"></path><path stroke="none" fill="white" d="M 53.3 10.8 Q 58.8 16.5 61 24.2 L 52.5 25.9 Q 50.7 21.2 47.7 17.6 z M 3 24.2 Q 5.2 16.5 10.7 10.8 L 16.5 17.3 Q 13.3 21.2 11.7 25.6 z M 39.7 61 Q 32 63 24.3 61 L 27 52.8 Q 32 53.6 36.6 52.8 z"></path><path stroke="white" fill="none" stroke-width="2px" d="M 24.3 3 Q 32 1 39.7 3 L 37 11.2 Q 32 10.4 27.4 11.2 z M 10.7 53.2 Q 5.2 47.5 3 39.8 L 11.5 38.1 Q 13.3 42.8 16.3 46.4 z M 61 39.8 Q 58.8 47.5 53.3 53.2 L 47.5 46.7 Q 50.7 42.8 52.3 38.4 z"></path></g></svg>
