<?xml version="1.0" standalone="no"?>
<!DOCTYPE svg PUBLIC "-//W3C//DTD SVG 1.1//EN" "http://www.w3.org/Graphics/SVG/1.1/DTD/svg11.dtd" >
<svg xmlns="http://www.w3.org/2000/svg" xmlns:xlink="http://www.w3.org/1999/xlink" version="1.1" viewBox="0 0 65 65"><g><circle cx="32" cy="32" r="30.3" stroke="white" fill="none" stroke-width="2px"></circle><circle cx="32" cy="32" r="1.85" stroke="none" fill="white"></circle><path stroke="none" fill="white" d="M 42.3 32 m -1.85 0 a 1.85 1.85 0 1 0 3.7 0 a 1.85 1.85 0 1 0 -3.7 0 M 37.4 32 m -1.85 0 a 1.85 1.85 0 1 0 3.7 0 a 1.85 1.85 0 1 0 -3.7 0 M 32 42.3 m -1.85 0 a 1.85 1.85 0 1 0 3.7 0 a 1.85 1.85 0 1 0 -3.7 0 M 32 37.4 m -1.85 0 a 1.85 1.85 0 1 0 3.7 0 a 1.85 1.85 0 1 0 -3.7 0 M 21.7 32 m -1.85 0 a 1.85 1.85 0 1 0 3.7 0 a 1.85 1.85 0 1 0 -3.7 0 M 26.6 32 m -1.85 0 a 1.85 1.85 0 1 0 3.7 0 a 1.85 1.85 0 1 0 -3.7 0 M 32 21.7 m -1.85 0 a 1.85 1.85 0 1 0 3.7 0 a 1.85 1.85 0 1 0 -3.7 0 M 32 26.6 m -1.85 0 a 1.85 1.85 0 1 0 3.7 0 a 1.85 1.85 0 1 0 -3.7 0"></path><path stroke="none" fill="white" d="M 39.3 24.2 m -1.85 0 a 1.85 1.85 0 1 0 3.7 0 a 1.85 1.85 0 1 0 -3.7 0 M 36.3 27.7 m -1.85 0 a 1.85 1.85 0 1 0 3.7 0 a 1.85 1.85 0 1 0 -3.7 0 M 39.8 39.3 m -1.85 0 a 1.85 1.85 0 1 0 3.7 0 a 1.85 1.85 0 1 0 -3.7 0 M 36.3 36.3 m -1.85 0 a 1.85 1.85 0 1 0 3.7 0 a 1.85 1.85 0 1 0 -3.7 0 M 24.7 39.8 m -1.85 0 a 1.85 1.85 0 1 0 3.7 0 a 1.85 1.85 0 1 0 -3.7 0 M 27.7 36.3 m -1.85 0 a 1.85 1.85 0 1 0 3.7 0 a 1.85 1.85 0 1 0 -3.7 0 M 24.2 24.7 m -1.85 0 a 1.85 1.85 0 1 0 3.7 0 a 1.85 1.85 0 1 0 -3.7 0 M 27.7 27.7 m -1.85 0 a 1.85 1.85 0 1 0 3.7 0 a 1.85 1.85 0 1 0 -3.7 0"></path><path stroke="none" fill="white" d="M 54.2 18.8 Q 57.6 24 57.9 30.1 L 50 30 Q 49.6 26.6 47.9 23.5 z M 51.4 49 Q 47.5 53.9 41.8 56.1 L 39.5 48.5 Q 42.6 47.1 45 44.5 z M 21.8 55.7 Q 16 53.5 12.1 48.8 L 18.6 44.2 Q 20.9 46.8 24.1 48.2 z M 6.3 29.6 Q 6.6 23.4 9.9 18.3 L 16.3 23 Q 14.5 26 14.2 29.5 z M 26.357 6.766 Q 32.3 5.2 38.25 6.76 L 35.75 14.27 Q 32.31 13.5 28.87 14.27 z"></path><path stroke="white" fill="none" stroke-width="2px" d="M 43.9 4.7 C 43.9 4.7 46.8 5.8 49.7 7.9 C 52.6 10 54.4 12.5 54.4 12.5 L 47.4 17.4 C 47.4 17.4 46.3 16.1 44.6 15 C 42.9 13.8 41.2 13.1 41.2 13.1 L 43.9 4.7 z M 61.6 34.9 C 61.6 34.9 61.5 38 60.4 41.4 C 59.3 44.8 57.5 47.3 57.5 47.3 L 50.6 42.1 C 50.6 42.1 51.5 40.7 52.1 38.7 C 52.7 36.7 52.8 34.9 52.8 34.9 L 61.6 34.9 z M 38.4 61 C 38.4 61 35.4 61.9 31.8 61.9 C 28.3 61.9 25.3 61 25.3 61 L 28.1 52.8 C 28.1 52.8 29.7 53.2 31.8 53.2 C 33.9 53.2 35.7 52.7 35.7 52.7 L 38.4 61 z M 6.4 47 C 6.4 47 4.6 44.5 3.5 41.1 C 2.4 37.7 2.3 34.6 2.3 34.6 L 11 34.7 C 11 34.7 11.1 36.4 11.8 38.4 C 12.4 40.4 13.4 41.9 13.4 41.9 L 6.4 47 z M 9.774 12.257 C 9.77 12.26 11.64 9.84 14.56 7.72 C 17.48 5.6 20.36 4.57 20.36 4.57 L 22.99 12.87 C 22.99 12.87 21.34 13.54 19.67 14.75 C 18 15.96 16.86 17.32 16.86 17.32 L 9.774 12.257 z"></path></g></svg>
