<svg viewBox="-33 -33 625 550" width="1" height="0.8150588235294116" class="game-grid  fml_abalone theme-dark theme-plain"><g transform=""><g transform=""><g class="boundary-grid"><g></g></g><g class="area-grid-ug"></g><g class="base-grid"><g><g><g transform="translate(280, 303.09999999999997)"><polygon points="0 60.62 70 60.62 35 0" stroke="var(--grid-f)" fill="none" stroke-width="2" stroke-linejoin="round"></polygon></g><g transform="translate(280, 60.62)"><polygon points="0 60.62 70 60.62 35 0" stroke="var(--grid-f)" fill="none" stroke-width="2" stroke-linejoin="round"></polygon></g><g transform="translate(70, 181.85999999999999)"><polygon points="0 60.62 70 60.62 35 0" stroke="var(--grid-f)" fill="none" stroke-width="2" stroke-linejoin="round"></polygon></g><g transform="translate(245, 0)"><polygon points="0 60.62 70 60.62 35 0" stroke="var(--grid-f)" fill="none" stroke-width="2" stroke-linejoin="round"></polygon></g><g transform="translate(140, 121.24)"><polygon points="0 0 70 0 35 60.62" stroke="var(--grid-f)" fill="none" stroke-width="2" stroke-linejoin="round"></polygon></g><g transform="translate(350, 363.71999999999997)"><polygon points="0 0 70 0 35 60.62" stroke="var(--grid-f)" fill="none" stroke-width="2" stroke-linejoin="round"></polygon></g><g transform="translate(280, 242.48)"><polygon points="0 0 70 0 35 60.62" stroke="var(--grid-f)" fill="none" stroke-width="2" stroke-linejoin="round"></polygon></g><g transform="translate(245, 303.09999999999997)"><polygon points="0 0 70 0 35 60.62" stroke="var(--grid-f)" fill="none" stroke-width="2" stroke-linejoin="round"></polygon></g><g transform="translate(385, 121.24)"><polygon points="0 60.62 70 60.62 35 0" stroke="var(--grid-f)" fill="none" stroke-width="2" stroke-linejoin="round"></polygon></g><g transform="translate(385, 363.71999999999997)"><polygon points="0 60.62 70 60.62 35 0" stroke="var(--grid-f)" fill="none" stroke-width="2" stroke-linejoin="round"></polygon></g><g transform="translate(210, 60.62)"><polygon points="0 60.62 70 60.62 35 0" stroke="var(--grid-f)" fill="none" stroke-width="2" stroke-linejoin="round"></polygon></g><g transform="translate(280, 121.24)"><polygon points="0 0 70 0 35 60.62" stroke="var(--grid-f)" fill="none" stroke-width="2" stroke-linejoin="round"></polygon></g><g transform="translate(420, 363.71999999999997)"><polygon points="0 0 70 0 35 60.62" stroke="var(--grid-f)" fill="none" stroke-width="2" stroke-linejoin="round"></polygon></g><g transform="translate(105, 424.34)"><polygon points="0 0 70 0 35 60.62" stroke="var(--grid-f)" fill="none" stroke-width="2" stroke-linejoin="round"></polygon></g><g transform="translate(175, 60.62)"><polygon points="0 0 70 0 35 60.62" stroke="var(--grid-f)" fill="none" stroke-width="2" stroke-linejoin="round"></polygon></g><g transform="translate(105, 303.09999999999997)"><polygon points="0 0 70 0 35 60.62" stroke="var(--grid-f)" fill="none" stroke-width="2" stroke-linejoin="round"></polygon></g><g transform="translate(105, 121.24)"><polygon points="0 60.62 70 60.62 35 0" stroke="var(--grid-f)" fill="none" stroke-width="2" stroke-linejoin="round"></polygon></g><g transform="translate(70, 121.24)"><polygon points="0 0 70 0 35 60.62" stroke="var(--grid-f)" fill="none" stroke-width="2" stroke-linejoin="round"></polygon></g><g transform="translate(280, 424.34)"><polygon points="0 60.62 70 60.62 35 0" stroke="var(--grid-f)" fill="none" stroke-width="2" stroke-linejoin="round"></polygon></g><g transform="translate(245, 424.34)"><polygon points="0 0 70 0 35 60.62" stroke="var(--grid-f)" fill="none" stroke-width="2" stroke-linejoin="round"></polygon></g><g transform="translate(455, 121.24)"><polygon points="0 60.62 70 60.62 35 0" stroke="var(--grid-f)" fill="none" stroke-width="2" stroke-linejoin="round"></polygon></g><g transform="translate(175, 424.34)"><polygon points="0 0 70 0 35 60.62" stroke="var(--grid-f)" fill="none" stroke-width="2" stroke-linejoin="round"></polygon></g><g transform="translate(350, 424.34)"><polygon points="0 60.62 70 60.62 35 0" stroke="var(--grid-f)" fill="none" stroke-width="2" stroke-linejoin="round"></polygon></g><g transform="translate(385, 424.34)"><polygon points="0 0 70 0 35 60.62" stroke="var(--grid-f)" fill="none" stroke-width="2" stroke-linejoin="round"></polygon></g><g transform="translate(140, 60.62)"><polygon points="0 60.62 70 60.62 35 0" stroke="var(--grid-f)" fill="none" stroke-width="2" stroke-linejoin="round"></polygon></g><g transform="translate(35, 121.24)"><polygon points="0 60.62 70 60.62 35 0" stroke="var(--grid-f)" fill="none" stroke-width="2" stroke-linejoin="round"></polygon></g><g transform="translate(140, 363.71999999999997)"><polygon points="0 0 70 0 35 60.62" stroke="var(--grid-f)" fill="none" stroke-width="2" stroke-linejoin="round"></polygon></g><g transform="translate(210, 242.48)"><polygon points="0 0 70 0 35 60.62" stroke="var(--grid-f)" fill="none" stroke-width="2" stroke-linejoin="round"></polygon></g><g transform="translate(385, 303.09999999999997)"><polygon points="0 0 70 0 35 60.62" stroke="var(--grid-f)" fill="none" stroke-width="2" stroke-linejoin="round"></polygon></g><g transform="translate(140, 181.85999999999999)"><polygon points="0 60.62 70 60.62 35 0" stroke="var(--grid-f)" fill="none" stroke-width="2" stroke-linejoin="round"></polygon></g><g transform="translate(140, 303.09999999999997)"><polygon points="0 60.62 70 60.62 35 0" stroke="var(--grid-f)" fill="none" stroke-width="2" stroke-linejoin="round"></polygon></g><g transform="translate(140, 242.48)"><polygon points="0 0 70 0 35 60.62" stroke="var(--grid-f)" fill="none" stroke-width="2" stroke-linejoin="round"></polygon></g><g transform="translate(315, 363.71999999999997)"><polygon points="0 60.62 70 60.62 35 0" stroke="var(--grid-f)" fill="none" stroke-width="2" stroke-linejoin="round"></polygon></g><g transform="translate(350, 0)"><polygon points="0 0 70 0 35 60.62" stroke="var(--grid-f)" fill="none" stroke-width="2" stroke-linejoin="round"></polygon></g><g transform="translate(0, 242.48)"><polygon points="0 0 70 0 35 60.62" stroke="var(--grid-f)" fill="none" stroke-width="2" stroke-linejoin="round"></polygon></g><g transform="translate(455, 303.09999999999997)"><polygon points="0 0 70 0 35 60.62" stroke="var(--grid-f)" fill="none" stroke-width="2" stroke-linejoin="round"></polygon></g><g transform="translate(385, 242.48)"><polygon points="0 60.62 70 60.62 35 0" stroke="var(--grid-f)" fill="none" stroke-width="2" stroke-linejoin="round"></polygon></g><g transform="translate(280, 0)"><polygon points="0 0 70 0 35 60.62" stroke="var(--grid-f)" fill="none" stroke-width="2" stroke-linejoin="round"></polygon></g><g transform="translate(175, 363.71999999999997)"><polygon points="0 60.62 70 60.62 35 0" stroke="var(--grid-f)" fill="none" stroke-width="2" stroke-linejoin="round"></polygon></g><g transform="translate(420, 181.85999999999999)"><polygon points="0 60.62 70 60.62 35 0" stroke="var(--grid-f)" fill="none" stroke-width="2" stroke-linejoin="round"></polygon></g><g transform="translate(175, 303.09999999999997)"><polygon points="0 0 70 0 35 60.62" stroke="var(--grid-f)" fill="none" stroke-width="2" stroke-linejoin="round"></polygon></g><g transform="translate(350, 60.62)"><polygon points="0 60.62 70 60.62 35 0" stroke="var(--grid-f)" fill="none" stroke-width="2" stroke-linejoin="round"></polygon></g><g transform="translate(175, 121.24)"><polygon points="0 60.62 70 60.62 35 0" stroke="var(--grid-f)" fill="none" stroke-width="2" stroke-linejoin="round"></polygon></g><g transform="translate(210, 0)"><polygon points="0 0 70 0 35 60.62" stroke="var(--grid-f)" fill="none" stroke-width="2" stroke-linejoin="round"></polygon></g><g transform="translate(315, 303.09999999999997)"><polygon points="0 0 70 0 35 60.62" stroke="var(--grid-f)" fill="none" stroke-width="2" stroke-linejoin="round"></polygon></g><g transform="translate(490, 242.48)"><polygon points="0 0 70 0 35 60.62" stroke="var(--grid-f)" fill="none" stroke-width="2" stroke-linejoin="round"></polygon></g><g transform="translate(490, 181.85999999999999)"><polygon points="0 60.62 70 60.62 35 0" stroke="var(--grid-f)" fill="none" stroke-width="2" stroke-linejoin="round"></polygon></g><g transform="translate(140, 0)"><polygon points="0 0 70 0 35 60.62" stroke="var(--grid-f)" fill="none" stroke-width="2" stroke-linejoin="round"></polygon></g><g transform="translate(350, 121.24)"><polygon points="0 0 70 0 35 60.62" stroke="var(--grid-f)" fill="none" stroke-width="2" stroke-linejoin="round"></polygon></g><g transform="translate(105, 60.62)"><polygon points="0 0 70 0 35 60.62" stroke="var(--grid-f)" fill="none" stroke-width="2" stroke-linejoin="round"></polygon></g><g transform="translate(0, 181.85999999999999)"><polygon points="0 60.62 70 60.62 35 0" stroke="var(--grid-f)" fill="none" stroke-width="2" stroke-linejoin="round"></polygon></g><g transform="translate(280, 363.71999999999997)"><polygon points="0 0 70 0 35 60.62" stroke="var(--grid-f)" fill="none" stroke-width="2" stroke-linejoin="round"></polygon></g><g transform="translate(175, 0)"><polygon points="0 60.62 70 60.62 35 0" stroke="var(--grid-f)" fill="none" stroke-width="2" stroke-linejoin="round"></polygon></g><g transform="translate(385, 181.85999999999999)"><polygon points="0 0 70 0 35 60.62" stroke="var(--grid-f)" fill="none" stroke-width="2" stroke-linejoin="round"></polygon></g><g transform="translate(70, 303.09999999999997)"><polygon points="0 60.62 70 60.62 35 0" stroke="var(--grid-f)" fill="none" stroke-width="2" stroke-linejoin="round"></polygon></g><g transform="translate(455, 242.48)"><polygon points="0 60.62 70 60.62 35 0" stroke="var(--grid-f)" fill="none" stroke-width="2" stroke-linejoin="round"></polygon></g><g transform="translate(210, 121.24)"><polygon points="0 0 70 0 35 60.62" stroke="var(--grid-f)" fill="none" stroke-width="2" stroke-linejoin="round"></polygon></g><g transform="translate(210, 303.09999999999997)"><polygon points="0 60.62 70 60.62 35 0" stroke="var(--grid-f)" fill="none" stroke-width="2" stroke-linejoin="round"></polygon></g><g transform="translate(175, 242.48)"><polygon points="0 60.62 70 60.62 35 0" stroke="var(--grid-f)" fill="none" stroke-width="2" stroke-linejoin="round"></polygon></g><g transform="translate(245, 363.71999999999997)"><polygon points="0 60.62 70 60.62 35 0" stroke="var(--grid-f)" fill="none" stroke-width="2" stroke-linejoin="round"></polygon></g><g transform="translate(420, 121.24)"><polygon points="0 0 70 0 35 60.62" stroke="var(--grid-f)" fill="none" stroke-width="2" stroke-linejoin="round"></polygon></g><g transform="translate(315, 0)"><polygon points="0 60.62 70 60.62 35 0" stroke="var(--grid-f)" fill="none" stroke-width="2" stroke-linejoin="round"></polygon></g><g transform="translate(70, 60.62)"><polygon points="0 60.62 70 60.62 35 0" stroke="var(--grid-f)" fill="none" stroke-width="2" stroke-linejoin="round"></polygon></g><g transform="translate(315, 121.24)"><polygon points="0 60.62 70 60.62 35 0" stroke="var(--grid-f)" fill="none" stroke-width="2" stroke-linejoin="round"></polygon></g><g transform="translate(315, 60.62)"><polygon points="0 0 70 0 35 60.62" stroke="var(--grid-f)" fill="none" stroke-width="2" stroke-linejoin="round"></polygon></g><g transform="translate(420, 60.62)"><polygon points="0 60.62 70 60.62 35 0" stroke="var(--grid-f)" fill="none" stroke-width="2" stroke-linejoin="round"></polygon></g><g transform="translate(455, 181.85999999999999)"><polygon points="0 0 70 0 35 60.62" stroke="var(--grid-f)" fill="none" stroke-width="2" stroke-linejoin="round"></polygon></g><g transform="translate(70, 363.71999999999997)"><polygon points="0 0 70 0 35 60.62" stroke="var(--grid-f)" fill="none" stroke-width="2" stroke-linejoin="round"></polygon></g><g transform="translate(35, 303.09999999999997)"><polygon points="0 0 70 0 35 60.62" stroke="var(--grid-f)" fill="none" stroke-width="2" stroke-linejoin="round"></polygon></g><g transform="translate(70, 242.48)"><polygon points="0 0 70 0 35 60.62" stroke="var(--grid-f)" fill="none" stroke-width="2" stroke-linejoin="round"></polygon></g><g transform="translate(385, 60.62)"><polygon points="0 0 70 0 35 60.62" stroke="var(--grid-f)" fill="none" stroke-width="2" stroke-linejoin="round"></polygon></g><g transform="translate(315, 424.34)"><polygon points="0 0 70 0 35 60.62" stroke="var(--grid-f)" fill="none" stroke-width="2" stroke-linejoin="round"></polygon></g><g transform="translate(245, 60.62)"><polygon points="0 0 70 0 35 60.62" stroke="var(--grid-f)" fill="none" stroke-width="2" stroke-linejoin="round"></polygon></g><g transform="translate(35, 181.85999999999999)"><polygon points="0 0 70 0 35 60.62" stroke="var(--grid-f)" fill="none" stroke-width="2" stroke-linejoin="round"></polygon></g><g transform="translate(385, 0)"><polygon points="0 60.62 70 60.62 35 0" stroke="var(--grid-f)" fill="none" stroke-width="2" stroke-linejoin="round"></polygon></g><g transform="translate(140, 424.34)"><polygon points="0 60.62 70 60.62 35 0" stroke="var(--grid-f)" fill="none" stroke-width="2" stroke-linejoin="round"></polygon></g><g transform="translate(210, 363.71999999999997)"><polygon points="0 0 70 0 35 60.62" stroke="var(--grid-f)" fill="none" stroke-width="2" stroke-linejoin="round"></polygon></g><g transform="translate(350, 303.09999999999997)"><polygon points="0 60.62 70 60.62 35 0" stroke="var(--grid-f)" fill="none" stroke-width="2" stroke-linejoin="round"></polygon></g><g transform="translate(420, 303.09999999999997)"><polygon points="0 60.62 70 60.62 35 0" stroke="var(--grid-f)" fill="none" stroke-width="2" stroke-linejoin="round"></polygon></g><g transform="translate(315, 181.85999999999999)"><polygon points="0 0 70 0 35 60.62" stroke="var(--grid-f)" fill="none" stroke-width="2" stroke-linejoin="round"></polygon></g><g transform="translate(210, 424.34)"><polygon points="0 60.62 70 60.62 35 0" stroke="var(--grid-f)" fill="none" stroke-width="2" stroke-linejoin="round"></polygon></g><g transform="translate(350, 181.85999999999999)"><polygon points="0 60.62 70 60.62 35 0" stroke="var(--grid-f)" fill="none" stroke-width="2" stroke-linejoin="round"></polygon></g><g transform="translate(280, 181.85999999999999)"><polygon points="0 60.62 70 60.62 35 0" stroke="var(--grid-f)" fill="none" stroke-width="2" stroke-linejoin="round"></polygon></g><g transform="translate(175, 181.85999999999999)"><polygon points="0 0 70 0 35 60.62" stroke="var(--grid-f)" fill="none" stroke-width="2" stroke-linejoin="round"></polygon></g><g transform="translate(315, 242.48)"><polygon points="0 60.62 70 60.62 35 0" stroke="var(--grid-f)" fill="none" stroke-width="2" stroke-linejoin="round"></polygon></g><g transform="translate(35, 242.48)"><polygon points="0 60.62 70 60.62 35 0" stroke="var(--grid-f)" fill="none" stroke-width="2" stroke-linejoin="round"></polygon></g><g transform="translate(105, 0)"><polygon points="0 60.62 70 60.62 35 0" stroke="var(--grid-f)" fill="none" stroke-width="2" stroke-linejoin="round"></polygon></g><g transform="translate(245, 121.24)"><polygon points="0 60.62 70 60.62 35 0" stroke="var(--grid-f)" fill="none" stroke-width="2" stroke-linejoin="round"></polygon></g><g transform="translate(105, 181.85999999999999)"><polygon points="0 0 70 0 35 60.62" stroke="var(--grid-f)" fill="none" stroke-width="2" stroke-linejoin="round"></polygon></g><g transform="translate(350, 242.48)"><polygon points="0 0 70 0 35 60.62" stroke="var(--grid-f)" fill="none" stroke-width="2" stroke-linejoin="round"></polygon></g><g transform="translate(245, 242.48)"><polygon points="0 60.62 70 60.62 35 0" stroke="var(--grid-f)" fill="none" stroke-width="2" stroke-linejoin="round"></polygon></g><g transform="translate(420, 242.48)"><polygon points="0 0 70 0 35 60.62" stroke="var(--grid-f)" fill="none" stroke-width="2" stroke-linejoin="round"></polygon></g><g transform="translate(210, 181.85999999999999)"><polygon points="0 60.62 70 60.62 35 0" stroke="var(--grid-f)" fill="none" stroke-width="2" stroke-linejoin="round"></polygon></g><g transform="translate(105, 363.71999999999997)"><polygon points="0 60.62 70 60.62 35 0" stroke="var(--grid-f)" fill="none" stroke-width="2" stroke-linejoin="round"></polygon></g><g transform="translate(105, 242.48)"><polygon points="0 60.62 70 60.62 35 0" stroke="var(--grid-f)" fill="none" stroke-width="2" stroke-linejoin="round"></polygon></g><g transform="translate(245, 181.85999999999999)"><polygon points="0 0 70 0 35 60.62" stroke="var(--grid-f)" fill="none" stroke-width="2" stroke-linejoin="round"></polygon></g></g><g transform="translate(315, 303.09999999999997)"><g></g></g><g transform="translate(315, 60.62)"><g></g></g><g transform="translate(210, 0)"><g></g></g><g transform="translate(420, 363.71999999999997)"><g></g></g><g transform="translate(280, 242.48)"><g></g></g><g transform="translate(245, 303.09999999999997)"><g></g></g><g transform="translate(490, 121.24)"><g></g></g><g transform="translate(490, 363.71999999999997)"><g></g></g><g transform="translate(175, 60.62)"><g></g></g><g transform="translate(280, 121.24)"><g></g></g><g transform="translate(105, 60.62)"><g></g></g><g transform="translate(315, 424.34)"><g></g></g><g transform="translate(245, 424.34)"><g></g></g><g transform="translate(105, 424.34)"><g></g></g><g transform="translate(455, 424.34)"><g></g></g><g transform="translate(140, 242.48)"><g></g></g><g transform="translate(525, 303.09999999999997)"><g></g></g><g transform="translate(35, 181.85999999999999)"><g></g></g><g transform="translate(35, 303.09999999999997)"><g></g></g><g transform="translate(0, 242.48)"><g></g></g><g transform="translate(350, 363.71999999999997)"><g></g></g><g transform="translate(420, 0)"><g></g></g><g transform="translate(210, 484.96)"><g></g></g><g transform="translate(490, 242.48)"><g></g></g><g transform="translate(280, 0)"><g></g></g><g transform="translate(70, 363.71999999999997)"><g></g></g><g transform="translate(105, 303.09999999999997)"><g></g></g><g transform="translate(455, 60.62)"><g></g></g><g transform="translate(70, 121.24)"><g></g></g><g transform="translate(140, 0)"><g></g></g><g transform="translate(385, 303.09999999999997)"><g></g></g><g transform="translate(140, 484.96)"><g></g></g><g transform="translate(420, 121.24)"><g></g></g><g transform="translate(280, 363.71999999999997)"><g></g></g><g transform="translate(525, 181.85999999999999)"><g></g></g><g transform="translate(350, 484.96)"><g></g></g><g transform="translate(140, 121.24)"><g></g></g><g transform="translate(175, 303.09999999999997)"><g></g></g><g transform="translate(70, 242.48)"><g></g></g><g transform="translate(210, 363.71999999999997)"><g></g></g><g transform="translate(280, 484.96)"><g></g></g><g transform="translate(350, 0)"><g></g></g><g transform="translate(350, 121.24)"><g></g></g><g transform="translate(385, 60.62)"><g></g></g><g transform="translate(385, 424.34)"><g></g></g><g transform="translate(245, 60.62)"><g></g></g><g transform="translate(140, 363.71999999999997)"><g></g></g><g transform="translate(455, 303.09999999999997)"><g></g></g><g transform="translate(385, 181.85999999999999)"><g></g></g><g transform="translate(175, 424.34)"><g></g></g><g transform="translate(455, 181.85999999999999)"><g></g></g><g transform="translate(315, 181.85999999999999)"><g></g></g><g transform="translate(105, 181.85999999999999)"><g></g></g><g transform="translate(350, 242.48)"><g></g></g><g transform="translate(210, 121.24)"><g></g></g><g transform="translate(420, 242.48)"><g></g></g><g transform="translate(210, 242.48)"><g></g></g><g transform="translate(560, 242.48)"><g></g></g><g transform="translate(175, 181.85999999999999)"><g></g></g><g transform="translate(420, 484.96)"><g></g></g><g transform="translate(245, 181.85999999999999)"><g></g></g></g></g><g class="area-grid-bg-mid"></g><g class="area-grid-bg"></g><g class="e-grid" transform=""><g><g class="tl-box" style="transition: transform 300ms linear 0s; transform: translate(315px, 60.62px);"><g class=" 1" transform=""><g><g transform="scale(0.5,0.5)"><g transform=""><g><circle r="50" fill="var(--e-black-bg)" stroke="var(--e-black-bo)" stroke-width="4"></circle></g></g></g></g></g></g><g class="tl-box" style="transition: transform 300ms linear 0s; transform: translate(210px, 0px);"><g class=" 2" transform=""><g><g transform="scale(0.5,0.5)"><g transform=""><g><circle r="50" fill="var(--e-black-bg)" stroke="var(--e-black-bo)" stroke-width="4"></circle></g></g></g></g></g></g><g class="tl-box" style="transition: transform 300ms linear 0s; transform: translate(175px, 60.62px);"><g class=" 3" transform=""><g><g transform="scale(0.5,0.5)"><g transform=""><g><circle r="50" fill="var(--e-black-bg)" stroke="var(--e-black-bo)" stroke-width="4"></circle></g></g></g></g></g></g><g class="tl-box" style="transition: transform 300ms linear 0s; transform: translate(280px, 121.24px);"><g class=" 4" transform=""><g><g transform="scale(0.5,0.5)"><g transform=""><g><circle r="50" fill="var(--e-black-bg)" stroke="var(--e-black-bo)" stroke-width="4"></circle></g></g></g></g></g></g><g class="tl-box" style="transition: transform 300ms linear 0s; transform: translate(105px, 60.62px);"><g class=" 5" transform=""><g><g transform="scale(0.5,0.5)"><g transform=""><g><circle r="50" fill="var(--e-black-bg)" stroke="var(--e-black-bo)" stroke-width="4"></circle></g></g></g></g></g></g><g class="tl-box" style="transition: transform 300ms linear 0s; transform: translate(315px, 424.34px);"><g class=" 6" transform=""><g><g transform="scale(0.5,0.5)"><g transform=""><g><circle r="50" fill="var(--e-white-bg)" stroke="var(--e-white-bo)" stroke-width="4"></circle></g></g></g></g></g></g><g class="tl-box" style="transition: transform 300ms linear 0s; transform: translate(245px, 424.34px);"><g class=" 7" transform=""><g><g transform="scale(0.5,0.5)"><g transform=""><g><circle r="50" fill="var(--e-white-bg)" stroke="var(--e-white-bo)" stroke-width="4"></circle></g></g></g></g></g></g><g class="tl-box" style="transition: transform 300ms linear 0s; transform: translate(105px, 424.34px);"><g class=" 8" transform=""><g><g transform="scale(0.5,0.5)"><g transform=""><g><circle r="50" fill="var(--e-white-bg)" stroke="var(--e-white-bo)" stroke-width="4"></circle></g></g></g></g></g></g><g class="tl-box" style="transition: transform 300ms linear 0s; transform: translate(455px, 424.34px);"><g class=" 9" transform=""><g><g transform="scale(0.5,0.5)"><g transform=""><g><circle r="50" fill="var(--e-white-bg)" stroke="var(--e-white-bo)" stroke-width="4"></circle></g></g></g></g></g></g><g class="tl-box" style="transition: transform 300ms linear 0s; transform: translate(350px, 363.72px);"><g class=" 10" transform=""><g><g transform="scale(0.5,0.5)"><g transform=""><g><circle r="50" fill="var(--e-white-bg)" stroke="var(--e-white-bo)" stroke-width="4"></circle></g></g></g></g></g></g><g class="tl-box" style="transition: transform 300ms linear 0s; transform: translate(420px, 0px);"><g class=" 11" transform=""><g><g transform="scale(0.5,0.5)"><g transform=""><g><circle r="50" fill="var(--e-black-bg)" stroke="var(--e-black-bo)" stroke-width="4"></circle></g></g></g></g></g></g><g class="tl-box" style="transition: transform 300ms linear 0s; transform: translate(210px, 484.96px);"><g class=" 12" transform=""><g><g transform="scale(0.5,0.5)"><g transform=""><g><circle r="50" fill="var(--e-white-bg)" stroke="var(--e-white-bo)" stroke-width="4"></circle></g></g></g></g></g></g><g class="tl-box" style="transition: transform 300ms linear 0s; transform: translate(280px, 0px);"><g class=" 13" transform=""><g><g transform="scale(0.5,0.5)"><g transform=""><g><circle r="50" fill="var(--e-black-bg)" stroke="var(--e-black-bo)" stroke-width="4"></circle></g></g></g></g></g></g><g class="tl-box" style="transition: transform 300ms linear 0s; transform: translate(455px, 60.62px);"><g class=" 14" transform=""><g><g transform="scale(0.5,0.5)"><g transform=""><g><circle r="50" fill="var(--e-black-bg)" stroke="var(--e-black-bo)" stroke-width="4"></circle></g></g></g></g></g></g><g class="tl-box" style="transition: transform 300ms linear 0s; transform: translate(140px, 0px);"><g class=" 15" transform=""><g><g transform="scale(0.5,0.5)"><g transform=""><g><circle r="50" fill="var(--e-black-bg)" stroke="var(--e-black-bo)" stroke-width="4"></circle></g></g></g></g></g></g><g class="tl-box" style="transition: transform 300ms linear 0s; transform: translate(140px, 484.96px);"><g class=" 16" transform=""><g><g transform="scale(0.5,0.5)"><g transform=""><g><circle r="50" fill="var(--e-white-bg)" stroke="var(--e-white-bo)" stroke-width="4"></circle></g></g></g></g></g></g><g class="tl-box" style="transition: transform 300ms linear 0s; transform: translate(280px, 363.72px);"><g class=" 17" transform=""><g><g transform="scale(0.5,0.5)"><g transform=""><g><circle r="50" fill="var(--e-white-bg)" stroke="var(--e-white-bo)" stroke-width="4"></circle></g></g></g></g></g></g><g class="tl-box" style="transition: transform 300ms linear 0s; transform: translate(350px, 484.96px);"><g class=" 18" transform=""><g><g transform="scale(0.5,0.5)"><g transform=""><g><circle r="50" fill="var(--e-white-bg)" stroke="var(--e-white-bo)" stroke-width="4"></circle></g></g></g></g></g></g><g class="tl-box" style="transition: transform 300ms linear 0s; transform: translate(210px, 363.72px);"><g class=" 19" transform=""><g><g transform="scale(0.5,0.5)"><g transform=""><g><circle r="50" fill="var(--e-white-bg)" stroke="var(--e-white-bo)" stroke-width="4"></circle></g></g></g></g></g></g><g class="tl-box" style="transition: transform 300ms linear 0s; transform: translate(280px, 484.96px);"><g class=" 20" transform=""><g><g transform="scale(0.5,0.5)"><g transform=""><g><circle r="50" fill="var(--e-white-bg)" stroke="var(--e-white-bo)" stroke-width="4"></circle></g></g></g></g></g></g><g class="tl-box" style="transition: transform 300ms linear 0s; transform: translate(350px, 0px);"><g class=" 21" transform=""><g><g transform="scale(0.5,0.5)"><g transform=""><g><circle r="50" fill="var(--e-black-bg)" stroke="var(--e-black-bo)" stroke-width="4"></circle></g></g></g></g></g></g><g class="tl-box" style="transition: transform 300ms linear 0s; transform: translate(350px, 121.24px);"><g class=" 22" transform=""><g><g transform="scale(0.5,0.5)"><g transform=""><g><circle r="50" fill="var(--e-black-bg)" stroke="var(--e-black-bo)" stroke-width="4"></circle></g></g></g></g></g></g><g class="tl-box" style="transition: transform 300ms linear 0s; transform: translate(385px, 60.62px);"><g class=" 23" transform=""><g><g transform="scale(0.5,0.5)"><g transform=""><g><circle r="50" fill="var(--e-black-bg)" stroke="var(--e-black-bo)" stroke-width="4"></circle></g></g></g></g></g></g><g class="tl-box" style="transition: transform 300ms linear 0s; transform: translate(385px, 424.34px);"><g class=" 24" transform=""><g><g transform="scale(0.5,0.5)"><g transform=""><g><circle r="50" fill="var(--e-white-bg)" stroke="var(--e-white-bo)" stroke-width="4"></circle></g></g></g></g></g></g><g class="tl-box" style="transition: transform 300ms linear 0s; transform: translate(245px, 60.62px);"><g class=" 25" transform=""><g><g transform="scale(0.5,0.5)"><g transform=""><g><circle r="50" fill="var(--e-black-bg)" stroke="var(--e-black-bo)" stroke-width="4"></circle></g></g></g></g></g></g><g class="tl-box" style="transition: transform 300ms linear 0s; transform: translate(175px, 424.34px);"><g class=" 26" transform=""><g><g transform="scale(0.5,0.5)"><g transform=""><g><circle r="50" fill="var(--e-white-bg)" stroke="var(--e-white-bo)" stroke-width="4"></circle></g></g></g></g></g></g><g class="tl-box" style="transition: transform 300ms linear 0s; transform: translate(210px, 121.24px);"><g class=" 27" transform=""><g><g transform="scale(0.5,0.5)"><g transform=""><g><circle r="50" fill="var(--e-black-bg)" stroke="var(--e-black-bo)" stroke-width="4"></circle></g></g></g></g></g></g><g class="tl-box" style="transition: transform 300ms linear 0s; transform: translate(420px, 484.96px);"><g class=" 28" transform=""><g><g transform="scale(0.5,0.5)"><g transform=""><g><circle r="50" fill="var(--e-white-bg)" stroke="var(--e-white-bo)" stroke-width="4"></circle></g></g></g></g></g></g></g></g><g class="arrow-grid"><g><defs><marker id="arrow-head" orient="auto" markerWidth="4" markerHeight="4" refX="2.9" refY="2"><path d="M 0 4 L 0 0 4 2 Z" stroke="none" fill="hsl(240deg 100% 85%)"></path></marker><marker id="arrow-head-capture" orient="auto" markerWidth="4" markerHeight="4" refX="2.9" refY="2"><path d="M 0 4 L 0 0 4 2 Z" stroke="none" fill="var(--red-light)"></path></marker></defs></g></g><g class="area-grid-fg"></g><g class="e-grid" transform=""><g></g></g><g class="pointer-grid"><g><g transform="translate(315, 303.09999999999997)"><g><circle r="25" fill="transparent" stroke-width="0" cx="0" cy="0"></circle></g></g><g transform="translate(315, 60.62)"><g><circle r="25" fill="transparent" stroke-width="0" cx="0" cy="0"></circle></g></g><g transform="translate(210, 0)"><g><circle r="25" fill="transparent" stroke-width="0" cx="0" cy="0"></circle></g></g><g transform="translate(420, 363.71999999999997)"><g><circle r="25" fill="transparent" stroke-width="0" cx="0" cy="0"></circle></g></g><g transform="translate(280, 242.48)"><g><circle r="25" fill="transparent" stroke-width="0" cx="0" cy="0"></circle></g></g><g transform="translate(245, 303.09999999999997)"><g><circle r="25" fill="transparent" stroke-width="0" cx="0" cy="0"></circle></g></g><g transform="translate(490, 121.24)"><g><circle r="25" fill="transparent" stroke-width="0" cx="0" cy="0"></circle></g></g><g transform="translate(490, 363.71999999999997)"><g><circle r="25" fill="transparent" stroke-width="0" cx="0" cy="0"></circle></g></g><g transform="translate(175, 60.62)"><g><circle r="25" fill="transparent" stroke-width="0" cx="0" cy="0"></circle></g></g><g transform="translate(280, 121.24)"><g><circle r="25" fill="transparent" stroke-width="0" cx="0" cy="0"></circle></g></g><g transform="translate(105, 60.62)"><g><circle r="25" fill="transparent" stroke-width="0" cx="0" cy="0"></circle></g></g><g transform="translate(315, 424.34)"><g><circle r="25" fill="transparent" stroke-width="0" cx="0" cy="0"></circle></g></g><g transform="translate(245, 424.34)"><g><circle r="25" fill="transparent" stroke-width="0" cx="0" cy="0"></circle></g></g><g transform="translate(105, 424.34)"><g><circle r="25" fill="transparent" stroke-width="0" cx="0" cy="0"></circle></g></g><g transform="translate(455, 424.34)"><g><circle r="25" fill="transparent" stroke-width="0" cx="0" cy="0"></circle></g></g><g transform="translate(140, 242.48)"><g><circle r="25" fill="transparent" stroke-width="0" cx="0" cy="0"></circle></g></g><g transform="translate(525, 303.09999999999997)"><g><circle r="25" fill="transparent" stroke-width="0" cx="0" cy="0"></circle></g></g><g transform="translate(35, 181.85999999999999)"><g><circle r="25" fill="transparent" stroke-width="0" cx="0" cy="0"></circle></g></g><g transform="translate(35, 303.09999999999997)"><g><circle r="25" fill="transparent" stroke-width="0" cx="0" cy="0"></circle></g></g><g transform="translate(0, 242.48)"><g><circle r="25" fill="transparent" stroke-width="0" cx="0" cy="0"></circle></g></g><g transform="translate(350, 363.71999999999997)"><g><circle r="25" fill="transparent" stroke-width="0" cx="0" cy="0"></circle></g></g><g transform="translate(420, 0)"><g><circle r="25" fill="transparent" stroke-width="0" cx="0" cy="0"></circle></g></g><g transform="translate(210, 484.96)"><g><circle r="25" fill="transparent" stroke-width="0" cx="0" cy="0"></circle></g></g><g transform="translate(490, 242.48)"><g><circle r="25" fill="transparent" stroke-width="0" cx="0" cy="0"></circle></g></g><g transform="translate(280, 0)"><g><circle r="25" fill="transparent" stroke-width="0" cx="0" cy="0"></circle></g></g><g transform="translate(70, 363.71999999999997)"><g><circle r="25" fill="transparent" stroke-width="0" cx="0" cy="0"></circle></g></g><g transform="translate(105, 303.09999999999997)"><g><circle r="25" fill="transparent" stroke-width="0" cx="0" cy="0"></circle></g></g><g transform="translate(455, 60.62)"><g><circle r="25" fill="transparent" stroke-width="0" cx="0" cy="0"></circle></g></g><g transform="translate(70, 121.24)"><g><circle r="25" fill="transparent" stroke-width="0" cx="0" cy="0"></circle></g></g><g transform="translate(140, 0)"><g><circle r="25" fill="transparent" stroke-width="0" cx="0" cy="0"></circle></g></g><g transform="translate(385, 303.09999999999997)"><g><circle r="25" fill="transparent" stroke-width="0" cx="0" cy="0"></circle></g></g><g transform="translate(140, 484.96)"><g><circle r="25" fill="transparent" stroke-width="0" cx="0" cy="0"></circle></g></g><g transform="translate(420, 121.24)"><g><circle r="25" fill="transparent" stroke-width="0" cx="0" cy="0"></circle></g></g><g transform="translate(280, 363.71999999999997)"><g><circle r="25" fill="transparent" stroke-width="0" cx="0" cy="0"></circle></g></g><g transform="translate(525, 181.85999999999999)"><g><circle r="25" fill="transparent" stroke-width="0" cx="0" cy="0"></circle></g></g><g transform="translate(350, 484.96)"><g><circle r="25" fill="transparent" stroke-width="0" cx="0" cy="0"></circle></g></g><g transform="translate(140, 121.24)"><g><circle r="25" fill="transparent" stroke-width="0" cx="0" cy="0"></circle></g></g><g transform="translate(175, 303.09999999999997)"><g><circle r="25" fill="transparent" stroke-width="0" cx="0" cy="0"></circle></g></g><g transform="translate(70, 242.48)"><g><circle r="25" fill="transparent" stroke-width="0" cx="0" cy="0"></circle></g></g><g transform="translate(210, 363.71999999999997)"><g><circle r="25" fill="transparent" stroke-width="0" cx="0" cy="0"></circle></g></g><g transform="translate(280, 484.96)"><g><circle r="25" fill="transparent" stroke-width="0" cx="0" cy="0"></circle></g></g><g transform="translate(350, 0)"><g><circle r="25" fill="transparent" stroke-width="0" cx="0" cy="0"></circle></g></g><g transform="translate(350, 121.24)"><g><circle r="25" fill="transparent" stroke-width="0" cx="0" cy="0"></circle></g></g><g transform="translate(385, 60.62)"><g><circle r="25" fill="transparent" stroke-width="0" cx="0" cy="0"></circle></g></g><g transform="translate(385, 424.34)"><g><circle r="25" fill="transparent" stroke-width="0" cx="0" cy="0"></circle></g></g><g transform="translate(245, 60.62)"><g><circle r="25" fill="transparent" stroke-width="0" cx="0" cy="0"></circle></g></g><g transform="translate(140, 363.71999999999997)"><g><circle r="25" fill="transparent" stroke-width="0" cx="0" cy="0"></circle></g></g><g transform="translate(455, 303.09999999999997)"><g><circle r="25" fill="transparent" stroke-width="0" cx="0" cy="0"></circle></g></g><g transform="translate(385, 181.85999999999999)"><g><circle r="25" fill="transparent" stroke-width="0" cx="0" cy="0"></circle></g></g><g transform="translate(175, 424.34)"><g><circle r="25" fill="transparent" stroke-width="0" cx="0" cy="0"></circle></g></g><g transform="translate(455, 181.85999999999999)"><g><circle r="25" fill="transparent" stroke-width="0" cx="0" cy="0"></circle></g></g><g transform="translate(315, 181.85999999999999)"><g><circle r="25" fill="transparent" stroke-width="0" cx="0" cy="0"></circle></g></g><g transform="translate(105, 181.85999999999999)"><g><circle r="25" fill="transparent" stroke-width="0" cx="0" cy="0"></circle></g></g><g transform="translate(350, 242.48)"><g><circle r="25" fill="transparent" stroke-width="0" cx="0" cy="0"></circle></g></g><g transform="translate(210, 121.24)"><g><circle r="25" fill="transparent" stroke-width="0" cx="0" cy="0"></circle></g></g><g transform="translate(420, 242.48)"><g><circle r="25" fill="transparent" stroke-width="0" cx="0" cy="0"></circle></g></g><g transform="translate(210, 242.48)"><g><circle r="25" fill="transparent" stroke-width="0" cx="0" cy="0"></circle></g></g><g transform="translate(560, 242.48)"><g><circle r="25" fill="transparent" stroke-width="0" cx="0" cy="0"></circle></g></g><g transform="translate(175, 181.85999999999999)"><g><circle r="25" fill="transparent" stroke-width="0" cx="0" cy="0"></circle></g></g><g transform="translate(420, 484.96)"><g><circle r="25" fill="transparent" stroke-width="0" cx="0" cy="0"></circle></g></g><g transform="translate(245, 181.85999999999999)"><g><circle r="25" fill="transparent" stroke-width="0" cx="0" cy="0"></circle></g></g></g></g></g></g></svg>