<svg viewBox="0 0 1410 1210" width="1" height="0.8581560283687943" class="game-grid backgammon"><g transform=""><g transform="translate(5, 5)translate(50, 0)"><g><g transform="translate(-50, 0)"><rect rx="20" ry="20" fill="var(--grid-b)" width="1400" height="1200" class="board"></rect></g><path opacity="0.5" d="M 650 0 v 1200" stroke-width="10" class="vert"></path></g></g></g><g transform=""><g transform="translate(5, 5)translate(50, 0)"><g transform=""><g><g transform=""><g transform=""><g class="field  even  "><g><path d="M 0 0 50 550 100 0 z" class="triangle"></path><path d="M 15 0 50 415 85 0 z" class="triangle-inner"></path></g></g></g></g><g transform="translate(0, 100)"></g><g transform="translate(0, 200)"></g><g transform="translate(0, 300)"></g><g transform="translate(0, 400)"></g><g transform="translate(0, 500)"></g><g transform="translate(0, 600)"></g><g transform="translate(0, 700)"></g><g transform="translate(0, 800)"></g><g transform="translate(0, 900)"></g><g transform="translate(0, 1000)"></g><g transform="translate(0, 1100)"><g transform="translate(0, 100)"><g class="field  odd  "><g><path d="M 0 0 50 -550 100 0 z" class="triangle"></path><path d="M 15 0 50 -415 85 0 z" class="triangle-inner"></path></g></g></g></g><g transform="translate(100, 0)"><g transform=""><g class="field  odd  "><g><path d="M 0 0 50 550 100 0 z" class="triangle"></path><path d="M 15 0 50 415 85 0 z" class="triangle-inner"></path></g></g></g></g><g transform="translate(100, 100)"></g><g transform="translate(100, 200)"></g><g transform="translate(100, 300)"></g><g transform="translate(100, 400)"></g><g transform="translate(100, 500)"></g><g transform="translate(100, 600)"></g><g transform="translate(100, 700)"></g><g transform="translate(100, 800)"></g><g transform="translate(100, 900)"></g><g transform="translate(100, 1000)"></g><g transform="translate(100, 1100)"><g transform="translate(0, 100)"><g class="field  even  "><g><path d="M 0 0 50 -550 100 0 z" class="triangle"></path><path d="M 15 0 50 -415 85 0 z" class="triangle-inner"></path></g></g></g></g><g transform="translate(200, 0)"><g transform=""><g class="field  even  "><g><path d="M 0 0 50 550 100 0 z" class="triangle"></path><path d="M 15 0 50 415 85 0 z" class="triangle-inner"></path></g></g></g></g><g transform="translate(200, 100)"></g><g transform="translate(200, 200)"></g><g transform="translate(200, 300)"></g><g transform="translate(200, 400)"></g><g transform="translate(200, 500)"></g><g transform="translate(200, 600)"></g><g transform="translate(200, 700)"></g><g transform="translate(200, 800)"></g><g transform="translate(200, 900)"></g><g transform="translate(200, 1000)"></g><g transform="translate(200, 1100)"><g transform="translate(0, 100)"><g class="field  odd  "><g><path d="M 0 0 50 -550 100 0 z" class="triangle"></path><path d="M 15 0 50 -415 85 0 z" class="triangle-inner"></path></g></g></g></g><g transform="translate(300, 0)"><g transform=""><g class="field  odd  "><g><path d="M 0 0 50 550 100 0 z" class="triangle"></path><path d="M 15 0 50 415 85 0 z" class="triangle-inner"></path></g></g></g></g><g transform="translate(300, 100)"></g><g transform="translate(300, 200)"></g><g transform="translate(300, 300)"></g><g transform="translate(300, 400)"></g><g transform="translate(300, 500)"></g><g transform="translate(300, 600)"></g><g transform="translate(300, 700)"></g><g transform="translate(300, 800)"></g><g transform="translate(300, 900)"></g><g transform="translate(300, 1000)"></g><g transform="translate(300, 1100)"><g transform="translate(0, 100)"><g class="field  even  "><g><path d="M 0 0 50 -550 100 0 z" class="triangle"></path><path d="M 15 0 50 -415 85 0 z" class="triangle-inner"></path></g></g></g></g><g transform="translate(400, 0)"><g transform=""><g class="field  even  "><g><path d="M 0 0 50 550 100 0 z" class="triangle"></path><path d="M 15 0 50 415 85 0 z" class="triangle-inner"></path></g></g></g></g><g transform="translate(400, 100)"></g><g transform="translate(400, 200)"></g><g transform="translate(400, 300)"></g><g transform="translate(400, 400)"></g><g transform="translate(400, 500)"></g><g transform="translate(400, 600)"></g><g transform="translate(400, 700)"></g><g transform="translate(400, 800)"></g><g transform="translate(400, 900)"></g><g transform="translate(400, 1000)"></g><g transform="translate(400, 1100)"><g transform="translate(0, 100)"><g class="field  odd  "><g><path d="M 0 0 50 -550 100 0 z" class="triangle"></path><path d="M 15 0 50 -415 85 0 z" class="triangle-inner"></path></g></g></g></g><g transform="translate(500, 0)"><g transform=""><g class="field  odd  "><g><path d="M 0 0 50 550 100 0 z" class="triangle"></path><path d="M 15 0 50 415 85 0 z" class="triangle-inner"></path></g></g></g></g><g transform="translate(500, 100)"></g><g transform="translate(500, 200)"></g><g transform="translate(500, 300)"></g><g transform="translate(500, 400)"></g><g transform="translate(500, 500)"></g><g transform="translate(500, 600)"></g><g transform="translate(500, 700)"></g><g transform="translate(500, 800)"></g><g transform="translate(500, 900)"></g><g transform="translate(500, 1000)"></g><g transform="translate(500, 1100)"><g transform="translate(0, 100)"><g class="field  even  "><g><path d="M 0 0 50 -550 100 0 z" class="triangle"></path><path d="M 15 0 50 -415 85 0 z" class="triangle-inner"></path></g></g></g></g><g transform="translate(600, 0)"><g transform=""><g class="field bar odd  "></g></g></g><g transform="translate(600, 100)"></g><g transform="translate(600, 200)"></g><g transform="translate(600, 300)"></g><g transform="translate(600, 400)"></g><g transform="translate(600, 500)"></g><g transform="translate(600, 600)"></g><g transform="translate(600, 700)"></g><g transform="translate(600, 800)"></g><g transform="translate(600, 900)"></g><g transform="translate(600, 1000)"></g><g transform="translate(600, 1100)"><g transform="translate(0, 100)"><g class="field bar even  "></g></g></g><g transform="translate(700, 0)"><g transform=""><g class="field  even  "><g><path d="M 0 0 50 550 100 0 z" class="triangle"></path><path d="M 15 0 50 415 85 0 z" class="triangle-inner"></path></g></g></g></g><g transform="translate(700, 100)"></g><g transform="translate(700, 200)"></g><g transform="translate(700, 300)"></g><g transform="translate(700, 400)"></g><g transform="translate(700, 500)"></g><g transform="translate(700, 600)"></g><g transform="translate(700, 700)"></g><g transform="translate(700, 800)"></g><g transform="translate(700, 900)"></g><g transform="translate(700, 1000)"></g><g transform="translate(700, 1100)"><g transform="translate(0, 100)"><g class="field  odd  "><g><path d="M 0 0 50 -550 100 0 z" class="triangle"></path><path d="M 15 0 50 -415 85 0 z" class="triangle-inner"></path></g></g></g></g><g transform="translate(800, 0)"><g transform=""><g class="field  odd  "><g><path d="M 0 0 50 550 100 0 z" class="triangle"></path><path d="M 15 0 50 415 85 0 z" class="triangle-inner"></path></g></g></g></g><g transform="translate(800, 100)"></g><g transform="translate(800, 200)"></g><g transform="translate(800, 300)"></g><g transform="translate(800, 400)"></g><g transform="translate(800, 500)"></g><g transform="translate(800, 600)"></g><g transform="translate(800, 700)"></g><g transform="translate(800, 800)"></g><g transform="translate(800, 900)"></g><g transform="translate(800, 1000)"></g><g transform="translate(800, 1100)"><g transform="translate(0, 100)"><g class="field  even  "><g><path d="M 0 0 50 -550 100 0 z" class="triangle"></path><path d="M 15 0 50 -415 85 0 z" class="triangle-inner"></path></g></g></g></g><g transform="translate(900, 0)"><g transform=""><g class="field  even  "><g><path d="M 0 0 50 550 100 0 z" class="triangle"></path><path d="M 15 0 50 415 85 0 z" class="triangle-inner"></path></g></g></g></g><g transform="translate(900, 100)"></g><g transform="translate(900, 200)"></g><g transform="translate(900, 300)"></g><g transform="translate(900, 400)"></g><g transform="translate(900, 500)"></g><g transform="translate(900, 600)"></g><g transform="translate(900, 700)"></g><g transform="translate(900, 800)"></g><g transform="translate(900, 900)"></g><g transform="translate(900, 1000)"></g><g transform="translate(900, 1100)"><g transform="translate(0, 100)"><g class="field  odd  "><g><path d="M 0 0 50 -550 100 0 z" class="triangle"></path><path d="M 15 0 50 -415 85 0 z" class="triangle-inner"></path></g></g></g></g><g transform="translate(1000, 0)"><g transform=""><g class="field  odd  "><g><path d="M 0 0 50 550 100 0 z" class="triangle"></path><path d="M 15 0 50 415 85 0 z" class="triangle-inner"></path></g></g></g></g><g transform="translate(1000, 100)"></g><g transform="translate(1000, 200)"></g><g transform="translate(1000, 300)"></g><g transform="translate(1000, 400)"></g><g transform="translate(1000, 500)"></g><g transform="translate(1000, 600)"></g><g transform="translate(1000, 700)"></g><g transform="translate(1000, 800)"></g><g transform="translate(1000, 900)"></g><g transform="translate(1000, 1000)"></g><g transform="translate(1000, 1100)"><g transform="translate(0, 100)"><g class="field  even  "><g><path d="M 0 0 50 -550 100 0 z" class="triangle"></path><path d="M 15 0 50 -415 85 0 z" class="triangle-inner"></path></g></g></g></g><g transform="translate(1100, 0)"><g transform=""><g class="field  even  "><g><path d="M 0 0 50 550 100 0 z" class="triangle"></path><path d="M 15 0 50 415 85 0 z" class="triangle-inner"></path></g></g></g></g><g transform="translate(1100, 100)"></g><g transform="translate(1100, 200)"></g><g transform="translate(1100, 300)"></g><g transform="translate(1100, 400)"></g><g transform="translate(1100, 500)"></g><g transform="translate(1100, 600)"></g><g transform="translate(1100, 700)"></g><g transform="translate(1100, 800)"></g><g transform="translate(1100, 900)"></g><g transform="translate(1100, 1000)"></g><g transform="translate(1100, 1100)"><g transform="translate(0, 100)"><g class="field  odd  "><g><path d="M 0 0 50 -550 100 0 z" class="triangle"></path><path d="M 15 0 50 -415 85 0 z" class="triangle-inner"></path></g></g></g></g><g transform="translate(1200, 0)"><g transform=""><g class="field  odd  "><g><path d="M 0 0 50 550 100 0 z" class="triangle"></path><path d="M 15 0 50 415 85 0 z" class="triangle-inner"></path></g></g></g></g><g transform="translate(1200, 100)"></g><g transform="translate(1200, 200)"></g><g transform="translate(1200, 300)"></g><g transform="translate(1200, 400)"></g><g transform="translate(1200, 500)"></g><g transform="translate(1200, 600)"></g><g transform="translate(1200, 700)"></g><g transform="translate(1200, 800)"></g><g transform="translate(1200, 900)"></g><g transform="translate(1200, 1000)"></g><g transform="translate(1200, 1100)"><g transform="translate(0, 100)"><g class="field  even  "><g><path d="M 0 0 50 -550 100 0 z" class="triangle"></path><path d="M 15 0 50 -415 85 0 z" class="triangle-inner"></path></g></g></g></g><g transform="translate(1300, 0)"><g transform=""><g class="field exit even  "></g></g></g><g transform="translate(1300, 100)"></g><g transform="translate(1300, 200)"></g><g transform="translate(1300, 300)"></g><g transform="translate(1300, 400)"></g><g transform="translate(1300, 500)"></g><g transform="translate(1300, 600)"></g><g transform="translate(1300, 700)"></g><g transform="translate(1300, 800)"></g><g transform="translate(1300, 900)"></g><g transform="translate(1300, 1000)"></g><g transform="translate(1300, 1100)"><g transform="translate(0, 100)"><g class="field exit odd  "></g></g></g></g></g></g></g><g transform=""><g transform="translate(5, 5)translate(50, 0)"><g transform="translate(-50, 0)"><rect rx="20" ry="20" width="1400" height="1200" stroke="var(--grid-o)" stroke-width="10" class="frame"></rect></g></g></g><g transform=""><g transform="translate(5, 5)translate(50, 0)"><g transform=""><g><g transform=""></g><g transform="translate(0, 100)"></g><g transform="translate(0, 200)"></g><g transform="translate(0, 300)"></g><g transform="translate(0, 400)"></g><g transform="translate(0, 500)"></g><g transform="translate(0, 600)"></g><g transform="translate(0, 700)"></g><g transform="translate(0, 800)"></g><g transform="translate(0, 900)"></g><g transform="translate(0, 1000)"></g><g transform="translate(0, 1100)"></g><g transform="translate(100, 0)"></g><g transform="translate(100, 100)"></g><g transform="translate(100, 200)"></g><g transform="translate(100, 300)"></g><g transform="translate(100, 400)"></g><g transform="translate(100, 500)"></g><g transform="translate(100, 600)"></g><g transform="translate(100, 700)"></g><g transform="translate(100, 800)"></g><g transform="translate(100, 900)"></g><g transform="translate(100, 1000)"></g><g transform="translate(100, 1100)"></g><g transform="translate(200, 0)"></g><g transform="translate(200, 100)"></g><g transform="translate(200, 200)"></g><g transform="translate(200, 300)"></g><g transform="translate(200, 400)"></g><g transform="translate(200, 500)"></g><g transform="translate(200, 600)"></g><g transform="translate(200, 700)"></g><g transform="translate(200, 800)"></g><g transform="translate(200, 900)"></g><g transform="translate(200, 1000)"></g><g transform="translate(200, 1100)"></g><g transform="translate(300, 0)"></g><g transform="translate(300, 100)"></g><g transform="translate(300, 200)"></g><g transform="translate(300, 300)"></g><g transform="translate(300, 400)"></g><g transform="translate(300, 500)"></g><g transform="translate(300, 600)"></g><g transform="translate(300, 700)"></g><g transform="translate(300, 800)"></g><g transform="translate(300, 900)"></g><g transform="translate(300, 1000)"></g><g transform="translate(300, 1100)"></g><g transform="translate(400, 0)"></g><g transform="translate(400, 100)"></g><g transform="translate(400, 200)"></g><g transform="translate(400, 300)"></g><g transform="translate(400, 400)"></g><g transform="translate(400, 500)"></g><g transform="translate(400, 600)"></g><g transform="translate(400, 700)"></g><g transform="translate(400, 800)"></g><g transform="translate(400, 900)"></g><g transform="translate(400, 1000)"></g><g transform="translate(400, 1100)"></g><g transform="translate(500, 0)"></g><g transform="translate(500, 100)"></g><g transform="translate(500, 200)"></g><g transform="translate(500, 300)"></g><g transform="translate(500, 400)"></g><g transform="translate(500, 500)"></g><g transform="translate(500, 600)"></g><g transform="translate(500, 700)"></g><g transform="translate(500, 800)"></g><g transform="translate(500, 900)"></g><g transform="translate(500, 1000)"></g><g transform="translate(500, 1100)"></g><g transform="translate(600, 0)"></g><g transform="translate(600, 100)"></g><g transform="translate(600, 200)"></g><g transform="translate(600, 300)"></g><g transform="translate(600, 400)"></g><g transform="translate(600, 500)"></g><g transform="translate(600, 600)"></g><g transform="translate(600, 700)"></g><g transform="translate(600, 800)"></g><g transform="translate(600, 900)"></g><g transform="translate(600, 1000)"></g><g transform="translate(600, 1100)"></g><g transform="translate(700, 0)"></g><g transform="translate(700, 100)"></g><g transform="translate(700, 200)"></g><g transform="translate(700, 300)"></g><g transform="translate(700, 400)"></g><g transform="translate(700, 500)"></g><g transform="translate(700, 600)"></g><g transform="translate(700, 700)"></g><g transform="translate(700, 800)"></g><g transform="translate(700, 900)"></g><g transform="translate(700, 1000)"></g><g transform="translate(700, 1100)"></g><g transform="translate(800, 0)"></g><g transform="translate(800, 100)"></g><g transform="translate(800, 200)"></g><g transform="translate(800, 300)"></g><g transform="translate(800, 400)"></g><g transform="translate(800, 500)"></g><g transform="translate(800, 600)"></g><g transform="translate(800, 700)"></g><g transform="translate(800, 800)"></g><g transform="translate(800, 900)"></g><g transform="translate(800, 1000)"></g><g transform="translate(800, 1100)"></g><g transform="translate(900, 0)"></g><g transform="translate(900, 100)"></g><g transform="translate(900, 200)"></g><g transform="translate(900, 300)"></g><g transform="translate(900, 400)"></g><g transform="translate(900, 500)"></g><g transform="translate(900, 600)"></g><g transform="translate(900, 700)"></g><g transform="translate(900, 800)"></g><g transform="translate(900, 900)"></g><g transform="translate(900, 1000)"></g><g transform="translate(900, 1100)"></g><g transform="translate(1000, 0)"></g><g transform="translate(1000, 100)"></g><g transform="translate(1000, 200)"></g><g transform="translate(1000, 300)"></g><g transform="translate(1000, 400)"></g><g transform="translate(1000, 500)"></g><g transform="translate(1000, 600)"></g><g transform="translate(1000, 700)"></g><g transform="translate(1000, 800)"></g><g transform="translate(1000, 900)"></g><g transform="translate(1000, 1000)"></g><g transform="translate(1000, 1100)"></g><g transform="translate(1100, 0)"></g><g transform="translate(1100, 100)"></g><g transform="translate(1100, 200)"></g><g transform="translate(1100, 300)"></g><g transform="translate(1100, 400)"></g><g transform="translate(1100, 500)"></g><g transform="translate(1100, 600)"></g><g transform="translate(1100, 700)"></g><g transform="translate(1100, 800)"></g><g transform="translate(1100, 900)"></g><g transform="translate(1100, 1000)"></g><g transform="translate(1100, 1100)"></g><g transform="translate(1200, 0)"></g><g transform="translate(1200, 100)"></g><g transform="translate(1200, 200)"></g><g transform="translate(1200, 300)"></g><g transform="translate(1200, 400)"></g><g transform="translate(1200, 500)"></g><g transform="translate(1200, 600)"></g><g transform="translate(1200, 700)"></g><g transform="translate(1200, 800)"></g><g transform="translate(1200, 900)"></g><g transform="translate(1200, 1000)"></g><g transform="translate(1200, 1100)"></g><g transform="translate(1300, 0)"></g><g transform="translate(1300, 100)"></g><g transform="translate(1300, 200)"></g><g transform="translate(1300, 300)"></g><g transform="translate(1300, 400)"></g><g transform="translate(1300, 500)"></g><g transform="translate(1300, 600)"></g><g transform="translate(1300, 700)"></g><g transform="translate(1300, 800)"></g><g transform="translate(1300, 900)"></g><g transform="translate(1300, 1000)"></g><g transform="translate(1300, 1100)"></g></g></g></g></g><g transform=""><g transform="translate(5, 5)translate(50, 0)"><g><g class="tl-box" style="transition: transform 200ms linear 0s; transform: translate(1250px, 0px) translate(0px, 1044px);"><g><g class="e black"><circle r="45"></circle></g></g></g><g class="tl-box" style="transition: transform 200ms linear 0s; transform: translate(1250px, 0px) translate(0px, 1144px);"><g><g class="e black"><circle r="45"></circle></g></g></g><g class="tl-box" style="transition: transform 200ms linear 0s; transform: translate(750px, 0px) translate(0px, 744px);"><g><g class="e white"><circle r="45"></circle></g></g></g><g class="tl-box" style="transition: transform 200ms linear 0s; transform: translate(750px, 0px) translate(0px, 844px);"><g><g class="e white"><circle r="45"></circle></g></g></g><g class="tl-box" style="transition: transform 200ms linear 0s; transform: translate(750px, 0px) translate(0px, 944px);"><g><g class="e white"><circle r="45"></circle></g></g></g><g class="tl-box" style="transition: transform 200ms linear 0s; transform: translate(750px, 0px) translate(0px, 1044px);"><g><g class="e white"><circle r="45"></circle></g></g></g><g class="tl-box" style="transition: transform 200ms linear 0s; transform: translate(750px, 0px) translate(0px, 1144px);"><g><g class="e white"><circle r="45"></circle></g></g></g><g class="tl-box" style="transition: transform 200ms linear 0s; transform: translate(450px, 0px) translate(0px, 944px);"><g><g class="e white"><circle r="45"></circle></g></g></g><g class="tl-box" style="transition: transform 200ms linear 0s; transform: translate(450px, 0px) translate(0px, 1044px);"><g><g class="e white"><circle r="45"></circle></g></g></g><g class="tl-box" style="transition: transform 200ms linear 0s; transform: translate(450px, 0px) translate(0px, 1144px);"><g><g class="e white"><circle r="45"></circle></g></g></g><g class="tl-box" style="transition: transform 200ms linear 0s; transform: translate(50px, 0px) translate(0px, 744px);"><g><g class="e black"><circle r="45"></circle></g></g></g><g class="tl-box" style="transition: transform 200ms linear 0s; transform: translate(50px, 0px) translate(0px, 844px);"><g><g class="e black"><circle r="45"></circle></g></g></g><g class="tl-box" style="transition: transform 200ms linear 0s; transform: translate(50px, 0px) translate(0px, 944px);"><g><g class="e black"><circle r="45"></circle></g></g></g><g class="tl-box" style="transition: transform 200ms linear 0s; transform: translate(50px, 0px) translate(0px, 1044px);"><g><g class="e black"><circle r="45"></circle></g></g></g><g class="tl-box" style="transition: transform 200ms linear 0s; transform: translate(50px, 0px) translate(0px, 1144px);"><g><g class="e black"><circle r="45"></circle></g></g></g><g class="tl-box" style="transition: transform 200ms linear 0s; transform: translate(1250px, 0px) translate(0px, 156px);"><g><g class="e white"><circle r="45"></circle></g></g></g><g class="tl-box" style="transition: transform 200ms linear 0s; transform: translate(1250px, 0px) translate(0px, 56px);"><g><g class="e white"><circle r="45"></circle></g></g></g><g class="tl-box" style="transition: transform 200ms linear 0s; transform: translate(750px, 0px) translate(0px, 456px);"><g><g class="e black"><circle r="45"></circle></g></g></g><g class="tl-box" style="transition: transform 200ms linear 0s; transform: translate(750px, 0px) translate(0px, 356px);"><g><g class="e black"><circle r="45"></circle></g></g></g><g class="tl-box" style="transition: transform 200ms linear 0s; transform: translate(750px, 0px) translate(0px, 256px);"><g><g class="e black"><circle r="45"></circle></g></g></g><g class="tl-box" style="transition: transform 200ms linear 0s; transform: translate(750px, 0px) translate(0px, 156px);"><g><g class="e black"><circle r="45"></circle></g></g></g><g class="tl-box" style="transition: transform 200ms linear 0s; transform: translate(750px, 0px) translate(0px, 56px);"><g><g class="e black"><circle r="45"></circle></g></g></g><g class="tl-box" style="transition: transform 200ms linear 0s; transform: translate(450px, 0px) translate(0px, 256px);"><g><g class="e black"><circle r="45"></circle></g></g></g><g class="tl-box" style="transition: transform 200ms linear 0s; transform: translate(450px, 0px) translate(0px, 156px);"><g><g class="e black"><circle r="45"></circle></g></g></g><g class="tl-box" style="transition: transform 200ms linear 0s; transform: translate(450px, 0px) translate(0px, 56px);"><g><g class="e black"><circle r="45"></circle></g></g></g><g class="tl-box" style="transition: transform 200ms linear 0s; transform: translate(50px, 0px) translate(0px, 456px);"><g><g class="e white"><circle r="45"></circle></g></g></g><g class="tl-box" style="transition: transform 200ms linear 0s; transform: translate(50px, 0px) translate(0px, 356px);"><g><g class="e white"><circle r="45"></circle></g></g></g><g class="tl-box" style="transition: transform 200ms linear 0s; transform: translate(50px, 0px) translate(0px, 256px);"><g><g class="e white"><circle r="45"></circle></g></g></g><g class="tl-box" style="transition: transform 200ms linear 0s; transform: translate(50px, 0px) translate(0px, 156px);"><g><g class="e white"><circle r="45"></circle></g></g></g><g class="tl-box" style="transition: transform 200ms linear 0s; transform: translate(50px, 0px) translate(0px, 56px);"><g><g class="e white"><circle r="45"></circle></g></g></g></g></g></g><g transform=""><g transform="translate(5, 5)translate(50, 0)"><g transform=""><g><g transform=""></g><g transform="translate(0, 100)"></g><g transform="translate(0, 200)"></g><g transform="translate(0, 300)"></g><g transform="translate(0, 400)"></g><g transform="translate(0, 500)"></g><g transform="translate(0, 600)"></g><g transform="translate(0, 700)"></g><g transform="translate(0, 800)"></g><g transform="translate(0, 900)"></g><g transform="translate(0, 1000)"></g><g transform="translate(0, 1100)"></g><g transform="translate(100, 0)"></g><g transform="translate(100, 100)"></g><g transform="translate(100, 200)"></g><g transform="translate(100, 300)"></g><g transform="translate(100, 400)"></g><g transform="translate(100, 500)"></g><g transform="translate(100, 600)"></g><g transform="translate(100, 700)"></g><g transform="translate(100, 800)"></g><g transform="translate(100, 900)"></g><g transform="translate(100, 1000)"></g><g transform="translate(100, 1100)"></g><g transform="translate(200, 0)"></g><g transform="translate(200, 100)"></g><g transform="translate(200, 200)"></g><g transform="translate(200, 300)"></g><g transform="translate(200, 400)"></g><g transform="translate(200, 500)"></g><g transform="translate(200, 600)"></g><g transform="translate(200, 700)"></g><g transform="translate(200, 800)"></g><g transform="translate(200, 900)"></g><g transform="translate(200, 1000)"></g><g transform="translate(200, 1100)"></g><g transform="translate(300, 0)"></g><g transform="translate(300, 100)"></g><g transform="translate(300, 200)"></g><g transform="translate(300, 300)"></g><g transform="translate(300, 400)"></g><g transform="translate(300, 500)"></g><g transform="translate(300, 600)"></g><g transform="translate(300, 700)"></g><g transform="translate(300, 800)"></g><g transform="translate(300, 900)"></g><g transform="translate(300, 1000)"></g><g transform="translate(300, 1100)"></g><g transform="translate(400, 0)"></g><g transform="translate(400, 100)"></g><g transform="translate(400, 200)"></g><g transform="translate(400, 300)"></g><g transform="translate(400, 400)"></g><g transform="translate(400, 500)"></g><g transform="translate(400, 600)"></g><g transform="translate(400, 700)"></g><g transform="translate(400, 800)"></g><g transform="translate(400, 900)"></g><g transform="translate(400, 1000)"></g><g transform="translate(400, 1100)"></g><g transform="translate(500, 0)"></g><g transform="translate(500, 100)"></g><g transform="translate(500, 200)"></g><g transform="translate(500, 300)"></g><g transform="translate(500, 400)"></g><g transform="translate(500, 500)"></g><g transform="translate(500, 600)"></g><g transform="translate(500, 700)"></g><g transform="translate(500, 800)"></g><g transform="translate(500, 900)"></g><g transform="translate(500, 1000)"></g><g transform="translate(500, 1100)"></g><g transform="translate(600, 0)"></g><g transform="translate(600, 100)"></g><g transform="translate(600, 200)"></g><g transform="translate(600, 300)"></g><g transform="translate(600, 400)"></g><g transform="translate(600, 500)"></g><g transform="translate(600, 600)"></g><g transform="translate(600, 700)"></g><g transform="translate(600, 800)"></g><g transform="translate(600, 900)"></g><g transform="translate(600, 1000)"></g><g transform="translate(600, 1100)"></g><g transform="translate(700, 0)"></g><g transform="translate(700, 100)"></g><g transform="translate(700, 200)"></g><g transform="translate(700, 300)"></g><g transform="translate(700, 400)"></g><g transform="translate(700, 500)"></g><g transform="translate(700, 600)"></g><g transform="translate(700, 700)"></g><g transform="translate(700, 800)"></g><g transform="translate(700, 900)"></g><g transform="translate(700, 1000)"></g><g transform="translate(700, 1100)"></g><g transform="translate(800, 0)"></g><g transform="translate(800, 100)"></g><g transform="translate(800, 200)"></g><g transform="translate(800, 300)"></g><g transform="translate(800, 400)"></g><g transform="translate(800, 500)"></g><g transform="translate(800, 600)"></g><g transform="translate(800, 700)"></g><g transform="translate(800, 800)"></g><g transform="translate(800, 900)"></g><g transform="translate(800, 1000)"></g><g transform="translate(800, 1100)"></g><g transform="translate(900, 0)"></g><g transform="translate(900, 100)"></g><g transform="translate(900, 200)"></g><g transform="translate(900, 300)"></g><g transform="translate(900, 400)"></g><g transform="translate(900, 500)"></g><g transform="translate(900, 600)"></g><g transform="translate(900, 700)"></g><g transform="translate(900, 800)"></g><g transform="translate(900, 900)"></g><g transform="translate(900, 1000)"></g><g transform="translate(900, 1100)"></g><g transform="translate(1000, 0)"></g><g transform="translate(1000, 100)"></g><g transform="translate(1000, 200)"></g><g transform="translate(1000, 300)"></g><g transform="translate(1000, 400)"></g><g transform="translate(1000, 500)"></g><g transform="translate(1000, 600)"></g><g transform="translate(1000, 700)"></g><g transform="translate(1000, 800)"></g><g transform="translate(1000, 900)"></g><g transform="translate(1000, 1000)"></g><g transform="translate(1000, 1100)"></g><g transform="translate(1100, 0)"></g><g transform="translate(1100, 100)"></g><g transform="translate(1100, 200)"></g><g transform="translate(1100, 300)"></g><g transform="translate(1100, 400)"></g><g transform="translate(1100, 500)"></g><g transform="translate(1100, 600)"></g><g transform="translate(1100, 700)"></g><g transform="translate(1100, 800)"></g><g transform="translate(1100, 900)"></g><g transform="translate(1100, 1000)"></g><g transform="translate(1100, 1100)"></g><g transform="translate(1200, 0)"></g><g transform="translate(1200, 100)"></g><g transform="translate(1200, 200)"></g><g transform="translate(1200, 300)"></g><g transform="translate(1200, 400)"></g><g transform="translate(1200, 500)"></g><g transform="translate(1200, 600)"></g><g transform="translate(1200, 700)"></g><g transform="translate(1200, 800)"></g><g transform="translate(1200, 900)"></g><g transform="translate(1200, 1000)"></g><g transform="translate(1200, 1100)"></g><g transform="translate(1300, 0)"><g transform=""><g class="field exit black  "><g transform="translate(50, 56)"></g></g></g></g><g transform="translate(1300, 100)"></g><g transform="translate(1300, 200)"></g><g transform="translate(1300, 300)"></g><g transform="translate(1300, 400)"></g><g transform="translate(1300, 500)"></g><g transform="translate(1300, 600)"></g><g transform="translate(1300, 700)"></g><g transform="translate(1300, 800)"></g><g transform="translate(1300, 900)"></g><g transform="translate(1300, 1000)"></g><g transform="translate(1300, 1100)"><g transform="translate(0, 100)"><g class="field exit white  "><g transform="translate(50, -56)"></g></g></g></g></g></g></g></g><g transform=""><g transform="translate(5, 5)translate(50, 0)"><g transform="translate(-50, 0)"><g transform="translate(700, 600)"><g><g class="dice-context" transform-origin="50 50" transform="translate(-50, -100)scale(0.8)"><g class="dice"><rect rx="9.090909090909092" width="100" height="100" fill="var(--app-bg)" class="bg-layer"></rect><rect rx="9.090909090909092" width="100" height="100" fill="var(--e-white-bg)" stroke="var(--e-white-bo)" class="fg-layer"></rect><g transform="translate(25, 25)"><g><g transform=""><circle fill="var(--e-white-fg)" r="9.090909090909092"></circle></g><g transform="translate(50, 0)"><circle fill="var(--e-white-fg)" r="9.090909090909092"></circle></g><g transform="translate(0, 50)"><circle fill="var(--e-white-fg)" r="9.090909090909092"></circle></g><g transform="translate(50, 50)"><circle fill="var(--e-white-fg)" r="9.090909090909092"></circle></g></g></g></g></g><g class="dice-context" transform-origin="50 50" transform="translate(-50, 0)scale(0.8)"><g class="dice"><rect rx="9.090909090909092" width="100" height="100" fill="var(--app-bg)" class="bg-layer"></rect><rect rx="9.090909090909092" width="100" height="100" fill="var(--e-white-bg)" stroke="var(--e-white-bo)" class="fg-layer"></rect><g transform="translate(25, 25)"><g><g transform=""><circle fill="var(--e-white-fg)" r="9.090909090909092"></circle></g><g transform="translate(50, 0)"><circle fill="var(--e-white-fg)" r="9.090909090909092"></circle></g><g transform="translate(25, 25)"><circle fill="var(--e-white-fg)" r="9.090909090909092"></circle></g><g transform="translate(0, 50)"><circle fill="var(--e-white-fg)" r="9.090909090909092"></circle></g><g transform="translate(50, 50)"><circle fill="var(--e-white-fg)" r="9.090909090909092"></circle></g></g></g></g></g></g></g></g></g></g><g transform=""><g transform="translate(5, 5)translate(50, 0)"><g transform=""><g><g transform=""><g transform=""><path d="M 0 0 v 550 h 100 v -550 z" fill="transparent" class="click-receiver"></path></g></g><g transform="translate(0, 100)"></g><g transform="translate(0, 200)"></g><g transform="translate(0, 300)"></g><g transform="translate(0, 400)"></g><g transform="translate(0, 500)"></g><g transform="translate(0, 600)"></g><g transform="translate(0, 700)"></g><g transform="translate(0, 800)"></g><g transform="translate(0, 900)"></g><g transform="translate(0, 1000)"></g><g transform="translate(0, 1100)"><g transform="translate(0, 100)"><path d="M 0 0 v -550 h 100 v 550 z" fill="transparent" class="click-receiver"></path></g></g><g transform="translate(100, 0)"><g transform=""><path d="M 0 0 v 550 h 100 v -550 z" fill="transparent" class="click-receiver"></path></g></g><g transform="translate(100, 100)"></g><g transform="translate(100, 200)"></g><g transform="translate(100, 300)"></g><g transform="translate(100, 400)"></g><g transform="translate(100, 500)"></g><g transform="translate(100, 600)"></g><g transform="translate(100, 700)"></g><g transform="translate(100, 800)"></g><g transform="translate(100, 900)"></g><g transform="translate(100, 1000)"></g><g transform="translate(100, 1100)"><g transform="translate(0, 100)"><path d="M 0 0 v -550 h 100 v 550 z" fill="transparent" class="click-receiver"></path></g></g><g transform="translate(200, 0)"><g transform=""><path d="M 0 0 v 550 h 100 v -550 z" fill="transparent" class="click-receiver"></path></g></g><g transform="translate(200, 100)"></g><g transform="translate(200, 200)"></g><g transform="translate(200, 300)"></g><g transform="translate(200, 400)"></g><g transform="translate(200, 500)"></g><g transform="translate(200, 600)"></g><g transform="translate(200, 700)"></g><g transform="translate(200, 800)"></g><g transform="translate(200, 900)"></g><g transform="translate(200, 1000)"></g><g transform="translate(200, 1100)"><g transform="translate(0, 100)"><path d="M 0 0 v -550 h 100 v 550 z" fill="transparent" class="click-receiver"></path></g></g><g transform="translate(300, 0)"><g transform=""><path d="M 0 0 v 550 h 100 v -550 z" fill="transparent" class="click-receiver"></path></g></g><g transform="translate(300, 100)"></g><g transform="translate(300, 200)"></g><g transform="translate(300, 300)"></g><g transform="translate(300, 400)"></g><g transform="translate(300, 500)"></g><g transform="translate(300, 600)"></g><g transform="translate(300, 700)"></g><g transform="translate(300, 800)"></g><g transform="translate(300, 900)"></g><g transform="translate(300, 1000)"></g><g transform="translate(300, 1100)"><g transform="translate(0, 100)"><path d="M 0 0 v -550 h 100 v 550 z" fill="transparent" class="click-receiver"></path></g></g><g transform="translate(400, 0)"><g transform=""><path d="M 0 0 v 550 h 100 v -550 z" fill="transparent" class="click-receiver"></path></g></g><g transform="translate(400, 100)"></g><g transform="translate(400, 200)"></g><g transform="translate(400, 300)"></g><g transform="translate(400, 400)"></g><g transform="translate(400, 500)"></g><g transform="translate(400, 600)"></g><g transform="translate(400, 700)"></g><g transform="translate(400, 800)"></g><g transform="translate(400, 900)"></g><g transform="translate(400, 1000)"></g><g transform="translate(400, 1100)"><g transform="translate(0, 100)"><path d="M 0 0 v -550 h 100 v 550 z" fill="transparent" class="click-receiver"></path></g></g><g transform="translate(500, 0)"><g transform=""><path d="M 0 0 v 550 h 100 v -550 z" fill="transparent" class="click-receiver"></path></g></g><g transform="translate(500, 100)"></g><g transform="translate(500, 200)"></g><g transform="translate(500, 300)"></g><g transform="translate(500, 400)"></g><g transform="translate(500, 500)"></g><g transform="translate(500, 600)"></g><g transform="translate(500, 700)"></g><g transform="translate(500, 800)"></g><g transform="translate(500, 900)"></g><g transform="translate(500, 1000)"></g><g transform="translate(500, 1100)"><g transform="translate(0, 100)"><path d="M 0 0 v -550 h 100 v 550 z" fill="transparent" class="click-receiver"></path></g></g><g transform="translate(600, 0)"><g transform=""><path d="M 0 0 v 550 h 100 v -550 z" fill="transparent" class="click-receiver"></path></g></g><g transform="translate(600, 100)"></g><g transform="translate(600, 200)"></g><g transform="translate(600, 300)"></g><g transform="translate(600, 400)"></g><g transform="translate(600, 500)"></g><g transform="translate(600, 600)"></g><g transform="translate(600, 700)"></g><g transform="translate(600, 800)"></g><g transform="translate(600, 900)"></g><g transform="translate(600, 1000)"></g><g transform="translate(600, 1100)"><g transform="translate(0, 100)"><path d="M 0 0 v -550 h 100 v 550 z" fill="transparent" class="click-receiver"></path></g></g><g transform="translate(700, 0)"><g transform=""><path d="M 0 0 v 550 h 100 v -550 z" fill="transparent" class="click-receiver"></path></g></g><g transform="translate(700, 100)"></g><g transform="translate(700, 200)"></g><g transform="translate(700, 300)"></g><g transform="translate(700, 400)"></g><g transform="translate(700, 500)"></g><g transform="translate(700, 600)"></g><g transform="translate(700, 700)"></g><g transform="translate(700, 800)"></g><g transform="translate(700, 900)"></g><g transform="translate(700, 1000)"></g><g transform="translate(700, 1100)"><g transform="translate(0, 100)"><path d="M 0 0 v -550 h 100 v 550 z" fill="transparent" class="click-receiver"></path></g></g><g transform="translate(800, 0)"><g transform=""><path d="M 0 0 v 550 h 100 v -550 z" fill="transparent" class="click-receiver"></path></g></g><g transform="translate(800, 100)"></g><g transform="translate(800, 200)"></g><g transform="translate(800, 300)"></g><g transform="translate(800, 400)"></g><g transform="translate(800, 500)"></g><g transform="translate(800, 600)"></g><g transform="translate(800, 700)"></g><g transform="translate(800, 800)"></g><g transform="translate(800, 900)"></g><g transform="translate(800, 1000)"></g><g transform="translate(800, 1100)"><g transform="translate(0, 100)"><path d="M 0 0 v -550 h 100 v 550 z" fill="transparent" class="click-receiver"></path></g></g><g transform="translate(900, 0)"><g transform=""><path d="M 0 0 v 550 h 100 v -550 z" fill="transparent" class="click-receiver"></path></g></g><g transform="translate(900, 100)"></g><g transform="translate(900, 200)"></g><g transform="translate(900, 300)"></g><g transform="translate(900, 400)"></g><g transform="translate(900, 500)"></g><g transform="translate(900, 600)"></g><g transform="translate(900, 700)"></g><g transform="translate(900, 800)"></g><g transform="translate(900, 900)"></g><g transform="translate(900, 1000)"></g><g transform="translate(900, 1100)"><g transform="translate(0, 100)"><path d="M 0 0 v -550 h 100 v 550 z" fill="transparent" class="click-receiver"></path></g></g><g transform="translate(1000, 0)"><g transform=""><path d="M 0 0 v 550 h 100 v -550 z" fill="transparent" class="click-receiver"></path></g></g><g transform="translate(1000, 100)"></g><g transform="translate(1000, 200)"></g><g transform="translate(1000, 300)"></g><g transform="translate(1000, 400)"></g><g transform="translate(1000, 500)"></g><g transform="translate(1000, 600)"></g><g transform="translate(1000, 700)"></g><g transform="translate(1000, 800)"></g><g transform="translate(1000, 900)"></g><g transform="translate(1000, 1000)"></g><g transform="translate(1000, 1100)"><g transform="translate(0, 100)"><path d="M 0 0 v -550 h 100 v 550 z" fill="transparent" class="click-receiver"></path></g></g><g transform="translate(1100, 0)"><g transform=""><path d="M 0 0 v 550 h 100 v -550 z" fill="transparent" class="click-receiver"></path></g></g><g transform="translate(1100, 100)"></g><g transform="translate(1100, 200)"></g><g transform="translate(1100, 300)"></g><g transform="translate(1100, 400)"></g><g transform="translate(1100, 500)"></g><g transform="translate(1100, 600)"></g><g transform="translate(1100, 700)"></g><g transform="translate(1100, 800)"></g><g transform="translate(1100, 900)"></g><g transform="translate(1100, 1000)"></g><g transform="translate(1100, 1100)"><g transform="translate(0, 100)"><path d="M 0 0 v -550 h 100 v 550 z" fill="transparent" class="click-receiver"></path></g></g><g transform="translate(1200, 0)"><g transform=""><path d="M 0 0 v 550 h 100 v -550 z" fill="transparent" class="click-receiver"></path></g></g><g transform="translate(1200, 100)"></g><g transform="translate(1200, 200)"></g><g transform="translate(1200, 300)"></g><g transform="translate(1200, 400)"></g><g transform="translate(1200, 500)"></g><g transform="translate(1200, 600)"></g><g transform="translate(1200, 700)"></g><g transform="translate(1200, 800)"></g><g transform="translate(1200, 900)"></g><g transform="translate(1200, 1000)"></g><g transform="translate(1200, 1100)"><g transform="translate(0, 100)"><path d="M 0 0 v -550 h 100 v 550 z" fill="transparent" class="click-receiver"></path></g></g><g transform="translate(1300, 0)"><g transform=""><path d="M 0 0 v 550 h 100 v -550 z" fill="transparent" class="click-receiver"></path></g></g><g transform="translate(1300, 100)"></g><g transform="translate(1300, 200)"></g><g transform="translate(1300, 300)"></g><g transform="translate(1300, 400)"></g><g transform="translate(1300, 500)"></g><g transform="translate(1300, 600)"></g><g transform="translate(1300, 700)"></g><g transform="translate(1300, 800)"></g><g transform="translate(1300, 900)"></g><g transform="translate(1300, 1000)"></g><g transform="translate(1300, 1100)"><g transform="translate(0, 100)"><path d="M 0 0 v -550 h 100 v 550 z" fill="transparent" class="click-receiver"></path></g></g></g></g></g></g><g transform=""><g transform="translate(5, 5)translate(50, 0)"><g transform="translate(-50, 0)"><g transform="translate(0, 600)"><g class="btns"></g></g></g></g></g></svg>