<svg viewBox="0 0 606 606" width="1" height="1" class="game-grid  fml_chess theme-dark theme-plain"><g transform="translate(3, 3)"><g transform=""><rect width="606" height="606" rx="9.5" ry="9.5" x="-3" y="-3" class="board-bg-rect" style="fill: var(--grid-o); stroke: none;"></rect><g class="area-grid-ug"></g><g class="base-grid"><g><g transform="translate(0, 75)"><g class="square"><rect fill="var(--field-dark)" stroke="var(--field-stroke)" stroke-width="0.3" x="0" width="75" y="0" height="75" style="opacity: 1;"></rect></g></g><g transform="translate(375, 525)"><g class="square"><rect fill="var(--field-light)" stroke="var(--field-stroke)" stroke-width="0.3" x="0" width="75" y="0" height="75" style="opacity: 1;"></rect></g></g><g transform="translate(300, 225)"><g class="square"><rect fill="var(--field-dark)" stroke="var(--field-stroke)" stroke-width="0.3" x="0" width="75" y="0" height="75" style="opacity: 1;"></rect></g></g><g transform="translate(225, 300)"><g class="square"><rect fill="var(--field-dark)" stroke="var(--field-stroke)" stroke-width="0.3" x="0" width="75" y="0" height="75" style="opacity: 1;"></rect></g></g><g transform="translate(75, 150)"><g class="square"><rect fill="var(--field-dark)" stroke="var(--field-stroke)" stroke-width="0.3" x="0" width="75" y="0" height="75" style="opacity: 1;"></rect></g></g><g transform="translate(0, 375)"><g class="square"><rect fill="var(--field-dark)" stroke="var(--field-stroke)" stroke-width="0.3" x="0" width="75" y="0" height="75" style="opacity: 1;"></rect></g></g><g transform=""><g class="square"><path fill="var(--field-light)" stroke="var(--field-stroke)" stroke-width="0.3" d="M 8 0 h 67 v 75 h -75 v -67 a 8 8 0 0 1 8 -8 z" style="opacity: 1;"></path></g></g><g transform="translate(375, 225)"><g class="square"><rect fill="var(--field-light)" stroke="var(--field-stroke)" stroke-width="0.3" x="0" width="75" y="0" height="75" style="opacity: 1;"></rect></g></g><g transform="translate(150, 150)"><g class="square"><rect fill="var(--field-light)" stroke="var(--field-stroke)" stroke-width="0.3" x="0" width="75" y="0" height="75" style="opacity: 1;"></rect></g></g><g transform="translate(75, 375)"><g class="square"><rect fill="var(--field-light)" stroke="var(--field-stroke)" stroke-width="0.3" x="0" width="75" y="0" height="75" style="opacity: 1;"></rect></g></g><g transform="translate(225, 150)"><g class="square"><rect fill="var(--field-dark)" stroke="var(--field-stroke)" stroke-width="0.3" x="0" width="75" y="0" height="75" style="opacity: 1;"></rect></g></g><g transform="translate(300, 450)"><g class="square"><rect fill="var(--field-light)" stroke="var(--field-stroke)" stroke-width="0.3" x="0" width="75" y="0" height="75" style="opacity: 1;"></rect></g></g><g transform="translate(525, 75)"><g class="square"><rect fill="var(--field-light)" stroke="var(--field-stroke)" stroke-width="0.3" x="0" width="75" y="0" height="75" style="opacity: 1;"></rect></g></g><g transform="translate(0, 525)"><g class="square"><path fill="var(--field-dark)" stroke="var(--field-stroke)" stroke-width="0.3" d="M 0 0 h 75 v 75 h -67 a 8 8 0 0 1 -8 -8 v -67 z" style="opacity: 1;"></path></g></g><g transform="translate(150, 300)"><g class="square"><rect fill="var(--field-light)" stroke="var(--field-stroke)" stroke-width="0.3" x="0" width="75" y="0" height="75" style="opacity: 1;"></rect></g></g><g transform="translate(525, 150)"><g class="square"><rect fill="var(--field-dark)" stroke="var(--field-stroke)" stroke-width="0.3" x="0" width="75" y="0" height="75" style="opacity: 1;"></rect></g></g><g transform="translate(300, 150)"><g class="square"><rect fill="var(--field-light)" stroke="var(--field-stroke)" stroke-width="0.3" x="0" width="75" y="0" height="75" style="opacity: 1;"></rect></g></g><g transform="translate(75, 225)"><g class="square"><rect fill="var(--field-light)" stroke="var(--field-stroke)" stroke-width="0.3" x="0" width="75" y="0" height="75" style="opacity: 1;"></rect></g></g><g transform="translate(375, 375)"><g class="square"><rect fill="var(--field-light)" stroke="var(--field-stroke)" stroke-width="0.3" x="0" width="75" y="0" height="75" style="opacity: 1;"></rect></g></g><g transform="translate(375, 450)"><g class="square"><rect fill="var(--field-dark)" stroke="var(--field-stroke)" stroke-width="0.3" x="0" width="75" y="0" height="75" style="opacity: 1;"></rect></g></g><g transform="translate(150, 225)"><g class="square"><rect fill="var(--field-dark)" stroke="var(--field-stroke)" stroke-width="0.3" x="0" width="75" y="0" height="75" style="opacity: 1;"></rect></g></g><g transform="translate(375, 150)"><g class="square"><rect fill="var(--field-dark)" stroke="var(--field-stroke)" stroke-width="0.3" x="0" width="75" y="0" height="75" style="opacity: 1;"></rect></g></g><g transform="translate(300, 525)"><g class="square"><rect fill="var(--field-dark)" stroke="var(--field-stroke)" stroke-width="0.3" x="0" width="75" y="0" height="75" style="opacity: 1;"></rect></g></g><g transform="translate(225, 75)"><g class="square"><rect fill="var(--field-light)" stroke="var(--field-stroke)" stroke-width="0.3" x="0" width="75" y="0" height="75" style="opacity: 1;"></rect></g></g><g transform="translate(525, 0)"><g class="square"><path fill="var(--field-dark)" stroke="var(--field-stroke)" stroke-width="0.3" d="M 0 0 h 67 a 8 8 0 0 1 8 8 v 67 h -75 v -75 z" style="opacity: 1;"></path></g></g><g transform="translate(0, 150)"><g class="square"><rect fill="var(--field-light)" stroke="var(--field-stroke)" stroke-width="0.3" x="0" width="75" y="0" height="75" style="opacity: 1;"></rect></g></g><g transform="translate(375, 75)"><g class="square"><rect fill="var(--field-light)" stroke="var(--field-stroke)" stroke-width="0.3" x="0" width="75" y="0" height="75" style="opacity: 1;"></rect></g></g><g transform="translate(225, 0)"><g class="square"><rect fill="var(--field-dark)" stroke="var(--field-stroke)" stroke-width="0.3" x="0" width="75" y="0" height="75" style="opacity: 1;"></rect></g></g><g transform="translate(150, 525)"><g class="square"><rect fill="var(--field-dark)" stroke="var(--field-stroke)" stroke-width="0.3" x="0" width="75" y="0" height="75" style="opacity: 1;"></rect></g></g><g transform="translate(0, 450)"><g class="square"><rect fill="var(--field-light)" stroke="var(--field-stroke)" stroke-width="0.3" x="0" width="75" y="0" height="75" style="opacity: 1;"></rect></g></g><g transform="translate(300, 375)"><g class="square"><rect fill="var(--field-dark)" stroke="var(--field-stroke)" stroke-width="0.3" x="0" width="75" y="0" height="75" style="opacity: 1;"></rect></g></g><g transform="translate(75, 75)"><g class="square"><rect fill="var(--field-light)" stroke="var(--field-stroke)" stroke-width="0.3" x="0" width="75" y="0" height="75" style="opacity: 1;"></rect></g></g><g transform="translate(450, 0)"><g class="square"><rect fill="var(--field-light)" stroke="var(--field-stroke)" stroke-width="0.3" x="0" width="75" y="0" height="75" style="opacity: 1;"></rect></g></g><g transform="translate(525, 300)"><g class="square"><rect fill="var(--field-dark)" stroke="var(--field-stroke)" stroke-width="0.3" x="0" width="75" y="0" height="75" style="opacity: 1;"></rect></g></g><g transform="translate(525, 525)"><g class="square"><path fill="var(--field-light)" stroke="var(--field-stroke)" stroke-width="0.3" d="M 0 0 h 75 v 67 a 8 8 0 0 1 -8 8 h -67 v -75 z" style="opacity: 1;"></path></g></g><g transform="translate(225, 225)"><g class="square"><rect fill="var(--field-light)" stroke="var(--field-stroke)" stroke-width="0.3" x="0" width="75" y="0" height="75" style="opacity: 1;"></rect></g></g><g transform="translate(375, 0)"><g class="square"><rect fill="var(--field-dark)" stroke="var(--field-stroke)" stroke-width="0.3" x="0" width="75" y="0" height="75" style="opacity: 1;"></rect></g></g><g transform="translate(375, 300)"><g class="square"><rect fill="var(--field-dark)" stroke="var(--field-stroke)" stroke-width="0.3" x="0" width="75" y="0" height="75" style="opacity: 1;"></rect></g></g><g transform="translate(150, 450)"><g class="square"><rect fill="var(--field-light)" stroke="var(--field-stroke)" stroke-width="0.3" x="0" width="75" y="0" height="75" style="opacity: 1;"></rect></g></g><g transform="translate(450, 225)"><g class="square"><rect fill="var(--field-dark)" stroke="var(--field-stroke)" stroke-width="0.3" x="0" width="75" y="0" height="75" style="opacity: 1;"></rect></g></g><g transform="translate(225, 375)"><g class="square"><rect fill="var(--field-light)" stroke="var(--field-stroke)" stroke-width="0.3" x="0" width="75" y="0" height="75" style="opacity: 1;"></rect></g></g><g transform="translate(450, 450)"><g class="square"><rect fill="var(--field-light)" stroke="var(--field-stroke)" stroke-width="0.3" x="0" width="75" y="0" height="75" style="opacity: 1;"></rect></g></g><g transform="translate(75, 300)"><g class="square"><rect fill="var(--field-dark)" stroke="var(--field-stroke)" stroke-width="0.3" x="0" width="75" y="0" height="75" style="opacity: 1;"></rect></g></g><g transform="translate(450, 525)"><g class="square"><rect fill="var(--field-dark)" stroke="var(--field-stroke)" stroke-width="0.3" x="0" width="75" y="0" height="75" style="opacity: 1;"></rect></g></g><g transform="translate(75, 525)"><g class="square"><rect fill="var(--field-light)" stroke="var(--field-stroke)" stroke-width="0.3" x="0" width="75" y="0" height="75" style="opacity: 1;"></rect></g></g><g transform="translate(0, 225)"><g class="square"><rect fill="var(--field-dark)" stroke="var(--field-stroke)" stroke-width="0.3" x="0" width="75" y="0" height="75" style="opacity: 1;"></rect></g></g><g transform="translate(450, 375)"><g class="square"><rect fill="var(--field-dark)" stroke="var(--field-stroke)" stroke-width="0.3" x="0" width="75" y="0" height="75" style="opacity: 1;"></rect></g></g><g transform="translate(150, 75)"><g class="square"><rect fill="var(--field-dark)" stroke="var(--field-stroke)" stroke-width="0.3" x="0" width="75" y="0" height="75" style="opacity: 1;"></rect></g></g><g transform="translate(300, 75)"><g class="square"><rect fill="var(--field-dark)" stroke="var(--field-stroke)" stroke-width="0.3" x="0" width="75" y="0" height="75" style="opacity: 1;"></rect></g></g><g transform="translate(525, 375)"><g class="square"><rect fill="var(--field-light)" stroke="var(--field-stroke)" stroke-width="0.3" x="0" width="75" y="0" height="75" style="opacity: 1;"></rect></g></g><g transform="translate(225, 450)"><g class="square"><rect fill="var(--field-dark)" stroke="var(--field-stroke)" stroke-width="0.3" x="0" width="75" y="0" height="75" style="opacity: 1;"></rect></g></g><g transform="translate(450, 75)"><g class="square"><rect fill="var(--field-dark)" stroke="var(--field-stroke)" stroke-width="0.3" x="0" width="75" y="0" height="75" style="opacity: 1;"></rect></g></g><g transform="translate(75, 450)"><g class="square"><rect fill="var(--field-dark)" stroke="var(--field-stroke)" stroke-width="0.3" x="0" width="75" y="0" height="75" style="opacity: 1;"></rect></g></g><g transform="translate(300, 300)"><g class="square"><rect fill="var(--field-light)" stroke="var(--field-stroke)" stroke-width="0.3" x="0" width="75" y="0" height="75" style="opacity: 1;"></rect></g></g><g transform="translate(225, 525)"><g class="square"><rect fill="var(--field-light)" stroke="var(--field-stroke)" stroke-width="0.3" x="0" width="75" y="0" height="75" style="opacity: 1;"></rect></g></g><g transform="translate(75, 0)"><g class="square"><rect fill="var(--field-dark)" stroke="var(--field-stroke)" stroke-width="0.3" x="0" width="75" y="0" height="75" style="opacity: 1;"></rect></g></g><g transform="translate(525, 225)"><g class="square"><rect fill="var(--field-light)" stroke="var(--field-stroke)" stroke-width="0.3" x="0" width="75" y="0" height="75" style="opacity: 1;"></rect></g></g><g transform="translate(150, 0)"><g class="square"><rect fill="var(--field-light)" stroke="var(--field-stroke)" stroke-width="0.3" x="0" width="75" y="0" height="75" style="opacity: 1;"></rect></g></g><g transform="translate(300, 0)"><g class="square"><rect fill="var(--field-light)" stroke="var(--field-stroke)" stroke-width="0.3" x="0" width="75" y="0" height="75" style="opacity: 1;"></rect></g></g><g transform="translate(450, 150)"><g class="square"><rect fill="var(--field-light)" stroke="var(--field-stroke)" stroke-width="0.3" x="0" width="75" y="0" height="75" style="opacity: 1;"></rect></g></g><g transform="translate(450, 300)"><g class="square"><rect fill="var(--field-light)" stroke="var(--field-stroke)" stroke-width="0.3" x="0" width="75" y="0" height="75" style="opacity: 1;"></rect></g></g><g transform="translate(150, 375)"><g class="square"><rect fill="var(--field-dark)" stroke="var(--field-stroke)" stroke-width="0.3" x="0" width="75" y="0" height="75" style="opacity: 1;"></rect></g></g><g transform="translate(0, 300)"><g class="square"><rect fill="var(--field-light)" stroke="var(--field-stroke)" stroke-width="0.3" x="0" width="75" y="0" height="75" style="opacity: 1;"></rect></g></g><g transform="translate(525, 450)"><g class="square"><rect fill="var(--field-dark)" stroke="var(--field-stroke)" stroke-width="0.3" x="0" width="75" y="0" height="75" style="opacity: 1;"></rect></g></g></g></g><g class="area-grid-bg-mid"></g><g class="area-grid-bg"></g><g class="e-grid" transform=""><g><g class="tl-box" style="transition: transform 300ms linear 0s; transform: translate(37.5px, 487.5px);"><g class=" 1" transform=""><g><g transform="scale(1.53,1.53)"><g transform="translate(-25, -25)"><g class="asset-depth white"><g><g><path d="m21.503 27.594h6.9944m-9.4974-10.086c0 1.7315 0.7123 3.3873 1.9657 4.587l-3.6504 2.0999 0.43091 3.3988h4.3059c-0.79438 3.559-2.7548 7.3308-5.0622 8.6173s-5.2994 3.0968-4.8425 8.189l25.706 2.1e-5c0.45687-5.0922-2.5352-6.9025-4.8425-8.189-2.3074-1.2865-4.2678-5.0583-5.0622-8.6173h4.3059l0.43091-3.3988-3.6503-2.0999c1.2533-1.1996 1.9655-2.8554 1.9655-4.5869 3.11e-4 -3.3667-2.628-5.9118-6.0006-5.9118-3.3726-1.1e-5 -6.0008 2.545-6.0006 5.9117z" class="main"></path><path d="m24.962 11.537c1.1709-0.4586 9.5273 5.9057 0.64714 10.773l4.512 2.1-0.56221 3.125h2.6586l0.42868-3.3987-3.6504-2.0999c1.2534-1.1996 1.9618-2.5812 1.9646-4.3128-0.46888-5.4159-5.9985-6.1861-5.9985-6.1861zm-2.9485 15.998c4.5025 7.9337 9.4701 9.994 13.074 9.9646l-2.1157-1.347c-2.075-1.4895-4.7317-4.8572-5.0622-8.6177z" class="shadow"></path><path d="m21.983 22.213-1.647 2.3466-2.3561-0.01371 4.013-2.3234z" class="highlight"></path><path d="m24.307 12.267c-2.5425 0.1381-5.73 3.1733-4.3848 6.9183l0.19878 0.64312c-0.3298-3.4894 2.1268-7.1169 4.186-7.5614z" class="highlight"></path><path d="m17.863 37.625c-3.9839 2.3053-5.117 6.1402-5.117 6.1402-0.01037 0-0.54754-4.1751 3.9564-6.654 4.5039-2.4789 4.8215-6.1507 5.8602-8.8927-0.63708 3.7031-0.71573 7.1012-4.6996 9.4065z" class="highlight"></path></g></g></g></g></g></g></g></g><g class="tl-box" style="transition: transform 300ms linear 0s; transform: translate(112.5px, 487.5px);"><g class=" 2" transform=""><g><g transform="scale(1.53,1.53)"><g transform="translate(-25, -25)"><g class="asset-depth white"><g><g><path d="m21.503 27.594h6.9944m-9.4974-10.086c0 1.7315 0.7123 3.3873 1.9657 4.587l-3.6504 2.0999 0.43091 3.3988h4.3059c-0.79438 3.559-2.7548 7.3308-5.0622 8.6173s-5.2994 3.0968-4.8425 8.189l25.706 2.1e-5c0.45687-5.0922-2.5352-6.9025-4.8425-8.189-2.3074-1.2865-4.2678-5.0583-5.0622-8.6173h4.3059l0.43091-3.3988-3.6503-2.0999c1.2533-1.1996 1.9655-2.8554 1.9655-4.5869 3.11e-4 -3.3667-2.628-5.9118-6.0006-5.9118-3.3726-1.1e-5 -6.0008 2.545-6.0006 5.9117z" class="main"></path><path d="m24.962 11.537c1.1709-0.4586 9.5273 5.9057 0.64714 10.773l4.512 2.1-0.56221 3.125h2.6586l0.42868-3.3987-3.6504-2.0999c1.2534-1.1996 1.9618-2.5812 1.9646-4.3128-0.46888-5.4159-5.9985-6.1861-5.9985-6.1861zm-2.9485 15.998c4.5025 7.9337 9.4701 9.994 13.074 9.9646l-2.1157-1.347c-2.075-1.4895-4.7317-4.8572-5.0622-8.6177z" class="shadow"></path><path d="m21.983 22.213-1.647 2.3466-2.3561-0.01371 4.013-2.3234z" class="highlight"></path><path d="m24.307 12.267c-2.5425 0.1381-5.73 3.1733-4.3848 6.9183l0.19878 0.64312c-0.3298-3.4894 2.1268-7.1169 4.186-7.5614z" class="highlight"></path><path d="m17.863 37.625c-3.9839 2.3053-5.117 6.1402-5.117 6.1402-0.01037 0-0.54754-4.1751 3.9564-6.654 4.5039-2.4789 4.8215-6.1507 5.8602-8.8927-0.63708 3.7031-0.71573 7.1012-4.6996 9.4065z" class="highlight"></path></g></g></g></g></g></g></g></g><g class="tl-box" style="transition: transform 300ms linear 0s; transform: translate(187.5px, 487.5px);"><g class=" 3" transform=""><g><g transform="scale(1.53,1.53)"><g transform="translate(-25, -25)"><g class="asset-depth white"><g><g><path d="m21.503 27.594h6.9944m-9.4974-10.086c0 1.7315 0.7123 3.3873 1.9657 4.587l-3.6504 2.0999 0.43091 3.3988h4.3059c-0.79438 3.559-2.7548 7.3308-5.0622 8.6173s-5.2994 3.0968-4.8425 8.189l25.706 2.1e-5c0.45687-5.0922-2.5352-6.9025-4.8425-8.189-2.3074-1.2865-4.2678-5.0583-5.0622-8.6173h4.3059l0.43091-3.3988-3.6503-2.0999c1.2533-1.1996 1.9655-2.8554 1.9655-4.5869 3.11e-4 -3.3667-2.628-5.9118-6.0006-5.9118-3.3726-1.1e-5 -6.0008 2.545-6.0006 5.9117z" class="main"></path><path d="m24.962 11.537c1.1709-0.4586 9.5273 5.9057 0.64714 10.773l4.512 2.1-0.56221 3.125h2.6586l0.42868-3.3987-3.6504-2.0999c1.2534-1.1996 1.9618-2.5812 1.9646-4.3128-0.46888-5.4159-5.9985-6.1861-5.9985-6.1861zm-2.9485 15.998c4.5025 7.9337 9.4701 9.994 13.074 9.9646l-2.1157-1.347c-2.075-1.4895-4.7317-4.8572-5.0622-8.6177z" class="shadow"></path><path d="m21.983 22.213-1.647 2.3466-2.3561-0.01371 4.013-2.3234z" class="highlight"></path><path d="m24.307 12.267c-2.5425 0.1381-5.73 3.1733-4.3848 6.9183l0.19878 0.64312c-0.3298-3.4894 2.1268-7.1169 4.186-7.5614z" class="highlight"></path><path d="m17.863 37.625c-3.9839 2.3053-5.117 6.1402-5.117 6.1402-0.01037 0-0.54754-4.1751 3.9564-6.654 4.5039-2.4789 4.8215-6.1507 5.8602-8.8927-0.63708 3.7031-0.71573 7.1012-4.6996 9.4065z" class="highlight"></path></g></g></g></g></g></g></g></g><g class="tl-box" style="transition: transform 300ms linear 0s; transform: translate(262.5px, 487.5px);"><g class=" 4" transform=""><g><g transform="scale(1.53,1.53)"><g transform="translate(-25, -25)"><g class="asset-depth white"><g><g><path d="m21.503 27.594h6.9944m-9.4974-10.086c0 1.7315 0.7123 3.3873 1.9657 4.587l-3.6504 2.0999 0.43091 3.3988h4.3059c-0.79438 3.559-2.7548 7.3308-5.0622 8.6173s-5.2994 3.0968-4.8425 8.189l25.706 2.1e-5c0.45687-5.0922-2.5352-6.9025-4.8425-8.189-2.3074-1.2865-4.2678-5.0583-5.0622-8.6173h4.3059l0.43091-3.3988-3.6503-2.0999c1.2533-1.1996 1.9655-2.8554 1.9655-4.5869 3.11e-4 -3.3667-2.628-5.9118-6.0006-5.9118-3.3726-1.1e-5 -6.0008 2.545-6.0006 5.9117z" class="main"></path><path d="m24.962 11.537c1.1709-0.4586 9.5273 5.9057 0.64714 10.773l4.512 2.1-0.56221 3.125h2.6586l0.42868-3.3987-3.6504-2.0999c1.2534-1.1996 1.9618-2.5812 1.9646-4.3128-0.46888-5.4159-5.9985-6.1861-5.9985-6.1861zm-2.9485 15.998c4.5025 7.9337 9.4701 9.994 13.074 9.9646l-2.1157-1.347c-2.075-1.4895-4.7317-4.8572-5.0622-8.6177z" class="shadow"></path><path d="m21.983 22.213-1.647 2.3466-2.3561-0.01371 4.013-2.3234z" class="highlight"></path><path d="m24.307 12.267c-2.5425 0.1381-5.73 3.1733-4.3848 6.9183l0.19878 0.64312c-0.3298-3.4894 2.1268-7.1169 4.186-7.5614z" class="highlight"></path><path d="m17.863 37.625c-3.9839 2.3053-5.117 6.1402-5.117 6.1402-0.01037 0-0.54754-4.1751 3.9564-6.654 4.5039-2.4789 4.8215-6.1507 5.8602-8.8927-0.63708 3.7031-0.71573 7.1012-4.6996 9.4065z" class="highlight"></path></g></g></g></g></g></g></g></g><g class="tl-box" style="transition: transform 300ms linear 0s; transform: translate(337.5px, 487.5px);"><g class=" 5" transform=""><g><g transform="scale(1.53,1.53)"><g transform="translate(-25, -25)"><g class="asset-depth white"><g><g><path d="m21.503 27.594h6.9944m-9.4974-10.086c0 1.7315 0.7123 3.3873 1.9657 4.587l-3.6504 2.0999 0.43091 3.3988h4.3059c-0.79438 3.559-2.7548 7.3308-5.0622 8.6173s-5.2994 3.0968-4.8425 8.189l25.706 2.1e-5c0.45687-5.0922-2.5352-6.9025-4.8425-8.189-2.3074-1.2865-4.2678-5.0583-5.0622-8.6173h4.3059l0.43091-3.3988-3.6503-2.0999c1.2533-1.1996 1.9655-2.8554 1.9655-4.5869 3.11e-4 -3.3667-2.628-5.9118-6.0006-5.9118-3.3726-1.1e-5 -6.0008 2.545-6.0006 5.9117z" class="main"></path><path d="m24.962 11.537c1.1709-0.4586 9.5273 5.9057 0.64714 10.773l4.512 2.1-0.56221 3.125h2.6586l0.42868-3.3987-3.6504-2.0999c1.2534-1.1996 1.9618-2.5812 1.9646-4.3128-0.46888-5.4159-5.9985-6.1861-5.9985-6.1861zm-2.9485 15.998c4.5025 7.9337 9.4701 9.994 13.074 9.9646l-2.1157-1.347c-2.075-1.4895-4.7317-4.8572-5.0622-8.6177z" class="shadow"></path><path d="m21.983 22.213-1.647 2.3466-2.3561-0.01371 4.013-2.3234z" class="highlight"></path><path d="m24.307 12.267c-2.5425 0.1381-5.73 3.1733-4.3848 6.9183l0.19878 0.64312c-0.3298-3.4894 2.1268-7.1169 4.186-7.5614z" class="highlight"></path><path d="m17.863 37.625c-3.9839 2.3053-5.117 6.1402-5.117 6.1402-0.01037 0-0.54754-4.1751 3.9564-6.654 4.5039-2.4789 4.8215-6.1507 5.8602-8.8927-0.63708 3.7031-0.71573 7.1012-4.6996 9.4065z" class="highlight"></path></g></g></g></g></g></g></g></g><g class="tl-box" style="transition: transform 300ms linear 0s; transform: translate(412.5px, 487.5px);"><g class=" 6" transform=""><g><g transform="scale(1.53,1.53)"><g transform="translate(-25, -25)"><g class="asset-depth white"><g><g><path d="m21.503 27.594h6.9944m-9.4974-10.086c0 1.7315 0.7123 3.3873 1.9657 4.587l-3.6504 2.0999 0.43091 3.3988h4.3059c-0.79438 3.559-2.7548 7.3308-5.0622 8.6173s-5.2994 3.0968-4.8425 8.189l25.706 2.1e-5c0.45687-5.0922-2.5352-6.9025-4.8425-8.189-2.3074-1.2865-4.2678-5.0583-5.0622-8.6173h4.3059l0.43091-3.3988-3.6503-2.0999c1.2533-1.1996 1.9655-2.8554 1.9655-4.5869 3.11e-4 -3.3667-2.628-5.9118-6.0006-5.9118-3.3726-1.1e-5 -6.0008 2.545-6.0006 5.9117z" class="main"></path><path d="m24.962 11.537c1.1709-0.4586 9.5273 5.9057 0.64714 10.773l4.512 2.1-0.56221 3.125h2.6586l0.42868-3.3987-3.6504-2.0999c1.2534-1.1996 1.9618-2.5812 1.9646-4.3128-0.46888-5.4159-5.9985-6.1861-5.9985-6.1861zm-2.9485 15.998c4.5025 7.9337 9.4701 9.994 13.074 9.9646l-2.1157-1.347c-2.075-1.4895-4.7317-4.8572-5.0622-8.6177z" class="shadow"></path><path d="m21.983 22.213-1.647 2.3466-2.3561-0.01371 4.013-2.3234z" class="highlight"></path><path d="m24.307 12.267c-2.5425 0.1381-5.73 3.1733-4.3848 6.9183l0.19878 0.64312c-0.3298-3.4894 2.1268-7.1169 4.186-7.5614z" class="highlight"></path><path d="m17.863 37.625c-3.9839 2.3053-5.117 6.1402-5.117 6.1402-0.01037 0-0.54754-4.1751 3.9564-6.654 4.5039-2.4789 4.8215-6.1507 5.8602-8.8927-0.63708 3.7031-0.71573 7.1012-4.6996 9.4065z" class="highlight"></path></g></g></g></g></g></g></g></g><g class="tl-box" style="transition: transform 300ms linear 0s; transform: translate(487.5px, 487.5px);"><g class=" 7" transform=""><g><g transform="scale(1.53,1.53)"><g transform="translate(-25, -25)"><g class="asset-depth white"><g><g><path d="m21.503 27.594h6.9944m-9.4974-10.086c0 1.7315 0.7123 3.3873 1.9657 4.587l-3.6504 2.0999 0.43091 3.3988h4.3059c-0.79438 3.559-2.7548 7.3308-5.0622 8.6173s-5.2994 3.0968-4.8425 8.189l25.706 2.1e-5c0.45687-5.0922-2.5352-6.9025-4.8425-8.189-2.3074-1.2865-4.2678-5.0583-5.0622-8.6173h4.3059l0.43091-3.3988-3.6503-2.0999c1.2533-1.1996 1.9655-2.8554 1.9655-4.5869 3.11e-4 -3.3667-2.628-5.9118-6.0006-5.9118-3.3726-1.1e-5 -6.0008 2.545-6.0006 5.9117z" class="main"></path><path d="m24.962 11.537c1.1709-0.4586 9.5273 5.9057 0.64714 10.773l4.512 2.1-0.56221 3.125h2.6586l0.42868-3.3987-3.6504-2.0999c1.2534-1.1996 1.9618-2.5812 1.9646-4.3128-0.46888-5.4159-5.9985-6.1861-5.9985-6.1861zm-2.9485 15.998c4.5025 7.9337 9.4701 9.994 13.074 9.9646l-2.1157-1.347c-2.075-1.4895-4.7317-4.8572-5.0622-8.6177z" class="shadow"></path><path d="m21.983 22.213-1.647 2.3466-2.3561-0.01371 4.013-2.3234z" class="highlight"></path><path d="m24.307 12.267c-2.5425 0.1381-5.73 3.1733-4.3848 6.9183l0.19878 0.64312c-0.3298-3.4894 2.1268-7.1169 4.186-7.5614z" class="highlight"></path><path d="m17.863 37.625c-3.9839 2.3053-5.117 6.1402-5.117 6.1402-0.01037 0-0.54754-4.1751 3.9564-6.654 4.5039-2.4789 4.8215-6.1507 5.8602-8.8927-0.63708 3.7031-0.71573 7.1012-4.6996 9.4065z" class="highlight"></path></g></g></g></g></g></g></g></g><g class="tl-box" style="transition: transform 300ms linear 0s; transform: translate(562.5px, 487.5px);"><g class=" 8" transform=""><g><g transform="scale(1.53,1.53)"><g transform="translate(-25, -25)"><g class="asset-depth white"><g><g><path d="m21.503 27.594h6.9944m-9.4974-10.086c0 1.7315 0.7123 3.3873 1.9657 4.587l-3.6504 2.0999 0.43091 3.3988h4.3059c-0.79438 3.559-2.7548 7.3308-5.0622 8.6173s-5.2994 3.0968-4.8425 8.189l25.706 2.1e-5c0.45687-5.0922-2.5352-6.9025-4.8425-8.189-2.3074-1.2865-4.2678-5.0583-5.0622-8.6173h4.3059l0.43091-3.3988-3.6503-2.0999c1.2533-1.1996 1.9655-2.8554 1.9655-4.5869 3.11e-4 -3.3667-2.628-5.9118-6.0006-5.9118-3.3726-1.1e-5 -6.0008 2.545-6.0006 5.9117z" class="main"></path><path d="m24.962 11.537c1.1709-0.4586 9.5273 5.9057 0.64714 10.773l4.512 2.1-0.56221 3.125h2.6586l0.42868-3.3987-3.6504-2.0999c1.2534-1.1996 1.9618-2.5812 1.9646-4.3128-0.46888-5.4159-5.9985-6.1861-5.9985-6.1861zm-2.9485 15.998c4.5025 7.9337 9.4701 9.994 13.074 9.9646l-2.1157-1.347c-2.075-1.4895-4.7317-4.8572-5.0622-8.6177z" class="shadow"></path><path d="m21.983 22.213-1.647 2.3466-2.3561-0.01371 4.013-2.3234z" class="highlight"></path><path d="m24.307 12.267c-2.5425 0.1381-5.73 3.1733-4.3848 6.9183l0.19878 0.64312c-0.3298-3.4894 2.1268-7.1169 4.186-7.5614z" class="highlight"></path><path d="m17.863 37.625c-3.9839 2.3053-5.117 6.1402-5.117 6.1402-0.01037 0-0.54754-4.1751 3.9564-6.654 4.5039-2.4789 4.8215-6.1507 5.8602-8.8927-0.63708 3.7031-0.71573 7.1012-4.6996 9.4065z" class="highlight"></path></g></g></g></g></g></g></g></g><g class="tl-box" style="transition: transform 300ms linear 0s; transform: translate(37.5px, 562.5px);"><g class=" 9" transform=""><g><g transform="scale(1.53,1.53)"><g transform="translate(-25, -25)"><g class="asset-depth white"><g><g><path d="m17.932 20.414c4.9056-0.74066 9.5787-0.57845 14.136 0m-17.885-10.752c-1.0592 8.7669 1.1034 10.677 3.7482 10.752l-3.3154 18.159h20.767l-3.3154-18.159c2.6448-0.0745 4.8074-1.9849 3.7482-10.752l-3.6072-0.52917-1.0733 3.6427-3.1416-0.0995-0.5222-3.754h-4.9448l-0.52127 3.754-3.142 0.0995-1.0733-3.6427z" class="main"></path><path d="m17.932 20.414c6.828 0 13.118 0.40763 14.948 16.572l2.3187 0.38585-3.1311-16.428c-0.03144-0.30772-6.0881-1.8224-14.136-0.52917z" class="shadow"></path><path d="m14.777 10.219 2.2766-0.28599c-1.9137 0.31197-2.3128 5.2958-2.3128 5.2958-0.23801-0.17655-0.18808-4.9033 0.03618-5.0098z" class="highlight"></path><path d="m25.276 9.5507c-1.6477 0-2.5191 2.7475-2.5191 2.7475l0.33726-2.7288z" class="highlight"></path><path d="m32.671 9.8162 0.93397 0.11826c-0.78478 0.49954-1.5905 1.9884-1.5905 1.9884z" class="highlight"></path><path d="m18.472 20.964 2.6206-0.29312c-2.6206 0.29312-4.8888 13.113-4.8888 13.113z" class="highlight"></path><path d="m34.013 9.3979c0.35682 6.3635-1.9499 10.603-8.0415 10.536l4.778 0.56323c7.5226 0.30904 5.101-10.806 5.0671-10.835z" class="shadow"></path></g><g><path d="m25 36.457s-9.1309 0.048-11.691 1.6192c-1.7273 1.0602-2.1348 3.6514-1.8998 6.3237h27.182c0.2349-2.6723-0.1726-5.2636-1.8999-6.3237-2.5597-1.5711-11.691-1.6192-11.691-1.6192z" class="main"></path><path d="m25 37.146s-8.7121-0.13732-11.624 1.6658c-0.36985 0.22905-0.69926 0.83944-0.95359 1.3902 0.26077-0.3313 0.50213-0.61301 0.88664-0.84902 2.5597-1.5711 11.691-1.6191 11.691-1.6191s9.1318 0.04794 11.692 1.6191c0.39104 0.24 0.59242 0.53161 0.85561 0.87009 0.02583-0.0759-0.40837-1.1579-1.1438-1.5962-2.7554-1.492-11.403-1.4808-11.403-1.4808z" class="highlight"></path></g></g></g></g></g></g></g></g><g class="tl-box" style="transition: transform 300ms linear 0s; transform: translate(112.5px, 562.5px);"><g class=" 10" transform=""><g><g transform="scale(1.53,1.53)"><g transform="translate(-25, -25)"><g class="asset-depth white"><g><g><path d="m25.192 23.015c-0.16544 6.9672-11.758 5.2189-11.516 18.104l22.86 0.1184c-2.094-6.442 9.69-25.16-11.931-32.258v-1e-4s-2.4381-2.601-5.9655-2.8237l0.2227 3.5347-4.5583 4.5816c-2.6294 3.1455-8.7347 8.3784-7.7513 9.6111 3.1158 5.3041 6.3306 4.4316 6.3306 4.4316 4.2418-4.5433 5.8193-2.0894 12.309-5.2997z" stroke-linejoin="round" class="main"></path><path d="m19.32 14.694c-0.7757 0.86088-0.6902 1.1156-0.8137 2.1503 0.8055 0.12316 1.5069 0.23982 2.2486 0.0656 2.3809-1.262 0.075-3.4026-1.4347-2.2162z" class="knight-eye"></path><path d="m9.1916 22.166c-0.8496 0.4078-0.9984 0.9608-1.0565 1.4754 0.7288 0.4181 1.8765-0.1255 2.0412-1.4316l-0.9846-0.044z" class="knight-nose"></path><path d="m8.1905 25.15s0.6525 1.1374-1.1019-1.641c0.6594-1.9774 8.263-9.0796 12.438-13.534l-0.1836-3.0857s1.0689 1.6901 1.2475 3.468c-4.3898 4.39-12.22 10.833-12.824 13.213 0.023 0.6738 0.24 1.0278 0.4231 1.5797z" class="highlight"></path><path d="m13.26 28.257c2.0291-3.3367 8.3914-3.2239 11.932-5.2424 0.3228 0.1024 0.1304 1.3697 0.2398 1.23 0.8476-1.0903 2.9259-3.279 0.8684-6.8743 0.5214 5.9575-13.718 5.5912-15.89 10.305-0.2005 0.4355 2.1818 0.7932 2.85 0.5818z" class="shadow"></path><path d="m25.8 23.781c-1.0131 5.8132-9.5449 6.1169-10.988 12.641 2.8332-6.4058 10.762-5.7136 10.988-12.641z" class="highlight"></path><path d="m18.64 6.1556s3.051 0.73807 4.9045 3.9825c20.499 7.1536 7.6413 27.937 5.7883 31.073l7.2034 0.026c-1.9871-3.2431 9.5482-25.597-11.931-32.258-1.7757-1.0691-2.7677-2.6092-5.9655-2.8238z" class="shadow"></path></g><g><path d="m25 36.457s-9.1309 0.048-11.691 1.6192c-1.7273 1.0602-2.1348 3.6514-1.8998 6.3237h27.182c0.2349-2.6723-0.1726-5.2636-1.8999-6.3237-2.5597-1.5711-11.691-1.6192-11.691-1.6192z" class="main"></path><path d="m25 37.146s-8.7121-0.13732-11.624 1.6658c-0.36985 0.22905-0.69926 0.83944-0.95359 1.3902 0.26077-0.3313 0.50213-0.61301 0.88664-0.84902 2.5597-1.5711 11.691-1.6191 11.691-1.6191s9.1318 0.04794 11.692 1.6191c0.39104 0.24 0.59242 0.53161 0.85561 0.87009 0.02583-0.0759-0.40837-1.1579-1.1438-1.5962-2.7554-1.492-11.403-1.4808-11.403-1.4808z" class="highlight"></path></g></g></g></g></g></g></g></g><g class="tl-box" style="transition: transform 300ms linear 0s; transform: translate(187.5px, 562.5px);"><g class=" 11" transform=""><g><g transform="scale(1.53,1.53)"><g transform="translate(-25, -25)"><g class="asset-depth white"><g><g><path d="m25 5.767c-2.1056 0-3.8124 0.87865-3.8121 1.9632l1.5166 2.6505c-16.049 14.089-5.707 27.135-5.707 27.135h16.006s7.0496-8.6714 0.76227-19.51l-2.989 4.8276c-0.67072 1.0833-1.9632 1.4898-2.898 0.91107-0.93477-0.57872-1.1472-1.917-0.47652-3.0003l3.8867-6.2771c-1.1073-1.3449-2.4252-2.7101-3.9926-4.0861l1.5166-2.6505c0-1.0846-1.7066-1.9632-3.8121-1.9632z" class="main"></path><path d="m25 5.767c-0.8164 0-1.5711 0.1335-2.1913 0.35847 4.3387 0.84718 4.9765 1.1195 2.5601 4.3506l3.246 3.5665c-3.6565 8.2403-1.6037 7.9919-1.6037 7.9919s0.6964-2.6485 4.1117-7.7689c-1.0722-1.2796-2.3377-2.578-3.8266-3.8851l1.5161-2.6501c1e-4 -1.0845-1.7067-1.9631-3.8123-1.9634zm8.7655 12.238-1.0091 1.5127c3.7363 8.4129-4.1347 17.997-4.1347 17.997h4.3815c0.1581 0.0339 6.958-8.8438 0.76227-19.51z" class="shadow"></path><path d="m15.145 31.721c-0.2191-0.0314-3.4233-9.7859 5.7543-18.751-2.3019 1.895-7.1351 13.163-5.7543 18.751z" class="highlight"></path><path d="m23.292 10.196-1.4772-2.5943s0.2425-0.72175 1.7808-1.0472c-1.7266 1.3502-0.988 1.6622-0.3036 3.6415z" class="highlight"></path></g><g><path d="m25 36.457s-9.1309 0.048-11.691 1.6192c-1.7273 1.0602-2.1348 3.6514-1.8998 6.3237h27.182c0.2349-2.6723-0.1726-5.2636-1.8999-6.3237-2.5597-1.5711-11.691-1.6192-11.691-1.6192z" class="main"></path><path d="m25 37.146s-8.7121-0.13732-11.624 1.6658c-0.36985 0.22905-0.69926 0.83944-0.95359 1.3902 0.26077-0.3313 0.50213-0.61301 0.88664-0.84902 2.5597-1.5711 11.691-1.6191 11.691-1.6191s9.1318 0.04794 11.692 1.6191c0.39104 0.24 0.59242 0.53161 0.85561 0.87009 0.02583-0.0759-0.40837-1.1579-1.1438-1.5962-2.7554-1.492-11.403-1.4808-11.403-1.4808z" class="highlight"></path></g></g></g></g></g></g></g></g><g class="tl-box" style="transition: transform 300ms linear 0s; transform: translate(262.5px, 562.5px);"><g class=" 12" transform=""><g><g transform="scale(1.53,1.53)"><g transform="translate(-25, -25)"><g class="asset-depth white"><g><g><path d="m24.959 5.0937a2.9585 3.3158 90 0 0-3.3155 2.9585 2.9585 3.3158 90 0 0 3.3155 2.9585 2.9585 3.3158 90 0 0 3.316-2.9585 2.9585 3.3158 90 0 0-3.316-2.9585z" class="main"></path><path d="m24.836 5.7323c-0.37582-0.20962-3.7243 0.80586-2.1848 3.5753-0.23547-1.5446 0.43755-3.2031 2.1848-3.5753z" class="highlight"></path><path d="m24.959 11.011c-6.5068 0-9.5953 5.8843-9.5951 10.358h19.263c1.99e-4 -4.4741-3.1607-10.358-9.6676-10.358z" class="main"></path><path d="m18.161 14.977c1.0418-1.4783 2.9196-3.2199 6.8404-3.3796-0.31072 0.27709-4.7888 1.1374-6.8404 3.3796z" class="highlight"></path><path d="m24.836 5.0067s0.04572 0.23808-1e-4 0c2.4799 1.1289 2.0497 3.8473 0.81734 5.547 7.3536 3.8036 2.2125 8.669 2.2122 8.6681h2.7008c1.7619 1.287 7.2086-2.7409-3.8351-8.669 3.5276-3.1154 0.09642-5.6072-1.8952-5.5466z" class="shadow"></path><path d="m25 15.225c-1.971 0-2.3483 2.6494-4.1366 2.8592-1.8213 0.21366-3.3816-2.3114-5.2505-1.7361-1.4945 0.46001-0.77828 2.5999-1.8053 3.1752-1.4018 0.78508-3.1845-1.8324-5.2902-0.29827 6.8387 8.8288 8.0859 12.377 7.9833 18.819l16.998-9.9e-5c-0.10268-6.4426 1.1445-9.9904 7.9831-18.819-2.1056-1.5341-3.8884 1.0833-5.2901 0.29827-1.0271-0.57526-0.31082-2.7152-1.8053-3.1752-1.8688-0.57526-3.4293 1.9498-5.2506 1.7361-1.7884-0.20981-2.1655-2.8592-4.1365-2.8592z" class="main"></path><path d="m9.8952 19.34c-0.13588-0.0099-0.33139 0.05615-0.45862 0.08471 3.0815 4.0999 6.5751 9.5372 7.0991 12.417-1.4062-4.9323-3.2664-9.5622-6.1403-12.472z" class="highlight"></path><path d="m39.974 18.735c-9.4852 10.003-9.9239 17.985-16.941 19.31h10.476c-0.10268-6.4427 1.1445-9.9905 7.9831-18.819 0 0-0.68803-0.75582-1.5179-0.49124z" class="shadow"></path><path d="m14.912 18.945c0.20277-0.08767 1.1841-1.8078 1.9805-1.9501-1.42-0.34555-1.6188-0.0463-1.9805 1.9501z" class="highlight"></path><path d="m22.511 17.876c0.95342-0.84704 1.6333-2.6551 3.2379-1.8453-0.79746-0.22882-2.2148 1.0403-3.2379 1.8453z" class="highlight"></path><path d="m31.12 18.133c0.20983 0.06994 2.1762-1.6423 2.8625-1.2176 0 0-1.4313 1.1196-2.8625 1.2176z" class="highlight"></path></g><g><path d="m25 36.457s-9.1309 0.048-11.691 1.6192c-1.7273 1.0602-2.1348 3.6514-1.8998 6.3237h27.182c0.2349-2.6723-0.1726-5.2636-1.8999-6.3237-2.5597-1.5711-11.691-1.6192-11.691-1.6192z" class="main"></path><path d="m25 37.146s-8.7121-0.13732-11.624 1.6658c-0.36985 0.22905-0.69926 0.83944-0.95359 1.3902 0.26077-0.3313 0.50213-0.61301 0.88664-0.84902 2.5597-1.5711 11.691-1.6191 11.691-1.6191s9.1318 0.04794 11.692 1.6191c0.39104 0.24 0.59242 0.53161 0.85561 0.87009 0.02583-0.0759-0.40837-1.1579-1.1438-1.5962-2.7554-1.492-11.403-1.4808-11.403-1.4808z" class="highlight"></path></g></g></g></g></g></g></g></g><g class="tl-box" style="transition: transform 300ms linear 0s; transform: translate(337.5px, 562.5px);"><g class=" 13" transform=""><g><g transform="scale(1.53,1.53)"><g transform="translate(-25, -25)"><g class="asset-depth white"><g><g><path d="m27.67 15.225v-3.5436h4.4396v-4.4293h-4.9344v-3.8933h-4.366v3.8933h-4.9344v4.4293h4.4396v3.5436" class="main"></path><rect x="20.299" y="14.215" width="9.3984" height="2.7873" ry="1.3937" class="main"></rect><path d="m26.416 14.215c0.72479 0 1.3082 0.62142 1.3082 1.3935 0 0.77209-0.58336 1.3935-1.3082 1.3935h1.9736c0.72478 0 1.3081-0.62144 1.3081-1.3935 0-0.77209-0.58336-1.3935-1.3081-1.3935z" class="shadow"></path><path d="m21.631 14.842c-0.40169 0-0.72499 0.34468-0.72499 0.77259 0 0.42787 0.3233 0.77227 0.72499 0.77227h0.87379c-0.40169 0-0.72499-0.3444-0.72499-0.77227 0-0.42791 0.3233-0.77259 0.72499-0.77259z" class="shadow"></path><path d="m33.635 36.986s7.776-13.318 6.6127-15.916c-1.1632-2.5964-8.4802-4.4974-15.248-4.4974-6.7677 0-14.084 1.9004-15.248 4.4974-1.1632 2.5966 6.6127 15.916 6.6127 15.916z" class="main"></path><path d="m24.996 16.576c15.938 2.6216 12.573 9.3539 6.6406 22.543l2.0273-1.7288s7.7472-13.723 6.5839-16.32c-1.5452-2.8334-7.5027-4.1592-15.252-4.4945z" class="shadow"></path><path d="m23.765 17.295c-3.904-0.18436-14.621 1.8014-13.503 5.0167 0.81724 3.7274 2.7544 7.244 4.5085 10.504-5.6872-10.335-5.9421-13.774 8.9943-15.521z" class="highlight"></path><path d="m23.391 3.997-0.01613 3.3123h0.54565l0.01622-3.3123zm-4.9311 3.8699-0.0075 3.2077h0.77316l0.0075-3.2077zm4.4128 3.213 0.02573 2.4859h0.52l-0.02573-2.4859z" class="highlight"></path><path d="m26.189 3.3582-1.9e-5 3.8935h0.98678l2.8e-5 -3.8935zm4.441 3.8937v4.9453h1.4802v-4.9453zm-4.4396 4.4291 2.7e-5 2.4923h1.4802l-2.8e-5 -2.4923z" class="shadow"></path></g><g><path d="m25 36.457s-9.1309 0.048-11.691 1.6192c-1.7273 1.0602-2.1348 3.6514-1.8998 6.3237h27.182c0.2349-2.6723-0.1726-5.2636-1.8999-6.3237-2.5597-1.5711-11.691-1.6192-11.691-1.6192z" class="main"></path><path d="m25 37.146s-8.7121-0.13732-11.624 1.6658c-0.36985 0.22905-0.69926 0.83944-0.95359 1.3902 0.26077-0.3313 0.50213-0.61301 0.88664-0.84902 2.5597-1.5711 11.691-1.6191 11.691-1.6191s9.1318 0.04794 11.692 1.6191c0.39104 0.24 0.59242 0.53161 0.85561 0.87009 0.02583-0.0759-0.40837-1.1579-1.1438-1.5962-2.7554-1.492-11.403-1.4808-11.403-1.4808z" class="highlight"></path></g></g></g></g></g></g></g></g><g class="tl-box" style="transition: transform 300ms linear 0s; transform: translate(412.5px, 562.5px);"><g class=" 14" transform=""><g><g transform="scale(1.53,1.53)"><g transform="translate(-25, -25)"><g class="asset-depth white"><g><g><path d="m25 5.767c-2.1056 0-3.8124 0.87865-3.8121 1.9632l1.5166 2.6505c-16.049 14.089-5.707 27.135-5.707 27.135h16.006s7.0496-8.6714 0.76227-19.51l-2.989 4.8276c-0.67072 1.0833-1.9632 1.4898-2.898 0.91107-0.93477-0.57872-1.1472-1.917-0.47652-3.0003l3.8867-6.2771c-1.1073-1.3449-2.4252-2.7101-3.9926-4.0861l1.5166-2.6505c0-1.0846-1.7066-1.9632-3.8121-1.9632z" class="main"></path><path d="m25 5.767c-0.8164 0-1.5711 0.1335-2.1913 0.35847 4.3387 0.84718 4.9765 1.1195 2.5601 4.3506l3.246 3.5665c-3.6565 8.2403-1.6037 7.9919-1.6037 7.9919s0.6964-2.6485 4.1117-7.7689c-1.0722-1.2796-2.3377-2.578-3.8266-3.8851l1.5161-2.6501c1e-4 -1.0845-1.7067-1.9631-3.8123-1.9634zm8.7655 12.238-1.0091 1.5127c3.7363 8.4129-4.1347 17.997-4.1347 17.997h4.3815c0.1581 0.0339 6.958-8.8438 0.76227-19.51z" class="shadow"></path><path d="m15.145 31.721c-0.2191-0.0314-3.4233-9.7859 5.7543-18.751-2.3019 1.895-7.1351 13.163-5.7543 18.751z" class="highlight"></path><path d="m23.292 10.196-1.4772-2.5943s0.2425-0.72175 1.7808-1.0472c-1.7266 1.3502-0.988 1.6622-0.3036 3.6415z" class="highlight"></path></g><g><path d="m25 36.457s-9.1309 0.048-11.691 1.6192c-1.7273 1.0602-2.1348 3.6514-1.8998 6.3237h27.182c0.2349-2.6723-0.1726-5.2636-1.8999-6.3237-2.5597-1.5711-11.691-1.6192-11.691-1.6192z" class="main"></path><path d="m25 37.146s-8.7121-0.13732-11.624 1.6658c-0.36985 0.22905-0.69926 0.83944-0.95359 1.3902 0.26077-0.3313 0.50213-0.61301 0.88664-0.84902 2.5597-1.5711 11.691-1.6191 11.691-1.6191s9.1318 0.04794 11.692 1.6191c0.39104 0.24 0.59242 0.53161 0.85561 0.87009 0.02583-0.0759-0.40837-1.1579-1.1438-1.5962-2.7554-1.492-11.403-1.4808-11.403-1.4808z" class="highlight"></path></g></g></g></g></g></g></g></g><g class="tl-box" style="transition: transform 300ms linear 0s; transform: translate(487.5px, 562.5px);"><g class=" 15" transform=""><g><g transform="scale(1.53,1.53)"><g transform="translate(-25, -25)"><g class="asset-depth white"><g><g><path d="m25.192 23.015c-0.16544 6.9672-11.758 5.2189-11.516 18.104l22.86 0.1184c-2.094-6.442 9.69-25.16-11.931-32.258v-1e-4s-2.4381-2.601-5.9655-2.8237l0.2227 3.5347-4.5583 4.5816c-2.6294 3.1455-8.7347 8.3784-7.7513 9.6111 3.1158 5.3041 6.3306 4.4316 6.3306 4.4316 4.2418-4.5433 5.8193-2.0894 12.309-5.2997z" stroke-linejoin="round" class="main"></path><path d="m19.32 14.694c-0.7757 0.86088-0.6902 1.1156-0.8137 2.1503 0.8055 0.12316 1.5069 0.23982 2.2486 0.0656 2.3809-1.262 0.075-3.4026-1.4347-2.2162z" class="knight-eye"></path><path d="m9.1916 22.166c-0.8496 0.4078-0.9984 0.9608-1.0565 1.4754 0.7288 0.4181 1.8765-0.1255 2.0412-1.4316l-0.9846-0.044z" class="knight-nose"></path><path d="m8.1905 25.15s0.6525 1.1374-1.1019-1.641c0.6594-1.9774 8.263-9.0796 12.438-13.534l-0.1836-3.0857s1.0689 1.6901 1.2475 3.468c-4.3898 4.39-12.22 10.833-12.824 13.213 0.023 0.6738 0.24 1.0278 0.4231 1.5797z" class="highlight"></path><path d="m13.26 28.257c2.0291-3.3367 8.3914-3.2239 11.932-5.2424 0.3228 0.1024 0.1304 1.3697 0.2398 1.23 0.8476-1.0903 2.9259-3.279 0.8684-6.8743 0.5214 5.9575-13.718 5.5912-15.89 10.305-0.2005 0.4355 2.1818 0.7932 2.85 0.5818z" class="shadow"></path><path d="m25.8 23.781c-1.0131 5.8132-9.5449 6.1169-10.988 12.641 2.8332-6.4058 10.762-5.7136 10.988-12.641z" class="highlight"></path><path d="m18.64 6.1556s3.051 0.73807 4.9045 3.9825c20.499 7.1536 7.6413 27.937 5.7883 31.073l7.2034 0.026c-1.9871-3.2431 9.5482-25.597-11.931-32.258-1.7757-1.0691-2.7677-2.6092-5.9655-2.8238z" class="shadow"></path></g><g><path d="m25 36.457s-9.1309 0.048-11.691 1.6192c-1.7273 1.0602-2.1348 3.6514-1.8998 6.3237h27.182c0.2349-2.6723-0.1726-5.2636-1.8999-6.3237-2.5597-1.5711-11.691-1.6192-11.691-1.6192z" class="main"></path><path d="m25 37.146s-8.7121-0.13732-11.624 1.6658c-0.36985 0.22905-0.69926 0.83944-0.95359 1.3902 0.26077-0.3313 0.50213-0.61301 0.88664-0.84902 2.5597-1.5711 11.691-1.6191 11.691-1.6191s9.1318 0.04794 11.692 1.6191c0.39104 0.24 0.59242 0.53161 0.85561 0.87009 0.02583-0.0759-0.40837-1.1579-1.1438-1.5962-2.7554-1.492-11.403-1.4808-11.403-1.4808z" class="highlight"></path></g></g></g></g></g></g></g></g><g class="tl-box" style="transition: transform 300ms linear 0s; transform: translate(562.5px, 562.5px);"><g class=" 16" transform=""><g><g transform="scale(1.53,1.53)"><g transform="translate(-25, -25)"><g class="asset-depth white"><g><g><path d="m17.932 20.414c4.9056-0.74066 9.5787-0.57845 14.136 0m-17.885-10.752c-1.0592 8.7669 1.1034 10.677 3.7482 10.752l-3.3154 18.159h20.767l-3.3154-18.159c2.6448-0.0745 4.8074-1.9849 3.7482-10.752l-3.6072-0.52917-1.0733 3.6427-3.1416-0.0995-0.5222-3.754h-4.9448l-0.52127 3.754-3.142 0.0995-1.0733-3.6427z" class="main"></path><path d="m17.932 20.414c6.828 0 13.118 0.40763 14.948 16.572l2.3187 0.38585-3.1311-16.428c-0.03144-0.30772-6.0881-1.8224-14.136-0.52917z" class="shadow"></path><path d="m14.777 10.219 2.2766-0.28599c-1.9137 0.31197-2.3128 5.2958-2.3128 5.2958-0.23801-0.17655-0.18808-4.9033 0.03618-5.0098z" class="highlight"></path><path d="m25.276 9.5507c-1.6477 0-2.5191 2.7475-2.5191 2.7475l0.33726-2.7288z" class="highlight"></path><path d="m32.671 9.8162 0.93397 0.11826c-0.78478 0.49954-1.5905 1.9884-1.5905 1.9884z" class="highlight"></path><path d="m18.472 20.964 2.6206-0.29312c-2.6206 0.29312-4.8888 13.113-4.8888 13.113z" class="highlight"></path><path d="m34.013 9.3979c0.35682 6.3635-1.9499 10.603-8.0415 10.536l4.778 0.56323c7.5226 0.30904 5.101-10.806 5.0671-10.835z" class="shadow"></path></g><g><path d="m25 36.457s-9.1309 0.048-11.691 1.6192c-1.7273 1.0602-2.1348 3.6514-1.8998 6.3237h27.182c0.2349-2.6723-0.1726-5.2636-1.8999-6.3237-2.5597-1.5711-11.691-1.6192-11.691-1.6192z" class="main"></path><path d="m25 37.146s-8.7121-0.13732-11.624 1.6658c-0.36985 0.22905-0.69926 0.83944-0.95359 1.3902 0.26077-0.3313 0.50213-0.61301 0.88664-0.84902 2.5597-1.5711 11.691-1.6191 11.691-1.6191s9.1318 0.04794 11.692 1.6191c0.39104 0.24 0.59242 0.53161 0.85561 0.87009 0.02583-0.0759-0.40837-1.1579-1.1438-1.5962-2.7554-1.492-11.403-1.4808-11.403-1.4808z" class="highlight"></path></g></g></g></g></g></g></g></g><g class="tl-box" style="transition: transform 300ms linear 0s; transform: translate(37.5px, 112.5px);"><g class=" 17" transform=""><g><g transform="scale(1.53,1.53)"><g transform="translate(-25, -25)"><g class="asset-depth black"><g><g><path d="m21.503 27.594h6.9944m-9.4974-10.086c0 1.7315 0.7123 3.3873 1.9657 4.587l-3.6504 2.0999 0.43091 3.3988h4.3059c-0.79438 3.559-2.7548 7.3308-5.0622 8.6173s-5.2994 3.0968-4.8425 8.189l25.706 2.1e-5c0.45687-5.0922-2.5352-6.9025-4.8425-8.189-2.3074-1.2865-4.2678-5.0583-5.0622-8.6173h4.3059l0.43091-3.3988-3.6503-2.0999c1.2533-1.1996 1.9655-2.8554 1.9655-4.5869 3.11e-4 -3.3667-2.628-5.9118-6.0006-5.9118-3.3726-1.1e-5 -6.0008 2.545-6.0006 5.9117z" class="main"></path><path d="m24.962 11.537c1.1709-0.4586 9.5273 5.9057 0.64714 10.773l4.512 2.1-0.56221 3.125h2.6586l0.42868-3.3987-3.6504-2.0999c1.2534-1.1996 1.9618-2.5812 1.9646-4.3128-0.46888-5.4159-5.9985-6.1861-5.9985-6.1861zm-2.9485 15.998c4.5025 7.9337 9.4701 9.994 13.074 9.9646l-2.1157-1.347c-2.075-1.4895-4.7317-4.8572-5.0622-8.6177z" class="shadow"></path><path d="m21.983 22.213-1.647 2.3466-2.3561-0.01371 4.013-2.3234z" class="highlight"></path><path d="m24.307 12.267c-2.5425 0.1381-5.73 3.1733-4.3848 6.9183l0.19878 0.64312c-0.3298-3.4894 2.1268-7.1169 4.186-7.5614z" class="highlight"></path><path d="m17.863 37.625c-3.9839 2.3053-5.117 6.1402-5.117 6.1402-0.01037 0-0.54754-4.1751 3.9564-6.654 4.5039-2.4789 4.8215-6.1507 5.8602-8.8927-0.63708 3.7031-0.71573 7.1012-4.6996 9.4065z" class="highlight"></path></g></g></g></g></g></g></g></g><g class="tl-box" style="transition: transform 300ms linear 0s; transform: translate(112.5px, 112.5px);"><g class=" 18" transform=""><g><g transform="scale(1.53,1.53)"><g transform="translate(-25, -25)"><g class="asset-depth black"><g><g><path d="m21.503 27.594h6.9944m-9.4974-10.086c0 1.7315 0.7123 3.3873 1.9657 4.587l-3.6504 2.0999 0.43091 3.3988h4.3059c-0.79438 3.559-2.7548 7.3308-5.0622 8.6173s-5.2994 3.0968-4.8425 8.189l25.706 2.1e-5c0.45687-5.0922-2.5352-6.9025-4.8425-8.189-2.3074-1.2865-4.2678-5.0583-5.0622-8.6173h4.3059l0.43091-3.3988-3.6503-2.0999c1.2533-1.1996 1.9655-2.8554 1.9655-4.5869 3.11e-4 -3.3667-2.628-5.9118-6.0006-5.9118-3.3726-1.1e-5 -6.0008 2.545-6.0006 5.9117z" class="main"></path><path d="m24.962 11.537c1.1709-0.4586 9.5273 5.9057 0.64714 10.773l4.512 2.1-0.56221 3.125h2.6586l0.42868-3.3987-3.6504-2.0999c1.2534-1.1996 1.9618-2.5812 1.9646-4.3128-0.46888-5.4159-5.9985-6.1861-5.9985-6.1861zm-2.9485 15.998c4.5025 7.9337 9.4701 9.994 13.074 9.9646l-2.1157-1.347c-2.075-1.4895-4.7317-4.8572-5.0622-8.6177z" class="shadow"></path><path d="m21.983 22.213-1.647 2.3466-2.3561-0.01371 4.013-2.3234z" class="highlight"></path><path d="m24.307 12.267c-2.5425 0.1381-5.73 3.1733-4.3848 6.9183l0.19878 0.64312c-0.3298-3.4894 2.1268-7.1169 4.186-7.5614z" class="highlight"></path><path d="m17.863 37.625c-3.9839 2.3053-5.117 6.1402-5.117 6.1402-0.01037 0-0.54754-4.1751 3.9564-6.654 4.5039-2.4789 4.8215-6.1507 5.8602-8.8927-0.63708 3.7031-0.71573 7.1012-4.6996 9.4065z" class="highlight"></path></g></g></g></g></g></g></g></g><g class="tl-box" style="transition: transform 300ms linear 0s; transform: translate(187.5px, 112.5px);"><g class=" 19" transform=""><g><g transform="scale(1.53,1.53)"><g transform="translate(-25, -25)"><g class="asset-depth black"><g><g><path d="m21.503 27.594h6.9944m-9.4974-10.086c0 1.7315 0.7123 3.3873 1.9657 4.587l-3.6504 2.0999 0.43091 3.3988h4.3059c-0.79438 3.559-2.7548 7.3308-5.0622 8.6173s-5.2994 3.0968-4.8425 8.189l25.706 2.1e-5c0.45687-5.0922-2.5352-6.9025-4.8425-8.189-2.3074-1.2865-4.2678-5.0583-5.0622-8.6173h4.3059l0.43091-3.3988-3.6503-2.0999c1.2533-1.1996 1.9655-2.8554 1.9655-4.5869 3.11e-4 -3.3667-2.628-5.9118-6.0006-5.9118-3.3726-1.1e-5 -6.0008 2.545-6.0006 5.9117z" class="main"></path><path d="m24.962 11.537c1.1709-0.4586 9.5273 5.9057 0.64714 10.773l4.512 2.1-0.56221 3.125h2.6586l0.42868-3.3987-3.6504-2.0999c1.2534-1.1996 1.9618-2.5812 1.9646-4.3128-0.46888-5.4159-5.9985-6.1861-5.9985-6.1861zm-2.9485 15.998c4.5025 7.9337 9.4701 9.994 13.074 9.9646l-2.1157-1.347c-2.075-1.4895-4.7317-4.8572-5.0622-8.6177z" class="shadow"></path><path d="m21.983 22.213-1.647 2.3466-2.3561-0.01371 4.013-2.3234z" class="highlight"></path><path d="m24.307 12.267c-2.5425 0.1381-5.73 3.1733-4.3848 6.9183l0.19878 0.64312c-0.3298-3.4894 2.1268-7.1169 4.186-7.5614z" class="highlight"></path><path d="m17.863 37.625c-3.9839 2.3053-5.117 6.1402-5.117 6.1402-0.01037 0-0.54754-4.1751 3.9564-6.654 4.5039-2.4789 4.8215-6.1507 5.8602-8.8927-0.63708 3.7031-0.71573 7.1012-4.6996 9.4065z" class="highlight"></path></g></g></g></g></g></g></g></g><g class="tl-box" style="transition: transform 300ms linear 0s; transform: translate(262.5px, 112.5px);"><g class=" 20" transform=""><g><g transform="scale(1.53,1.53)"><g transform="translate(-25, -25)"><g class="asset-depth black"><g><g><path d="m21.503 27.594h6.9944m-9.4974-10.086c0 1.7315 0.7123 3.3873 1.9657 4.587l-3.6504 2.0999 0.43091 3.3988h4.3059c-0.79438 3.559-2.7548 7.3308-5.0622 8.6173s-5.2994 3.0968-4.8425 8.189l25.706 2.1e-5c0.45687-5.0922-2.5352-6.9025-4.8425-8.189-2.3074-1.2865-4.2678-5.0583-5.0622-8.6173h4.3059l0.43091-3.3988-3.6503-2.0999c1.2533-1.1996 1.9655-2.8554 1.9655-4.5869 3.11e-4 -3.3667-2.628-5.9118-6.0006-5.9118-3.3726-1.1e-5 -6.0008 2.545-6.0006 5.9117z" class="main"></path><path d="m24.962 11.537c1.1709-0.4586 9.5273 5.9057 0.64714 10.773l4.512 2.1-0.56221 3.125h2.6586l0.42868-3.3987-3.6504-2.0999c1.2534-1.1996 1.9618-2.5812 1.9646-4.3128-0.46888-5.4159-5.9985-6.1861-5.9985-6.1861zm-2.9485 15.998c4.5025 7.9337 9.4701 9.994 13.074 9.9646l-2.1157-1.347c-2.075-1.4895-4.7317-4.8572-5.0622-8.6177z" class="shadow"></path><path d="m21.983 22.213-1.647 2.3466-2.3561-0.01371 4.013-2.3234z" class="highlight"></path><path d="m24.307 12.267c-2.5425 0.1381-5.73 3.1733-4.3848 6.9183l0.19878 0.64312c-0.3298-3.4894 2.1268-7.1169 4.186-7.5614z" class="highlight"></path><path d="m17.863 37.625c-3.9839 2.3053-5.117 6.1402-5.117 6.1402-0.01037 0-0.54754-4.1751 3.9564-6.654 4.5039-2.4789 4.8215-6.1507 5.8602-8.8927-0.63708 3.7031-0.71573 7.1012-4.6996 9.4065z" class="highlight"></path></g></g></g></g></g></g></g></g><g class="tl-box" style="transition: transform 300ms linear 0s; transform: translate(337.5px, 112.5px);"><g class=" 21" transform=""><g><g transform="scale(1.53,1.53)"><g transform="translate(-25, -25)"><g class="asset-depth black"><g><g><path d="m21.503 27.594h6.9944m-9.4974-10.086c0 1.7315 0.7123 3.3873 1.9657 4.587l-3.6504 2.0999 0.43091 3.3988h4.3059c-0.79438 3.559-2.7548 7.3308-5.0622 8.6173s-5.2994 3.0968-4.8425 8.189l25.706 2.1e-5c0.45687-5.0922-2.5352-6.9025-4.8425-8.189-2.3074-1.2865-4.2678-5.0583-5.0622-8.6173h4.3059l0.43091-3.3988-3.6503-2.0999c1.2533-1.1996 1.9655-2.8554 1.9655-4.5869 3.11e-4 -3.3667-2.628-5.9118-6.0006-5.9118-3.3726-1.1e-5 -6.0008 2.545-6.0006 5.9117z" class="main"></path><path d="m24.962 11.537c1.1709-0.4586 9.5273 5.9057 0.64714 10.773l4.512 2.1-0.56221 3.125h2.6586l0.42868-3.3987-3.6504-2.0999c1.2534-1.1996 1.9618-2.5812 1.9646-4.3128-0.46888-5.4159-5.9985-6.1861-5.9985-6.1861zm-2.9485 15.998c4.5025 7.9337 9.4701 9.994 13.074 9.9646l-2.1157-1.347c-2.075-1.4895-4.7317-4.8572-5.0622-8.6177z" class="shadow"></path><path d="m21.983 22.213-1.647 2.3466-2.3561-0.01371 4.013-2.3234z" class="highlight"></path><path d="m24.307 12.267c-2.5425 0.1381-5.73 3.1733-4.3848 6.9183l0.19878 0.64312c-0.3298-3.4894 2.1268-7.1169 4.186-7.5614z" class="highlight"></path><path d="m17.863 37.625c-3.9839 2.3053-5.117 6.1402-5.117 6.1402-0.01037 0-0.54754-4.1751 3.9564-6.654 4.5039-2.4789 4.8215-6.1507 5.8602-8.8927-0.63708 3.7031-0.71573 7.1012-4.6996 9.4065z" class="highlight"></path></g></g></g></g></g></g></g></g><g class="tl-box" style="transition: transform 300ms linear 0s; transform: translate(412.5px, 112.5px);"><g class=" 22" transform=""><g><g transform="scale(1.53,1.53)"><g transform="translate(-25, -25)"><g class="asset-depth black"><g><g><path d="m21.503 27.594h6.9944m-9.4974-10.086c0 1.7315 0.7123 3.3873 1.9657 4.587l-3.6504 2.0999 0.43091 3.3988h4.3059c-0.79438 3.559-2.7548 7.3308-5.0622 8.6173s-5.2994 3.0968-4.8425 8.189l25.706 2.1e-5c0.45687-5.0922-2.5352-6.9025-4.8425-8.189-2.3074-1.2865-4.2678-5.0583-5.0622-8.6173h4.3059l0.43091-3.3988-3.6503-2.0999c1.2533-1.1996 1.9655-2.8554 1.9655-4.5869 3.11e-4 -3.3667-2.628-5.9118-6.0006-5.9118-3.3726-1.1e-5 -6.0008 2.545-6.0006 5.9117z" class="main"></path><path d="m24.962 11.537c1.1709-0.4586 9.5273 5.9057 0.64714 10.773l4.512 2.1-0.56221 3.125h2.6586l0.42868-3.3987-3.6504-2.0999c1.2534-1.1996 1.9618-2.5812 1.9646-4.3128-0.46888-5.4159-5.9985-6.1861-5.9985-6.1861zm-2.9485 15.998c4.5025 7.9337 9.4701 9.994 13.074 9.9646l-2.1157-1.347c-2.075-1.4895-4.7317-4.8572-5.0622-8.6177z" class="shadow"></path><path d="m21.983 22.213-1.647 2.3466-2.3561-0.01371 4.013-2.3234z" class="highlight"></path><path d="m24.307 12.267c-2.5425 0.1381-5.73 3.1733-4.3848 6.9183l0.19878 0.64312c-0.3298-3.4894 2.1268-7.1169 4.186-7.5614z" class="highlight"></path><path d="m17.863 37.625c-3.9839 2.3053-5.117 6.1402-5.117 6.1402-0.01037 0-0.54754-4.1751 3.9564-6.654 4.5039-2.4789 4.8215-6.1507 5.8602-8.8927-0.63708 3.7031-0.71573 7.1012-4.6996 9.4065z" class="highlight"></path></g></g></g></g></g></g></g></g><g class="tl-box" style="transition: transform 300ms linear 0s; transform: translate(487.5px, 112.5px);"><g class=" 23" transform=""><g><g transform="scale(1.53,1.53)"><g transform="translate(-25, -25)"><g class="asset-depth black"><g><g><path d="m21.503 27.594h6.9944m-9.4974-10.086c0 1.7315 0.7123 3.3873 1.9657 4.587l-3.6504 2.0999 0.43091 3.3988h4.3059c-0.79438 3.559-2.7548 7.3308-5.0622 8.6173s-5.2994 3.0968-4.8425 8.189l25.706 2.1e-5c0.45687-5.0922-2.5352-6.9025-4.8425-8.189-2.3074-1.2865-4.2678-5.0583-5.0622-8.6173h4.3059l0.43091-3.3988-3.6503-2.0999c1.2533-1.1996 1.9655-2.8554 1.9655-4.5869 3.11e-4 -3.3667-2.628-5.9118-6.0006-5.9118-3.3726-1.1e-5 -6.0008 2.545-6.0006 5.9117z" class="main"></path><path d="m24.962 11.537c1.1709-0.4586 9.5273 5.9057 0.64714 10.773l4.512 2.1-0.56221 3.125h2.6586l0.42868-3.3987-3.6504-2.0999c1.2534-1.1996 1.9618-2.5812 1.9646-4.3128-0.46888-5.4159-5.9985-6.1861-5.9985-6.1861zm-2.9485 15.998c4.5025 7.9337 9.4701 9.994 13.074 9.9646l-2.1157-1.347c-2.075-1.4895-4.7317-4.8572-5.0622-8.6177z" class="shadow"></path><path d="m21.983 22.213-1.647 2.3466-2.3561-0.01371 4.013-2.3234z" class="highlight"></path><path d="m24.307 12.267c-2.5425 0.1381-5.73 3.1733-4.3848 6.9183l0.19878 0.64312c-0.3298-3.4894 2.1268-7.1169 4.186-7.5614z" class="highlight"></path><path d="m17.863 37.625c-3.9839 2.3053-5.117 6.1402-5.117 6.1402-0.01037 0-0.54754-4.1751 3.9564-6.654 4.5039-2.4789 4.8215-6.1507 5.8602-8.8927-0.63708 3.7031-0.71573 7.1012-4.6996 9.4065z" class="highlight"></path></g></g></g></g></g></g></g></g><g class="tl-box" style="transition: transform 300ms linear 0s; transform: translate(562.5px, 112.5px);"><g class=" 24" transform=""><g><g transform="scale(1.53,1.53)"><g transform="translate(-25, -25)"><g class="asset-depth black"><g><g><path d="m21.503 27.594h6.9944m-9.4974-10.086c0 1.7315 0.7123 3.3873 1.9657 4.587l-3.6504 2.0999 0.43091 3.3988h4.3059c-0.79438 3.559-2.7548 7.3308-5.0622 8.6173s-5.2994 3.0968-4.8425 8.189l25.706 2.1e-5c0.45687-5.0922-2.5352-6.9025-4.8425-8.189-2.3074-1.2865-4.2678-5.0583-5.0622-8.6173h4.3059l0.43091-3.3988-3.6503-2.0999c1.2533-1.1996 1.9655-2.8554 1.9655-4.5869 3.11e-4 -3.3667-2.628-5.9118-6.0006-5.9118-3.3726-1.1e-5 -6.0008 2.545-6.0006 5.9117z" class="main"></path><path d="m24.962 11.537c1.1709-0.4586 9.5273 5.9057 0.64714 10.773l4.512 2.1-0.56221 3.125h2.6586l0.42868-3.3987-3.6504-2.0999c1.2534-1.1996 1.9618-2.5812 1.9646-4.3128-0.46888-5.4159-5.9985-6.1861-5.9985-6.1861zm-2.9485 15.998c4.5025 7.9337 9.4701 9.994 13.074 9.9646l-2.1157-1.347c-2.075-1.4895-4.7317-4.8572-5.0622-8.6177z" class="shadow"></path><path d="m21.983 22.213-1.647 2.3466-2.3561-0.01371 4.013-2.3234z" class="highlight"></path><path d="m24.307 12.267c-2.5425 0.1381-5.73 3.1733-4.3848 6.9183l0.19878 0.64312c-0.3298-3.4894 2.1268-7.1169 4.186-7.5614z" class="highlight"></path><path d="m17.863 37.625c-3.9839 2.3053-5.117 6.1402-5.117 6.1402-0.01037 0-0.54754-4.1751 3.9564-6.654 4.5039-2.4789 4.8215-6.1507 5.8602-8.8927-0.63708 3.7031-0.71573 7.1012-4.6996 9.4065z" class="highlight"></path></g></g></g></g></g></g></g></g><g class="tl-box" style="transition: transform 300ms linear 0s; transform: translate(37.5px, 37.5px);"><g class=" 25" transform=""><g><g transform="scale(1.53,1.53)"><g transform="translate(-25, -25)"><g class="asset-depth black"><g><g><path d="m17.932 20.414c4.9056-0.74066 9.5787-0.57845 14.136 0m-17.885-10.752c-1.0592 8.7669 1.1034 10.677 3.7482 10.752l-3.3154 18.159h20.767l-3.3154-18.159c2.6448-0.0745 4.8074-1.9849 3.7482-10.752l-3.6072-0.52917-1.0733 3.6427-3.1416-0.0995-0.5222-3.754h-4.9448l-0.52127 3.754-3.142 0.0995-1.0733-3.6427z" class="main"></path><path d="m17.932 20.414c6.828 0 13.118 0.40763 14.948 16.572l2.3187 0.38585-3.1311-16.428c-0.03144-0.30772-6.0881-1.8224-14.136-0.52917z" class="shadow"></path><path d="m14.777 10.219 2.2766-0.28599c-1.9137 0.31197-2.3128 5.2958-2.3128 5.2958-0.23801-0.17655-0.18808-4.9033 0.03618-5.0098z" class="highlight"></path><path d="m25.276 9.5507c-1.6477 0-2.5191 2.7475-2.5191 2.7475l0.33726-2.7288z" class="highlight"></path><path d="m32.671 9.8162 0.93397 0.11826c-0.78478 0.49954-1.5905 1.9884-1.5905 1.9884z" class="highlight"></path><path d="m18.472 20.964 2.6206-0.29312c-2.6206 0.29312-4.8888 13.113-4.8888 13.113z" class="highlight"></path><path d="m34.013 9.3979c0.35682 6.3635-1.9499 10.603-8.0415 10.536l4.778 0.56323c7.5226 0.30904 5.101-10.806 5.0671-10.835z" class="shadow"></path></g><g><path d="m25 36.457s-9.1309 0.048-11.691 1.6192c-1.7273 1.0602-2.1348 3.6514-1.8998 6.3237h27.182c0.2349-2.6723-0.1726-5.2636-1.8999-6.3237-2.5597-1.5711-11.691-1.6192-11.691-1.6192z" class="main"></path><path d="m25 37.146s-8.7121-0.13732-11.624 1.6658c-0.36985 0.22905-0.69926 0.83944-0.95359 1.3902 0.26077-0.3313 0.50213-0.61301 0.88664-0.84902 2.5597-1.5711 11.691-1.6191 11.691-1.6191s9.1318 0.04794 11.692 1.6191c0.39104 0.24 0.59242 0.53161 0.85561 0.87009 0.02583-0.0759-0.40837-1.1579-1.1438-1.5962-2.7554-1.492-11.403-1.4808-11.403-1.4808z" class="highlight"></path></g></g></g></g></g></g></g></g><g class="tl-box" style="transition: transform 300ms linear 0s; transform: translate(112.5px, 37.5px);"><g class=" 26" transform=""><g><g transform="scale(1.53,1.53)"><g transform="translate(-25, -25)"><g class="asset-depth black"><g><g><path d="m25.192 23.015c-0.16544 6.9672-11.758 5.2189-11.516 18.104l22.86 0.1184c-2.094-6.442 9.69-25.16-11.931-32.258v-1e-4s-2.4381-2.601-5.9655-2.8237l0.2227 3.5347-4.5583 4.5816c-2.6294 3.1455-8.7347 8.3784-7.7513 9.6111 3.1158 5.3041 6.3306 4.4316 6.3306 4.4316 4.2418-4.5433 5.8193-2.0894 12.309-5.2997z" stroke-linejoin="round" class="main"></path><path d="m19.32 14.694c-0.7757 0.86088-0.6902 1.1156-0.8137 2.1503 0.8055 0.12316 1.5069 0.23982 2.2486 0.0656 2.3809-1.262 0.075-3.4026-1.4347-2.2162z" class="knight-eye"></path><path d="m9.1916 22.166c-0.8496 0.4078-0.9984 0.9608-1.0565 1.4754 0.7288 0.4181 1.8765-0.1255 2.0412-1.4316l-0.9846-0.044z" class="knight-nose"></path><path d="m8.1905 25.15s0.6525 1.1374-1.1019-1.641c0.6594-1.9774 8.263-9.0796 12.438-13.534l-0.1836-3.0857s1.0689 1.6901 1.2475 3.468c-4.3898 4.39-12.22 10.833-12.824 13.213 0.023 0.6738 0.24 1.0278 0.4231 1.5797z" class="highlight"></path><path d="m13.26 28.257c2.0291-3.3367 8.3914-3.2239 11.932-5.2424 0.3228 0.1024 0.1304 1.3697 0.2398 1.23 0.8476-1.0903 2.9259-3.279 0.8684-6.8743 0.5214 5.9575-13.718 5.5912-15.89 10.305-0.2005 0.4355 2.1818 0.7932 2.85 0.5818z" class="shadow"></path><path d="m25.8 23.781c-1.0131 5.8132-9.5449 6.1169-10.988 12.641 2.8332-6.4058 10.762-5.7136 10.988-12.641z" class="highlight"></path><path d="m18.64 6.1556s3.051 0.73807 4.9045 3.9825c20.499 7.1536 7.6413 27.937 5.7883 31.073l7.2034 0.026c-1.9871-3.2431 9.5482-25.597-11.931-32.258-1.7757-1.0691-2.7677-2.6092-5.9655-2.8238z" class="shadow"></path></g><g><path d="m25 36.457s-9.1309 0.048-11.691 1.6192c-1.7273 1.0602-2.1348 3.6514-1.8998 6.3237h27.182c0.2349-2.6723-0.1726-5.2636-1.8999-6.3237-2.5597-1.5711-11.691-1.6192-11.691-1.6192z" class="main"></path><path d="m25 37.146s-8.7121-0.13732-11.624 1.6658c-0.36985 0.22905-0.69926 0.83944-0.95359 1.3902 0.26077-0.3313 0.50213-0.61301 0.88664-0.84902 2.5597-1.5711 11.691-1.6191 11.691-1.6191s9.1318 0.04794 11.692 1.6191c0.39104 0.24 0.59242 0.53161 0.85561 0.87009 0.02583-0.0759-0.40837-1.1579-1.1438-1.5962-2.7554-1.492-11.403-1.4808-11.403-1.4808z" class="highlight"></path></g></g></g></g></g></g></g></g><g class="tl-box" style="transition: transform 300ms linear 0s; transform: translate(187.5px, 37.5px);"><g class=" 27" transform=""><g><g transform="scale(1.53,1.53)"><g transform="translate(-25, -25)"><g class="asset-depth black"><g><g><path d="m25 5.767c-2.1056 0-3.8124 0.87865-3.8121 1.9632l1.5166 2.6505c-16.049 14.089-5.707 27.135-5.707 27.135h16.006s7.0496-8.6714 0.76227-19.51l-2.989 4.8276c-0.67072 1.0833-1.9632 1.4898-2.898 0.91107-0.93477-0.57872-1.1472-1.917-0.47652-3.0003l3.8867-6.2771c-1.1073-1.3449-2.4252-2.7101-3.9926-4.0861l1.5166-2.6505c0-1.0846-1.7066-1.9632-3.8121-1.9632z" class="main"></path><path d="m25 5.767c-0.8164 0-1.5711 0.1335-2.1913 0.35847 4.3387 0.84718 4.9765 1.1195 2.5601 4.3506l3.246 3.5665c-3.6565 8.2403-1.6037 7.9919-1.6037 7.9919s0.6964-2.6485 4.1117-7.7689c-1.0722-1.2796-2.3377-2.578-3.8266-3.8851l1.5161-2.6501c1e-4 -1.0845-1.7067-1.9631-3.8123-1.9634zm8.7655 12.238-1.0091 1.5127c3.7363 8.4129-4.1347 17.997-4.1347 17.997h4.3815c0.1581 0.0339 6.958-8.8438 0.76227-19.51z" class="shadow"></path><path d="m15.145 31.721c-0.2191-0.0314-3.4233-9.7859 5.7543-18.751-2.3019 1.895-7.1351 13.163-5.7543 18.751z" class="highlight"></path><path d="m23.292 10.196-1.4772-2.5943s0.2425-0.72175 1.7808-1.0472c-1.7266 1.3502-0.988 1.6622-0.3036 3.6415z" class="highlight"></path></g><g><path d="m25 36.457s-9.1309 0.048-11.691 1.6192c-1.7273 1.0602-2.1348 3.6514-1.8998 6.3237h27.182c0.2349-2.6723-0.1726-5.2636-1.8999-6.3237-2.5597-1.5711-11.691-1.6192-11.691-1.6192z" class="main"></path><path d="m25 37.146s-8.7121-0.13732-11.624 1.6658c-0.36985 0.22905-0.69926 0.83944-0.95359 1.3902 0.26077-0.3313 0.50213-0.61301 0.88664-0.84902 2.5597-1.5711 11.691-1.6191 11.691-1.6191s9.1318 0.04794 11.692 1.6191c0.39104 0.24 0.59242 0.53161 0.85561 0.87009 0.02583-0.0759-0.40837-1.1579-1.1438-1.5962-2.7554-1.492-11.403-1.4808-11.403-1.4808z" class="highlight"></path></g></g></g></g></g></g></g></g><g class="tl-box" style="transition: transform 300ms linear 0s; transform: translate(262.5px, 37.5px);"><g class=" 28" transform=""><g><g transform="scale(1.53,1.53)"><g transform="translate(-25, -25)"><g class="asset-depth black"><g><g><path d="m24.959 5.0937a2.9585 3.3158 90 0 0-3.3155 2.9585 2.9585 3.3158 90 0 0 3.3155 2.9585 2.9585 3.3158 90 0 0 3.316-2.9585 2.9585 3.3158 90 0 0-3.316-2.9585z" class="main"></path><path d="m24.836 5.7323c-0.37582-0.20962-3.7243 0.80586-2.1848 3.5753-0.23547-1.5446 0.43755-3.2031 2.1848-3.5753z" class="highlight"></path><path d="m24.959 11.011c-6.5068 0-9.5953 5.8843-9.5951 10.358h19.263c1.99e-4 -4.4741-3.1607-10.358-9.6676-10.358z" class="main"></path><path d="m18.161 14.977c1.0418-1.4783 2.9196-3.2199 6.8404-3.3796-0.31072 0.27709-4.7888 1.1374-6.8404 3.3796z" class="highlight"></path><path d="m24.836 5.0067s0.04572 0.23808-1e-4 0c2.4799 1.1289 2.0497 3.8473 0.81734 5.547 7.3536 3.8036 2.2125 8.669 2.2122 8.6681h2.7008c1.7619 1.287 7.2086-2.7409-3.8351-8.669 3.5276-3.1154 0.09642-5.6072-1.8952-5.5466z" class="shadow"></path><path d="m25 15.225c-1.971 0-2.3483 2.6494-4.1366 2.8592-1.8213 0.21366-3.3816-2.3114-5.2505-1.7361-1.4945 0.46001-0.77828 2.5999-1.8053 3.1752-1.4018 0.78508-3.1845-1.8324-5.2902-0.29827 6.8387 8.8288 8.0859 12.377 7.9833 18.819l16.998-9.9e-5c-0.10268-6.4426 1.1445-9.9904 7.9831-18.819-2.1056-1.5341-3.8884 1.0833-5.2901 0.29827-1.0271-0.57526-0.31082-2.7152-1.8053-3.1752-1.8688-0.57526-3.4293 1.9498-5.2506 1.7361-1.7884-0.20981-2.1655-2.8592-4.1365-2.8592z" class="main"></path><path d="m9.8952 19.34c-0.13588-0.0099-0.33139 0.05615-0.45862 0.08471 3.0815 4.0999 6.5751 9.5372 7.0991 12.417-1.4062-4.9323-3.2664-9.5622-6.1403-12.472z" class="highlight"></path><path d="m39.974 18.735c-9.4852 10.003-9.9239 17.985-16.941 19.31h10.476c-0.10268-6.4427 1.1445-9.9905 7.9831-18.819 0 0-0.68803-0.75582-1.5179-0.49124z" class="shadow"></path><path d="m14.912 18.945c0.20277-0.08767 1.1841-1.8078 1.9805-1.9501-1.42-0.34555-1.6188-0.0463-1.9805 1.9501z" class="highlight"></path><path d="m22.511 17.876c0.95342-0.84704 1.6333-2.6551 3.2379-1.8453-0.79746-0.22882-2.2148 1.0403-3.2379 1.8453z" class="highlight"></path><path d="m31.12 18.133c0.20983 0.06994 2.1762-1.6423 2.8625-1.2176 0 0-1.4313 1.1196-2.8625 1.2176z" class="highlight"></path></g><g><path d="m25 36.457s-9.1309 0.048-11.691 1.6192c-1.7273 1.0602-2.1348 3.6514-1.8998 6.3237h27.182c0.2349-2.6723-0.1726-5.2636-1.8999-6.3237-2.5597-1.5711-11.691-1.6192-11.691-1.6192z" class="main"></path><path d="m25 37.146s-8.7121-0.13732-11.624 1.6658c-0.36985 0.22905-0.69926 0.83944-0.95359 1.3902 0.26077-0.3313 0.50213-0.61301 0.88664-0.84902 2.5597-1.5711 11.691-1.6191 11.691-1.6191s9.1318 0.04794 11.692 1.6191c0.39104 0.24 0.59242 0.53161 0.85561 0.87009 0.02583-0.0759-0.40837-1.1579-1.1438-1.5962-2.7554-1.492-11.403-1.4808-11.403-1.4808z" class="highlight"></path></g></g></g></g></g></g></g></g><g class="tl-box" style="transition: transform 300ms linear 0s; transform: translate(337.5px, 37.5px);"><g class=" 29" transform=""><g><g transform="scale(1.53,1.53)"><g transform="translate(-25, -25)"><g class="asset-depth black"><g><g><path d="m27.67 15.225v-3.5436h4.4396v-4.4293h-4.9344v-3.8933h-4.366v3.8933h-4.9344v4.4293h4.4396v3.5436" class="main"></path><rect x="20.299" y="14.215" width="9.3984" height="2.7873" ry="1.3937" class="main"></rect><path d="m26.416 14.215c0.72479 0 1.3082 0.62142 1.3082 1.3935 0 0.77209-0.58336 1.3935-1.3082 1.3935h1.9736c0.72478 0 1.3081-0.62144 1.3081-1.3935 0-0.77209-0.58336-1.3935-1.3081-1.3935z" class="shadow"></path><path d="m21.631 14.842c-0.40169 0-0.72499 0.34468-0.72499 0.77259 0 0.42787 0.3233 0.77227 0.72499 0.77227h0.87379c-0.40169 0-0.72499-0.3444-0.72499-0.77227 0-0.42791 0.3233-0.77259 0.72499-0.77259z" class="shadow"></path><path d="m33.635 36.986s7.776-13.318 6.6127-15.916c-1.1632-2.5964-8.4802-4.4974-15.248-4.4974-6.7677 0-14.084 1.9004-15.248 4.4974-1.1632 2.5966 6.6127 15.916 6.6127 15.916z" class="main"></path><path d="m24.996 16.576c15.938 2.6216 12.573 9.3539 6.6406 22.543l2.0273-1.7288s7.7472-13.723 6.5839-16.32c-1.5452-2.8334-7.5027-4.1592-15.252-4.4945z" class="shadow"></path><path d="m23.765 17.295c-3.904-0.18436-14.621 1.8014-13.503 5.0167 0.81724 3.7274 2.7544 7.244 4.5085 10.504-5.6872-10.335-5.9421-13.774 8.9943-15.521z" class="highlight"></path><path d="m23.391 3.997-0.01613 3.3123h0.54565l0.01622-3.3123zm-4.9311 3.8699-0.0075 3.2077h0.77316l0.0075-3.2077zm4.4128 3.213 0.02573 2.4859h0.52l-0.02573-2.4859z" class="highlight"></path><path d="m26.189 3.3582-1.9e-5 3.8935h0.98678l2.8e-5 -3.8935zm4.441 3.8937v4.9453h1.4802v-4.9453zm-4.4396 4.4291 2.7e-5 2.4923h1.4802l-2.8e-5 -2.4923z" class="shadow"></path></g><g><path d="m25 36.457s-9.1309 0.048-11.691 1.6192c-1.7273 1.0602-2.1348 3.6514-1.8998 6.3237h27.182c0.2349-2.6723-0.1726-5.2636-1.8999-6.3237-2.5597-1.5711-11.691-1.6192-11.691-1.6192z" class="main"></path><path d="m25 37.146s-8.7121-0.13732-11.624 1.6658c-0.36985 0.22905-0.69926 0.83944-0.95359 1.3902 0.26077-0.3313 0.50213-0.61301 0.88664-0.84902 2.5597-1.5711 11.691-1.6191 11.691-1.6191s9.1318 0.04794 11.692 1.6191c0.39104 0.24 0.59242 0.53161 0.85561 0.87009 0.02583-0.0759-0.40837-1.1579-1.1438-1.5962-2.7554-1.492-11.403-1.4808-11.403-1.4808z" class="highlight"></path></g></g></g></g></g></g></g></g><g class="tl-box" style="transition: transform 300ms linear 0s; transform: translate(412.5px, 37.5px);"><g class=" 30" transform=""><g><g transform="scale(1.53,1.53)"><g transform="translate(-25, -25)"><g class="asset-depth black"><g><g><path d="m25 5.767c-2.1056 0-3.8124 0.87865-3.8121 1.9632l1.5166 2.6505c-16.049 14.089-5.707 27.135-5.707 27.135h16.006s7.0496-8.6714 0.76227-19.51l-2.989 4.8276c-0.67072 1.0833-1.9632 1.4898-2.898 0.91107-0.93477-0.57872-1.1472-1.917-0.47652-3.0003l3.8867-6.2771c-1.1073-1.3449-2.4252-2.7101-3.9926-4.0861l1.5166-2.6505c0-1.0846-1.7066-1.9632-3.8121-1.9632z" class="main"></path><path d="m25 5.767c-0.8164 0-1.5711 0.1335-2.1913 0.35847 4.3387 0.84718 4.9765 1.1195 2.5601 4.3506l3.246 3.5665c-3.6565 8.2403-1.6037 7.9919-1.6037 7.9919s0.6964-2.6485 4.1117-7.7689c-1.0722-1.2796-2.3377-2.578-3.8266-3.8851l1.5161-2.6501c1e-4 -1.0845-1.7067-1.9631-3.8123-1.9634zm8.7655 12.238-1.0091 1.5127c3.7363 8.4129-4.1347 17.997-4.1347 17.997h4.3815c0.1581 0.0339 6.958-8.8438 0.76227-19.51z" class="shadow"></path><path d="m15.145 31.721c-0.2191-0.0314-3.4233-9.7859 5.7543-18.751-2.3019 1.895-7.1351 13.163-5.7543 18.751z" class="highlight"></path><path d="m23.292 10.196-1.4772-2.5943s0.2425-0.72175 1.7808-1.0472c-1.7266 1.3502-0.988 1.6622-0.3036 3.6415z" class="highlight"></path></g><g><path d="m25 36.457s-9.1309 0.048-11.691 1.6192c-1.7273 1.0602-2.1348 3.6514-1.8998 6.3237h27.182c0.2349-2.6723-0.1726-5.2636-1.8999-6.3237-2.5597-1.5711-11.691-1.6192-11.691-1.6192z" class="main"></path><path d="m25 37.146s-8.7121-0.13732-11.624 1.6658c-0.36985 0.22905-0.69926 0.83944-0.95359 1.3902 0.26077-0.3313 0.50213-0.61301 0.88664-0.84902 2.5597-1.5711 11.691-1.6191 11.691-1.6191s9.1318 0.04794 11.692 1.6191c0.39104 0.24 0.59242 0.53161 0.85561 0.87009 0.02583-0.0759-0.40837-1.1579-1.1438-1.5962-2.7554-1.492-11.403-1.4808-11.403-1.4808z" class="highlight"></path></g></g></g></g></g></g></g></g><g class="tl-box" style="transition: transform 300ms linear 0s; transform: translate(487.5px, 37.5px);"><g class=" 31" transform=""><g><g transform="scale(1.53,1.53)"><g transform="translate(-25, -25)"><g class="asset-depth black"><g><g><path d="m25.192 23.015c-0.16544 6.9672-11.758 5.2189-11.516 18.104l22.86 0.1184c-2.094-6.442 9.69-25.16-11.931-32.258v-1e-4s-2.4381-2.601-5.9655-2.8237l0.2227 3.5347-4.5583 4.5816c-2.6294 3.1455-8.7347 8.3784-7.7513 9.6111 3.1158 5.3041 6.3306 4.4316 6.3306 4.4316 4.2418-4.5433 5.8193-2.0894 12.309-5.2997z" stroke-linejoin="round" class="main"></path><path d="m19.32 14.694c-0.7757 0.86088-0.6902 1.1156-0.8137 2.1503 0.8055 0.12316 1.5069 0.23982 2.2486 0.0656 2.3809-1.262 0.075-3.4026-1.4347-2.2162z" class="knight-eye"></path><path d="m9.1916 22.166c-0.8496 0.4078-0.9984 0.9608-1.0565 1.4754 0.7288 0.4181 1.8765-0.1255 2.0412-1.4316l-0.9846-0.044z" class="knight-nose"></path><path d="m8.1905 25.15s0.6525 1.1374-1.1019-1.641c0.6594-1.9774 8.263-9.0796 12.438-13.534l-0.1836-3.0857s1.0689 1.6901 1.2475 3.468c-4.3898 4.39-12.22 10.833-12.824 13.213 0.023 0.6738 0.24 1.0278 0.4231 1.5797z" class="highlight"></path><path d="m13.26 28.257c2.0291-3.3367 8.3914-3.2239 11.932-5.2424 0.3228 0.1024 0.1304 1.3697 0.2398 1.23 0.8476-1.0903 2.9259-3.279 0.8684-6.8743 0.5214 5.9575-13.718 5.5912-15.89 10.305-0.2005 0.4355 2.1818 0.7932 2.85 0.5818z" class="shadow"></path><path d="m25.8 23.781c-1.0131 5.8132-9.5449 6.1169-10.988 12.641 2.8332-6.4058 10.762-5.7136 10.988-12.641z" class="highlight"></path><path d="m18.64 6.1556s3.051 0.73807 4.9045 3.9825c20.499 7.1536 7.6413 27.937 5.7883 31.073l7.2034 0.026c-1.9871-3.2431 9.5482-25.597-11.931-32.258-1.7757-1.0691-2.7677-2.6092-5.9655-2.8238z" class="shadow"></path></g><g><path d="m25 36.457s-9.1309 0.048-11.691 1.6192c-1.7273 1.0602-2.1348 3.6514-1.8998 6.3237h27.182c0.2349-2.6723-0.1726-5.2636-1.8999-6.3237-2.5597-1.5711-11.691-1.6192-11.691-1.6192z" class="main"></path><path d="m25 37.146s-8.7121-0.13732-11.624 1.6658c-0.36985 0.22905-0.69926 0.83944-0.95359 1.3902 0.26077-0.3313 0.50213-0.61301 0.88664-0.84902 2.5597-1.5711 11.691-1.6191 11.691-1.6191s9.1318 0.04794 11.692 1.6191c0.39104 0.24 0.59242 0.53161 0.85561 0.87009 0.02583-0.0759-0.40837-1.1579-1.1438-1.5962-2.7554-1.492-11.403-1.4808-11.403-1.4808z" class="highlight"></path></g></g></g></g></g></g></g></g><g class="tl-box" style="transition: transform 300ms linear 0s; transform: translate(562.5px, 37.5px);"><g class=" 32" transform=""><g><g transform="scale(1.53,1.53)"><g transform="translate(-25, -25)"><g class="asset-depth black"><g><g><path d="m17.932 20.414c4.9056-0.74066 9.5787-0.57845 14.136 0m-17.885-10.752c-1.0592 8.7669 1.1034 10.677 3.7482 10.752l-3.3154 18.159h20.767l-3.3154-18.159c2.6448-0.0745 4.8074-1.9849 3.7482-10.752l-3.6072-0.52917-1.0733 3.6427-3.1416-0.0995-0.5222-3.754h-4.9448l-0.52127 3.754-3.142 0.0995-1.0733-3.6427z" class="main"></path><path d="m17.932 20.414c6.828 0 13.118 0.40763 14.948 16.572l2.3187 0.38585-3.1311-16.428c-0.03144-0.30772-6.0881-1.8224-14.136-0.52917z" class="shadow"></path><path d="m14.777 10.219 2.2766-0.28599c-1.9137 0.31197-2.3128 5.2958-2.3128 5.2958-0.23801-0.17655-0.18808-4.9033 0.03618-5.0098z" class="highlight"></path><path d="m25.276 9.5507c-1.6477 0-2.5191 2.7475-2.5191 2.7475l0.33726-2.7288z" class="highlight"></path><path d="m32.671 9.8162 0.93397 0.11826c-0.78478 0.49954-1.5905 1.9884-1.5905 1.9884z" class="highlight"></path><path d="m18.472 20.964 2.6206-0.29312c-2.6206 0.29312-4.8888 13.113-4.8888 13.113z" class="highlight"></path><path d="m34.013 9.3979c0.35682 6.3635-1.9499 10.603-8.0415 10.536l4.778 0.56323c7.5226 0.30904 5.101-10.806 5.0671-10.835z" class="shadow"></path></g><g><path d="m25 36.457s-9.1309 0.048-11.691 1.6192c-1.7273 1.0602-2.1348 3.6514-1.8998 6.3237h27.182c0.2349-2.6723-0.1726-5.2636-1.8999-6.3237-2.5597-1.5711-11.691-1.6192-11.691-1.6192z" class="main"></path><path d="m25 37.146s-8.7121-0.13732-11.624 1.6658c-0.36985 0.22905-0.69926 0.83944-0.95359 1.3902 0.26077-0.3313 0.50213-0.61301 0.88664-0.84902 2.5597-1.5711 11.691-1.6191 11.691-1.6191s9.1318 0.04794 11.692 1.6191c0.39104 0.24 0.59242 0.53161 0.85561 0.87009 0.02583-0.0759-0.40837-1.1579-1.1438-1.5962-2.7554-1.492-11.403-1.4808-11.403-1.4808z" class="highlight"></path></g></g></g></g></g></g></g></g></g></g><g class="arrow-grid"><g><defs><marker id="arrow-head" orient="auto" markerWidth="4" markerHeight="4" refX="2.9" refY="2"><path d="M 0 4 L 0 0 4 2 Z" stroke="none" fill="hsl(240deg 100% 85%)"></path></marker><marker id="arrow-head-capture" orient="auto" markerWidth="4" markerHeight="4" refX="2.9" refY="2"><path d="M 0 4 L 0 0 4 2 Z" stroke="none" fill="var(--red-light)"></path></marker></defs></g></g><g class="area-grid-fg"></g><g class="e-grid" transform=""><g></g></g><g class="pointer-grid"><g><g transform="translate(0, 75)"><rect fill="hsla(0,0%,0%,0)" width="75" id="0_1" class="click-receiver" height="75" style="fill: transparent;"></rect></g><g transform="translate(375, 525)"><rect fill="hsla(0,0%,0%,0)" width="75" id="5_7" class="click-receiver" height="75" style="fill: transparent;"></rect></g><g transform="translate(300, 225)"><rect fill="hsla(0,0%,0%,0)" width="75" id="4_3" class="click-receiver" height="75" style="fill: transparent;"></rect></g><g transform="translate(225, 300)"><rect fill="hsla(0,0%,0%,0)" width="75" id="3_4" class="click-receiver" height="75" style="fill: transparent;"></rect></g><g transform="translate(75, 150)"><rect fill="hsla(0,0%,0%,0)" width="75" id="1_2" class="click-receiver" height="75" style="fill: transparent;"></rect></g><g transform="translate(0, 375)"><rect fill="hsla(0,0%,0%,0)" width="75" id="0_5" class="click-receiver" height="75" style="fill: transparent;"></rect></g><g transform=""><rect fill="hsla(0,0%,0%,0)" width="75" id="0_0" class="click-receiver" height="75" style="fill: transparent;"></rect></g><g transform="translate(375, 225)"><rect fill="hsla(0,0%,0%,0)" width="75" id="5_3" class="click-receiver" height="75" style="fill: transparent;"></rect></g><g transform="translate(150, 150)"><rect fill="hsla(0,0%,0%,0)" width="75" id="2_2" class="click-receiver" height="75" style="fill: transparent;"></rect></g><g transform="translate(75, 375)"><rect fill="hsla(0,0%,0%,0)" width="75" id="1_5" class="click-receiver" height="75" style="fill: transparent;"></rect></g><g transform="translate(225, 150)"><rect fill="hsla(0,0%,0%,0)" width="75" id="3_2" class="click-receiver" height="75" style="fill: transparent;"></rect></g><g transform="translate(300, 450)"><rect fill="hsla(0,0%,0%,0)" width="75" id="4_6" class="click-receiver" height="75" style="fill: transparent;"></rect></g><g transform="translate(525, 75)"><rect fill="hsla(0,0%,0%,0)" width="75" id="7_1" class="click-receiver" height="75" style="fill: transparent;"></rect></g><g transform="translate(0, 525)"><rect fill="hsla(0,0%,0%,0)" width="75" id="0_7" class="click-receiver" height="75" style="fill: transparent;"></rect></g><g transform="translate(150, 300)"><rect fill="hsla(0,0%,0%,0)" width="75" id="2_4" class="click-receiver" height="75" style="fill: transparent;"></rect></g><g transform="translate(525, 150)"><rect fill="hsla(0,0%,0%,0)" width="75" id="7_2" class="click-receiver" height="75" style="fill: transparent;"></rect></g><g transform="translate(300, 150)"><rect fill="hsla(0,0%,0%,0)" width="75" id="4_2" class="click-receiver" height="75" style="fill: transparent;"></rect></g><g transform="translate(75, 225)"><rect fill="hsla(0,0%,0%,0)" width="75" id="1_3" class="click-receiver" height="75" style="fill: transparent;"></rect></g><g transform="translate(375, 375)"><rect fill="hsla(0,0%,0%,0)" width="75" id="5_5" class="click-receiver" height="75" style="fill: transparent;"></rect></g><g transform="translate(375, 450)"><rect fill="hsla(0,0%,0%,0)" width="75" id="5_6" class="click-receiver" height="75" style="fill: transparent;"></rect></g><g transform="translate(150, 225)"><rect fill="hsla(0,0%,0%,0)" width="75" id="2_3" class="click-receiver" height="75" style="fill: transparent;"></rect></g><g transform="translate(375, 150)"><rect fill="hsla(0,0%,0%,0)" width="75" id="5_2" class="click-receiver" height="75" style="fill: transparent;"></rect></g><g transform="translate(300, 525)"><rect fill="hsla(0,0%,0%,0)" width="75" id="4_7" class="click-receiver" height="75" style="fill: transparent;"></rect></g><g transform="translate(225, 75)"><rect fill="hsla(0,0%,0%,0)" width="75" id="3_1" class="click-receiver" height="75" style="fill: transparent;"></rect></g><g transform="translate(525, 0)"><rect fill="hsla(0,0%,0%,0)" width="75" id="7_0" class="click-receiver" height="75" style="fill: transparent;"></rect></g><g transform="translate(0, 150)"><rect fill="hsla(0,0%,0%,0)" width="75" id="0_2" class="click-receiver" height="75" style="fill: transparent;"></rect></g><g transform="translate(375, 75)"><rect fill="hsla(0,0%,0%,0)" width="75" id="5_1" class="click-receiver" height="75" style="fill: transparent;"></rect></g><g transform="translate(225, 0)"><rect fill="hsla(0,0%,0%,0)" width="75" id="3_0" class="click-receiver" height="75" style="fill: transparent;"></rect></g><g transform="translate(150, 525)"><rect fill="hsla(0,0%,0%,0)" width="75" id="2_7" class="click-receiver" height="75" style="fill: transparent;"></rect></g><g transform="translate(0, 450)"><rect fill="hsla(0,0%,0%,0)" width="75" id="0_6" class="click-receiver" height="75" style="fill: transparent;"></rect></g><g transform="translate(300, 375)"><rect fill="hsla(0,0%,0%,0)" width="75" id="4_5" class="click-receiver" height="75" style="fill: transparent;"></rect></g><g transform="translate(75, 75)"><rect fill="hsla(0,0%,0%,0)" width="75" id="1_1" class="click-receiver" height="75" style="fill: transparent;"></rect></g><g transform="translate(450, 0)"><rect fill="hsla(0,0%,0%,0)" width="75" id="6_0" class="click-receiver" height="75" style="fill: transparent;"></rect></g><g transform="translate(525, 300)"><rect fill="hsla(0,0%,0%,0)" width="75" id="7_4" class="click-receiver" height="75" style="fill: transparent;"></rect></g><g transform="translate(525, 525)"><rect fill="hsla(0,0%,0%,0)" width="75" id="7_7" class="click-receiver" height="75" style="fill: transparent;"></rect></g><g transform="translate(225, 225)"><rect fill="hsla(0,0%,0%,0)" width="75" id="3_3" class="click-receiver" height="75" style="fill: transparent;"></rect></g><g transform="translate(375, 0)"><rect fill="hsla(0,0%,0%,0)" width="75" id="5_0" class="click-receiver" height="75" style="fill: transparent;"></rect></g><g transform="translate(375, 300)"><rect fill="hsla(0,0%,0%,0)" width="75" id="5_4" class="click-receiver" height="75" style="fill: transparent;"></rect></g><g transform="translate(150, 450)"><rect fill="hsla(0,0%,0%,0)" width="75" id="2_6" class="click-receiver" height="75" style="fill: transparent;"></rect></g><g transform="translate(450, 225)"><rect fill="hsla(0,0%,0%,0)" width="75" id="6_3" class="click-receiver" height="75" style="fill: transparent;"></rect></g><g transform="translate(225, 375)"><rect fill="hsla(0,0%,0%,0)" width="75" id="3_5" class="click-receiver" height="75" style="fill: transparent;"></rect></g><g transform="translate(450, 450)"><rect fill="hsla(0,0%,0%,0)" width="75" id="6_6" class="click-receiver" height="75" style="fill: transparent;"></rect></g><g transform="translate(75, 300)"><rect fill="hsla(0,0%,0%,0)" width="75" id="1_4" class="click-receiver" height="75" style="fill: transparent;"></rect></g><g transform="translate(450, 525)"><rect fill="hsla(0,0%,0%,0)" width="75" id="6_7" class="click-receiver" height="75" style="fill: transparent;"></rect></g><g transform="translate(75, 525)"><rect fill="hsla(0,0%,0%,0)" width="75" id="1_7" class="click-receiver" height="75" style="fill: transparent;"></rect></g><g transform="translate(0, 225)"><rect fill="hsla(0,0%,0%,0)" width="75" id="0_3" class="click-receiver" height="75" style="fill: transparent;"></rect></g><g transform="translate(450, 375)"><rect fill="hsla(0,0%,0%,0)" width="75" id="6_5" class="click-receiver" height="75" style="fill: transparent;"></rect></g><g transform="translate(150, 75)"><rect fill="hsla(0,0%,0%,0)" width="75" id="2_1" class="click-receiver" height="75" style="fill: transparent;"></rect></g><g transform="translate(300, 75)"><rect fill="hsla(0,0%,0%,0)" width="75" id="4_1" class="click-receiver" height="75" style="fill: transparent;"></rect></g><g transform="translate(525, 375)"><rect fill="hsla(0,0%,0%,0)" width="75" id="7_5" class="click-receiver" height="75" style="fill: transparent;"></rect></g><g transform="translate(225, 450)"><rect fill="hsla(0,0%,0%,0)" width="75" id="3_6" class="click-receiver" height="75" style="fill: transparent;"></rect></g><g transform="translate(450, 75)"><rect fill="hsla(0,0%,0%,0)" width="75" id="6_1" class="click-receiver" height="75" style="fill: transparent;"></rect></g><g transform="translate(75, 450)"><rect fill="hsla(0,0%,0%,0)" width="75" id="1_6" class="click-receiver" height="75" style="fill: transparent;"></rect></g><g transform="translate(300, 300)"><rect fill="hsla(0,0%,0%,0)" width="75" id="4_4" class="click-receiver" height="75" style="fill: transparent;"></rect></g><g transform="translate(225, 525)"><rect fill="hsla(0,0%,0%,0)" width="75" id="3_7" class="click-receiver" height="75" style="fill: transparent;"></rect></g><g transform="translate(75, 0)"><rect fill="hsla(0,0%,0%,0)" width="75" id="1_0" class="click-receiver" height="75" style="fill: transparent;"></rect></g><g transform="translate(525, 225)"><rect fill="hsla(0,0%,0%,0)" width="75" id="7_3" class="click-receiver" height="75" style="fill: transparent;"></rect></g><g transform="translate(150, 0)"><rect fill="hsla(0,0%,0%,0)" width="75" id="2_0" class="click-receiver" height="75" style="fill: transparent;"></rect></g><g transform="translate(300, 0)"><rect fill="hsla(0,0%,0%,0)" width="75" id="4_0" class="click-receiver" height="75" style="fill: transparent;"></rect></g><g transform="translate(450, 150)"><rect fill="hsla(0,0%,0%,0)" width="75" id="6_2" class="click-receiver" height="75" style="fill: transparent;"></rect></g><g transform="translate(450, 300)"><rect fill="hsla(0,0%,0%,0)" width="75" id="6_4" class="click-receiver" height="75" style="fill: transparent;"></rect></g><g transform="translate(150, 375)"><rect fill="hsla(0,0%,0%,0)" width="75" id="2_5" class="click-receiver" height="75" style="fill: transparent;"></rect></g><g transform="translate(0, 300)"><rect fill="hsla(0,0%,0%,0)" width="75" id="0_4" class="click-receiver" height="75" style="fill: transparent;"></rect></g><g transform="translate(525, 450)"><rect fill="hsla(0,0%,0%,0)" width="75" id="7_6" class="click-receiver" height="75" style="fill: transparent;"></rect></g></g></g><g class="placeholder"></g></g></g></svg>