<svg viewBox="0 0 617.5 682.5" height="1" width="0.9047619047619048" class="game-grid  fml_janggi theme-dark theme-plain"><g transform="translate(16.25, 16.25)"><g transform=""><rect width="617.5" height="682.5" rx="16.125" ry="16.125" x="-16.25" y="-16.25" class="board-bg-rect" style="fill: var(--line-bg); stroke: none;"></rect><g class="edges-grid"><line x1="357.5" y1="487.5" x2="292.5" y2="552.5" stroke="var(--line-fg)" stroke-width="2"></line><line x1="357.5" y1="487.5" x2="357.5" y2="552.5" stroke="var(--line-fg)" stroke-width="2"></line><line x1="357.5" y1="487.5" x2="292.5" y2="487.5" stroke="var(--line-fg)" stroke-width="2"></line><line x1="357.5" y1="617.5" x2="292.5" y2="552.5" stroke="var(--line-fg)" stroke-width="2"></line><line x1="357.5" y1="617.5" x2="292.5" y2="617.5" stroke="var(--line-fg)" stroke-width="2"></line><line x1="357.5" y1="617.5" x2="357.5" y2="552.5" stroke="var(--line-fg)" stroke-width="2"></line><line x1="227.5" y1="162.5" x2="292.5" y2="97.5" stroke="var(--line-fg)" stroke-width="2"></line><line x1="227.5" y1="162.5" x2="292.5" y2="162.5" stroke="var(--line-fg)" stroke-width="2"></line><line x1="227.5" y1="162.5" x2="227.5" y2="97.5" stroke="var(--line-fg)" stroke-width="2"></line><line x1="292.5" y1="162.5" x2="357.5" y2="162.5" stroke="var(--line-fg)" stroke-width="2"></line><line x1="292.5" y1="162.5" x2="227.5" y2="162.5" stroke="var(--line-fg)" stroke-width="2"></line><line x1="292.5" y1="162.5" x2="292.5" y2="97.5" stroke="var(--line-fg)" stroke-width="2"></line><line x1="357.5" y1="162.5" x2="292.5" y2="162.5" stroke="var(--line-fg)" stroke-width="2"></line><line x1="357.5" y1="162.5" x2="292.5" y2="97.5" stroke="var(--line-fg)" stroke-width="2"></line><line x1="357.5" y1="162.5" x2="357.5" y2="97.5" stroke="var(--line-fg)" stroke-width="2"></line><line x1="292.5" y1="487.5" x2="227.5" y2="487.5" stroke="var(--line-fg)" stroke-width="2"></line><line x1="292.5" y1="487.5" x2="292.5" y2="552.5" stroke="var(--line-fg)" stroke-width="2"></line><line x1="292.5" y1="487.5" x2="357.5" y2="487.5" stroke="var(--line-fg)" stroke-width="2"></line><line x1="227.5" y1="97.5" x2="227.5" y2="162.5" stroke="var(--line-fg)" stroke-width="2"></line><line x1="227.5" y1="97.5" x2="292.5" y2="97.5" stroke="var(--line-fg)" stroke-width="2"></line><line x1="227.5" y1="97.5" x2="227.5" y2="32.5" stroke="var(--line-fg)" stroke-width="2"></line><line x1="292.5" y1="617.5" x2="227.5" y2="617.5" stroke="var(--line-fg)" stroke-width="2"></line><line x1="292.5" y1="617.5" x2="357.5" y2="617.5" stroke="var(--line-fg)" stroke-width="2"></line><line x1="292.5" y1="617.5" x2="292.5" y2="552.5" stroke="var(--line-fg)" stroke-width="2"></line><line x1="357.5" y1="97.5" x2="292.5" y2="97.5" stroke="var(--line-fg)" stroke-width="2"></line><line x1="357.5" y1="97.5" x2="357.5" y2="32.5" stroke="var(--line-fg)" stroke-width="2"></line><line x1="357.5" y1="97.5" x2="357.5" y2="162.5" stroke="var(--line-fg)" stroke-width="2"></line><line x1="227.5" y1="32.5" x2="292.5" y2="32.5" stroke="var(--line-fg)" stroke-width="2"></line><line x1="227.5" y1="32.5" x2="292.5" y2="97.5" stroke="var(--line-fg)" stroke-width="2"></line><line x1="227.5" y1="32.5" x2="227.5" y2="97.5" stroke="var(--line-fg)" stroke-width="2"></line><line x1="357.5" y1="32.5" x2="292.5" y2="97.5" stroke="var(--line-fg)" stroke-width="2"></line><line x1="357.5" y1="32.5" x2="292.5" y2="32.5" stroke="var(--line-fg)" stroke-width="2"></line><line x1="357.5" y1="32.5" x2="357.5" y2="97.5" stroke="var(--line-fg)" stroke-width="2"></line><line x1="227.5" y1="617.5" x2="292.5" y2="617.5" stroke="var(--line-fg)" stroke-width="2"></line><line x1="227.5" y1="617.5" x2="292.5" y2="552.5" stroke="var(--line-fg)" stroke-width="2"></line><line x1="227.5" y1="617.5" x2="227.5" y2="552.5" stroke="var(--line-fg)" stroke-width="2"></line><line x1="292.5" y1="552.5" x2="357.5" y2="617.5" stroke="var(--line-fg)" stroke-width="2"></line><line x1="292.5" y1="552.5" x2="357.5" y2="487.5" stroke="var(--line-fg)" stroke-width="2"></line><line x1="292.5" y1="552.5" x2="357.5" y2="552.5" stroke="var(--line-fg)" stroke-width="2"></line><line x1="292.5" y1="552.5" x2="292.5" y2="487.5" stroke="var(--line-fg)" stroke-width="2"></line><line x1="292.5" y1="552.5" x2="227.5" y2="617.5" stroke="var(--line-fg)" stroke-width="2"></line><line x1="292.5" y1="552.5" x2="292.5" y2="617.5" stroke="var(--line-fg)" stroke-width="2"></line><line x1="292.5" y1="552.5" x2="227.5" y2="552.5" stroke="var(--line-fg)" stroke-width="2"></line><line x1="292.5" y1="552.5" x2="227.5" y2="487.5" stroke="var(--line-fg)" stroke-width="2"></line><line x1="292.5" y1="97.5" x2="357.5" y2="32.5" stroke="var(--line-fg)" stroke-width="2"></line><line x1="292.5" y1="97.5" x2="227.5" y2="162.5" stroke="var(--line-fg)" stroke-width="2"></line><line x1="292.5" y1="97.5" x2="357.5" y2="97.5" stroke="var(--line-fg)" stroke-width="2"></line><line x1="292.5" y1="97.5" x2="292.5" y2="32.5" stroke="var(--line-fg)" stroke-width="2"></line><line x1="292.5" y1="97.5" x2="292.5" y2="162.5" stroke="var(--line-fg)" stroke-width="2"></line><line x1="292.5" y1="97.5" x2="227.5" y2="97.5" stroke="var(--line-fg)" stroke-width="2"></line><line x1="292.5" y1="97.5" x2="227.5" y2="32.5" stroke="var(--line-fg)" stroke-width="2"></line><line x1="292.5" y1="97.5" x2="357.5" y2="162.5" stroke="var(--line-fg)" stroke-width="2"></line><line x1="357.5" y1="552.5" x2="292.5" y2="552.5" stroke="var(--line-fg)" stroke-width="2"></line><line x1="357.5" y1="552.5" x2="357.5" y2="487.5" stroke="var(--line-fg)" stroke-width="2"></line><line x1="357.5" y1="552.5" x2="357.5" y2="617.5" stroke="var(--line-fg)" stroke-width="2"></line><line x1="227.5" y1="552.5" x2="227.5" y2="617.5" stroke="var(--line-fg)" stroke-width="2"></line><line x1="227.5" y1="552.5" x2="227.5" y2="487.5" stroke="var(--line-fg)" stroke-width="2"></line><line x1="227.5" y1="552.5" x2="292.5" y2="552.5" stroke="var(--line-fg)" stroke-width="2"></line><line x1="227.5" y1="487.5" x2="292.5" y2="487.5" stroke="var(--line-fg)" stroke-width="2"></line><line x1="227.5" y1="487.5" x2="227.5" y2="552.5" stroke="var(--line-fg)" stroke-width="2"></line><line x1="227.5" y1="487.5" x2="292.5" y2="552.5" stroke="var(--line-fg)" stroke-width="2"></line><line x1="292.5" y1="32.5" x2="227.5" y2="32.5" stroke="var(--line-fg)" stroke-width="2"></line><line x1="292.5" y1="32.5" x2="357.5" y2="32.5" stroke="var(--line-fg)" stroke-width="2"></line><line x1="292.5" y1="32.5" x2="292.5" y2="97.5" stroke="var(--line-fg)" stroke-width="2"></line></g><g class="area-grid-ug"></g><g class="base-grid"><g><g transform="translate(32.5, 97.5)"><g class="square"><rect fill="transparent" stroke="var(--line-fg)" stroke-width="2" x="0" width="65" y="0" height="65" style="opacity: 1;"></rect></g></g><g transform="translate(422.5, 552.5)"><g class="square"><rect fill="transparent" stroke="var(--line-fg)" stroke-width="2" x="0" width="65" y="0" height="65" style="opacity: 1;"></rect></g></g><g transform="translate(357.5, 487.5)"><g class="square"><rect fill="transparent" stroke="var(--line-fg)" stroke-width="2" x="0" width="65" y="0" height="65" style="opacity: 1;"></rect></g></g><g transform="translate(32.5, 552.5)"><g class="square"><rect fill="transparent" stroke="var(--line-fg)" stroke-width="2" x="0" width="65" y="0" height="65" style="opacity: 1;"></rect></g></g><g transform="translate(292.5, 227.5)"><g class="square"><rect fill="transparent" stroke="var(--line-fg)" stroke-width="2" x="0" width="65" y="0" height="65" style="opacity: 1;"></rect></g></g><g transform="translate(227.5, 292.5)"><g class="square"><rect fill="transparent" stroke="var(--line-fg)" stroke-width="2" x="0" width="65" y="0" height="65" style="opacity: 1;"></rect></g></g><g transform="translate(97.5, 162.5)"><g class="square"><rect fill="transparent" stroke="var(--line-fg)" stroke-width="2" x="0" width="65" y="0" height="65" style="opacity: 1;"></rect></g></g><g transform="translate(32.5, 357.5)"><g class="square"><rect fill="transparent" stroke="var(--line-fg)" stroke-width="2" x="0" width="65" y="0" height="65" style="opacity: 1;"></rect></g></g><g transform="translate(32.5, 32.5)"><g class="square"><rect fill="transparent" stroke="var(--line-fg)" stroke-width="2" x="0" width="65" y="0" height="65" style="opacity: 1;"></rect></g></g><g transform="translate(357.5, 227.5)"><g class="square"><rect fill="transparent" stroke="var(--line-fg)" stroke-width="2" x="0" width="65" y="0" height="65" style="opacity: 1;"></rect></g></g><g transform="translate(162.5, 162.5)"><g class="square"><rect fill="transparent" stroke="var(--line-fg)" stroke-width="2" x="0" width="65" y="0" height="65" style="opacity: 1;"></rect></g></g><g transform="translate(97.5, 357.5)"><g class="square"><rect fill="transparent" stroke="var(--line-fg)" stroke-width="2" x="0" width="65" y="0" height="65" style="opacity: 1;"></rect></g></g><g transform="translate(227.5, 162.5)"><g class="square"><rect fill="transparent" stroke="var(--line-fg)" stroke-width="2" x="0" width="65" y="0" height="65" style="opacity: 1;"></rect></g></g><g transform="translate(292.5, 422.5)"><g class="square"><rect fill="transparent" stroke="var(--line-fg)" stroke-width="2" x="0" width="65" y="0" height="65" style="opacity: 1;"></rect></g></g><g transform="translate(487.5, 97.5)"><g class="square"><rect fill="transparent" stroke="var(--line-fg)" stroke-width="2" x="0" width="65" y="0" height="65" style="opacity: 1;"></rect></g></g><g transform="translate(32.5, 487.5)"><g class="square"><rect fill="transparent" stroke="var(--line-fg)" stroke-width="2" x="0" width="65" y="0" height="65" style="opacity: 1;"></rect></g></g><g transform="translate(162.5, 292.5)"><g class="square"><rect fill="transparent" stroke="var(--line-fg)" stroke-width="2" x="0" width="65" y="0" height="65" style="opacity: 1;"></rect></g></g><g transform="translate(487.5, 162.5)"><g class="square"><rect fill="transparent" stroke="var(--line-fg)" stroke-width="2" x="0" width="65" y="0" height="65" style="opacity: 1;"></rect></g></g><g transform="translate(292.5, 162.5)"><g class="square"><rect fill="transparent" stroke="var(--line-fg)" stroke-width="2" x="0" width="65" y="0" height="65" style="opacity: 1;"></rect></g></g><g transform="translate(97.5, 227.5)"><g class="square"><rect fill="transparent" stroke="var(--line-fg)" stroke-width="2" x="0" width="65" y="0" height="65" style="opacity: 1;"></rect></g></g><g transform="translate(357.5, 357.5)"><g class="square"><rect fill="transparent" stroke="var(--line-fg)" stroke-width="2" x="0" width="65" y="0" height="65" style="opacity: 1;"></rect></g></g><g transform="translate(357.5, 422.5)"><g class="square"><rect fill="transparent" stroke="var(--line-fg)" stroke-width="2" x="0" width="65" y="0" height="65" style="opacity: 1;"></rect></g></g><g transform="translate(162.5, 227.5)"><g class="square"><rect fill="transparent" stroke="var(--line-fg)" stroke-width="2" x="0" width="65" y="0" height="65" style="opacity: 1;"></rect></g></g><g transform="translate(357.5, 162.5)"><g class="square"><rect fill="transparent" stroke="var(--line-fg)" stroke-width="2" x="0" width="65" y="0" height="65" style="opacity: 1;"></rect></g></g><g transform="translate(292.5, 487.5)"><g class="square"><rect fill="transparent" stroke="var(--line-fg)" stroke-width="2" x="0" width="65" y="0" height="65" style="opacity: 1;"></rect></g></g><g transform="translate(227.5, 97.5)"><g class="square"><rect fill="transparent" stroke="var(--line-fg)" stroke-width="2" x="0" width="65" y="0" height="65" style="opacity: 1;"></rect></g></g><g transform="translate(487.5, 32.5)"><g class="square"><rect fill="transparent" stroke="var(--line-fg)" stroke-width="2" x="0" width="65" y="0" height="65" style="opacity: 1;"></rect></g></g><g transform="translate(32.5, 162.5)"><g class="square"><rect fill="transparent" stroke="var(--line-fg)" stroke-width="2" x="0" width="65" y="0" height="65" style="opacity: 1;"></rect></g></g><g transform="translate(357.5, 97.5)"><g class="square"><rect fill="transparent" stroke="var(--line-fg)" stroke-width="2" x="0" width="65" y="0" height="65" style="opacity: 1;"></rect></g></g><g transform="translate(227.5, 32.5)"><g class="square"><rect fill="transparent" stroke="var(--line-fg)" stroke-width="2" x="0" width="65" y="0" height="65" style="opacity: 1;"></rect></g></g><g transform="translate(162.5, 487.5)"><g class="square"><rect fill="transparent" stroke="var(--line-fg)" stroke-width="2" x="0" width="65" y="0" height="65" style="opacity: 1;"></rect></g></g><g transform="translate(32.5, 422.5)"><g class="square"><rect fill="transparent" stroke="var(--line-fg)" stroke-width="2" x="0" width="65" y="0" height="65" style="opacity: 1;"></rect></g></g><g transform="translate(292.5, 357.5)"><g class="square"><rect fill="transparent" stroke="var(--line-fg)" stroke-width="2" x="0" width="65" y="0" height="65" style="opacity: 1;"></rect></g></g><g transform="translate(97.5, 97.5)"><g class="square"><rect fill="transparent" stroke="var(--line-fg)" stroke-width="2" x="0" width="65" y="0" height="65" style="opacity: 1;"></rect></g></g><g transform="translate(422.5, 32.5)"><g class="square"><rect fill="transparent" stroke="var(--line-fg)" stroke-width="2" x="0" width="65" y="0" height="65" style="opacity: 1;"></rect></g></g><g transform="translate(487.5, 292.5)"><g class="square"><rect fill="transparent" stroke="var(--line-fg)" stroke-width="2" x="0" width="65" y="0" height="65" style="opacity: 1;"></rect></g></g><g transform="translate(487.5, 487.5)"><g class="square"><rect fill="transparent" stroke="var(--line-fg)" stroke-width="2" x="0" width="65" y="0" height="65" style="opacity: 1;"></rect></g></g><g transform="translate(227.5, 227.5)"><g class="square"><rect fill="transparent" stroke="var(--line-fg)" stroke-width="2" x="0" width="65" y="0" height="65" style="opacity: 1;"></rect></g></g><g transform="translate(357.5, 32.5)"><g class="square"><rect fill="transparent" stroke="var(--line-fg)" stroke-width="2" x="0" width="65" y="0" height="65" style="opacity: 1;"></rect></g></g><g transform="translate(357.5, 292.5)"><g class="square"><rect fill="transparent" stroke="var(--line-fg)" stroke-width="2" x="0" width="65" y="0" height="65" style="opacity: 1;"></rect></g></g><g transform="translate(162.5, 422.5)"><g class="square"><rect fill="transparent" stroke="var(--line-fg)" stroke-width="2" x="0" width="65" y="0" height="65" style="opacity: 1;"></rect></g></g><g transform="translate(422.5, 227.5)"><g class="square"><rect fill="transparent" stroke="var(--line-fg)" stroke-width="2" x="0" width="65" y="0" height="65" style="opacity: 1;"></rect></g></g><g transform="translate(227.5, 357.5)"><g class="square"><rect fill="transparent" stroke="var(--line-fg)" stroke-width="2" x="0" width="65" y="0" height="65" style="opacity: 1;"></rect></g></g><g transform="translate(422.5, 422.5)"><g class="square"><rect fill="transparent" stroke="var(--line-fg)" stroke-width="2" x="0" width="65" y="0" height="65" style="opacity: 1;"></rect></g></g><g transform="translate(97.5, 292.5)"><g class="square"><rect fill="transparent" stroke="var(--line-fg)" stroke-width="2" x="0" width="65" y="0" height="65" style="opacity: 1;"></rect></g></g><g transform="translate(422.5, 487.5)"><g class="square"><rect fill="transparent" stroke="var(--line-fg)" stroke-width="2" x="0" width="65" y="0" height="65" style="opacity: 1;"></rect></g></g><g transform="translate(97.5, 487.5)"><g class="square"><rect fill="transparent" stroke="var(--line-fg)" stroke-width="2" x="0" width="65" y="0" height="65" style="opacity: 1;"></rect></g></g><g transform="translate(292.5, 552.5)"><g class="square"><rect fill="transparent" stroke="var(--line-fg)" stroke-width="2" x="0" width="65" y="0" height="65" style="opacity: 1;"></rect></g></g><g transform="translate(97.5, 552.5)"><g class="square"><rect fill="transparent" stroke="var(--line-fg)" stroke-width="2" x="0" width="65" y="0" height="65" style="opacity: 1;"></rect></g></g><g transform="translate(32.5, 227.5)"><g class="square"><rect fill="transparent" stroke="var(--line-fg)" stroke-width="2" x="0" width="65" y="0" height="65" style="opacity: 1;"></rect></g></g><g transform="translate(422.5, 357.5)"><g class="square"><rect fill="transparent" stroke="var(--line-fg)" stroke-width="2" x="0" width="65" y="0" height="65" style="opacity: 1;"></rect></g></g><g transform="translate(162.5, 97.5)"><g class="square"><rect fill="transparent" stroke="var(--line-fg)" stroke-width="2" x="0" width="65" y="0" height="65" style="opacity: 1;"></rect></g></g><g transform="translate(487.5, 552.5)"><g class="square"><rect fill="transparent" stroke="var(--line-fg)" stroke-width="2" x="0" width="65" y="0" height="65" style="opacity: 1;"></rect></g></g><g transform="translate(292.5, 97.5)"><g class="square"><rect fill="transparent" stroke="var(--line-fg)" stroke-width="2" x="0" width="65" y="0" height="65" style="opacity: 1;"></rect></g></g><g transform="translate(487.5, 357.5)"><g class="square"><rect fill="transparent" stroke="var(--line-fg)" stroke-width="2" x="0" width="65" y="0" height="65" style="opacity: 1;"></rect></g></g><g transform="translate(227.5, 422.5)"><g class="square"><rect fill="transparent" stroke="var(--line-fg)" stroke-width="2" x="0" width="65" y="0" height="65" style="opacity: 1;"></rect></g></g><g transform="translate(357.5, 552.5)"><g class="square"><rect fill="transparent" stroke="var(--line-fg)" stroke-width="2" x="0" width="65" y="0" height="65" style="opacity: 1;"></rect></g></g><g transform="translate(227.5, 552.5)"><g class="square"><rect fill="transparent" stroke="var(--line-fg)" stroke-width="2" x="0" width="65" y="0" height="65" style="opacity: 1;"></rect></g></g><g transform="translate(422.5, 97.5)"><g class="square"><rect fill="transparent" stroke="var(--line-fg)" stroke-width="2" x="0" width="65" y="0" height="65" style="opacity: 1;"></rect></g></g><g transform="translate(97.5, 422.5)"><g class="square"><rect fill="transparent" stroke="var(--line-fg)" stroke-width="2" x="0" width="65" y="0" height="65" style="opacity: 1;"></rect></g></g><g transform="translate(292.5, 292.5)"><g class="square"><rect fill="transparent" stroke="var(--line-fg)" stroke-width="2" x="0" width="65" y="0" height="65" style="opacity: 1;"></rect></g></g><g transform="translate(227.5, 487.5)"><g class="square"><rect fill="transparent" stroke="var(--line-fg)" stroke-width="2" x="0" width="65" y="0" height="65" style="opacity: 1;"></rect></g></g><g transform="translate(97.5, 32.5)"><g class="square"><rect fill="transparent" stroke="var(--line-fg)" stroke-width="2" x="0" width="65" y="0" height="65" style="opacity: 1;"></rect></g></g><g transform="translate(487.5, 227.5)"><g class="square"><rect fill="transparent" stroke="var(--line-fg)" stroke-width="2" x="0" width="65" y="0" height="65" style="opacity: 1;"></rect></g></g><g transform="translate(162.5, 32.5)"><g class="square"><rect fill="transparent" stroke="var(--line-fg)" stroke-width="2" x="0" width="65" y="0" height="65" style="opacity: 1;"></rect></g></g><g transform="translate(162.5, 552.5)"><g class="square"><rect fill="transparent" stroke="var(--line-fg)" stroke-width="2" x="0" width="65" y="0" height="65" style="opacity: 1;"></rect></g></g><g transform="translate(292.5, 32.5)"><g class="square"><rect fill="transparent" stroke="var(--line-fg)" stroke-width="2" x="0" width="65" y="0" height="65" style="opacity: 1;"></rect></g></g><g transform="translate(422.5, 162.5)"><g class="square"><rect fill="transparent" stroke="var(--line-fg)" stroke-width="2" x="0" width="65" y="0" height="65" style="opacity: 1;"></rect></g></g><g transform="translate(422.5, 292.5)"><g class="square"><rect fill="transparent" stroke="var(--line-fg)" stroke-width="2" x="0" width="65" y="0" height="65" style="opacity: 1;"></rect></g></g><g transform="translate(162.5, 357.5)"><g class="square"><rect fill="transparent" stroke="var(--line-fg)" stroke-width="2" x="0" width="65" y="0" height="65" style="opacity: 1;"></rect></g></g><g transform="translate(32.5, 292.5)"><g class="square"><rect fill="transparent" stroke="var(--line-fg)" stroke-width="2" x="0" width="65" y="0" height="65" style="opacity: 1;"></rect></g></g><g transform="translate(487.5, 422.5)"><g class="square"><rect fill="transparent" stroke="var(--line-fg)" stroke-width="2" x="0" width="65" y="0" height="65" style="opacity: 1;"></rect></g></g></g></g><g class="area-grid-bg-mid"></g><g class="area-grid-bg"></g><g class="e-grid" transform=""><g><g class="tl-box" style="transition: transform 300ms linear 0s; transform: translate(32.5px, 422.5px);"><g class=" 1" transform=""><g><g transform="scale(0.5525,0.5525)"><g transform="translate(-50, -50)"><g transform="translate(9.999999999999998, 9.999999999999998)scale(0.8,0.8)"><g><path fill="var(--e-white-bg)" stroke="var(--e-white-bo)" stroke-width="2.3529411764705883" d="M36 6 L64 6 A 10 10 0 0 1 72.53553390593274 9.535533905932738 L90.46446609406726 27.464466094067262 A 10 10 0 0 1 94 36 L94 64 A 10 10 0 0 1 90.46446609406726 72.53553390593274 L72.53553390593274 90.46446609406726 A 10 10 0 0 1 64 94 L36 94 A 10 10 0 0 1 27.464466094067262 90.46446609406726 L9.535533905932738 72.53553390593274 A 10 10 0 0 1 6 64 L6 36 A 10 10 0 0 1 9.535533905932738 27.464466094067262 L27.464466094067262 9.535533905932738 A 10 10 0 0 1 36 6z" style="stroke-width: 3.125;"></path><g transform="translate(14, 11)scale(0.07)"><path fill="var(--e-white-fg)" stroke="var(--e-white-bg)" stroke-width="2.3529411764705883" d="M607 611q154 -22 179 -27.5t56 -5.5t63.5 23t32.5 38.5t-43 15.5q-21 0 -62 -5.5t-153 -5.5t-242 17t-220 45q-16 6 -41 6t-47 -13t-22 -23.5t27.5 -10.5t234.5 -25q-3 -112 -11.5 -198.5t-29 -115t-20.5 -38.5t18 -10t76 21q90 -33 145.5 -66.5t59.5 -52t16 -18.5 q15 0 57 21t42 34q0 5 -3.5 7t-48.5 16l-266 85q-1 10 -1 29t4 88q73 -3 254 -58q23 -7 50.5 -7t46 8.5t18.5 18.5t-29.5 17t-160.5 29q56 19 56 37q0 7 -6 16q-12 21 -30 108zM566 616q7 -75 7 -111t-16 -50q-91 14 -114 14t-34 -2l8 168zM467 774q0 9 -7 14l-122 80 q-44 29 -90.5 47.5t-58.5 18.5t-12 -6t13 -14q71 -46 133 -100.5t62 -73.5q0 -28 14 -28t41 25t27 37zM606 714q7 0 60.5 26t89.5 52t52.5 51t16.5 59q0 45 -20 45t-52 -40q-75 -94 -144 -168q-10 -11 -10 -18t7 -7z"></path></g></g></g></g></g></g></g></g><g class="tl-box" style="transition: transform 300ms linear 0s; transform: translate(162.5px, 422.5px);"><g class=" 2" transform=""><g><g transform="scale(0.5525,0.5525)"><g transform="translate(-50, -50)"><g transform="translate(9.999999999999998, 9.999999999999998)scale(0.8,0.8)"><g><path fill="var(--e-white-bg)" stroke="var(--e-white-bo)" stroke-width="2.3529411764705883" d="M36 6 L64 6 A 10 10 0 0 1 72.53553390593274 9.535533905932738 L90.46446609406726 27.464466094067262 A 10 10 0 0 1 94 36 L94 64 A 10 10 0 0 1 90.46446609406726 72.53553390593274 L72.53553390593274 90.46446609406726 A 10 10 0 0 1 64 94 L36 94 A 10 10 0 0 1 27.464466094067262 90.46446609406726 L9.535533905932738 72.53553390593274 A 10 10 0 0 1 6 64 L6 36 A 10 10 0 0 1 9.535533905932738 27.464466094067262 L27.464466094067262 9.535533905932738 A 10 10 0 0 1 36 6z" style="stroke-width: 3.125;"></path><g transform="translate(14, 11)scale(0.07)"><path fill="var(--e-white-fg)" stroke="var(--e-white-bg)" stroke-width="2.3529411764705883" d="M607 611q154 -22 179 -27.5t56 -5.5t63.5 23t32.5 38.5t-43 15.5q-21 0 -62 -5.5t-153 -5.5t-242 17t-220 45q-16 6 -41 6t-47 -13t-22 -23.5t27.5 -10.5t234.5 -25q-3 -112 -11.5 -198.5t-29 -115t-20.5 -38.5t18 -10t76 21q90 -33 145.5 -66.5t59.5 -52t16 -18.5 q15 0 57 21t42 34q0 5 -3.5 7t-48.5 16l-266 85q-1 10 -1 29t4 88q73 -3 254 -58q23 -7 50.5 -7t46 8.5t18.5 18.5t-29.5 17t-160.5 29q56 19 56 37q0 7 -6 16q-12 21 -30 108zM566 616q7 -75 7 -111t-16 -50q-91 14 -114 14t-34 -2l8 168zM467 774q0 9 -7 14l-122 80 q-44 29 -90.5 47.5t-58.5 18.5t-12 -6t13 -14q71 -46 133 -100.5t62 -73.5q0 -28 14 -28t41 25t27 37zM606 714q7 0 60.5 26t89.5 52t52.5 51t16.5 59q0 45 -20 45t-52 -40q-75 -94 -144 -168q-10 -11 -10 -18t7 -7z"></path></g></g></g></g></g></g></g></g><g class="tl-box" style="transition: transform 300ms linear 0s; transform: translate(292.5px, 422.5px);"><g class=" 3" transform=""><g><g transform="scale(0.5525,0.5525)"><g transform="translate(-50, -50)"><g transform="translate(9.999999999999998, 9.999999999999998)scale(0.8,0.8)"><g><path fill="var(--e-white-bg)" stroke="var(--e-white-bo)" stroke-width="2.3529411764705883" d="M36 6 L64 6 A 10 10 0 0 1 72.53553390593274 9.535533905932738 L90.46446609406726 27.464466094067262 A 10 10 0 0 1 94 36 L94 64 A 10 10 0 0 1 90.46446609406726 72.53553390593274 L72.53553390593274 90.46446609406726 A 10 10 0 0 1 64 94 L36 94 A 10 10 0 0 1 27.464466094067262 90.46446609406726 L9.535533905932738 72.53553390593274 A 10 10 0 0 1 6 64 L6 36 A 10 10 0 0 1 9.535533905932738 27.464466094067262 L27.464466094067262 9.535533905932738 A 10 10 0 0 1 36 6z" style="stroke-width: 3.125;"></path><g transform="translate(14, 11)scale(0.07)"><path fill="var(--e-white-fg)" stroke="var(--e-white-bg)" stroke-width="2.3529411764705883" d="M607 611q154 -22 179 -27.5t56 -5.5t63.5 23t32.5 38.5t-43 15.5q-21 0 -62 -5.5t-153 -5.5t-242 17t-220 45q-16 6 -41 6t-47 -13t-22 -23.5t27.5 -10.5t234.5 -25q-3 -112 -11.5 -198.5t-29 -115t-20.5 -38.5t18 -10t76 21q90 -33 145.5 -66.5t59.5 -52t16 -18.5 q15 0 57 21t42 34q0 5 -3.5 7t-48.5 16l-266 85q-1 10 -1 29t4 88q73 -3 254 -58q23 -7 50.5 -7t46 8.5t18.5 18.5t-29.5 17t-160.5 29q56 19 56 37q0 7 -6 16q-12 21 -30 108zM566 616q7 -75 7 -111t-16 -50q-91 14 -114 14t-34 -2l8 168zM467 774q0 9 -7 14l-122 80 q-44 29 -90.5 47.5t-58.5 18.5t-12 -6t13 -14q71 -46 133 -100.5t62 -73.5q0 -28 14 -28t41 25t27 37zM606 714q7 0 60.5 26t89.5 52t52.5 51t16.5 59q0 45 -20 45t-52 -40q-75 -94 -144 -168q-10 -11 -10 -18t7 -7z"></path></g></g></g></g></g></g></g></g><g class="tl-box" style="transition: transform 300ms linear 0s; transform: translate(422.5px, 422.5px);"><g class=" 4" transform=""><g><g transform="scale(0.5525,0.5525)"><g transform="translate(-50, -50)"><g transform="translate(9.999999999999998, 9.999999999999998)scale(0.8,0.8)"><g><path fill="var(--e-white-bg)" stroke="var(--e-white-bo)" stroke-width="2.3529411764705883" d="M36 6 L64 6 A 10 10 0 0 1 72.53553390593274 9.535533905932738 L90.46446609406726 27.464466094067262 A 10 10 0 0 1 94 36 L94 64 A 10 10 0 0 1 90.46446609406726 72.53553390593274 L72.53553390593274 90.46446609406726 A 10 10 0 0 1 64 94 L36 94 A 10 10 0 0 1 27.464466094067262 90.46446609406726 L9.535533905932738 72.53553390593274 A 10 10 0 0 1 6 64 L6 36 A 10 10 0 0 1 9.535533905932738 27.464466094067262 L27.464466094067262 9.535533905932738 A 10 10 0 0 1 36 6z" style="stroke-width: 3.125;"></path><g transform="translate(14, 11)scale(0.07)"><path fill="var(--e-white-fg)" stroke="var(--e-white-bg)" stroke-width="2.3529411764705883" d="M607 611q154 -22 179 -27.5t56 -5.5t63.5 23t32.5 38.5t-43 15.5q-21 0 -62 -5.5t-153 -5.5t-242 17t-220 45q-16 6 -41 6t-47 -13t-22 -23.5t27.5 -10.5t234.5 -25q-3 -112 -11.5 -198.5t-29 -115t-20.5 -38.5t18 -10t76 21q90 -33 145.5 -66.5t59.5 -52t16 -18.5 q15 0 57 21t42 34q0 5 -3.5 7t-48.5 16l-266 85q-1 10 -1 29t4 88q73 -3 254 -58q23 -7 50.5 -7t46 8.5t18.5 18.5t-29.5 17t-160.5 29q56 19 56 37q0 7 -6 16q-12 21 -30 108zM566 616q7 -75 7 -111t-16 -50q-91 14 -114 14t-34 -2l8 168zM467 774q0 9 -7 14l-122 80 q-44 29 -90.5 47.5t-58.5 18.5t-12 -6t13 -14q71 -46 133 -100.5t62 -73.5q0 -28 14 -28t41 25t27 37zM606 714q7 0 60.5 26t89.5 52t52.5 51t16.5 59q0 45 -20 45t-52 -40q-75 -94 -144 -168q-10 -11 -10 -18t7 -7z"></path></g></g></g></g></g></g></g></g><g class="tl-box" style="transition: transform 300ms linear 0s; transform: translate(552.5px, 422.5px);"><g class=" 5" transform=""><g><g transform="scale(0.5525,0.5525)"><g transform="translate(-50, -50)"><g transform="translate(9.999999999999998, 9.999999999999998)scale(0.8,0.8)"><g><path fill="var(--e-white-bg)" stroke="var(--e-white-bo)" stroke-width="2.3529411764705883" d="M36 6 L64 6 A 10 10 0 0 1 72.53553390593274 9.535533905932738 L90.46446609406726 27.464466094067262 A 10 10 0 0 1 94 36 L94 64 A 10 10 0 0 1 90.46446609406726 72.53553390593274 L72.53553390593274 90.46446609406726 A 10 10 0 0 1 64 94 L36 94 A 10 10 0 0 1 27.464466094067262 90.46446609406726 L9.535533905932738 72.53553390593274 A 10 10 0 0 1 6 64 L6 36 A 10 10 0 0 1 9.535533905932738 27.464466094067262 L27.464466094067262 9.535533905932738 A 10 10 0 0 1 36 6z" style="stroke-width: 3.125;"></path><g transform="translate(14, 11)scale(0.07)"><path fill="var(--e-white-fg)" stroke="var(--e-white-bg)" stroke-width="2.3529411764705883" d="M607 611q154 -22 179 -27.5t56 -5.5t63.5 23t32.5 38.5t-43 15.5q-21 0 -62 -5.5t-153 -5.5t-242 17t-220 45q-16 6 -41 6t-47 -13t-22 -23.5t27.5 -10.5t234.5 -25q-3 -112 -11.5 -198.5t-29 -115t-20.5 -38.5t18 -10t76 21q90 -33 145.5 -66.5t59.5 -52t16 -18.5 q15 0 57 21t42 34q0 5 -3.5 7t-48.5 16l-266 85q-1 10 -1 29t4 88q73 -3 254 -58q23 -7 50.5 -7t46 8.5t18.5 18.5t-29.5 17t-160.5 29q56 19 56 37q0 7 -6 16q-12 21 -30 108zM566 616q7 -75 7 -111t-16 -50q-91 14 -114 14t-34 -2l8 168zM467 774q0 9 -7 14l-122 80 q-44 29 -90.5 47.5t-58.5 18.5t-12 -6t13 -14q71 -46 133 -100.5t62 -73.5q0 -28 14 -28t41 25t27 37zM606 714q7 0 60.5 26t89.5 52t52.5 51t16.5 59q0 45 -20 45t-52 -40q-75 -94 -144 -168q-10 -11 -10 -18t7 -7z"></path></g></g></g></g></g></g></g></g><g class="tl-box" style="transition: transform 300ms linear 0s; transform: translate(97.5px, 487.5px);"><g class=" 6" transform=""><g><g transform="scale(0.5525,0.5525)"><g transform="translate(-50, -50)"><g transform="scale(1,1)"><g><path fill="var(--e-white-bg)" stroke="var(--e-white-bo)" stroke-width="2.3529411764705883" d="M36 6 L64 6 A 10 10 0 0 1 72.53553390593274 9.535533905932738 L90.46446609406726 27.464466094067262 A 10 10 0 0 1 94 36 L94 64 A 10 10 0 0 1 90.46446609406726 72.53553390593274 L72.53553390593274 90.46446609406726 A 10 10 0 0 1 64 94 L36 94 A 10 10 0 0 1 27.464466094067262 90.46446609406726 L9.535533905932738 72.53553390593274 A 10 10 0 0 1 6 64 L6 36 A 10 10 0 0 1 9.535533905932738 27.464466094067262 L27.464466094067262 9.535533905932738 A 10 10 0 0 1 36 6z" style="stroke-width: 2.5;"></path><g transform="translate(12, 10)scale(0.07)"><path fill="var(--e-white-fg)" stroke="var(--e-white-bg)" stroke-width="2.3529411764705883" d="M315 367q6 1 14 1q45 0 147 -22t165 -43q8 -3 16 -3q19 0 64 23t45 36q0 6 -9 13q-28 21 -34.5 112t-29 149.5t-51.5 84.5t-39 26t-13.5 -16t-13.5 -37.5t-19.5 -33.5t-9.5 -18t7.5 -6t21.5 7t27.5 7t24 -21.5t23 -81t12.5 -111t-7 -64t-25 -12.5t-90.5 12t-152.5 30
 q-11 2 -21 2q-31 0 -64 -22q-37 37 -71 59t-44 22q-4 0 -4 -4t14 -18q66 -67 118 -149t52 -109q0 -6 -3 -14t-3 -18.5t15.5 -10.5t48.5 23t33 40q0 10 -10 18q-22 18 -60.5 65t-73.5 84zM280 676q-4 109 16 144.5t91.5 54.5t159.5 19t164 -11t105 -28t43 -44t33 -112
 q4 -19 11 -19t8 21q5 99 24 148q4 11 4 19q0 38 -102 64.5t-209.5 26.5t-186 -11t-124 -43t-63 -80.5t-17.5 -132.5l3 -112q0 -48 -14 -71q-4 -8 -4 -14.5t13 -6.5t50 20q8 1 16 1q22 0 70 -14t58.5 -20t25 -6t47 14t32.5 27q0 8 -19 18t-37.5 39t-18.5 44.5t11.5 18.5
 t11.5 12.5t-14 10.5q-53 5 -131 24q-13 4 -28.5 4t-28.5 -5zM280 653q67 -11 90 -18t32 -17.5t17 -38t8 -49.5q0 -14 -17 -14q-25 0 -75 14q-15 4 -26.5 4t-23.5 -4q5 14 5 24.5t-2 17.5q-6 30 -8 81z"></path></g></g></g></g></g></g></g></g><g class="tl-box" style="transition: transform 300ms linear 0s; transform: translate(487.5px, 487.5px);"><g class=" 7" transform=""><g><g transform="scale(0.5525,0.5525)"><g transform="translate(-50, -50)"><g transform="scale(1,1)"><g><path fill="var(--e-white-bg)" stroke="var(--e-white-bo)" stroke-width="2.3529411764705883" d="M36 6 L64 6 A 10 10 0 0 1 72.53553390593274 9.535533905932738 L90.46446609406726 27.464466094067262 A 10 10 0 0 1 94 36 L94 64 A 10 10 0 0 1 90.46446609406726 72.53553390593274 L72.53553390593274 90.46446609406726 A 10 10 0 0 1 64 94 L36 94 A 10 10 0 0 1 27.464466094067262 90.46446609406726 L9.535533905932738 72.53553390593274 A 10 10 0 0 1 6 64 L6 36 A 10 10 0 0 1 9.535533905932738 27.464466094067262 L27.464466094067262 9.535533905932738 A 10 10 0 0 1 36 6z" style="stroke-width: 2.5;"></path><g transform="translate(12, 10)scale(0.07)"><path fill="var(--e-white-fg)" stroke="var(--e-white-bg)" stroke-width="2.3529411764705883" d="M315 367q6 1 14 1q45 0 147 -22t165 -43q8 -3 16 -3q19 0 64 23t45 36q0 6 -9 13q-28 21 -34.5 112t-29 149.5t-51.5 84.5t-39 26t-13.5 -16t-13.5 -37.5t-19.5 -33.5t-9.5 -18t7.5 -6t21.5 7t27.5 7t24 -21.5t23 -81t12.5 -111t-7 -64t-25 -12.5t-90.5 12t-152.5 30
 q-11 2 -21 2q-31 0 -64 -22q-37 37 -71 59t-44 22q-4 0 -4 -4t14 -18q66 -67 118 -149t52 -109q0 -6 -3 -14t-3 -18.5t15.5 -10.5t48.5 23t33 40q0 10 -10 18q-22 18 -60.5 65t-73.5 84zM280 676q-4 109 16 144.5t91.5 54.5t159.5 19t164 -11t105 -28t43 -44t33 -112
 q4 -19 11 -19t8 21q5 99 24 148q4 11 4 19q0 38 -102 64.5t-209.5 26.5t-186 -11t-124 -43t-63 -80.5t-17.5 -132.5l3 -112q0 -48 -14 -71q-4 -8 -4 -14.5t13 -6.5t50 20q8 1 16 1q22 0 70 -14t58.5 -20t25 -6t47 14t32.5 27q0 8 -19 18t-37.5 39t-18.5 44.5t11.5 18.5
 t11.5 12.5t-14 10.5q-53 5 -131 24q-13 4 -28.5 4t-28.5 -5zM280 653q67 -11 90 -18t32 -17.5t17 -38t8 -49.5q0 -14 -17 -14q-25 0 -75 14q-15 4 -26.5 4t-23.5 -4q5 14 5 24.5t-2 17.5q-6 30 -8 81z"></path></g></g></g></g></g></g></g></g><g class="tl-box" style="transition: transform 300ms linear 0s; transform: translate(292.5px, 552.5px);"><g class=" 8" transform=""><g><g transform="scale(0.5525,0.5525)"><g transform="translate(-50, -50)"><g transform="translate(-9.999999999999998, -9.999999999999998)scale(1.2,1.2)"><g><path fill="var(--e-white-bg)" stroke="var(--e-white-bo)" stroke-width="2.3529411764705883" d="M36 6 L64 6 A 10 10 0 0 1 72.53553390593274 9.535533905932738 L90.46446609406726 27.464466094067262 A 10 10 0 0 1 94 36 L94 64 A 10 10 0 0 1 90.46446609406726 72.53553390593274 L72.53553390593274 90.46446609406726 A 10 10 0 0 1 64 94 L36 94 A 10 10 0 0 1 27.464466094067262 90.46446609406726 L9.535533905932738 72.53553390593274 A 10 10 0 0 1 6 64 L6 36 A 10 10 0 0 1 9.535533905932738 27.464466094067262 L27.464466094067262 9.535533905932738 A 10 10 0 0 1 36 6z" style="stroke-width: 2.08333;"></path><g transform="translate(13, 9)scale(0.07)"><path fill="var(--e-white-fg)" stroke="var(--e-white-bg)" stroke-width="2.3529411764705883" d="M563 581q-41 8 -96 11q-4 20 -11 20t-18 -12.5t-14 -29.5t-13.5 -39.5t-19.5 -33.5t-9 -17.5t14 -6.5t45 9q57 -6 122 -17q-5 -38 -13 -52q-2 0 -7.5 1t-7.5 1q-12 12 -17.5 12t-8.5 -12.5t-10 -81.5q-51 12 -75 12t-42 -8.5t-18 -13.5t29.5 -7t101.5 -15
 q-11 -55 -29.5 -69t-18.5 -25t14.5 -11t35 9.5t30.5 18t10 16.5t-1 16.5t-1 38.5q69 -12 128 -23q3 -25 3 -43q0 -33 -10 -45t-10 -20q0 -13 18 -13t49 17t31 30q0 5 -8 17.5t-20 46.5q59 -12 87.5 -12t47.5 10.5t19 20.5q0 14 -40 14t-128 8q-11 39 -11 48.5t6 13t6 9.5
 q0 13 -20 15q-9 1 -39 7.5t-50 9.5q30 27 25 48q71 -18 88.5 -26.5t35 -8.5t46.5 15.5t29 30.5q0 9 -8.5 12.5t-30 19t-21.5 22.5t5.5 12.5t5.5 9.5q0 10 -30.5 12t-129.5 18q-2 32 -4 50q78 -17 93.5 -17t30.5 5.5t15 12.5t-6 10t-56.5 13.5t-79.5 14.5q-4 39 -6 51
 q99 -12 150 -20q44 -8 76 -8t57.5 17.5t25.5 29.5t-25 12q-9 0 -21 -2q-29 -5 -105 -5t-153 5q63 67 131.5 114.5t189.5 77.5q29 6 29 16q0 5 -8 7.5t-60.5 5.5t-85 3t-49 -4.5t-25.5 -13.5t-58.5 -71.5t-82.5 -107.5q-21 58 -66 103t-101 68.5t-93 23.5q-16 0 -16 -7.5
 t16 -12.5q86 -33 143 -83.5t76 -111.5q-63 9 -108 18t-65 9t-44 -11t-24 -18.5t23 -7.5q64 0 224 -20q6 -34 8 -51q-40 5 -66 5q-52 0 -52 -14q0 -8 15 -10q46 -5 107 -17zM658 309q-72 9 -122 18q2 20 4 63q88 -22 95 -22.5t12 -8.5t11 -50zM613 482l-3 62q26 -5 55 -11
 t37.5 -10.5t14.5 -18.5t6 -25t-16 -11t-94 14zM564 553q1 -13 1 -27.5t-1 -34.5q-56 8 -109 18q6 21 11 59q52 -6 98 -15zM194 234q13 0 52.5 15t52 39.5t12.5 49t-22.5 24.5t-63 -54t-40.5 -67q0 -7 9 -7zM213 528q0 38 -21 38t-61 -54t-40 -67q0 -7 12 -7q40 0 75 26
 t35 64zM302 581q0 9 -7 25q-62 151 -82 207.5t-26 91t-20 34.5t-40.5 -50.5t-26.5 -64.5q0 -8 14.5 -9t25 -11.5t48.5 -67t86 -140.5q14 -23 23 -23q5 0 5 8z"></path></g></g></g></g></g></g></g></g><g class="tl-box" style="transition: transform 300ms linear 0s; transform: translate(32.5px, 617.5px);"><g class=" 9" transform=""><g><g transform="scale(0.5525,0.5525)"><g transform="translate(-50, -50)"><g transform="scale(1,1)"><g><path fill="var(--e-white-bg)" stroke="var(--e-white-bo)" stroke-width="2.3529411764705883" d="M36 6 L64 6 A 10 10 0 0 1 72.53553390593274 9.535533905932738 L90.46446609406726 27.464466094067262 A 10 10 0 0 1 94 36 L94 64 A 10 10 0 0 1 90.46446609406726 72.53553390593274 L72.53553390593274 90.46446609406726 A 10 10 0 0 1 64 94 L36 94 A 10 10 0 0 1 27.464466094067262 90.46446609406726 L9.535533905932738 72.53553390593274 A 10 10 0 0 1 6 64 L6 36 A 10 10 0 0 1 9.535533905932738 27.464466094067262 L27.464466094067262 9.535533905932738 A 10 10 0 0 1 36 6z" style="stroke-width: 2.5;"></path><g transform="translate(14, 11)scale(0.07)"><path fill="var(--e-white-fg)" stroke="var(--e-white-bg)" stroke-width="2.3529411764705883" d="M488 317q-51 7 -81.5 7t-56 -6.5t-25.5 -14t19 -8.5q54 -4 143 -22q-1 -53 -7 -75t-21 -39q-8 -10 -8 -19t18 -9t53.5 13t35.5 34q0 6 -3 13q-9 21 -11 71q51 -11 77.5 -18t41 -7t31.5 7t17 17.5t-23.5 18.5t-143.5 27q2 49 2 79q96 -17 121 -26q16 -6 32 -6t54.5 23 t38.5 38q0 8 -11 18.5t-19.5 29t-21 61t-30 73t-35.5 30.5q-12 0 -18 -11q-5 -8 -21.5 -8t-89.5 10v85q106 -13 161.5 -21.5t77 -12t42 -3.5t50 20t29.5 36q0 18 -34 15q-86 -9 -150.5 -9t-175.5 12q0 138 -8 211t-23 73q-4 0 -8 -5t-8 -38.5t-5 -69.5l-1 -166 q-196 23 -238.5 33.5t-61.5 10.5t-43.5 -15.5t-24.5 -22.5t6 -8t37 -1t132 -10t193 -23v-84l-109 17q2 15 -16 15q-8 0 -21.5 -24t-22.5 -61q-23 -98 -48 -128q-12 -14 -12 -23.5t18.5 -9.5t48.5 8l157 -25q-1 -39 -1 -77zM547 474q22 -4 51 -4t29 15q0 8 -11 16t-69 19 q2 31 0 66q94 -14 118 -13q15 1 19.5 -6.5t17.5 -61.5t13 -72t-6 -23t-24 -5q-58 0 -118 9v60zM493 529q-32 4 -50.5 4t-27.5 -7t-9 -11t14 -7t72 -17q-1 -50 -2 -68q-58 8 -136 26q14 71 28 161l111 -16v-65z"></path></g></g></g></g></g></g></g></g><g class="tl-box" style="transition: transform 300ms linear 0s; transform: translate(97.5px, 617.5px);"><g class=" 10" transform=""><g><g transform="scale(0.5525,0.5525)"><g transform="translate(-50, -50)"><g transform="scale(1,1)"><g><path fill="var(--e-white-bg)" stroke="var(--e-white-bo)" stroke-width="2.3529411764705883" d="M36 6 L64 6 A 10 10 0 0 1 72.53553390593274 9.535533905932738 L90.46446609406726 27.464466094067262 A 10 10 0 0 1 94 36 L94 64 A 10 10 0 0 1 90.46446609406726 72.53553390593274 L72.53553390593274 90.46446609406726 A 10 10 0 0 1 64 94 L36 94 A 10 10 0 0 1 27.464466094067262 90.46446609406726 L9.535533905932738 72.53553390593274 A 10 10 0 0 1 6 64 L6 36 A 10 10 0 0 1 9.535533905932738 27.464466094067262 L27.464466094067262 9.535533905932738 A 10 10 0 0 1 36 6z" style="stroke-width: 2.5;"></path><g transform="translate(14, 11)scale(0.07)"><path fill="var(--e-white-fg)" stroke="var(--e-white-bg)" stroke-width="2.3529411764705883" d="M537 571q148 -20 189 -34q18 -5 32.5 -5t58 22.5t43.5 32t-9 22t-12.5 32t-7.5 71.5q-7 103 -36.5 168t-64 87.5t-44.5 22.5q-9 0 -12.5 -24t-18 -48t-39 -51t-24.5 -29.5t4 -2.5t19 6q67 29 86.5 29t25.5 -10.5t26 -68.5t20 -111t-12.5 -75t-60 -22t-129.5 13.5 t-147.5 26t-79 17.5t-20.5 16t-15 11t-21 -21.5t-13 -39t3 -30.5q15 -70 15 -185.5t-16 -136.5q-11 -16 -11 -26t10.5 -10t36 10.5t28.5 17.5q151 -17 241 -47q43 -13 90 -13t47 16q0 14 -41.5 25.5t-133.5 24.5l-2 81q66 -19 82.5 -19t28 6.5t11.5 13.5q0 12 -38 18.5 t-85 16.5l-2 74q65 -19 90 -19q30 0 30 16q0 8 -8.5 13.5t-39.5 11.5q-51 11 -72 17zM346 268q-8 120 -15 331q90 -10 159 -21q3 -46 3 -84q-40 9 -57.5 9t-39.5 -4.5t-22 -10.5t19 -10q53 -8 100 -20q0 -56 -1 -78q-53 12 -71 12t-34.5 -8t-16.5 -13t19.5 -7.5t100.5 -17.5 q0 -43 -3 -86q-74 9 -100.5 9t-40.5 -1zM561 672q14 0 55.5 24t41.5 60q0 12 -4.5 25.5t-15.5 13.5q-21 0 -51.5 -51t-30.5 -67q0 -5 5 -5zM153 843q0 -14 13.5 -45t20 -49t9 -39.5t8.5 -21.5t16.5 23t10.5 62.5t-19.5 76t-30 36.5t-19.5 -14t-9 -29zM423 693q17 0 44 19.5 t27 48.5q0 14 -8 26.5t-15.5 12.5t-14.5 -8.5t-23.5 -46t-16.5 -45t7 -7.5zM305 714q16 0 36 26.5t20 56.5q0 15 -7 23t-16.5 8t-17.5 -14t-16 -45.5t-8 -43t9 -11.5z"></path></g></g></g></g></g></g></g></g><g class="tl-box" style="transition: transform 300ms linear 0s; transform: translate(162.5px, 617.5px);"><g class=" 11" transform=""><g><g transform="scale(0.5525,0.5525)"><g transform="translate(-50, -50)"><g transform="scale(1,1)"><g><path fill="var(--e-white-bg)" stroke="var(--e-white-bo)" stroke-width="2.3529411764705883" d="M36 6 L64 6 A 10 10 0 0 1 72.53553390593274 9.535533905932738 L90.46446609406726 27.464466094067262 A 10 10 0 0 1 94 36 L94 64 A 10 10 0 0 1 90.46446609406726 72.53553390593274 L72.53553390593274 90.46446609406726 A 10 10 0 0 1 64 94 L36 94 A 10 10 0 0 1 27.464466094067262 90.46446609406726 L9.535533905932738 72.53553390593274 A 10 10 0 0 1 6 64 L6 36 A 10 10 0 0 1 9.535533905932738 27.464466094067262 L27.464466094067262 9.535533905932738 A 10 10 0 0 1 36 6z" style="stroke-width: 2.5;"></path><g transform="translate(14, 11)scale(0.07)"><path fill="var(--e-white-fg)" stroke="var(--e-white-bg)" stroke-width="2.3529411764705883" d="M567 658q102 57 195.5 88t220.5 39q21 2 21 11q0 6 -12.5 11.5t-83 20.5t-99.5 15t-52 -14.5t-97 -70.5t-113 -88q22 35 35 86t13 94q0 68 -35.5 118.5t-61.5 50.5q-11 0 -17 -12t-25.5 -33.5t-41.5 -36.5q-7 -5 -7 -10t13 -5l52 3q30 0 41.5 -10.5t18.5 -39t7 -56.5 q0 -62 -30 -124q-74 96 -171.5 161t-150.5 65q-15 0 -15 -5t10 -10q71 -29 163 -107t135 -148q-16 -17 -37 -34q-73 87 -149 127t-98 40q-10 0 -10 -6.5t9 -11.5q161 -90 216 -175q-20 -17 -38 -29q-57 46 -97.5 66.5t-54.5 20.5q-5 0 -5 -4t12 -13q117 -84 164 -139l-55 7 q0 17 -17 17q-8 0 -13.5 -7.5t-15.5 -32t-29.5 -45.5t-36.5 -31t-17 -18q0 -13 17.5 -13t34.5 5q181 -24 208 -29q68 -82 79 -116q-47 9 -73.5 9t-54.5 -7q-45 45 -92 70t-61 25q-6 0 -6 -5t17 -18.5t50.5 -47t48 -54t18.5 -32.5t4 -26.5t16 -14.5t43.5 10.5t27.5 21.5 q0 8 -22.5 28t-27.5 25q40 -1 78.5 -10t56.5 -22q6 -4 19.5 -4t48.5 18t35 28t-32 17q-19 6 -59.5 33t-83.5 67q125 -17 149 -26q10 -4 18 -4q21 0 64.5 26.5t43.5 42.5q0 11 -26 19.5t-96 83.5q-17 19 -32.5 19t-19.5 -13.5t-25 -13.5q-36 0 -125 11q-27 35 -62 65 q100 48 147 103q127 -108 130 -138q3 -23 16 -23t43 15t30 25.5t-16 17.5q-45 20 -170 107zM470 458q75 -13 97.5 -13t32.5 3t16 3q12 0 31 -36.5t19 -45.5q0 -15 -24 -15q-17 0 -64.5 3.5t-89.5 9.5q21 21 21 33q0 6 -9 16t-30 42zM452 372q-116 20 -160 23q28 28 42 87 q44 -9 78 -15q29 -42 40 -95z"></path></g></g></g></g></g></g></g></g><g class="tl-box" style="transition: transform 300ms linear 0s; transform: translate(227.5px, 617.5px);"><g class=" 12" transform=""><g><g transform="scale(0.5525,0.5525)"><g transform="translate(-50, -50)"><g transform="translate(9.999999999999998, 9.999999999999998)scale(0.8,0.8)"><g><path fill="var(--e-white-bg)" stroke="var(--e-white-bo)" stroke-width="2.3529411764705883" d="M36 6 L64 6 A 10 10 0 0 1 72.53553390593274 9.535533905932738 L90.46446609406726 27.464466094067262 A 10 10 0 0 1 94 36 L94 64 A 10 10 0 0 1 90.46446609406726 72.53553390593274 L72.53553390593274 90.46446609406726 A 10 10 0 0 1 64 94 L36 94 A 10 10 0 0 1 27.464466094067262 90.46446609406726 L9.535533905932738 72.53553390593274 A 10 10 0 0 1 6 64 L6 36 A 10 10 0 0 1 9.535533905932738 27.464466094067262 L27.464466094067262 9.535533905932738 A 10 10 0 0 1 36 6z" style="stroke-width: 3.125;"></path><g transform="translate(14, 11)scale(0.07)"><path fill="var(--e-white-fg)" stroke="var(--e-white-bg)" stroke-width="2.3529411764705883" d="M558 527q126 -17 200 -32t101 -15t63 21t36 36q0 20 -58 20l-77 -3q-103 0 -266 18l-7 255q80 -9 108 -18t48 -9q45 0 80 20.5t35 36.5q0 20 -46 20q-12 0 -45 -4t-83 -4q-112 0 -261 31q-57 13 -75.5 13t-41.5 -16t-23 -22q0 -10 44 -12t208 -29l1 -255 q-119 14 -210.5 33t-108.5 19q-13 0 -38 -19t-25 -28t20 -9l25 2q56 0 337 -41q1 -181 -6 -243t-32 -93q-11 -14 -11 -23q0 -13 20 -13t67 15.5t47 39.5q0 10 -7.5 33.5t-11 80t-7.5 194.5z"></path></g></g></g></g></g></g></g></g><g class="tl-box" style="transition: transform 300ms linear 0s; transform: translate(357.5px, 617.5px);"><g class=" 13" transform=""><g><g transform="scale(0.5525,0.5525)"><g transform="translate(-50, -50)"><g transform="translate(9.999999999999998, 9.999999999999998)scale(0.8,0.8)"><g><path fill="var(--e-white-bg)" stroke="var(--e-white-bo)" stroke-width="2.3529411764705883" d="M36 6 L64 6 A 10 10 0 0 1 72.53553390593274 9.535533905932738 L90.46446609406726 27.464466094067262 A 10 10 0 0 1 94 36 L94 64 A 10 10 0 0 1 90.46446609406726 72.53553390593274 L72.53553390593274 90.46446609406726 A 10 10 0 0 1 64 94 L36 94 A 10 10 0 0 1 27.464466094067262 90.46446609406726 L9.535533905932738 72.53553390593274 A 10 10 0 0 1 6 64 L6 36 A 10 10 0 0 1 9.535533905932738 27.464466094067262 L27.464466094067262 9.535533905932738 A 10 10 0 0 1 36 6z" style="stroke-width: 3.125;"></path><g transform="translate(14, 11)scale(0.07)"><path fill="var(--e-white-fg)" stroke="var(--e-white-bg)" stroke-width="2.3529411764705883" d="M558 527q126 -17 200 -32t101 -15t63 21t36 36q0 20 -58 20l-77 -3q-103 0 -266 18l-7 255q80 -9 108 -18t48 -9q45 0 80 20.5t35 36.5q0 20 -46 20q-12 0 -45 -4t-83 -4q-112 0 -261 31q-57 13 -75.5 13t-41.5 -16t-23 -22q0 -10 44 -12t208 -29l1 -255 q-119 14 -210.5 33t-108.5 19q-13 0 -38 -19t-25 -28t20 -9l25 2q56 0 337 -41q1 -181 -6 -243t-32 -93q-11 -14 -11 -23q0 -13 20 -13t67 15.5t47 39.5q0 10 -7.5 33.5t-11 80t-7.5 194.5z"></path></g></g></g></g></g></g></g></g><g class="tl-box" style="transition: transform 300ms linear 0s; transform: translate(422.5px, 617.5px);"><g class=" 14" transform=""><g><g transform="scale(0.5525,0.5525)"><g transform="translate(-50, -50)"><g transform="scale(1,1)"><g><path fill="var(--e-white-bg)" stroke="var(--e-white-bo)" stroke-width="2.3529411764705883" d="M36 6 L64 6 A 10 10 0 0 1 72.53553390593274 9.535533905932738 L90.46446609406726 27.464466094067262 A 10 10 0 0 1 94 36 L94 64 A 10 10 0 0 1 90.46446609406726 72.53553390593274 L72.53553390593274 90.46446609406726 A 10 10 0 0 1 64 94 L36 94 A 10 10 0 0 1 27.464466094067262 90.46446609406726 L9.535533905932738 72.53553390593274 A 10 10 0 0 1 6 64 L6 36 A 10 10 0 0 1 9.535533905932738 27.464466094067262 L27.464466094067262 9.535533905932738 A 10 10 0 0 1 36 6z" style="stroke-width: 2.5;"></path><g transform="translate(14, 11)scale(0.07)"><path fill="var(--e-white-fg)" stroke="var(--e-white-bg)" stroke-width="2.3529411764705883" d="M567 658q102 57 195.5 88t220.5 39q21 2 21 11q0 6 -12.5 11.5t-83 20.5t-99.5 15t-52 -14.5t-97 -70.5t-113 -88q22 35 35 86t13 94q0 68 -35.5 118.5t-61.5 50.5q-11 0 -17 -12t-25.5 -33.5t-41.5 -36.5q-7 -5 -7 -10t13 -5l52 3q30 0 41.5 -10.5t18.5 -39t7 -56.5 q0 -62 -30 -124q-74 96 -171.5 161t-150.5 65q-15 0 -15 -5t10 -10q71 -29 163 -107t135 -148q-16 -17 -37 -34q-73 87 -149 127t-98 40q-10 0 -10 -6.5t9 -11.5q161 -90 216 -175q-20 -17 -38 -29q-57 46 -97.5 66.5t-54.5 20.5q-5 0 -5 -4t12 -13q117 -84 164 -139l-55 7 q0 17 -17 17q-8 0 -13.5 -7.5t-15.5 -32t-29.5 -45.5t-36.5 -31t-17 -18q0 -13 17.5 -13t34.5 5q181 -24 208 -29q68 -82 79 -116q-47 9 -73.5 9t-54.5 -7q-45 45 -92 70t-61 25q-6 0 -6 -5t17 -18.5t50.5 -47t48 -54t18.5 -32.5t4 -26.5t16 -14.5t43.5 10.5t27.5 21.5 q0 8 -22.5 28t-27.5 25q40 -1 78.5 -10t56.5 -22q6 -4 19.5 -4t48.5 18t35 28t-32 17q-19 6 -59.5 33t-83.5 67q125 -17 149 -26q10 -4 18 -4q21 0 64.5 26.5t43.5 42.5q0 11 -26 19.5t-96 83.5q-17 19 -32.5 19t-19.5 -13.5t-25 -13.5q-36 0 -125 11q-27 35 -62 65 q100 48 147 103q127 -108 130 -138q3 -23 16 -23t43 15t30 25.5t-16 17.5q-45 20 -170 107zM470 458q75 -13 97.5 -13t32.5 3t16 3q12 0 31 -36.5t19 -45.5q0 -15 -24 -15q-17 0 -64.5 3.5t-89.5 9.5q21 21 21 33q0 6 -9 16t-30 42zM452 372q-116 20 -160 23q28 28 42 87 q44 -9 78 -15q29 -42 40 -95z"></path></g></g></g></g></g></g></g></g><g class="tl-box" style="transition: transform 300ms linear 0s; transform: translate(487.5px, 617.5px);"><g class=" 15" transform=""><g><g transform="scale(0.5525,0.5525)"><g transform="translate(-50, -50)"><g transform="scale(1,1)"><g><path fill="var(--e-white-bg)" stroke="var(--e-white-bo)" stroke-width="2.3529411764705883" d="M36 6 L64 6 A 10 10 0 0 1 72.53553390593274 9.535533905932738 L90.46446609406726 27.464466094067262 A 10 10 0 0 1 94 36 L94 64 A 10 10 0 0 1 90.46446609406726 72.53553390593274 L72.53553390593274 90.46446609406726 A 10 10 0 0 1 64 94 L36 94 A 10 10 0 0 1 27.464466094067262 90.46446609406726 L9.535533905932738 72.53553390593274 A 10 10 0 0 1 6 64 L6 36 A 10 10 0 0 1 9.535533905932738 27.464466094067262 L27.464466094067262 9.535533905932738 A 10 10 0 0 1 36 6z" style="stroke-width: 2.5;"></path><g transform="translate(14, 11)scale(0.07)"><path fill="var(--e-white-fg)" stroke="var(--e-white-bg)" stroke-width="2.3529411764705883" d="M537 571q148 -20 189 -34q18 -5 32.5 -5t58 22.5t43.5 32t-9 22t-12.5 32t-7.5 71.5q-7 103 -36.5 168t-64 87.5t-44.5 22.5q-9 0 -12.5 -24t-18 -48t-39 -51t-24.5 -29.5t4 -2.5t19 6q67 29 86.5 29t25.5 -10.5t26 -68.5t20 -111t-12.5 -75t-60 -22t-129.5 13.5 t-147.5 26t-79 17.5t-20.5 16t-15 11t-21 -21.5t-13 -39t3 -30.5q15 -70 15 -185.5t-16 -136.5q-11 -16 -11 -26t10.5 -10t36 10.5t28.5 17.5q151 -17 241 -47q43 -13 90 -13t47 16q0 14 -41.5 25.5t-133.5 24.5l-2 81q66 -19 82.5 -19t28 6.5t11.5 13.5q0 12 -38 18.5 t-85 16.5l-2 74q65 -19 90 -19q30 0 30 16q0 8 -8.5 13.5t-39.5 11.5q-51 11 -72 17zM346 268q-8 120 -15 331q90 -10 159 -21q3 -46 3 -84q-40 9 -57.5 9t-39.5 -4.5t-22 -10.5t19 -10q53 -8 100 -20q0 -56 -1 -78q-53 12 -71 12t-34.5 -8t-16.5 -13t19.5 -7.5t100.5 -17.5 q0 -43 -3 -86q-74 9 -100.5 9t-40.5 -1zM561 672q14 0 55.5 24t41.5 60q0 12 -4.5 25.5t-15.5 13.5q-21 0 -51.5 -51t-30.5 -67q0 -5 5 -5zM153 843q0 -14 13.5 -45t20 -49t9 -39.5t8.5 -21.5t16.5 23t10.5 62.5t-19.5 76t-30 36.5t-19.5 -14t-9 -29zM423 693q17 0 44 19.5 t27 48.5q0 14 -8 26.5t-15.5 12.5t-14.5 -8.5t-23.5 -46t-16.5 -45t7 -7.5zM305 714q16 0 36 26.5t20 56.5q0 15 -7 23t-16.5 8t-17.5 -14t-16 -45.5t-8 -43t9 -11.5z"></path></g></g></g></g></g></g></g></g><g class="tl-box" style="transition: transform 300ms linear 0s; transform: translate(552.5px, 617.5px);"><g class=" 16" transform=""><g><g transform="scale(0.5525,0.5525)"><g transform="translate(-50, -50)"><g transform="scale(1,1)"><g><path fill="var(--e-white-bg)" stroke="var(--e-white-bo)" stroke-width="2.3529411764705883" d="M36 6 L64 6 A 10 10 0 0 1 72.53553390593274 9.535533905932738 L90.46446609406726 27.464466094067262 A 10 10 0 0 1 94 36 L94 64 A 10 10 0 0 1 90.46446609406726 72.53553390593274 L72.53553390593274 90.46446609406726 A 10 10 0 0 1 64 94 L36 94 A 10 10 0 0 1 27.464466094067262 90.46446609406726 L9.535533905932738 72.53553390593274 A 10 10 0 0 1 6 64 L6 36 A 10 10 0 0 1 9.535533905932738 27.464466094067262 L27.464466094067262 9.535533905932738 A 10 10 0 0 1 36 6z" style="stroke-width: 2.5;"></path><g transform="translate(14, 11)scale(0.07)"><path fill="var(--e-white-fg)" stroke="var(--e-white-bg)" stroke-width="2.3529411764705883" d="M488 317q-51 7 -81.5 7t-56 -6.5t-25.5 -14t19 -8.5q54 -4 143 -22q-1 -53 -7 -75t-21 -39q-8 -10 -8 -19t18 -9t53.5 13t35.5 34q0 6 -3 13q-9 21 -11 71q51 -11 77.5 -18t41 -7t31.5 7t17 17.5t-23.5 18.5t-143.5 27q2 49 2 79q96 -17 121 -26q16 -6 32 -6t54.5 23 t38.5 38q0 8 -11 18.5t-19.5 29t-21 61t-30 73t-35.5 30.5q-12 0 -18 -11q-5 -8 -21.5 -8t-89.5 10v85q106 -13 161.5 -21.5t77 -12t42 -3.5t50 20t29.5 36q0 18 -34 15q-86 -9 -150.5 -9t-175.5 12q0 138 -8 211t-23 73q-4 0 -8 -5t-8 -38.5t-5 -69.5l-1 -166 q-196 23 -238.5 33.5t-61.5 10.5t-43.5 -15.5t-24.5 -22.5t6 -8t37 -1t132 -10t193 -23v-84l-109 17q2 15 -16 15q-8 0 -21.5 -24t-22.5 -61q-23 -98 -48 -128q-12 -14 -12 -23.5t18.5 -9.5t48.5 8l157 -25q-1 -39 -1 -77zM547 474q22 -4 51 -4t29 15q0 8 -11 16t-69 19 q2 31 0 66q94 -14 118 -13q15 1 19.5 -6.5t17.5 -61.5t13 -72t-6 -23t-24 -5q-58 0 -118 9v60zM493 529q-32 4 -50.5 4t-27.5 -7t-9 -11t14 -7t72 -17q-1 -50 -2 -68q-58 8 -136 26q14 71 28 161l111 -16v-65z"></path></g></g></g></g></g></g></g></g><g class="tl-box" style="transition: transform 300ms linear 0s; transform: translate(32.5px, 227.5px);"><g class=" 17" transform=""><g><g transform="scale(0.5525,0.5525)"><g transform="translate(-50, -50)"><g transform="translate(9.999999999999998, 9.999999999999998)scale(0.8,0.8)"><g><path fill="var(--e-black-bg)" stroke="var(--e-black-bo)" stroke-width="2.3529411764705883" d="M36 6 L64 6 A 10 10 0 0 1 72.53553390593274 9.535533905932738 L90.46446609406726 27.464466094067262 A 10 10 0 0 1 94 36 L94 64 A 10 10 0 0 1 90.46446609406726 72.53553390593274 L72.53553390593274 90.46446609406726 A 10 10 0 0 1 64 94 L36 94 A 10 10 0 0 1 27.464466094067262 90.46446609406726 L9.535533905932738 72.53553390593274 A 10 10 0 0 1 6 64 L6 36 A 10 10 0 0 1 9.535533905932738 27.464466094067262 L27.464466094067262 9.535533905932738 A 10 10 0 0 1 36 6z" style="stroke-width: 3.125;"></path><g transform="translate(14, 11)scale(0.07)"><path fill="var(--e-black-fg)" stroke="var(--e-black-bg)" stroke-width="2.3529411764705883" d="M607 611q154 -22 179 -27.5t56 -5.5t63.5 23t32.5 38.5t-43 15.5q-21 0 -62 -5.5t-153 -5.5t-242 17t-220 45q-16 6 -41 6t-47 -13t-22 -23.5t27.5 -10.5t234.5 -25q-3 -112 -11.5 -198.5t-29 -115t-20.5 -38.5t18 -10t76 21q90 -33 145.5 -66.5t59.5 -52t16 -18.5 q15 0 57 21t42 34q0 5 -3.5 7t-48.5 16l-266 85q-1 10 -1 29t4 88q73 -3 254 -58q23 -7 50.5 -7t46 8.5t18.5 18.5t-29.5 17t-160.5 29q56 19 56 37q0 7 -6 16q-12 21 -30 108zM566 616q7 -75 7 -111t-16 -50q-91 14 -114 14t-34 -2l8 168zM467 774q0 9 -7 14l-122 80 q-44 29 -90.5 47.5t-58.5 18.5t-12 -6t13 -14q71 -46 133 -100.5t62 -73.5q0 -28 14 -28t41 25t27 37zM606 714q7 0 60.5 26t89.5 52t52.5 51t16.5 59q0 45 -20 45t-52 -40q-75 -94 -144 -168q-10 -11 -10 -18t7 -7z"></path></g></g></g></g></g></g></g></g><g class="tl-box" style="transition: transform 300ms linear 0s; transform: translate(162.5px, 227.5px);"><g class=" 18" transform=""><g><g transform="scale(0.5525,0.5525)"><g transform="translate(-50, -50)"><g transform="translate(9.999999999999998, 9.999999999999998)scale(0.8,0.8)"><g><path fill="var(--e-black-bg)" stroke="var(--e-black-bo)" stroke-width="2.3529411764705883" d="M36 6 L64 6 A 10 10 0 0 1 72.53553390593274 9.535533905932738 L90.46446609406726 27.464466094067262 A 10 10 0 0 1 94 36 L94 64 A 10 10 0 0 1 90.46446609406726 72.53553390593274 L72.53553390593274 90.46446609406726 A 10 10 0 0 1 64 94 L36 94 A 10 10 0 0 1 27.464466094067262 90.46446609406726 L9.535533905932738 72.53553390593274 A 10 10 0 0 1 6 64 L6 36 A 10 10 0 0 1 9.535533905932738 27.464466094067262 L27.464466094067262 9.535533905932738 A 10 10 0 0 1 36 6z" style="stroke-width: 3.125;"></path><g transform="translate(14, 11)scale(0.07)"><path fill="var(--e-black-fg)" stroke="var(--e-black-bg)" stroke-width="2.3529411764705883" d="M607 611q154 -22 179 -27.5t56 -5.5t63.5 23t32.5 38.5t-43 15.5q-21 0 -62 -5.5t-153 -5.5t-242 17t-220 45q-16 6 -41 6t-47 -13t-22 -23.5t27.5 -10.5t234.5 -25q-3 -112 -11.5 -198.5t-29 -115t-20.5 -38.5t18 -10t76 21q90 -33 145.5 -66.5t59.5 -52t16 -18.5 q15 0 57 21t42 34q0 5 -3.5 7t-48.5 16l-266 85q-1 10 -1 29t4 88q73 -3 254 -58q23 -7 50.5 -7t46 8.5t18.5 18.5t-29.5 17t-160.5 29q56 19 56 37q0 7 -6 16q-12 21 -30 108zM566 616q7 -75 7 -111t-16 -50q-91 14 -114 14t-34 -2l8 168zM467 774q0 9 -7 14l-122 80 q-44 29 -90.5 47.5t-58.5 18.5t-12 -6t13 -14q71 -46 133 -100.5t62 -73.5q0 -28 14 -28t41 25t27 37zM606 714q7 0 60.5 26t89.5 52t52.5 51t16.5 59q0 45 -20 45t-52 -40q-75 -94 -144 -168q-10 -11 -10 -18t7 -7z"></path></g></g></g></g></g></g></g></g><g class="tl-box" style="transition: transform 300ms linear 0s; transform: translate(292.5px, 227.5px);"><g class=" 19" transform=""><g><g transform="scale(0.5525,0.5525)"><g transform="translate(-50, -50)"><g transform="translate(9.999999999999998, 9.999999999999998)scale(0.8,0.8)"><g><path fill="var(--e-black-bg)" stroke="var(--e-black-bo)" stroke-width="2.3529411764705883" d="M36 6 L64 6 A 10 10 0 0 1 72.53553390593274 9.535533905932738 L90.46446609406726 27.464466094067262 A 10 10 0 0 1 94 36 L94 64 A 10 10 0 0 1 90.46446609406726 72.53553390593274 L72.53553390593274 90.46446609406726 A 10 10 0 0 1 64 94 L36 94 A 10 10 0 0 1 27.464466094067262 90.46446609406726 L9.535533905932738 72.53553390593274 A 10 10 0 0 1 6 64 L6 36 A 10 10 0 0 1 9.535533905932738 27.464466094067262 L27.464466094067262 9.535533905932738 A 10 10 0 0 1 36 6z" style="stroke-width: 3.125;"></path><g transform="translate(14, 11)scale(0.07)"><path fill="var(--e-black-fg)" stroke="var(--e-black-bg)" stroke-width="2.3529411764705883" d="M607 611q154 -22 179 -27.5t56 -5.5t63.5 23t32.5 38.5t-43 15.5q-21 0 -62 -5.5t-153 -5.5t-242 17t-220 45q-16 6 -41 6t-47 -13t-22 -23.5t27.5 -10.5t234.5 -25q-3 -112 -11.5 -198.5t-29 -115t-20.5 -38.5t18 -10t76 21q90 -33 145.5 -66.5t59.5 -52t16 -18.5 q15 0 57 21t42 34q0 5 -3.5 7t-48.5 16l-266 85q-1 10 -1 29t4 88q73 -3 254 -58q23 -7 50.5 -7t46 8.5t18.5 18.5t-29.5 17t-160.5 29q56 19 56 37q0 7 -6 16q-12 21 -30 108zM566 616q7 -75 7 -111t-16 -50q-91 14 -114 14t-34 -2l8 168zM467 774q0 9 -7 14l-122 80 q-44 29 -90.5 47.5t-58.5 18.5t-12 -6t13 -14q71 -46 133 -100.5t62 -73.5q0 -28 14 -28t41 25t27 37zM606 714q7 0 60.5 26t89.5 52t52.5 51t16.5 59q0 45 -20 45t-52 -40q-75 -94 -144 -168q-10 -11 -10 -18t7 -7z"></path></g></g></g></g></g></g></g></g><g class="tl-box" style="transition: transform 300ms linear 0s; transform: translate(422.5px, 227.5px);"><g class=" 20" transform=""><g><g transform="scale(0.5525,0.5525)"><g transform="translate(-50, -50)"><g transform="translate(9.999999999999998, 9.999999999999998)scale(0.8,0.8)"><g><path fill="var(--e-black-bg)" stroke="var(--e-black-bo)" stroke-width="2.3529411764705883" d="M36 6 L64 6 A 10 10 0 0 1 72.53553390593274 9.535533905932738 L90.46446609406726 27.464466094067262 A 10 10 0 0 1 94 36 L94 64 A 10 10 0 0 1 90.46446609406726 72.53553390593274 L72.53553390593274 90.46446609406726 A 10 10 0 0 1 64 94 L36 94 A 10 10 0 0 1 27.464466094067262 90.46446609406726 L9.535533905932738 72.53553390593274 A 10 10 0 0 1 6 64 L6 36 A 10 10 0 0 1 9.535533905932738 27.464466094067262 L27.464466094067262 9.535533905932738 A 10 10 0 0 1 36 6z" style="stroke-width: 3.125;"></path><g transform="translate(14, 11)scale(0.07)"><path fill="var(--e-black-fg)" stroke="var(--e-black-bg)" stroke-width="2.3529411764705883" d="M607 611q154 -22 179 -27.5t56 -5.5t63.5 23t32.5 38.5t-43 15.5q-21 0 -62 -5.5t-153 -5.5t-242 17t-220 45q-16 6 -41 6t-47 -13t-22 -23.5t27.5 -10.5t234.5 -25q-3 -112 -11.5 -198.5t-29 -115t-20.5 -38.5t18 -10t76 21q90 -33 145.5 -66.5t59.5 -52t16 -18.5 q15 0 57 21t42 34q0 5 -3.5 7t-48.5 16l-266 85q-1 10 -1 29t4 88q73 -3 254 -58q23 -7 50.5 -7t46 8.5t18.5 18.5t-29.5 17t-160.5 29q56 19 56 37q0 7 -6 16q-12 21 -30 108zM566 616q7 -75 7 -111t-16 -50q-91 14 -114 14t-34 -2l8 168zM467 774q0 9 -7 14l-122 80 q-44 29 -90.5 47.5t-58.5 18.5t-12 -6t13 -14q71 -46 133 -100.5t62 -73.5q0 -28 14 -28t41 25t27 37zM606 714q7 0 60.5 26t89.5 52t52.5 51t16.5 59q0 45 -20 45t-52 -40q-75 -94 -144 -168q-10 -11 -10 -18t7 -7z"></path></g></g></g></g></g></g></g></g><g class="tl-box" style="transition: transform 300ms linear 0s; transform: translate(552.5px, 227.5px);"><g class=" 21" transform=""><g><g transform="scale(0.5525,0.5525)"><g transform="translate(-50, -50)"><g transform="translate(9.999999999999998, 9.999999999999998)scale(0.8,0.8)"><g><path fill="var(--e-black-bg)" stroke="var(--e-black-bo)" stroke-width="2.3529411764705883" d="M36 6 L64 6 A 10 10 0 0 1 72.53553390593274 9.535533905932738 L90.46446609406726 27.464466094067262 A 10 10 0 0 1 94 36 L94 64 A 10 10 0 0 1 90.46446609406726 72.53553390593274 L72.53553390593274 90.46446609406726 A 10 10 0 0 1 64 94 L36 94 A 10 10 0 0 1 27.464466094067262 90.46446609406726 L9.535533905932738 72.53553390593274 A 10 10 0 0 1 6 64 L6 36 A 10 10 0 0 1 9.535533905932738 27.464466094067262 L27.464466094067262 9.535533905932738 A 10 10 0 0 1 36 6z" style="stroke-width: 3.125;"></path><g transform="translate(14, 11)scale(0.07)"><path fill="var(--e-black-fg)" stroke="var(--e-black-bg)" stroke-width="2.3529411764705883" d="M607 611q154 -22 179 -27.5t56 -5.5t63.5 23t32.5 38.5t-43 15.5q-21 0 -62 -5.5t-153 -5.5t-242 17t-220 45q-16 6 -41 6t-47 -13t-22 -23.5t27.5 -10.5t234.5 -25q-3 -112 -11.5 -198.5t-29 -115t-20.5 -38.5t18 -10t76 21q90 -33 145.5 -66.5t59.5 -52t16 -18.5 q15 0 57 21t42 34q0 5 -3.5 7t-48.5 16l-266 85q-1 10 -1 29t4 88q73 -3 254 -58q23 -7 50.5 -7t46 8.5t18.5 18.5t-29.5 17t-160.5 29q56 19 56 37q0 7 -6 16q-12 21 -30 108zM566 616q7 -75 7 -111t-16 -50q-91 14 -114 14t-34 -2l8 168zM467 774q0 9 -7 14l-122 80 q-44 29 -90.5 47.5t-58.5 18.5t-12 -6t13 -14q71 -46 133 -100.5t62 -73.5q0 -28 14 -28t41 25t27 37zM606 714q7 0 60.5 26t89.5 52t52.5 51t16.5 59q0 45 -20 45t-52 -40q-75 -94 -144 -168q-10 -11 -10 -18t7 -7z"></path></g></g></g></g></g></g></g></g><g class="tl-box" style="transition: transform 300ms linear 0s; transform: translate(97.5px, 162.5px);"><g class=" 22" transform=""><g><g transform="scale(0.5525,0.5525)"><g transform="translate(-50, -50)"><g transform="scale(1,1)"><g><path fill="var(--e-black-bg)" stroke="var(--e-black-bo)" stroke-width="2.3529411764705883" d="M36 6 L64 6 A 10 10 0 0 1 72.53553390593274 9.535533905932738 L90.46446609406726 27.464466094067262 A 10 10 0 0 1 94 36 L94 64 A 10 10 0 0 1 90.46446609406726 72.53553390593274 L72.53553390593274 90.46446609406726 A 10 10 0 0 1 64 94 L36 94 A 10 10 0 0 1 27.464466094067262 90.46446609406726 L9.535533905932738 72.53553390593274 A 10 10 0 0 1 6 64 L6 36 A 10 10 0 0 1 9.535533905932738 27.464466094067262 L27.464466094067262 9.535533905932738 A 10 10 0 0 1 36 6z" style="stroke-width: 2.5;"></path><g transform="translate(12, 10)scale(0.07)"><path fill="var(--e-black-fg)" stroke="var(--e-black-bg)" stroke-width="2.3529411764705883" d="M315 367q6 1 14 1q45 0 147 -22t165 -43q8 -3 16 -3q19 0 64 23t45 36q0 6 -9 13q-28 21 -34.5 112t-29 149.5t-51.5 84.5t-39 26t-13.5 -16t-13.5 -37.5t-19.5 -33.5t-9.5 -18t7.5 -6t21.5 7t27.5 7t24 -21.5t23 -81t12.5 -111t-7 -64t-25 -12.5t-90.5 12t-152.5 30
 q-11 2 -21 2q-31 0 -64 -22q-37 37 -71 59t-44 22q-4 0 -4 -4t14 -18q66 -67 118 -149t52 -109q0 -6 -3 -14t-3 -18.5t15.5 -10.5t48.5 23t33 40q0 10 -10 18q-22 18 -60.5 65t-73.5 84zM280 676q-4 109 16 144.5t91.5 54.5t159.5 19t164 -11t105 -28t43 -44t33 -112
 q4 -19 11 -19t8 21q5 99 24 148q4 11 4 19q0 38 -102 64.5t-209.5 26.5t-186 -11t-124 -43t-63 -80.5t-17.5 -132.5l3 -112q0 -48 -14 -71q-4 -8 -4 -14.5t13 -6.5t50 20q8 1 16 1q22 0 70 -14t58.5 -20t25 -6t47 14t32.5 27q0 8 -19 18t-37.5 39t-18.5 44.5t11.5 18.5
 t11.5 12.5t-14 10.5q-53 5 -131 24q-13 4 -28.5 4t-28.5 -5zM280 653q67 -11 90 -18t32 -17.5t17 -38t8 -49.5q0 -14 -17 -14q-25 0 -75 14q-15 4 -26.5 4t-23.5 -4q5 14 5 24.5t-2 17.5q-6 30 -8 81z"></path></g></g></g></g></g></g></g></g><g class="tl-box" style="transition: transform 300ms linear 0s; transform: translate(487.5px, 162.5px);"><g class=" 23" transform=""><g><g transform="scale(0.5525,0.5525)"><g transform="translate(-50, -50)"><g transform="scale(1,1)"><g><path fill="var(--e-black-bg)" stroke="var(--e-black-bo)" stroke-width="2.3529411764705883" d="M36 6 L64 6 A 10 10 0 0 1 72.53553390593274 9.535533905932738 L90.46446609406726 27.464466094067262 A 10 10 0 0 1 94 36 L94 64 A 10 10 0 0 1 90.46446609406726 72.53553390593274 L72.53553390593274 90.46446609406726 A 10 10 0 0 1 64 94 L36 94 A 10 10 0 0 1 27.464466094067262 90.46446609406726 L9.535533905932738 72.53553390593274 A 10 10 0 0 1 6 64 L6 36 A 10 10 0 0 1 9.535533905932738 27.464466094067262 L27.464466094067262 9.535533905932738 A 10 10 0 0 1 36 6z" style="stroke-width: 2.5;"></path><g transform="translate(12, 10)scale(0.07)"><path fill="var(--e-black-fg)" stroke="var(--e-black-bg)" stroke-width="2.3529411764705883" d="M315 367q6 1 14 1q45 0 147 -22t165 -43q8 -3 16 -3q19 0 64 23t45 36q0 6 -9 13q-28 21 -34.5 112t-29 149.5t-51.5 84.5t-39 26t-13.5 -16t-13.5 -37.5t-19.5 -33.5t-9.5 -18t7.5 -6t21.5 7t27.5 7t24 -21.5t23 -81t12.5 -111t-7 -64t-25 -12.5t-90.5 12t-152.5 30
 q-11 2 -21 2q-31 0 -64 -22q-37 37 -71 59t-44 22q-4 0 -4 -4t14 -18q66 -67 118 -149t52 -109q0 -6 -3 -14t-3 -18.5t15.5 -10.5t48.5 23t33 40q0 10 -10 18q-22 18 -60.5 65t-73.5 84zM280 676q-4 109 16 144.5t91.5 54.5t159.5 19t164 -11t105 -28t43 -44t33 -112
 q4 -19 11 -19t8 21q5 99 24 148q4 11 4 19q0 38 -102 64.5t-209.5 26.5t-186 -11t-124 -43t-63 -80.5t-17.5 -132.5l3 -112q0 -48 -14 -71q-4 -8 -4 -14.5t13 -6.5t50 20q8 1 16 1q22 0 70 -14t58.5 -20t25 -6t47 14t32.5 27q0 8 -19 18t-37.5 39t-18.5 44.5t11.5 18.5
 t11.5 12.5t-14 10.5q-53 5 -131 24q-13 4 -28.5 4t-28.5 -5zM280 653q67 -11 90 -18t32 -17.5t17 -38t8 -49.5q0 -14 -17 -14q-25 0 -75 14q-15 4 -26.5 4t-23.5 -4q5 14 5 24.5t-2 17.5q-6 30 -8 81z"></path></g></g></g></g></g></g></g></g><g class="tl-box" style="transition: transform 300ms linear 0s; transform: translate(292.5px, 97.5px);"><g class=" 24" transform=""><g><g transform="scale(0.5525,0.5525)"><g transform="translate(-50, -50)"><g transform="translate(-9.999999999999998, -9.999999999999998)scale(1.2,1.2)"><g><path fill="var(--e-black-bg)" stroke="var(--e-black-bo)" stroke-width="2.3529411764705883" d="M36 6 L64 6 A 10 10 0 0 1 72.53553390593274 9.535533905932738 L90.46446609406726 27.464466094067262 A 10 10 0 0 1 94 36 L94 64 A 10 10 0 0 1 90.46446609406726 72.53553390593274 L72.53553390593274 90.46446609406726 A 10 10 0 0 1 64 94 L36 94 A 10 10 0 0 1 27.464466094067262 90.46446609406726 L9.535533905932738 72.53553390593274 A 10 10 0 0 1 6 64 L6 36 A 10 10 0 0 1 9.535533905932738 27.464466094067262 L27.464466094067262 9.535533905932738 A 10 10 0 0 1 36 6z" style="stroke-width: 2.08333;"></path><g transform="translate(13, 9)scale(0.07)"><path fill="var(--e-black-fg)" stroke="var(--e-black-bg)" stroke-width="2.3529411764705883" d="M563 581q-41 8 -96 11q-4 20 -11 20t-18 -12.5t-14 -29.5t-13.5 -39.5t-19.5 -33.5t-9 -17.5t14 -6.5t45 9q57 -6 122 -17q-5 -38 -13 -52q-2 0 -7.5 1t-7.5 1q-12 12 -17.5 12t-8.5 -12.5t-10 -81.5q-51 12 -75 12t-42 -8.5t-18 -13.5t29.5 -7t101.5 -15
 q-11 -55 -29.5 -69t-18.5 -25t14.5 -11t35 9.5t30.5 18t10 16.5t-1 16.5t-1 38.5q69 -12 128 -23q3 -25 3 -43q0 -33 -10 -45t-10 -20q0 -13 18 -13t49 17t31 30q0 5 -8 17.5t-20 46.5q59 -12 87.5 -12t47.5 10.5t19 20.5q0 14 -40 14t-128 8q-11 39 -11 48.5t6 13t6 9.5
 q0 13 -20 15q-9 1 -39 7.5t-50 9.5q30 27 25 48q71 -18 88.5 -26.5t35 -8.5t46.5 15.5t29 30.5q0 9 -8.5 12.5t-30 19t-21.5 22.5t5.5 12.5t5.5 9.5q0 10 -30.5 12t-129.5 18q-2 32 -4 50q78 -17 93.5 -17t30.5 5.5t15 12.5t-6 10t-56.5 13.5t-79.5 14.5q-4 39 -6 51
 q99 -12 150 -20q44 -8 76 -8t57.5 17.5t25.5 29.5t-25 12q-9 0 -21 -2q-29 -5 -105 -5t-153 5q63 67 131.5 114.5t189.5 77.5q29 6 29 16q0 5 -8 7.5t-60.5 5.5t-85 3t-49 -4.5t-25.5 -13.5t-58.5 -71.5t-82.5 -107.5q-21 58 -66 103t-101 68.5t-93 23.5q-16 0 -16 -7.5
 t16 -12.5q86 -33 143 -83.5t76 -111.5q-63 9 -108 18t-65 9t-44 -11t-24 -18.5t23 -7.5q64 0 224 -20q6 -34 8 -51q-40 5 -66 5q-52 0 -52 -14q0 -8 15 -10q46 -5 107 -17zM658 309q-72 9 -122 18q2 20 4 63q88 -22 95 -22.5t12 -8.5t11 -50zM613 482l-3 62q26 -5 55 -11
 t37.5 -10.5t14.5 -18.5t6 -25t-16 -11t-94 14zM564 553q1 -13 1 -27.5t-1 -34.5q-56 8 -109 18q6 21 11 59q52 -6 98 -15zM194 234q13 0 52.5 15t52 39.5t12.5 49t-22.5 24.5t-63 -54t-40.5 -67q0 -7 9 -7zM213 528q0 38 -21 38t-61 -54t-40 -67q0 -7 12 -7q40 0 75 26
 t35 64zM302 581q0 9 -7 25q-62 151 -82 207.5t-26 91t-20 34.5t-40.5 -50.5t-26.5 -64.5q0 -8 14.5 -9t25 -11.5t48.5 -67t86 -140.5q14 -23 23 -23q5 0 5 8z"></path></g></g></g></g></g></g></g></g><g class="tl-box" style="transition: transform 300ms linear 0s; transform: translate(32.5px, 32.5px);"><g class=" 25" transform=""><g><g transform="scale(0.5525,0.5525)"><g transform="translate(-50, -50)"><g transform="scale(1,1)"><g><path fill="var(--e-black-bg)" stroke="var(--e-black-bo)" stroke-width="2.3529411764705883" d="M36 6 L64 6 A 10 10 0 0 1 72.53553390593274 9.535533905932738 L90.46446609406726 27.464466094067262 A 10 10 0 0 1 94 36 L94 64 A 10 10 0 0 1 90.46446609406726 72.53553390593274 L72.53553390593274 90.46446609406726 A 10 10 0 0 1 64 94 L36 94 A 10 10 0 0 1 27.464466094067262 90.46446609406726 L9.535533905932738 72.53553390593274 A 10 10 0 0 1 6 64 L6 36 A 10 10 0 0 1 9.535533905932738 27.464466094067262 L27.464466094067262 9.535533905932738 A 10 10 0 0 1 36 6z" style="stroke-width: 2.5;"></path><g transform="translate(14, 11)scale(0.07)"><path fill="var(--e-black-fg)" stroke="var(--e-black-bg)" stroke-width="2.3529411764705883" d="M488 317q-51 7 -81.5 7t-56 -6.5t-25.5 -14t19 -8.5q54 -4 143 -22q-1 -53 -7 -75t-21 -39q-8 -10 -8 -19t18 -9t53.5 13t35.5 34q0 6 -3 13q-9 21 -11 71q51 -11 77.5 -18t41 -7t31.5 7t17 17.5t-23.5 18.5t-143.5 27q2 49 2 79q96 -17 121 -26q16 -6 32 -6t54.5 23 t38.5 38q0 8 -11 18.5t-19.5 29t-21 61t-30 73t-35.5 30.5q-12 0 -18 -11q-5 -8 -21.5 -8t-89.5 10v85q106 -13 161.5 -21.5t77 -12t42 -3.5t50 20t29.5 36q0 18 -34 15q-86 -9 -150.5 -9t-175.5 12q0 138 -8 211t-23 73q-4 0 -8 -5t-8 -38.5t-5 -69.5l-1 -166 q-196 23 -238.5 33.5t-61.5 10.5t-43.5 -15.5t-24.5 -22.5t6 -8t37 -1t132 -10t193 -23v-84l-109 17q2 15 -16 15q-8 0 -21.5 -24t-22.5 -61q-23 -98 -48 -128q-12 -14 -12 -23.5t18.5 -9.5t48.5 8l157 -25q-1 -39 -1 -77zM547 474q22 -4 51 -4t29 15q0 8 -11 16t-69 19 q2 31 0 66q94 -14 118 -13q15 1 19.5 -6.5t17.5 -61.5t13 -72t-6 -23t-24 -5q-58 0 -118 9v60zM493 529q-32 4 -50.5 4t-27.5 -7t-9 -11t14 -7t72 -17q-1 -50 -2 -68q-58 8 -136 26q14 71 28 161l111 -16v-65z"></path></g></g></g></g></g></g></g></g><g class="tl-box" style="transition: transform 300ms linear 0s; transform: translate(97.5px, 32.5px);"><g class=" 26" transform=""><g><g transform="scale(0.5525,0.5525)"><g transform="translate(-50, -50)"><g transform="scale(1,1)"><g><path fill="var(--e-black-bg)" stroke="var(--e-black-bo)" stroke-width="2.3529411764705883" d="M36 6 L64 6 A 10 10 0 0 1 72.53553390593274 9.535533905932738 L90.46446609406726 27.464466094067262 A 10 10 0 0 1 94 36 L94 64 A 10 10 0 0 1 90.46446609406726 72.53553390593274 L72.53553390593274 90.46446609406726 A 10 10 0 0 1 64 94 L36 94 A 10 10 0 0 1 27.464466094067262 90.46446609406726 L9.535533905932738 72.53553390593274 A 10 10 0 0 1 6 64 L6 36 A 10 10 0 0 1 9.535533905932738 27.464466094067262 L27.464466094067262 9.535533905932738 A 10 10 0 0 1 36 6z" style="stroke-width: 2.5;"></path><g transform="translate(14, 11)scale(0.07)"><path fill="var(--e-black-fg)" stroke="var(--e-black-bg)" stroke-width="2.3529411764705883" d="M537 571q148 -20 189 -34q18 -5 32.5 -5t58 22.5t43.5 32t-9 22t-12.5 32t-7.5 71.5q-7 103 -36.5 168t-64 87.5t-44.5 22.5q-9 0 -12.5 -24t-18 -48t-39 -51t-24.5 -29.5t4 -2.5t19 6q67 29 86.5 29t25.5 -10.5t26 -68.5t20 -111t-12.5 -75t-60 -22t-129.5 13.5 t-147.5 26t-79 17.5t-20.5 16t-15 11t-21 -21.5t-13 -39t3 -30.5q15 -70 15 -185.5t-16 -136.5q-11 -16 -11 -26t10.5 -10t36 10.5t28.5 17.5q151 -17 241 -47q43 -13 90 -13t47 16q0 14 -41.5 25.5t-133.5 24.5l-2 81q66 -19 82.5 -19t28 6.5t11.5 13.5q0 12 -38 18.5 t-85 16.5l-2 74q65 -19 90 -19q30 0 30 16q0 8 -8.5 13.5t-39.5 11.5q-51 11 -72 17zM346 268q-8 120 -15 331q90 -10 159 -21q3 -46 3 -84q-40 9 -57.5 9t-39.5 -4.5t-22 -10.5t19 -10q53 -8 100 -20q0 -56 -1 -78q-53 12 -71 12t-34.5 -8t-16.5 -13t19.5 -7.5t100.5 -17.5 q0 -43 -3 -86q-74 9 -100.5 9t-40.5 -1zM561 672q14 0 55.5 24t41.5 60q0 12 -4.5 25.5t-15.5 13.5q-21 0 -51.5 -51t-30.5 -67q0 -5 5 -5zM153 843q0 -14 13.5 -45t20 -49t9 -39.5t8.5 -21.5t16.5 23t10.5 62.5t-19.5 76t-30 36.5t-19.5 -14t-9 -29zM423 693q17 0 44 19.5 t27 48.5q0 14 -8 26.5t-15.5 12.5t-14.5 -8.5t-23.5 -46t-16.5 -45t7 -7.5zM305 714q16 0 36 26.5t20 56.5q0 15 -7 23t-16.5 8t-17.5 -14t-16 -45.5t-8 -43t9 -11.5z"></path></g></g></g></g></g></g></g></g><g class="tl-box" style="transition: transform 300ms linear 0s; transform: translate(162.5px, 32.5px);"><g class=" 27" transform=""><g><g transform="scale(0.5525,0.5525)"><g transform="translate(-50, -50)"><g transform="scale(1,1)"><g><path fill="var(--e-black-bg)" stroke="var(--e-black-bo)" stroke-width="2.3529411764705883" d="M36 6 L64 6 A 10 10 0 0 1 72.53553390593274 9.535533905932738 L90.46446609406726 27.464466094067262 A 10 10 0 0 1 94 36 L94 64 A 10 10 0 0 1 90.46446609406726 72.53553390593274 L72.53553390593274 90.46446609406726 A 10 10 0 0 1 64 94 L36 94 A 10 10 0 0 1 27.464466094067262 90.46446609406726 L9.535533905932738 72.53553390593274 A 10 10 0 0 1 6 64 L6 36 A 10 10 0 0 1 9.535533905932738 27.464466094067262 L27.464466094067262 9.535533905932738 A 10 10 0 0 1 36 6z" style="stroke-width: 2.5;"></path><g transform="translate(14, 11)scale(0.07)"><path fill="var(--e-black-fg)" stroke="var(--e-black-bg)" stroke-width="2.3529411764705883" d="M567 658q102 57 195.5 88t220.5 39q21 2 21 11q0 6 -12.5 11.5t-83 20.5t-99.5 15t-52 -14.5t-97 -70.5t-113 -88q22 35 35 86t13 94q0 68 -35.5 118.5t-61.5 50.5q-11 0 -17 -12t-25.5 -33.5t-41.5 -36.5q-7 -5 -7 -10t13 -5l52 3q30 0 41.5 -10.5t18.5 -39t7 -56.5 q0 -62 -30 -124q-74 96 -171.5 161t-150.5 65q-15 0 -15 -5t10 -10q71 -29 163 -107t135 -148q-16 -17 -37 -34q-73 87 -149 127t-98 40q-10 0 -10 -6.5t9 -11.5q161 -90 216 -175q-20 -17 -38 -29q-57 46 -97.5 66.5t-54.5 20.5q-5 0 -5 -4t12 -13q117 -84 164 -139l-55 7 q0 17 -17 17q-8 0 -13.5 -7.5t-15.5 -32t-29.5 -45.5t-36.5 -31t-17 -18q0 -13 17.5 -13t34.5 5q181 -24 208 -29q68 -82 79 -116q-47 9 -73.5 9t-54.5 -7q-45 45 -92 70t-61 25q-6 0 -6 -5t17 -18.5t50.5 -47t48 -54t18.5 -32.5t4 -26.5t16 -14.5t43.5 10.5t27.5 21.5 q0 8 -22.5 28t-27.5 25q40 -1 78.5 -10t56.5 -22q6 -4 19.5 -4t48.5 18t35 28t-32 17q-19 6 -59.5 33t-83.5 67q125 -17 149 -26q10 -4 18 -4q21 0 64.5 26.5t43.5 42.5q0 11 -26 19.5t-96 83.5q-17 19 -32.5 19t-19.5 -13.5t-25 -13.5q-36 0 -125 11q-27 35 -62 65 q100 48 147 103q127 -108 130 -138q3 -23 16 -23t43 15t30 25.5t-16 17.5q-45 20 -170 107zM470 458q75 -13 97.5 -13t32.5 3t16 3q12 0 31 -36.5t19 -45.5q0 -15 -24 -15q-17 0 -64.5 3.5t-89.5 9.5q21 21 21 33q0 6 -9 16t-30 42zM452 372q-116 20 -160 23q28 28 42 87 q44 -9 78 -15q29 -42 40 -95z"></path></g></g></g></g></g></g></g></g><g class="tl-box" style="transition: transform 300ms linear 0s; transform: translate(227.5px, 32.5px);"><g class=" 28" transform=""><g><g transform="scale(0.5525,0.5525)"><g transform="translate(-50, -50)"><g transform="translate(9.999999999999998, 9.999999999999998)scale(0.8,0.8)"><g><path fill="var(--e-black-bg)" stroke="var(--e-black-bo)" stroke-width="2.3529411764705883" d="M36 6 L64 6 A 10 10 0 0 1 72.53553390593274 9.535533905932738 L90.46446609406726 27.464466094067262 A 10 10 0 0 1 94 36 L94 64 A 10 10 0 0 1 90.46446609406726 72.53553390593274 L72.53553390593274 90.46446609406726 A 10 10 0 0 1 64 94 L36 94 A 10 10 0 0 1 27.464466094067262 90.46446609406726 L9.535533905932738 72.53553390593274 A 10 10 0 0 1 6 64 L6 36 A 10 10 0 0 1 9.535533905932738 27.464466094067262 L27.464466094067262 9.535533905932738 A 10 10 0 0 1 36 6z" style="stroke-width: 3.125;"></path><g transform="translate(14, 11)scale(0.07)"><path fill="var(--e-black-fg)" stroke="var(--e-black-bg)" stroke-width="2.3529411764705883" d="M558 527q126 -17 200 -32t101 -15t63 21t36 36q0 20 -58 20l-77 -3q-103 0 -266 18l-7 255q80 -9 108 -18t48 -9q45 0 80 20.5t35 36.5q0 20 -46 20q-12 0 -45 -4t-83 -4q-112 0 -261 31q-57 13 -75.5 13t-41.5 -16t-23 -22q0 -10 44 -12t208 -29l1 -255 q-119 14 -210.5 33t-108.5 19q-13 0 -38 -19t-25 -28t20 -9l25 2q56 0 337 -41q1 -181 -6 -243t-32 -93q-11 -14 -11 -23q0 -13 20 -13t67 15.5t47 39.5q0 10 -7.5 33.5t-11 80t-7.5 194.5z"></path></g></g></g></g></g></g></g></g><g class="tl-box" style="transition: transform 300ms linear 0s; transform: translate(357.5px, 32.5px);"><g class=" 29" transform=""><g><g transform="scale(0.5525,0.5525)"><g transform="translate(-50, -50)"><g transform="translate(9.999999999999998, 9.999999999999998)scale(0.8,0.8)"><g><path fill="var(--e-black-bg)" stroke="var(--e-black-bo)" stroke-width="2.3529411764705883" d="M36 6 L64 6 A 10 10 0 0 1 72.53553390593274 9.535533905932738 L90.46446609406726 27.464466094067262 A 10 10 0 0 1 94 36 L94 64 A 10 10 0 0 1 90.46446609406726 72.53553390593274 L72.53553390593274 90.46446609406726 A 10 10 0 0 1 64 94 L36 94 A 10 10 0 0 1 27.464466094067262 90.46446609406726 L9.535533905932738 72.53553390593274 A 10 10 0 0 1 6 64 L6 36 A 10 10 0 0 1 9.535533905932738 27.464466094067262 L27.464466094067262 9.535533905932738 A 10 10 0 0 1 36 6z" style="stroke-width: 3.125;"></path><g transform="translate(14, 11)scale(0.07)"><path fill="var(--e-black-fg)" stroke="var(--e-black-bg)" stroke-width="2.3529411764705883" d="M558 527q126 -17 200 -32t101 -15t63 21t36 36q0 20 -58 20l-77 -3q-103 0 -266 18l-7 255q80 -9 108 -18t48 -9q45 0 80 20.5t35 36.5q0 20 -46 20q-12 0 -45 -4t-83 -4q-112 0 -261 31q-57 13 -75.5 13t-41.5 -16t-23 -22q0 -10 44 -12t208 -29l1 -255 q-119 14 -210.5 33t-108.5 19q-13 0 -38 -19t-25 -28t20 -9l25 2q56 0 337 -41q1 -181 -6 -243t-32 -93q-11 -14 -11 -23q0 -13 20 -13t67 15.5t47 39.5q0 10 -7.5 33.5t-11 80t-7.5 194.5z"></path></g></g></g></g></g></g></g></g><g class="tl-box" style="transition: transform 300ms linear 0s; transform: translate(422.5px, 32.5px);"><g class=" 30" transform=""><g><g transform="scale(0.5525,0.5525)"><g transform="translate(-50, -50)"><g transform="scale(1,1)"><g><path fill="var(--e-black-bg)" stroke="var(--e-black-bo)" stroke-width="2.3529411764705883" d="M36 6 L64 6 A 10 10 0 0 1 72.53553390593274 9.535533905932738 L90.46446609406726 27.464466094067262 A 10 10 0 0 1 94 36 L94 64 A 10 10 0 0 1 90.46446609406726 72.53553390593274 L72.53553390593274 90.46446609406726 A 10 10 0 0 1 64 94 L36 94 A 10 10 0 0 1 27.464466094067262 90.46446609406726 L9.535533905932738 72.53553390593274 A 10 10 0 0 1 6 64 L6 36 A 10 10 0 0 1 9.535533905932738 27.464466094067262 L27.464466094067262 9.535533905932738 A 10 10 0 0 1 36 6z" style="stroke-width: 2.5;"></path><g transform="translate(14, 11)scale(0.07)"><path fill="var(--e-black-fg)" stroke="var(--e-black-bg)" stroke-width="2.3529411764705883" d="M567 658q102 57 195.5 88t220.5 39q21 2 21 11q0 6 -12.5 11.5t-83 20.5t-99.5 15t-52 -14.5t-97 -70.5t-113 -88q22 35 35 86t13 94q0 68 -35.5 118.5t-61.5 50.5q-11 0 -17 -12t-25.5 -33.5t-41.5 -36.5q-7 -5 -7 -10t13 -5l52 3q30 0 41.5 -10.5t18.5 -39t7 -56.5 q0 -62 -30 -124q-74 96 -171.5 161t-150.5 65q-15 0 -15 -5t10 -10q71 -29 163 -107t135 -148q-16 -17 -37 -34q-73 87 -149 127t-98 40q-10 0 -10 -6.5t9 -11.5q161 -90 216 -175q-20 -17 -38 -29q-57 46 -97.5 66.5t-54.5 20.5q-5 0 -5 -4t12 -13q117 -84 164 -139l-55 7 q0 17 -17 17q-8 0 -13.5 -7.5t-15.5 -32t-29.5 -45.5t-36.5 -31t-17 -18q0 -13 17.5 -13t34.5 5q181 -24 208 -29q68 -82 79 -116q-47 9 -73.5 9t-54.5 -7q-45 45 -92 70t-61 25q-6 0 -6 -5t17 -18.5t50.5 -47t48 -54t18.5 -32.5t4 -26.5t16 -14.5t43.5 10.5t27.5 21.5 q0 8 -22.5 28t-27.5 25q40 -1 78.5 -10t56.5 -22q6 -4 19.5 -4t48.5 18t35 28t-32 17q-19 6 -59.5 33t-83.5 67q125 -17 149 -26q10 -4 18 -4q21 0 64.5 26.5t43.5 42.5q0 11 -26 19.5t-96 83.5q-17 19 -32.5 19t-19.5 -13.5t-25 -13.5q-36 0 -125 11q-27 35 -62 65 q100 48 147 103q127 -108 130 -138q3 -23 16 -23t43 15t30 25.5t-16 17.5q-45 20 -170 107zM470 458q75 -13 97.5 -13t32.5 3t16 3q12 0 31 -36.5t19 -45.5q0 -15 -24 -15q-17 0 -64.5 3.5t-89.5 9.5q21 21 21 33q0 6 -9 16t-30 42zM452 372q-116 20 -160 23q28 28 42 87 q44 -9 78 -15q29 -42 40 -95z"></path></g></g></g></g></g></g></g></g><g class="tl-box" style="transition: transform 300ms linear 0s; transform: translate(487.5px, 32.5px);"><g class=" 31" transform=""><g><g transform="scale(0.5525,0.5525)"><g transform="translate(-50, -50)"><g transform="scale(1,1)"><g><path fill="var(--e-black-bg)" stroke="var(--e-black-bo)" stroke-width="2.3529411764705883" d="M36 6 L64 6 A 10 10 0 0 1 72.53553390593274 9.535533905932738 L90.46446609406726 27.464466094067262 A 10 10 0 0 1 94 36 L94 64 A 10 10 0 0 1 90.46446609406726 72.53553390593274 L72.53553390593274 90.46446609406726 A 10 10 0 0 1 64 94 L36 94 A 10 10 0 0 1 27.464466094067262 90.46446609406726 L9.535533905932738 72.53553390593274 A 10 10 0 0 1 6 64 L6 36 A 10 10 0 0 1 9.535533905932738 27.464466094067262 L27.464466094067262 9.535533905932738 A 10 10 0 0 1 36 6z" style="stroke-width: 2.5;"></path><g transform="translate(14, 11)scale(0.07)"><path fill="var(--e-black-fg)" stroke="var(--e-black-bg)" stroke-width="2.3529411764705883" d="M537 571q148 -20 189 -34q18 -5 32.5 -5t58 22.5t43.5 32t-9 22t-12.5 32t-7.5 71.5q-7 103 -36.5 168t-64 87.5t-44.5 22.5q-9 0 -12.5 -24t-18 -48t-39 -51t-24.5 -29.5t4 -2.5t19 6q67 29 86.5 29t25.5 -10.5t26 -68.5t20 -111t-12.5 -75t-60 -22t-129.5 13.5 t-147.5 26t-79 17.5t-20.5 16t-15 11t-21 -21.5t-13 -39t3 -30.5q15 -70 15 -185.5t-16 -136.5q-11 -16 -11 -26t10.5 -10t36 10.5t28.5 17.5q151 -17 241 -47q43 -13 90 -13t47 16q0 14 -41.5 25.5t-133.5 24.5l-2 81q66 -19 82.5 -19t28 6.5t11.5 13.5q0 12 -38 18.5 t-85 16.5l-2 74q65 -19 90 -19q30 0 30 16q0 8 -8.5 13.5t-39.5 11.5q-51 11 -72 17zM346 268q-8 120 -15 331q90 -10 159 -21q3 -46 3 -84q-40 9 -57.5 9t-39.5 -4.5t-22 -10.5t19 -10q53 -8 100 -20q0 -56 -1 -78q-53 12 -71 12t-34.5 -8t-16.5 -13t19.5 -7.5t100.5 -17.5 q0 -43 -3 -86q-74 9 -100.5 9t-40.5 -1zM561 672q14 0 55.5 24t41.5 60q0 12 -4.5 25.5t-15.5 13.5q-21 0 -51.5 -51t-30.5 -67q0 -5 5 -5zM153 843q0 -14 13.5 -45t20 -49t9 -39.5t8.5 -21.5t16.5 23t10.5 62.5t-19.5 76t-30 36.5t-19.5 -14t-9 -29zM423 693q17 0 44 19.5 t27 48.5q0 14 -8 26.5t-15.5 12.5t-14.5 -8.5t-23.5 -46t-16.5 -45t7 -7.5zM305 714q16 0 36 26.5t20 56.5q0 15 -7 23t-16.5 8t-17.5 -14t-16 -45.5t-8 -43t9 -11.5z"></path></g></g></g></g></g></g></g></g><g class="tl-box" style="transition: transform 300ms linear 0s; transform: translate(552.5px, 32.5px);"><g class=" 32" transform=""><g><g transform="scale(0.5525,0.5525)"><g transform="translate(-50, -50)"><g transform="scale(1,1)"><g><path fill="var(--e-black-bg)" stroke="var(--e-black-bo)" stroke-width="2.3529411764705883" d="M36 6 L64 6 A 10 10 0 0 1 72.53553390593274 9.535533905932738 L90.46446609406726 27.464466094067262 A 10 10 0 0 1 94 36 L94 64 A 10 10 0 0 1 90.46446609406726 72.53553390593274 L72.53553390593274 90.46446609406726 A 10 10 0 0 1 64 94 L36 94 A 10 10 0 0 1 27.464466094067262 90.46446609406726 L9.535533905932738 72.53553390593274 A 10 10 0 0 1 6 64 L6 36 A 10 10 0 0 1 9.535533905932738 27.464466094067262 L27.464466094067262 9.535533905932738 A 10 10 0 0 1 36 6z" style="stroke-width: 2.5;"></path><g transform="translate(14, 11)scale(0.07)"><path fill="var(--e-black-fg)" stroke="var(--e-black-bg)" stroke-width="2.3529411764705883" d="M488 317q-51 7 -81.5 7t-56 -6.5t-25.5 -14t19 -8.5q54 -4 143 -22q-1 -53 -7 -75t-21 -39q-8 -10 -8 -19t18 -9t53.5 13t35.5 34q0 6 -3 13q-9 21 -11 71q51 -11 77.5 -18t41 -7t31.5 7t17 17.5t-23.5 18.5t-143.5 27q2 49 2 79q96 -17 121 -26q16 -6 32 -6t54.5 23 t38.5 38q0 8 -11 18.5t-19.5 29t-21 61t-30 73t-35.5 30.5q-12 0 -18 -11q-5 -8 -21.5 -8t-89.5 10v85q106 -13 161.5 -21.5t77 -12t42 -3.5t50 20t29.5 36q0 18 -34 15q-86 -9 -150.5 -9t-175.5 12q0 138 -8 211t-23 73q-4 0 -8 -5t-8 -38.5t-5 -69.5l-1 -166 q-196 23 -238.5 33.5t-61.5 10.5t-43.5 -15.5t-24.5 -22.5t6 -8t37 -1t132 -10t193 -23v-84l-109 17q2 15 -16 15q-8 0 -21.5 -24t-22.5 -61q-23 -98 -48 -128q-12 -14 -12 -23.5t18.5 -9.5t48.5 8l157 -25q-1 -39 -1 -77zM547 474q22 -4 51 -4t29 15q0 8 -11 16t-69 19 q2 31 0 66q94 -14 118 -13q15 1 19.5 -6.5t17.5 -61.5t13 -72t-6 -23t-24 -5q-58 0 -118 9v60zM493 529q-32 4 -50.5 4t-27.5 -7t-9 -11t14 -7t72 -17q-1 -50 -2 -68q-58 8 -136 26q14 71 28 161l111 -16v-65z"></path></g></g></g></g></g></g></g></g></g></g><g class="arrow-grid"><g><defs><marker id="arrow-head" orient="auto" markerWidth="4" markerHeight="4" refX="2.9" refY="2"><path d="M 0 4 L 0 0 4 2 Z" stroke="none" fill="hsl(240deg 100% 85%)"></path></marker><marker id="arrow-head-capture" orient="auto" markerWidth="4" markerHeight="4" refX="2.9" refY="2"><path d="M 0 4 L 0 0 4 2 Z" stroke="none" fill="var(--red-light)"></path></marker></defs></g></g><g class="area-grid-fg"></g><g class="e-grid" transform=""><g></g></g><g class="pointer-grid"><g><g transform="translate(0, 65)"><rect fill="hsla(0,0%,0%,0)" width="65" id="0_1" class="click-receiver" height="65" style="fill: transparent;"></rect></g><g transform="translate(390, 520)"><rect fill="hsla(0,0%,0%,0)" width="65" id="6_8" class="click-receiver" height="65" style="fill: transparent;"></rect></g><g transform="translate(390, 585)"><rect fill="hsla(0,0%,0%,0)" width="65" id="6_9" class="click-receiver" height="65" style="fill: transparent;"></rect></g><g transform="translate(325, 455)"><rect fill="hsla(0,0%,0%,0)" width="65" id="5_7" class="click-receiver" height="65" style="fill: transparent;"></rect></g><g transform="translate(325, 585)"><rect fill="hsla(0,0%,0%,0)" width="65" id="5_9" class="click-receiver" height="65" style="fill: transparent;"></rect></g><g transform="translate(0, 520)"><rect fill="hsla(0,0%,0%,0)" width="65" id="0_8" class="click-receiver" height="65" style="fill: transparent;"></rect></g><g transform="translate(260, 195)"><rect fill="hsla(0,0%,0%,0)" width="65" id="4_3" class="click-receiver" height="65" style="fill: transparent;"></rect></g><g transform="translate(195, 260)"><rect fill="hsla(0,0%,0%,0)" width="65" id="3_4" class="click-receiver" height="65" style="fill: transparent;"></rect></g><g transform="translate(65, 130)"><rect fill="hsla(0,0%,0%,0)" width="65" id="1_2" class="click-receiver" height="65" style="fill: transparent;"></rect></g><g transform="translate(0, 325)"><rect fill="hsla(0,0%,0%,0)" width="65" id="0_5" class="click-receiver" height="65" style="fill: transparent;"></rect></g><g transform=""><rect fill="hsla(0,0%,0%,0)" width="65" id="0_0" class="click-receiver" height="65" style="fill: transparent;"></rect></g><g transform="translate(325, 195)"><rect fill="hsla(0,0%,0%,0)" width="65" id="5_3" class="click-receiver" height="65" style="fill: transparent;"></rect></g><g transform="translate(130, 130)"><rect fill="hsla(0,0%,0%,0)" width="65" id="2_2" class="click-receiver" height="65" style="fill: transparent;"></rect></g><g transform="translate(65, 325)"><rect fill="hsla(0,0%,0%,0)" width="65" id="1_5" class="click-receiver" height="65" style="fill: transparent;"></rect></g><g transform="translate(195, 130)"><rect fill="hsla(0,0%,0%,0)" width="65" id="3_2" class="click-receiver" height="65" style="fill: transparent;"></rect></g><g transform="translate(260, 390)"><rect fill="hsla(0,0%,0%,0)" width="65" id="4_6" class="click-receiver" height="65" style="fill: transparent;"></rect></g><g transform="translate(520, 325)"><rect fill="hsla(0,0%,0%,0)" width="65" id="8_5" class="click-receiver" height="65" style="fill: transparent;"></rect></g><g transform="translate(455, 65)"><rect fill="hsla(0,0%,0%,0)" width="65" id="7_1" class="click-receiver" height="65" style="fill: transparent;"></rect></g><g transform="translate(0, 455)"><rect fill="hsla(0,0%,0%,0)" width="65" id="0_7" class="click-receiver" height="65" style="fill: transparent;"></rect></g><g transform="translate(455, 585)"><rect fill="hsla(0,0%,0%,0)" width="65" id="7_9" class="click-receiver" height="65" style="fill: transparent;"></rect></g><g transform="translate(130, 260)"><rect fill="hsla(0,0%,0%,0)" width="65" id="2_4" class="click-receiver" height="65" style="fill: transparent;"></rect></g><g transform="translate(455, 130)"><rect fill="hsla(0,0%,0%,0)" width="65" id="7_2" class="click-receiver" height="65" style="fill: transparent;"></rect></g><g transform="translate(260, 130)"><rect fill="hsla(0,0%,0%,0)" width="65" id="4_2" class="click-receiver" height="65" style="fill: transparent;"></rect></g><g transform="translate(65, 195)"><rect fill="hsla(0,0%,0%,0)" width="65" id="1_3" class="click-receiver" height="65" style="fill: transparent;"></rect></g><g transform="translate(325, 325)"><rect fill="hsla(0,0%,0%,0)" width="65" id="5_5" class="click-receiver" height="65" style="fill: transparent;"></rect></g><g transform="translate(325, 390)"><rect fill="hsla(0,0%,0%,0)" width="65" id="5_6" class="click-receiver" height="65" style="fill: transparent;"></rect></g><g transform="translate(130, 195)"><rect fill="hsla(0,0%,0%,0)" width="65" id="2_3" class="click-receiver" height="65" style="fill: transparent;"></rect></g><g transform="translate(520, 65)"><rect fill="hsla(0,0%,0%,0)" width="65" id="8_1" class="click-receiver" height="65" style="fill: transparent;"></rect></g><g transform="translate(0, 585)"><rect fill="hsla(0,0%,0%,0)" width="65" id="0_9" class="click-receiver" height="65" style="fill: transparent;"></rect></g><g transform="translate(325, 130)"><rect fill="hsla(0,0%,0%,0)" width="65" id="5_2" class="click-receiver" height="65" style="fill: transparent;"></rect></g><g transform="translate(260, 455)"><rect fill="hsla(0,0%,0%,0)" width="65" id="4_7" class="click-receiver" height="65" style="fill: transparent;"></rect></g><g transform="translate(520, 195)"><rect fill="hsla(0,0%,0%,0)" width="65" id="8_3" class="click-receiver" height="65" style="fill: transparent;"></rect></g><g transform="translate(195, 65)"><rect fill="hsla(0,0%,0%,0)" width="65" id="3_1" class="click-receiver" height="65" style="fill: transparent;"></rect></g><g transform="translate(455, 0)"><rect fill="hsla(0,0%,0%,0)" width="65" id="7_0" class="click-receiver" height="65" style="fill: transparent;"></rect></g><g transform="translate(0, 130)"><rect fill="hsla(0,0%,0%,0)" width="65" id="0_2" class="click-receiver" height="65" style="fill: transparent;"></rect></g><g transform="translate(130, 585)"><rect fill="hsla(0,0%,0%,0)" width="65" id="2_9" class="click-receiver" height="65" style="fill: transparent;"></rect></g><g transform="translate(260, 585)"><rect fill="hsla(0,0%,0%,0)" width="65" id="4_9" class="click-receiver" height="65" style="fill: transparent;"></rect></g><g transform="translate(325, 65)"><rect fill="hsla(0,0%,0%,0)" width="65" id="5_1" class="click-receiver" height="65" style="fill: transparent;"></rect></g><g transform="translate(195, 0)"><rect fill="hsla(0,0%,0%,0)" width="65" id="3_0" class="click-receiver" height="65" style="fill: transparent;"></rect></g><g transform="translate(130, 455)"><rect fill="hsla(0,0%,0%,0)" width="65" id="2_7" class="click-receiver" height="65" style="fill: transparent;"></rect></g><g transform="translate(0, 390)"><rect fill="hsla(0,0%,0%,0)" width="65" id="0_6" class="click-receiver" height="65" style="fill: transparent;"></rect></g><g transform="translate(520, 520)"><rect fill="hsla(0,0%,0%,0)" width="65" id="8_8" class="click-receiver" height="65" style="fill: transparent;"></rect></g><g transform="translate(260, 325)"><rect fill="hsla(0,0%,0%,0)" width="65" id="4_5" class="click-receiver" height="65" style="fill: transparent;"></rect></g><g transform="translate(65, 65)"><rect fill="hsla(0,0%,0%,0)" width="65" id="1_1" class="click-receiver" height="65" style="fill: transparent;"></rect></g><g transform="translate(390, 0)"><rect fill="hsla(0,0%,0%,0)" width="65" id="6_0" class="click-receiver" height="65" style="fill: transparent;"></rect></g><g transform="translate(520, 455)"><rect fill="hsla(0,0%,0%,0)" width="65" id="8_7" class="click-receiver" height="65" style="fill: transparent;"></rect></g><g transform="translate(455, 260)"><rect fill="hsla(0,0%,0%,0)" width="65" id="7_4" class="click-receiver" height="65" style="fill: transparent;"></rect></g><g transform="translate(520, 260)"><rect fill="hsla(0,0%,0%,0)" width="65" id="8_4" class="click-receiver" height="65" style="fill: transparent;"></rect></g><g transform="translate(455, 455)"><rect fill="hsla(0,0%,0%,0)" width="65" id="7_7" class="click-receiver" height="65" style="fill: transparent;"></rect></g><g transform="translate(195, 195)"><rect fill="hsla(0,0%,0%,0)" width="65" id="3_3" class="click-receiver" height="65" style="fill: transparent;"></rect></g><g transform="translate(325, 0)"><rect fill="hsla(0,0%,0%,0)" width="65" id="5_0" class="click-receiver" height="65" style="fill: transparent;"></rect></g><g transform="translate(325, 260)"><rect fill="hsla(0,0%,0%,0)" width="65" id="5_4" class="click-receiver" height="65" style="fill: transparent;"></rect></g><g transform="translate(130, 390)"><rect fill="hsla(0,0%,0%,0)" width="65" id="2_6" class="click-receiver" height="65" style="fill: transparent;"></rect></g><g transform="translate(390, 195)"><rect fill="hsla(0,0%,0%,0)" width="65" id="6_3" class="click-receiver" height="65" style="fill: transparent;"></rect></g><g transform="translate(195, 325)"><rect fill="hsla(0,0%,0%,0)" width="65" id="3_5" class="click-receiver" height="65" style="fill: transparent;"></rect></g><g transform="translate(520, 390)"><rect fill="hsla(0,0%,0%,0)" width="65" id="8_6" class="click-receiver" height="65" style="fill: transparent;"></rect></g><g transform="translate(195, 585)"><rect fill="hsla(0,0%,0%,0)" width="65" id="3_9" class="click-receiver" height="65" style="fill: transparent;"></rect></g><g transform="translate(390, 390)"><rect fill="hsla(0,0%,0%,0)" width="65" id="6_6" class="click-receiver" height="65" style="fill: transparent;"></rect></g><g transform="translate(65, 260)"><rect fill="hsla(0,0%,0%,0)" width="65" id="1_4" class="click-receiver" height="65" style="fill: transparent;"></rect></g><g transform="translate(390, 455)"><rect fill="hsla(0,0%,0%,0)" width="65" id="6_7" class="click-receiver" height="65" style="fill: transparent;"></rect></g><g transform="translate(65, 455)"><rect fill="hsla(0,0%,0%,0)" width="65" id="1_7" class="click-receiver" height="65" style="fill: transparent;"></rect></g><g transform="translate(260, 520)"><rect fill="hsla(0,0%,0%,0)" width="65" id="4_8" class="click-receiver" height="65" style="fill: transparent;"></rect></g><g transform="translate(65, 520)"><rect fill="hsla(0,0%,0%,0)" width="65" id="1_8" class="click-receiver" height="65" style="fill: transparent;"></rect></g><g transform="translate(0, 195)"><rect fill="hsla(0,0%,0%,0)" width="65" id="0_3" class="click-receiver" height="65" style="fill: transparent;"></rect></g><g transform="translate(390, 325)"><rect fill="hsla(0,0%,0%,0)" width="65" id="6_5" class="click-receiver" height="65" style="fill: transparent;"></rect></g><g transform="translate(65, 585)"><rect fill="hsla(0,0%,0%,0)" width="65" id="1_9" class="click-receiver" height="65" style="fill: transparent;"></rect></g><g transform="translate(130, 65)"><rect fill="hsla(0,0%,0%,0)" width="65" id="2_1" class="click-receiver" height="65" style="fill: transparent;"></rect></g><g transform="translate(455, 520)"><rect fill="hsla(0,0%,0%,0)" width="65" id="7_8" class="click-receiver" height="65" style="fill: transparent;"></rect></g><g transform="translate(260, 65)"><rect fill="hsla(0,0%,0%,0)" width="65" id="4_1" class="click-receiver" height="65" style="fill: transparent;"></rect></g><g transform="translate(455, 325)"><rect fill="hsla(0,0%,0%,0)" width="65" id="7_5" class="click-receiver" height="65" style="fill: transparent;"></rect></g><g transform="translate(195, 390)"><rect fill="hsla(0,0%,0%,0)" width="65" id="3_6" class="click-receiver" height="65" style="fill: transparent;"></rect></g><g transform="translate(325, 520)"><rect fill="hsla(0,0%,0%,0)" width="65" id="5_8" class="click-receiver" height="65" style="fill: transparent;"></rect></g><g transform="translate(195, 520)"><rect fill="hsla(0,0%,0%,0)" width="65" id="3_8" class="click-receiver" height="65" style="fill: transparent;"></rect></g><g transform="translate(390, 65)"><rect fill="hsla(0,0%,0%,0)" width="65" id="6_1" class="click-receiver" height="65" style="fill: transparent;"></rect></g><g transform="translate(520, 0)"><rect fill="hsla(0,0%,0%,0)" width="65" id="8_0" class="click-receiver" height="65" style="fill: transparent;"></rect></g><g transform="translate(65, 390)"><rect fill="hsla(0,0%,0%,0)" width="65" id="1_6" class="click-receiver" height="65" style="fill: transparent;"></rect></g><g transform="translate(260, 260)"><rect fill="hsla(0,0%,0%,0)" width="65" id="4_4" class="click-receiver" height="65" style="fill: transparent;"></rect></g><g transform="translate(195, 455)"><rect fill="hsla(0,0%,0%,0)" width="65" id="3_7" class="click-receiver" height="65" style="fill: transparent;"></rect></g><g transform="translate(65, 0)"><rect fill="hsla(0,0%,0%,0)" width="65" id="1_0" class="click-receiver" height="65" style="fill: transparent;"></rect></g><g transform="translate(455, 195)"><rect fill="hsla(0,0%,0%,0)" width="65" id="7_3" class="click-receiver" height="65" style="fill: transparent;"></rect></g><g transform="translate(130, 0)"><rect fill="hsla(0,0%,0%,0)" width="65" id="2_0" class="click-receiver" height="65" style="fill: transparent;"></rect></g><g transform="translate(130, 520)"><rect fill="hsla(0,0%,0%,0)" width="65" id="2_8" class="click-receiver" height="65" style="fill: transparent;"></rect></g><g transform="translate(520, 585)"><rect fill="hsla(0,0%,0%,0)" width="65" id="8_9" class="click-receiver" height="65" style="fill: transparent;"></rect></g><g transform="translate(260, 0)"><rect fill="hsla(0,0%,0%,0)" width="65" id="4_0" class="click-receiver" height="65" style="fill: transparent;"></rect></g><g transform="translate(390, 130)"><rect fill="hsla(0,0%,0%,0)" width="65" id="6_2" class="click-receiver" height="65" style="fill: transparent;"></rect></g><g transform="translate(520, 130)"><rect fill="hsla(0,0%,0%,0)" width="65" id="8_2" class="click-receiver" height="65" style="fill: transparent;"></rect></g><g transform="translate(390, 260)"><rect fill="hsla(0,0%,0%,0)" width="65" id="6_4" class="click-receiver" height="65" style="fill: transparent;"></rect></g><g transform="translate(130, 325)"><rect fill="hsla(0,0%,0%,0)" width="65" id="2_5" class="click-receiver" height="65" style="fill: transparent;"></rect></g><g transform="translate(0, 260)"><rect fill="hsla(0,0%,0%,0)" width="65" id="0_4" class="click-receiver" height="65" style="fill: transparent;"></rect></g><g transform="translate(455, 390)"><rect fill="hsla(0,0%,0%,0)" width="65" id="7_6" class="click-receiver" height="65" style="fill: transparent;"></rect></g></g></g><g class="placeholder"></g></g></g></svg>