<svg viewBox="0 0 475 475" width="1" height="1" class="game-grid  fml_mills theme-dark theme-plain"><g transform="translate(10, 10)"><g transform=""><rect width="475" height="475" rx="13" ry="13" x="-10" y="-10" class="board-bg-rect" style="fill: var(--grid-b); stroke: none;"></rect><g class="edges-grid"><line x1="292.5" y1="227.5" x2="357.5" y2="227.5" stroke="var(--grid-f)" stroke-width="2"></line><line x1="292.5" y1="227.5" x2="292.5" y2="162.5" stroke="var(--grid-f)" stroke-width="2"></line><line x1="292.5" y1="227.5" x2="292.5" y2="292.5" stroke="var(--grid-f)" stroke-width="2"></line><line x1="227.5" y1="292.5" x2="292.5" y2="292.5" stroke="var(--grid-f)" stroke-width="2"></line><line x1="227.5" y1="292.5" x2="227.5" y2="357.5" stroke="var(--grid-f)" stroke-width="2"></line><line x1="227.5" y1="292.5" x2="162.5" y2="292.5" stroke="var(--grid-f)" stroke-width="2"></line><line x1="32.5" y1="32.5" x2="32.5" y2="227.5" stroke="var(--grid-f)" stroke-width="2"></line><line x1="32.5" y1="32.5" x2="227.5" y2="32.5" stroke="var(--grid-f)" stroke-width="2"></line><line x1="357.5" y1="227.5" x2="292.5" y2="227.5" stroke="var(--grid-f)" stroke-width="2"></line><line x1="357.5" y1="227.5" x2="357.5" y2="357.5" stroke="var(--grid-f)" stroke-width="2"></line><line x1="357.5" y1="227.5" x2="357.5" y2="97.5" stroke="var(--grid-f)" stroke-width="2"></line><line x1="357.5" y1="227.5" x2="422.5" y2="227.5" stroke="var(--grid-f)" stroke-width="2"></line><line x1="162.5" y1="162.5" x2="227.5" y2="162.5" stroke="var(--grid-f)" stroke-width="2"></line><line x1="162.5" y1="162.5" x2="162.5" y2="227.5" stroke="var(--grid-f)" stroke-width="2"></line><line x1="97.5" y1="357.5" x2="97.5" y2="227.5" stroke="var(--grid-f)" stroke-width="2"></line><line x1="97.5" y1="357.5" x2="227.5" y2="357.5" stroke="var(--grid-f)" stroke-width="2"></line><line x1="227.5" y1="162.5" x2="292.5" y2="162.5" stroke="var(--grid-f)" stroke-width="2"></line><line x1="227.5" y1="162.5" x2="227.5" y2="97.5" stroke="var(--grid-f)" stroke-width="2"></line><line x1="227.5" y1="162.5" x2="162.5" y2="162.5" stroke="var(--grid-f)" stroke-width="2"></line><line x1="162.5" y1="292.5" x2="162.5" y2="227.5" stroke="var(--grid-f)" stroke-width="2"></line><line x1="162.5" y1="292.5" x2="227.5" y2="292.5" stroke="var(--grid-f)" stroke-width="2"></line><line x1="292.5" y1="162.5" x2="292.5" y2="227.5" stroke="var(--grid-f)" stroke-width="2"></line><line x1="292.5" y1="162.5" x2="227.5" y2="162.5" stroke="var(--grid-f)" stroke-width="2"></line><line x1="97.5" y1="227.5" x2="97.5" y2="97.5" stroke="var(--grid-f)" stroke-width="2"></line><line x1="97.5" y1="227.5" x2="97.5" y2="357.5" stroke="var(--grid-f)" stroke-width="2"></line><line x1="97.5" y1="227.5" x2="32.5" y2="227.5" stroke="var(--grid-f)" stroke-width="2"></line><line x1="97.5" y1="227.5" x2="162.5" y2="227.5" stroke="var(--grid-f)" stroke-width="2"></line><line x1="357.5" y1="357.5" x2="357.5" y2="227.5" stroke="var(--grid-f)" stroke-width="2"></line><line x1="357.5" y1="357.5" x2="227.5" y2="357.5" stroke="var(--grid-f)" stroke-width="2"></line><line x1="162.5" y1="227.5" x2="162.5" y2="292.5" stroke="var(--grid-f)" stroke-width="2"></line><line x1="162.5" y1="227.5" x2="97.5" y2="227.5" stroke="var(--grid-f)" stroke-width="2"></line><line x1="162.5" y1="227.5" x2="162.5" y2="162.5" stroke="var(--grid-f)" stroke-width="2"></line><line x1="227.5" y1="97.5" x2="227.5" y2="162.5" stroke="var(--grid-f)" stroke-width="2"></line><line x1="227.5" y1="97.5" x2="97.5" y2="97.5" stroke="var(--grid-f)" stroke-width="2"></line><line x1="227.5" y1="97.5" x2="357.5" y2="97.5" stroke="var(--grid-f)" stroke-width="2"></line><line x1="227.5" y1="97.5" x2="227.5" y2="32.5" stroke="var(--grid-f)" stroke-width="2"></line><line x1="357.5" y1="97.5" x2="357.5" y2="227.5" stroke="var(--grid-f)" stroke-width="2"></line><line x1="357.5" y1="97.5" x2="227.5" y2="97.5" stroke="var(--grid-f)" stroke-width="2"></line><line x1="227.5" y1="32.5" x2="32.5" y2="32.5" stroke="var(--grid-f)" stroke-width="2"></line><line x1="227.5" y1="32.5" x2="227.5" y2="97.5" stroke="var(--grid-f)" stroke-width="2"></line><line x1="227.5" y1="32.5" x2="422.5" y2="32.5" stroke="var(--grid-f)" stroke-width="2"></line><line x1="32.5" y1="422.5" x2="32.5" y2="227.5" stroke="var(--grid-f)" stroke-width="2"></line><line x1="32.5" y1="422.5" x2="227.5" y2="422.5" stroke="var(--grid-f)" stroke-width="2"></line><line x1="97.5" y1="97.5" x2="97.5" y2="227.5" stroke="var(--grid-f)" stroke-width="2"></line><line x1="97.5" y1="97.5" x2="227.5" y2="97.5" stroke="var(--grid-f)" stroke-width="2"></line><line x1="422.5" y1="32.5" x2="422.5" y2="227.5" stroke="var(--grid-f)" stroke-width="2"></line><line x1="422.5" y1="32.5" x2="227.5" y2="32.5" stroke="var(--grid-f)" stroke-width="2"></line><line x1="422.5" y1="227.5" x2="422.5" y2="422.5" stroke="var(--grid-f)" stroke-width="2"></line><line x1="422.5" y1="227.5" x2="357.5" y2="227.5" stroke="var(--grid-f)" stroke-width="2"></line><line x1="422.5" y1="227.5" x2="422.5" y2="32.5" stroke="var(--grid-f)" stroke-width="2"></line><line x1="227.5" y1="357.5" x2="227.5" y2="422.5" stroke="var(--grid-f)" stroke-width="2"></line><line x1="227.5" y1="357.5" x2="227.5" y2="292.5" stroke="var(--grid-f)" stroke-width="2"></line><line x1="227.5" y1="357.5" x2="357.5" y2="357.5" stroke="var(--grid-f)" stroke-width="2"></line><line x1="227.5" y1="357.5" x2="97.5" y2="357.5" stroke="var(--grid-f)" stroke-width="2"></line><line x1="422.5" y1="422.5" x2="422.5" y2="227.5" stroke="var(--grid-f)" stroke-width="2"></line><line x1="422.5" y1="422.5" x2="227.5" y2="422.5" stroke="var(--grid-f)" stroke-width="2"></line><line x1="32.5" y1="227.5" x2="32.5" y2="32.5" stroke="var(--grid-f)" stroke-width="2"></line><line x1="32.5" y1="227.5" x2="32.5" y2="422.5" stroke="var(--grid-f)" stroke-width="2"></line><line x1="32.5" y1="227.5" x2="97.5" y2="227.5" stroke="var(--grid-f)" stroke-width="2"></line><line x1="227.5" y1="422.5" x2="227.5" y2="357.5" stroke="var(--grid-f)" stroke-width="2"></line><line x1="227.5" y1="422.5" x2="422.5" y2="422.5" stroke="var(--grid-f)" stroke-width="2"></line><line x1="227.5" y1="422.5" x2="32.5" y2="422.5" stroke="var(--grid-f)" stroke-width="2"></line><line x1="292.5" y1="292.5" x2="227.5" y2="292.5" stroke="var(--grid-f)" stroke-width="2"></line><line x1="292.5" y1="292.5" x2="292.5" y2="227.5" stroke="var(--grid-f)" stroke-width="2"></line></g><g class="area-grid-ug"></g><g class="base-grid"><g><g transform="translate(32.5, 97.5)"></g><g transform="translate(292.5, 227.5)"><g class="square"><circle cx="0" cy="0" r="5" fill="var(--grid-f)"></circle></g></g><g transform="translate(227.5, 292.5)"><g class="square"><circle cx="0" cy="0" r="5" fill="var(--grid-f)"></circle></g></g><g transform="translate(97.5, 162.5)"></g><g transform="translate(32.5, 357.5)"></g><g transform="translate(32.5, 32.5)"><g class="square"><circle cx="0" cy="0" r="5" fill="var(--grid-f)"></circle></g></g><g transform="translate(357.5, 227.5)"><g class="square"><circle cx="0" cy="0" r="5" fill="var(--grid-f)"></circle></g></g><g transform="translate(162.5, 162.5)"><g class="square"><circle cx="0" cy="0" r="5" fill="var(--grid-f)"></circle></g></g><g transform="translate(97.5, 357.5)"><g class="square"><circle cx="0" cy="0" r="5" fill="var(--grid-f)"></circle></g></g><g transform="translate(227.5, 162.5)"><g class="square"><circle cx="0" cy="0" r="5" fill="var(--grid-f)"></circle></g></g><g transform="translate(292.5, 422.5)"></g><g transform="translate(162.5, 292.5)"><g class="square"><circle cx="0" cy="0" r="5" fill="var(--grid-f)"></circle></g></g><g transform="translate(292.5, 162.5)"><g class="square"><circle cx="0" cy="0" r="5" fill="var(--grid-f)"></circle></g></g><g transform="translate(97.5, 227.5)"><g class="square"><circle cx="0" cy="0" r="5" fill="var(--grid-f)"></circle></g></g><g transform="translate(357.5, 357.5)"><g class="square"><circle cx="0" cy="0" r="5" fill="var(--grid-f)"></circle></g></g><g transform="translate(357.5, 422.5)"></g><g transform="translate(162.5, 227.5)"><g class="square"><circle cx="0" cy="0" r="5" fill="var(--grid-f)"></circle></g></g><g transform="translate(357.5, 162.5)"></g><g transform="translate(227.5, 97.5)"><g class="square"><circle cx="0" cy="0" r="5" fill="var(--grid-f)"></circle></g></g><g transform="translate(32.5, 162.5)"></g><g transform="translate(357.5, 97.5)"><g class="square"><circle cx="0" cy="0" r="5" fill="var(--grid-f)"></circle></g></g><g transform="translate(227.5, 32.5)"><g class="square"><circle cx="0" cy="0" r="5" fill="var(--grid-f)"></circle></g></g><g transform="translate(32.5, 422.5)"><g class="square"><circle cx="0" cy="0" r="5" fill="var(--grid-f)"></circle></g></g><g transform="translate(292.5, 357.5)"></g><g transform="translate(97.5, 97.5)"><g class="square"><circle cx="0" cy="0" r="5" fill="var(--grid-f)"></circle></g></g><g transform="translate(422.5, 32.5)"><g class="square"><circle cx="0" cy="0" r="5" fill="var(--grid-f)"></circle></g></g><g transform="translate(227.5, 227.5)"></g><g transform="translate(357.5, 32.5)"></g><g transform="translate(357.5, 292.5)"></g><g transform="translate(162.5, 422.5)"></g><g transform="translate(422.5, 227.5)"><g class="square"><circle cx="0" cy="0" r="5" fill="var(--grid-f)"></circle></g></g><g transform="translate(227.5, 357.5)"><g class="square"><circle cx="0" cy="0" r="5" fill="var(--grid-f)"></circle></g></g><g transform="translate(422.5, 422.5)"><g class="square"><circle cx="0" cy="0" r="5" fill="var(--grid-f)"></circle></g></g><g transform="translate(97.5, 292.5)"></g><g transform="translate(32.5, 227.5)"><g class="square"><circle cx="0" cy="0" r="5" fill="var(--grid-f)"></circle></g></g><g transform="translate(422.5, 357.5)"></g><g transform="translate(162.5, 97.5)"></g><g transform="translate(292.5, 97.5)"></g><g transform="translate(227.5, 422.5)"><g class="square"><circle cx="0" cy="0" r="5" fill="var(--grid-f)"></circle></g></g><g transform="translate(422.5, 97.5)"></g><g transform="translate(97.5, 422.5)"></g><g transform="translate(292.5, 292.5)"><g class="square"><circle cx="0" cy="0" r="5" fill="var(--grid-f)"></circle></g></g><g transform="translate(97.5, 32.5)"></g><g transform="translate(162.5, 32.5)"></g><g transform="translate(292.5, 32.5)"></g><g transform="translate(422.5, 162.5)"></g><g transform="translate(422.5, 292.5)"></g><g transform="translate(162.5, 357.5)"></g><g transform="translate(32.5, 292.5)"></g></g></g><g class="area-grid-bg-mid"></g><g class="area-grid-bg"></g><g class="e-grid" transform=""><g><g class="tl-box" style="transition: transform 300ms linear 0s; transform: translate(97.5px, 97.5px);"><g class=" 1" transform=""><g><g transform="scale(0.52,0.52)"><g transform=""><g><circle r="50" fill="var(--e-black-bg)" stroke="var(--e-black-bo)" stroke-width="4"></circle></g></g></g></g></g></g><g class="tl-box" style="transition: transform 300ms linear 0s; transform: translate(227.5px, 32.5px);"><g class=" 2" transform=""><g><g transform="scale(0.52,0.52)"><g transform=""><g><circle r="50" fill="var(--e-white-bg)" stroke="var(--e-white-bo)" stroke-width="4"></circle></g></g></g></g></g></g><g class="tl-box" style="transition: transform 300ms linear 0s; transform: translate(97.5px, 227.5px);"><g class=" 3" transform=""><g><g transform="scale(0.52,0.52)"><g transform=""><g><circle r="50" fill="var(--e-black-bg)" stroke="var(--e-black-bo)" stroke-width="4"></circle></g></g></g></g></g></g><g class="tl-box" style="transition: transform 300ms linear 0s; transform: translate(227.5px, 97.5px);"><g class=" 4" transform=""><g><g transform="scale(0.52,0.52)"><g transform=""><g><circle r="50" fill="var(--e-white-bg)" stroke="var(--e-white-bo)" stroke-width="4"></circle></g></g></g></g></g></g><g class="tl-box" style="transition: transform 300ms linear 0s; transform: translate(97.5px, 357.5px);"><g class=" 5" transform=""><g><g transform="scale(0.52,0.52)"><g transform=""><g><circle r="50" fill="var(--e-black-bg)" stroke="var(--e-black-bo)" stroke-width="4"></circle></g></g></g></g></g></g></g></g><g class="arrow-grid"><g><defs><marker id="arrow-head" orient="auto" markerWidth="4" markerHeight="4" refX="2.9" refY="2"><path d="M 0 4 L 0 0 4 2 Z" stroke="none" fill="hsl(240deg 100% 85%)"></path></marker><marker id="arrow-head-capture" orient="auto" markerWidth="4" markerHeight="4" refX="2.9" refY="2"><path d="M 0 4 L 0 0 4 2 Z" stroke="none" fill="var(--red-light)"></path></marker></defs></g></g><g class="area-grid-fg"><g><g transform="translate(65, 325)"><g transform="translate(32.5, 32.5)"><g transform="scale(0.52,0.52)"><g transform=""><circle r="6" fill="hsl(240deg 100% 75%)"></circle></g></g></g></g><g transform="translate(65, 195)"><g transform="translate(32.5, 32.5)"><g transform="scale(0.52,0.52)"><g transform=""><circle r="6" fill="hsl(240deg 100% 75%)"></circle></g></g></g></g><g transform="translate(65, 65)"><g transform="translate(32.5, 32.5)"><g transform="scale(0.52,0.52)"><g transform=""><circle r="6" fill="hsl(240deg 100% 75%)"></circle></g></g></g></g></g><g><g transform="translate(65, 325)"><g transform="translate(32.5, 32.5)"><g transform="scale(0.52,0.52)"><g transform=""><circle r="30" fill="none" stroke="hsl(240deg 100% 75%)" opacity="1" stroke-width="5"></circle></g></g></g></g><g transform="translate(195, 65)"><g transform="translate(32.5, 32.5)"><g transform="scale(0.52,0.52)"><g transform=""><circle r="30" fill="none" stroke="hsl(240deg 100% 75%)" opacity="0.4" stroke-width="5"></circle></g></g></g></g></g></g><g class="tt-grid"><g><g transform="translate(32.5, 97.5)"></g><g transform="translate(292.5, 227.5)"></g><g transform="translate(227.5, 292.5)"></g><g transform="translate(97.5, 162.5)"></g><g transform="translate(32.5, 357.5)"></g><g transform="translate(32.5, 32.5)"></g><g transform="translate(357.5, 227.5)"></g><g transform="translate(162.5, 162.5)"></g><g transform="translate(97.5, 357.5)"></g><g transform="translate(227.5, 162.5)"></g><g transform="translate(292.5, 422.5)"></g><g transform="translate(162.5, 292.5)"></g><g transform="translate(292.5, 162.5)"></g><g transform="translate(97.5, 227.5)"></g><g transform="translate(357.5, 357.5)"></g><g transform="translate(357.5, 422.5)"></g><g transform="translate(162.5, 227.5)"></g><g transform="translate(357.5, 162.5)"></g><g transform="translate(227.5, 97.5)"></g><g transform="translate(32.5, 162.5)"></g><g transform="translate(357.5, 97.5)"></g><g transform="translate(227.5, 32.5)"></g><g transform="translate(32.5, 422.5)"></g><g transform="translate(292.5, 357.5)"></g><g transform="translate(97.5, 97.5)"></g><g transform="translate(422.5, 32.5)"></g><g transform="translate(227.5, 227.5)"></g><g transform="translate(357.5, 32.5)"></g><g transform="translate(357.5, 292.5)"></g><g transform="translate(162.5, 422.5)"></g><g transform="translate(422.5, 227.5)"></g><g transform="translate(227.5, 357.5)"></g><g transform="translate(422.5, 422.5)"></g><g transform="translate(97.5, 292.5)"></g><g transform="translate(32.5, 227.5)"></g><g transform="translate(422.5, 357.5)"></g><g transform="translate(162.5, 97.5)"></g><g transform="translate(292.5, 97.5)"></g><g transform="translate(227.5, 422.5)"></g><g transform="translate(422.5, 97.5)"></g><g transform="translate(97.5, 422.5)"></g><g transform="translate(292.5, 292.5)"></g><g transform="translate(97.5, 32.5)"></g><g transform="translate(162.5, 32.5)"></g><g transform="translate(292.5, 32.5)"></g><g transform="translate(422.5, 162.5)"></g><g transform="translate(422.5, 292.5)"></g><g transform="translate(162.5, 357.5)"></g><g transform="translate(32.5, 292.5)"></g></g></g><g class="e-grid" transform=""><g></g></g><g class="pointer-grid"><g><g transform="translate(0, 65)"><rect fill="hsla(0,0%,0%,0)" width="65" id="0_1" class="click-receiver" height="65" style="fill: transparent;"></rect></g><g transform="translate(260, 195)"><rect fill="hsla(0,0%,0%,0)" width="65" id="4_3" class="click-receiver" height="65" style="fill: transparent;"></rect></g><g transform="translate(195, 260)"><rect fill="hsla(0,0%,0%,0)" width="65" id="3_4" class="click-receiver" height="65" style="fill: transparent;"></rect></g><g transform="translate(65, 130)"><rect fill="hsla(0,0%,0%,0)" width="65" id="1_2" class="click-receiver" height="65" style="fill: transparent;"></rect></g><g transform="translate(0, 325)"><rect fill="hsla(0,0%,0%,0)" width="65" id="0_5" class="click-receiver" height="65" style="fill: transparent;"></rect></g><g transform=""><rect fill="hsla(0,0%,0%,0)" width="65" id="0_0" class="click-receiver" height="65" style="fill: transparent;"></rect></g><g transform="translate(325, 195)"><rect fill="hsla(0,0%,0%,0)" width="65" id="5_3" class="click-receiver" height="65" style="fill: transparent;"></rect></g><g transform="translate(130, 130)"><rect fill="hsla(0,0%,0%,0)" width="65" id="2_2" class="click-receiver" height="65" style="fill: transparent;"></rect></g><g transform="translate(65, 325)"><rect fill="hsla(0,0%,0%,0)" width="65" id="1_5" class="click-receiver" height="65" style="fill: transparent;"></rect></g><g transform="translate(195, 130)"><rect fill="hsla(0,0%,0%,0)" width="65" id="3_2" class="click-receiver" height="65" style="fill: transparent;"></rect></g><g transform="translate(260, 390)"><rect fill="hsla(0,0%,0%,0)" width="65" id="4_6" class="click-receiver" height="65" style="fill: transparent;"></rect></g><g transform="translate(130, 260)"><rect fill="hsla(0,0%,0%,0)" width="65" id="2_4" class="click-receiver" height="65" style="fill: transparent;"></rect></g><g transform="translate(260, 130)"><rect fill="hsla(0,0%,0%,0)" width="65" id="4_2" class="click-receiver" height="65" style="fill: transparent;"></rect></g><g transform="translate(65, 195)"><rect fill="hsla(0,0%,0%,0)" width="65" id="1_3" class="click-receiver" height="65" style="fill: transparent;"></rect></g><g transform="translate(325, 325)"><rect fill="hsla(0,0%,0%,0)" width="65" id="5_5" class="click-receiver" height="65" style="fill: transparent;"></rect></g><g transform="translate(325, 390)"><rect fill="hsla(0,0%,0%,0)" width="65" id="5_6" class="click-receiver" height="65" style="fill: transparent;"></rect></g><g transform="translate(130, 195)"><rect fill="hsla(0,0%,0%,0)" width="65" id="2_3" class="click-receiver" height="65" style="fill: transparent;"></rect></g><g transform="translate(325, 130)"><rect fill="hsla(0,0%,0%,0)" width="65" id="5_2" class="click-receiver" height="65" style="fill: transparent;"></rect></g><g transform="translate(195, 65)"><rect fill="hsla(0,0%,0%,0)" width="65" id="3_1" class="click-receiver" height="65" style="fill: transparent;"></rect></g><g transform="translate(0, 130)"><rect fill="hsla(0,0%,0%,0)" width="65" id="0_2" class="click-receiver" height="65" style="fill: transparent;"></rect></g><g transform="translate(325, 65)"><rect fill="hsla(0,0%,0%,0)" width="65" id="5_1" class="click-receiver" height="65" style="fill: transparent;"></rect></g><g transform="translate(195, 0)"><rect fill="hsla(0,0%,0%,0)" width="65" id="3_0" class="click-receiver" height="65" style="fill: transparent;"></rect></g><g transform="translate(0, 390)"><rect fill="hsla(0,0%,0%,0)" width="65" id="0_6" class="click-receiver" height="65" style="fill: transparent;"></rect></g><g transform="translate(260, 325)"><rect fill="hsla(0,0%,0%,0)" width="65" id="4_5" class="click-receiver" height="65" style="fill: transparent;"></rect></g><g transform="translate(65, 65)"><rect fill="hsla(0,0%,0%,0)" width="65" id="1_1" class="click-receiver" height="65" style="fill: transparent;"></rect></g><g transform="translate(390, 0)"><rect fill="hsla(0,0%,0%,0)" width="65" id="6_0" class="click-receiver" height="65" style="fill: transparent;"></rect></g><g transform="translate(195, 195)"><rect fill="hsla(0,0%,0%,0)" width="65" id="3_3" class="click-receiver" height="65" style="fill: transparent;"></rect></g><g transform="translate(325, 0)"><rect fill="hsla(0,0%,0%,0)" width="65" id="5_0" class="click-receiver" height="65" style="fill: transparent;"></rect></g><g transform="translate(325, 260)"><rect fill="hsla(0,0%,0%,0)" width="65" id="5_4" class="click-receiver" height="65" style="fill: transparent;"></rect></g><g transform="translate(130, 390)"><rect fill="hsla(0,0%,0%,0)" width="65" id="2_6" class="click-receiver" height="65" style="fill: transparent;"></rect></g><g transform="translate(390, 195)"><rect fill="hsla(0,0%,0%,0)" width="65" id="6_3" class="click-receiver" height="65" style="fill: transparent;"></rect></g><g transform="translate(195, 325)"><rect fill="hsla(0,0%,0%,0)" width="65" id="3_5" class="click-receiver" height="65" style="fill: transparent;"></rect></g><g transform="translate(390, 390)"><rect fill="hsla(0,0%,0%,0)" width="65" id="6_6" class="click-receiver" height="65" style="fill: transparent;"></rect></g><g transform="translate(65, 260)"><rect fill="hsla(0,0%,0%,0)" width="65" id="1_4" class="click-receiver" height="65" style="fill: transparent;"></rect></g><g transform="translate(0, 195)"><rect fill="hsla(0,0%,0%,0)" width="65" id="0_3" class="click-receiver" height="65" style="fill: transparent;"></rect></g><g transform="translate(390, 325)"><rect fill="hsla(0,0%,0%,0)" width="65" id="6_5" class="click-receiver" height="65" style="fill: transparent;"></rect></g><g transform="translate(130, 65)"><rect fill="hsla(0,0%,0%,0)" width="65" id="2_1" class="click-receiver" height="65" style="fill: transparent;"></rect></g><g transform="translate(260, 65)"><rect fill="hsla(0,0%,0%,0)" width="65" id="4_1" class="click-receiver" height="65" style="fill: transparent;"></rect></g><g transform="translate(195, 390)"><rect fill="hsla(0,0%,0%,0)" width="65" id="3_6" class="click-receiver" height="65" style="fill: transparent;"></rect></g><g transform="translate(390, 65)"><rect fill="hsla(0,0%,0%,0)" width="65" id="6_1" class="click-receiver" height="65" style="fill: transparent;"></rect></g><g transform="translate(65, 390)"><rect fill="hsla(0,0%,0%,0)" width="65" id="1_6" class="click-receiver" height="65" style="fill: transparent;"></rect></g><g transform="translate(260, 260)"><rect fill="hsla(0,0%,0%,0)" width="65" id="4_4" class="click-receiver" height="65" style="fill: transparent;"></rect></g><g transform="translate(65, 0)"><rect fill="hsla(0,0%,0%,0)" width="65" id="1_0" class="click-receiver" height="65" style="fill: transparent;"></rect></g><g transform="translate(130, 0)"><rect fill="hsla(0,0%,0%,0)" width="65" id="2_0" class="click-receiver" height="65" style="fill: transparent;"></rect></g><g transform="translate(260, 0)"><rect fill="hsla(0,0%,0%,0)" width="65" id="4_0" class="click-receiver" height="65" style="fill: transparent;"></rect></g><g transform="translate(390, 130)"><rect fill="hsla(0,0%,0%,0)" width="65" id="6_2" class="click-receiver" height="65" style="fill: transparent;"></rect></g><g transform="translate(390, 260)"><rect fill="hsla(0,0%,0%,0)" width="65" id="6_4" class="click-receiver" height="65" style="fill: transparent;"></rect></g><g transform="translate(130, 325)"><rect fill="hsla(0,0%,0%,0)" width="65" id="2_5" class="click-receiver" height="65" style="fill: transparent;"></rect></g><g transform="translate(0, 260)"><rect fill="hsla(0,0%,0%,0)" width="65" id="0_4" class="click-receiver" height="65" style="fill: transparent;"></rect></g></g></g><g class="placeholder"></g></g></g></svg>