<svg viewBox="100 0 720 720" width="1" height="0.782608695652174" class="game-grid fml_poker"><defs><filter id="cardShadowHigh"><feDropShadow flood-color="black" stdDeviation="2" dx="-3" dy="3" flood-opacity="0.1"></feDropShadow></filter><filter id="cardShadowFlat"><feDropShadow flood-color="black" stdDeviation="1.5" dx="0" dy="0" flood-opacity="0.1"></feDropShadow></filter></defs><g transform=""><g transform="translate(60, 60)"><g><rect y="60" rx="240" stroke="var(--board-stroke)" fill="var(--board-bg)" width="680" stroke-width="26" x="60" height="480"></rect><rect rx="155" stroke-width="3" x="140" width="520" fill="none" y="136.75" height="326.5" stroke="var(--board-stroke)"></rect></g></g></g><g transform=""><g transform="translate(60, 60)"><g><g transform="translate(300, 366.6)"></g><g transform="translate(300, 366.6)"><g><g transform="translate(100, 194.25)"><g transform=""><g class="player-field active"><circle r="84.85714285714285"></circle><g><g transform="translate(-77.14285714285712, -25.71428571428571)"><g><g transform="translate(0, -51.42857142857142)"><g><g></g><g transform="translate(0, 0)"><g><g><g><g transform="translate(1.5428571428571438, 1.5428571428571438)"><g transform="scale(0.9874285714285711,0.9874285714285711)"><g transform=""><g style="color: var(--card-suit-red);"><rect fill="var(--card-b)" width="75" height="101" rx="5"></rect><g transform="translate(15.789473684210526, 21.715)scale(0.36)"><g transform="translate(-50, -50)"><g><path stroke="currentColor" d="M 71 13 L 35 13 L 32 46 L 32 46 C 43 23 73 33 74 56 C 75 66 73 77 66 84 C 56 95 29 92 28 73" style="fill: none; stroke: currentcolor; stroke-width: 10; stroke-linecap: butt;"></path></g></g></g><g transform="translate(15.789473684210526, 50.5)scale(0.275)"><g transform="translate(-50, -50)"><g><path stroke="currentColor" d="M 50 93 Q 38 68 18 50 Q 38 33 50 7 Q 62 33 82 50 Q 62 68 50 93" style="fill: currentcolor; stroke: none;"></path></g></g></g><g transform="translate(48.387096774193544, 69.185)scale(0.57)"><g transform="translate(-50, -50)"><g><path stroke="currentColor" d="M 50 93 Q 38 68 18 50 Q 38 33 50 7 Q 62 33 82 50 Q 62 68 50 93" style="fill: currentcolor; stroke: none;"></path></g></g></g></g></g></g></g></g></g></g></g><g transform="translate(77.14285714285712, 0)"><g><g><g><g transform="translate(1.5428571428571438, 1.5428571428571438)"><g transform="scale(0.9874285714285711,0.9874285714285711)"><g transform=""><g style="color: var(--card-suit-black);"><rect fill="var(--card-b)" width="75" height="101" rx="5"></rect><g transform="translate(15.789473684210526, 21.715)scale(0.36)"><g transform="translate(-50, -50)"><g><path stroke="currentColor" d="M 21 90 L 41 90 M 51 10 L 31 90 M 64 90 L 84 90 M 74 90 L 52.5 10 M 38 70 L 67 70 M 46 12.5 L 57.5 12.5" style="fill: none; stroke: currentcolor; stroke-width: 10; stroke-linecap: butt;"></path></g></g></g><g transform="translate(15.789473684210526, 50.5)scale(0.275)"><g transform="translate(-50, -50)"><g><path stroke="currentColor" d="M 50 93 L 39.18 92.96 Q 45.6 82.59 46.6 69.98 C 46.6 69.98 39.06 77.22 30.52 77.06 S 18.73 71.57 16.55 66.19 C 7.01 42.48 43.41 28.04 50 7 C 56.59 28.04 92.99 42.48 83.45 66.19 C 81.27 71.57 78.02 76.9 69.48 77.06 C 60.94 77.22 53.4 69.98 53.4 69.98 Q 54.4 82.59 60.82 92.96 L 50 93" style="stroke-miterlimit: 50; fill: currentcolor; stroke: none;"></path></g></g></g><g transform="translate(48.387096774193544, 70.19500000000001)scale(0.57)"><g transform="translate(-50, -50)"><g><path stroke="currentColor" d="M 50 93 L 39.18 92.96 Q 45.6 82.59 46.6 69.98 C 46.6 69.98 39.06 77.22 30.52 77.06 S 18.73 71.57 16.55 66.19 C 7.01 42.48 43.41 28.04 50 7 C 56.59 28.04 92.99 42.48 83.45 66.19 C 81.27 71.57 78.02 76.9 69.48 77.06 C 60.94 77.22 53.4 69.98 53.4 69.98 Q 54.4 82.59 60.82 92.96 L 50 93" style="stroke-miterlimit: 50; fill: currentcolor; stroke: none;"></path></g></g></g></g></g></g></g></g></g></g></g></g></g><g></g></g></g><g transform="translate(0, 51.42857142857142)"><g><g transform="translate(0, -10.5)"><g class="name-view"><text font-size="15" x="0" y="0.5" fill="currentColor" text-anchor="middle" font-family="Roboto" alignment-baseline="central">seat 1</text></g></g><g transform="translate(0, 10.5)"><g class="balance-view"><text font-size="15" x="0" y="0.5" fill="currentColor" text-anchor="middle" font-family="Roboto" alignment-baseline="central">1590</text></g></g></g></g></g></g></g></g></g></g><g transform="translate(300, 366.6)"><g><g transform="translate(100, 77.7)"></g><g transform="translate(182.3223304703363, 95.37766952966369)"><g transform=""><g class="text-circle role-field dealer"><g class="text-circle-main"><circle r="10.2"></circle><g transform="translate(0.5, 0)"><text font-size="15" x="0" y="0.5" fill="currentColor" text-anchor="middle" font-family="Roboto" alignment-baseline="central">D</text></g></g></g></g></g></g></g><g transform=""></g><g transform=""><g><g transform="translate(169.44444444444434, 526.1288554326034)"></g></g></g><g transform=""><g><g transform="translate(227.77777777777771, 425.09255832441886)"></g><g transform="translate(279.7513316940018, 463.4953314536605)"></g></g></g><g transform=""></g><g transform=""><g><g transform="translate(38.888888888888914, 299.99999999999994)"></g></g></g><g transform=""><g><g transform="translate(155.55555555555554, 300)"></g><g transform="translate(148.2845554079739, 364.21180458103095)"></g></g></g><g transform=""></g><g transform=""><g><g transform="translate(169.4444444444445, 73.87114456739658)"><g transform=""><g class="player-field idle"><circle r="84.85714285714285"></circle><g><g transform="translate(-77.14285714285712, -25.71428571428571)"><g><g transform="translate(0, -51.42857142857142)"><g><g></g><g transform="translate(0, 0)"><g><g><g><g transform="translate(1.5428571428571438, 1.5428571428571438)"><g transform="scale(0.9874285714285711,0.9874285714285711)"><g transform=""><g style="color: var(--card-suit-red);"><rect fill="var(--card-b)" width="75" height="101" rx="5"></rect><g transform="translate(15.789473684210526, 21.715)scale(0.36)"><g transform="translate(-50, -50)"><g><path stroke="currentColor" d="M 21 10 L 45 10 M 54 10 L 79 10 M 20 90 L 44 90 M 54 90 L 79 90 M 33 10 L 33 89 M 33 63 L 70 10 M 49 41 L 69 90" style="fill: none; stroke: currentcolor; stroke-width: 10; stroke-linecap: butt;"></path></g></g></g><g transform="translate(15.789473684210526, 50.5)scale(0.275)"><g transform="translate(-50, -50)"><g><path stroke="currentColor" d="M 50 93 Q 38 68 18 50 Q 38 33 50 7 Q 62 33 82 50 Q 62 68 50 93" style="fill: currentcolor; stroke: none;"></path></g></g></g><g transform="translate(48.387096774193544, 69.185)scale(0.57)"><g transform="translate(-50, -50)"><g><path stroke="currentColor" d="M 50 93 Q 38 68 18 50 Q 38 33 50 7 Q 62 33 82 50 Q 62 68 50 93" style="fill: currentcolor; stroke: none;"></path></g></g></g></g></g></g></g></g></g></g></g><g transform="translate(77.14285714285712, 0)"><g><g><g><g transform="translate(1.5428571428571438, 1.5428571428571438)"><g transform="scale(0.9874285714285711,0.9874285714285711)"><g transform=""><g style="color: var(--card-suit-black);"><rect fill="var(--card-b)" width="75" height="101" rx="5"></rect><g transform="translate(15.789473684210526, 21.715)scale(0.36)"><g transform="translate(-50, -50)"><g><path stroke="currentColor" d="M 69 25 C 69 12 36.83 8.67 31 30.83 C 24.33 60.67 31.33 76 31.33 76 C 38.83 93.83 71.83 94.5 72 62 C 71 32 33.17 27.5 28.17 60.5" style="fill: none; stroke: currentcolor; stroke-width: 10; stroke-linecap: butt;"></path></g></g></g><g transform="translate(15.789473684210526, 50.5)scale(0.275)"><g transform="translate(-50, -50)"><g><path stroke="currentColor" d="M 50 93 L 39.18 92.96 Q 45.6 82.59 46.6 69.98 C 46.6 69.98 39.06 77.22 30.52 77.06 S 18.73 71.57 16.55 66.19 C 7.01 42.48 43.41 28.04 50 7 C 56.59 28.04 92.99 42.48 83.45 66.19 C 81.27 71.57 78.02 76.9 69.48 77.06 C 60.94 77.22 53.4 69.98 53.4 69.98 Q 54.4 82.59 60.82 92.96 L 50 93" style="stroke-miterlimit: 50; fill: currentcolor; stroke: none;"></path></g></g></g><g transform="translate(48.387096774193544, 70.19500000000001)scale(0.57)"><g transform="translate(-50, -50)"><g><path stroke="currentColor" d="M 50 93 L 39.18 92.96 Q 45.6 82.59 46.6 69.98 C 46.6 69.98 39.06 77.22 30.52 77.06 S 18.73 71.57 16.55 66.19 C 7.01 42.48 43.41 28.04 50 7 C 56.59 28.04 92.99 42.48 83.45 66.19 C 81.27 71.57 78.02 76.9 69.48 77.06 C 60.94 77.22 53.4 69.98 53.4 69.98 Q 54.4 82.59 60.82 92.96 L 50 93" style="stroke-miterlimit: 50; fill: currentcolor; stroke: none;"></path></g></g></g></g></g></g></g></g></g></g></g></g></g><g></g></g></g><g transform="translate(0, 51.42857142857142)"><g><g transform="translate(0, -10.5)"><g class="name-view"><text font-size="15" x="0" y="0.5" fill="currentColor" text-anchor="middle" font-family="Roboto" alignment-baseline="central">seat 2</text></g></g><g transform="translate(0, 10.5)"><g class="balance-view"><text font-size="15" x="0" y="0.5" fill="currentColor" text-anchor="middle" font-family="Roboto" alignment-baseline="central">1190</text></g></g></g></g></g></g></g></g></g></g><g transform=""><g><g transform="translate(227.7777777777778, 174.90744167558108)"><g transform="translate(-25.35, 0)"><g class="text-badge edge-field bet-self bet badge edge  raise"><g class="body"><rect x="0" y="-10" width="50.7" height="20" rx="10"></rect><g transform="translate(33.6, 0)"><text text-anchor="middle" font-family="Roboto" alignment-baseline="central" fill="currentColor">400</text></g></g><g class="head"><rect x="2" y="-8" rx="8" width="16" height="16"></rect><g transform="translate(10, 0)"><g transform="translate(0, -0.5)scale(0.7)"><path fill="currentColor" d="M 0 -4 l -6 6 l 1.41 1.41 L 0 -1.17 l 4.59 4.58 L 6 2 z"></path></g></g></g></g></g></g><g transform="translate(168.53322371397218, 200.71647312737042)"><g transform=""><g class="text-circle role-field small"><g class="text-circle-main"><circle r="11.4"></circle><g transform=""><text font-size="13" x="0" y="0.5" fill="currentColor" text-anchor="middle" font-family="Roboto" alignment-baseline="central">SB</text></g></g></g></g></g></g></g><g transform="translate(300, 0)"></g><g transform="translate(300, 0)"><g><g transform="translate(100, 38.85)"></g></g></g><g transform="translate(300, 0)"><g><g transform="translate(100, 155.4)"></g><g transform="translate(17.677669529663692, 137.72233047033632)"></g></g></g><g transform="translate(200, 0)"></g><g transform="translate(200, 0)"><g><g transform="translate(430.55555555555554, 73.87114456739661)"><g transform=""><g class="player-field idle"><circle r="84.85714285714285"></circle><g><g transform="translate(-77.14285714285712, -25.71428571428571)"><g><g transform="translate(0, -51.42857142857142)"><g><g></g><g transform="translate(0, 0)"><g><g><g><g transform="translate(1.5428571428571438, 1.5428571428571438)"><g transform="scale(0.9874285714285711,0.9874285714285711)"><g transform=""><g style="color: var(--card-suit-black);"><rect fill="var(--card-b)" width="75" height="101" rx="5"></rect><g transform="translate(15.789473684210526, 21.715)scale(0.36)"><g transform="translate(-50, -50)"><g><path stroke="currentColor" d="M 61 90 L 61 12 L 60 12 L 26 62 L 26 68 L 77 68 M 49 90 L 73 90" style="fill: none; stroke: currentcolor; stroke-width: 10; stroke-linecap: butt;"></path></g></g></g><g transform="translate(15.789473684210526, 50.5)scale(0.275)"><g transform="translate(-50, -50)"><g><path stroke="currentColor" d="M 50 93 L 39.18 92.96 Q 45.6 82.59 46.6 69.98 C 46.6 69.98 39.06 77.22 30.52 77.06 S 18.73 71.57 16.55 66.19 C 7.01 42.48 43.41 28.04 50 7 C 56.59 28.04 92.99 42.48 83.45 66.19 C 81.27 71.57 78.02 76.9 69.48 77.06 C 60.94 77.22 53.4 69.98 53.4 69.98 Q 54.4 82.59 60.82 92.96 L 50 93" style="stroke-miterlimit: 50; fill: currentcolor; stroke: none;"></path></g></g></g><g transform="translate(48.387096774193544, 70.19500000000001)scale(0.57)"><g transform="translate(-50, -50)"><g><path stroke="currentColor" d="M 50 93 L 39.18 92.96 Q 45.6 82.59 46.6 69.98 C 46.6 69.98 39.06 77.22 30.52 77.06 S 18.73 71.57 16.55 66.19 C 7.01 42.48 43.41 28.04 50 7 C 56.59 28.04 92.99 42.48 83.45 66.19 C 81.27 71.57 78.02 76.9 69.48 77.06 C 60.94 77.22 53.4 69.98 53.4 69.98 Q 54.4 82.59 60.82 92.96 L 50 93" style="stroke-miterlimit: 50; fill: currentcolor; stroke: none;"></path></g></g></g></g></g></g></g></g></g></g></g><g transform="translate(77.14285714285712, 0)"><g><g><g><g transform="translate(1.5428571428571438, 1.5428571428571438)"><g transform="scale(0.9874285714285711,0.9874285714285711)"><g transform=""><g style="color: var(--card-suit-red);"><rect fill="var(--card-b)" width="75" height="101" rx="5"></rect><g transform="translate(15.789473684210526, 21.715)scale(0.36)"><g transform="translate(-50, -50)"><g><path stroke="currentColor" d="M 32 26 L 32 11 L 70 11 L 73 18 C 57 42 44 74 44 91" style="fill: none; stroke: currentcolor; stroke-width: 10; stroke-linecap: butt;"></path></g></g></g><g transform="translate(15.789473684210526, 50.5)scale(0.275)"><g transform="translate(-50, -50)"><g><path stroke="currentColor" d="M 50 87 C 42 75 16 50 14 36 S 20 14 30 13 C 39 12 48 21 50 28 C 52 21 61 12 70 13 C 80 14 88 22 86 36 C 84 50 58 75 50 87" style="fill: currentcolor; stroke: none;"></path></g></g></g><g transform="translate(48.387096774193544, 73.22500000000001)scale(0.57)"><g transform="translate(-50, -50)"><g><path stroke="currentColor" d="M 50 87 C 42 75 16 50 14 36 S 20 14 30 13 C 39 12 48 21 50 28 C 52 21 61 12 70 13 C 80 14 88 22 86 36 C 84 50 58 75 50 87" style="fill: currentcolor; stroke: none;"></path></g></g></g></g></g></g></g></g></g></g></g></g></g><g></g></g></g><g transform="translate(0, 51.42857142857142)"><g><g transform="translate(0, -10.5)"><g class="name-view"><text font-size="15" x="0" y="0.5" fill="currentColor" text-anchor="middle" font-family="Roboto" alignment-baseline="central">seat 3</text></g></g><g transform="translate(0, 10.5)"><g class="balance-view"><text font-size="15" x="0" y="0.5" fill="currentColor" text-anchor="middle" font-family="Roboto" alignment-baseline="central">1190</text></g></g></g></g></g></g></g></g></g></g><g transform="translate(200, 0)"><g><g transform="translate(372.22222222222223, 174.90744167558108)"><g transform="translate(-25.35, 0)"><g class="text-badge edge-field bet-self bet badge edge "><g class="body"><rect x="0" y="-10" width="50.7" height="20" rx="10"></rect><g transform="translate(33.6, 0)"><text text-anchor="middle" font-family="Roboto" alignment-baseline="central" fill="currentColor">400</text></g></g><g class="head"><rect x="2" y="-8" rx="8" width="16" height="16"></rect><g transform="translate(10, 0)"><text text-anchor="middle" font-family="Roboto" alignment-baseline="central" dominant-baseline="central" fill="currentColor">C</text></g></g></g></g></g><g transform="translate(320.2486683059982, 136.50466854633947)"><g transform=""><g class="text-circle role-field big"><g class="text-circle-main"><circle r="11.4"></circle><g transform=""><text font-size="13" x="0" y="0.5" fill="currentColor" text-anchor="middle" font-family="Roboto" alignment-baseline="central">BB</text></g></g></g></g></g></g></g><g transform="translate(200, 0)"></g><g transform="translate(200, 0)"><g><g transform="translate(561.1111111111111, 300)"></g></g></g><g transform="translate(200, 0)"><g><g transform="translate(444.44444444444446, 300)"></g><g transform="translate(451.7154445920261, 235.788195418969)"></g></g></g><g transform="translate(200, 0)"></g><g transform="translate(200, 0)"><g><g transform="translate(430.55555555555554, 526.1288554326034)"></g></g></g><g transform="translate(200, 0)"><g><g transform="translate(372.22222222222223, 425.0925583244189)"></g><g transform="translate(431.4667762860279, 399.28352687262947)"></g></g></g></g></g></g><g transform="translate(460, 360)"><g transform=""><g transform=""><g transform="translate(-192.8571428571428, -51.42857142857142)"><g><g class="card-bg-mult"><rect width="385.7142857142856" height="102.85714285714285" stroke-width="2.5" rx="5"></rect></g></g></g></g></g></g><g transform="translate(460, 360)"><g transform=""><g transform="translate(-192.8571428571428, -51.42857142857142)"><g transform=""><g><g transform="translate(38.57142857142856, 51.42857142857142)"><g transform="translate(-38.57142857142856, -51.42857142857142)"><g class="community-grid-card"><g transform="translate(1.5428571428571438, 1.5428571428571438)"><g transform="scale(0.9874285714285711,0.9874285714285711)"><g transform=""><g class="card-bg"><rect width="75" height="101" rx="5"></rect></g></g></g></g><g><g transform="translate(1.5428571428571438, 1.5428571428571438)"><g transform="scale(0.9874285714285711,0.9874285714285711)"><g transform=""><g style="color: var(--card-suit-black);"><rect fill="var(--card-b)" width="75" height="101" rx="5"></rect><g transform="translate(15.789473684210526, 21.715)scale(0.36)"><g transform="translate(-50, -50)"><g><path stroke="currentColor" d="M 33 26 L 33 10 L 73 10 L 73 12 L 42 45 L 42 45 C 59 32 80 42 79 64 C 78 89 46 100 30 72" style="fill: none; stroke: currentcolor; stroke-width: 10; stroke-linecap: butt;"></path></g></g></g><g transform="translate(15.789473684210526, 50.5)scale(0.275)"><g transform="translate(-50, -50)"><g><path stroke="currentColor" d="M 50 93 L 39.18 92.96 Q 45.6 82.59 46.6 69.98 C 46.6 69.98 39.06 77.22 30.52 77.06 S 18.73 71.57 16.55 66.19 C 7.01 42.48 43.41 28.04 50 7 C 56.59 28.04 92.99 42.48 83.45 66.19 C 81.27 71.57 78.02 76.9 69.48 77.06 C 60.94 77.22 53.4 69.98 53.4 69.98 Q 54.4 82.59 60.82 92.96 L 50 93" style="stroke-miterlimit: 50; fill: currentcolor; stroke: none;"></path></g></g></g><g transform="translate(48.387096774193544, 70.19500000000001)scale(0.57)"><g transform="translate(-50, -50)"><g><path stroke="currentColor" d="M 50 93 L 39.18 92.96 Q 45.6 82.59 46.6 69.98 C 46.6 69.98 39.06 77.22 30.52 77.06 S 18.73 71.57 16.55 66.19 C 7.01 42.48 43.41 28.04 50 7 C 56.59 28.04 92.99 42.48 83.45 66.19 C 81.27 71.57 78.02 76.9 69.48 77.06 C 60.94 77.22 53.4 69.98 53.4 69.98 Q 54.4 82.59 60.82 92.96 L 50 93" style="stroke-miterlimit: 50; fill: currentcolor; stroke: none;"></path></g></g></g></g></g></g></g></g></g></g></g><g transform="translate(115.7142857142857, 51.42857142857142)"><g transform="translate(-38.57142857142856, -51.42857142857142)"><g class="community-grid-card"><g transform="translate(1.5428571428571438, 1.5428571428571438)"><g transform="scale(0.9874285714285711,0.9874285714285711)"><g transform=""><g class="card-bg"><rect width="75" height="101" rx="5"></rect></g></g></g></g><g><g transform="translate(1.5428571428571438, 1.5428571428571438)"><g transform="scale(0.9874285714285711,0.9874285714285711)"><g transform=""><g style="color: var(--card-suit-black);"><rect fill="var(--card-b)" width="75" height="101" rx="5"></rect><g transform="translate(15.789473684210526, 21.715)scale(0.36)"><g transform="translate(-50, -50)"><g><path stroke="currentColor" d="M 29 8 L 29 92" style="fill: none; stroke: currentcolor; stroke-width: 10; stroke-linecap: butt;"></path><rect stroke="currentColor" x="47" y="10" rx="15" width="30" height="80" style="fill: none; stroke: currentcolor; stroke-width: 10; stroke-linecap: butt;"></rect></g></g></g><g transform="translate(15.789473684210526, 50.5)scale(0.275)"><g transform="translate(-50, -50)"><g><path stroke="currentColor" d="M 50 93 L 39.18 92.96 Q 45.6 82.59 46.6 69.98 C 46.6 69.98 39.06 77.22 30.52 77.06 S 18.73 71.57 16.55 66.19 C 7.01 42.48 43.41 28.04 50 7 C 56.59 28.04 92.99 42.48 83.45 66.19 C 81.27 71.57 78.02 76.9 69.48 77.06 C 60.94 77.22 53.4 69.98 53.4 69.98 Q 54.4 82.59 60.82 92.96 L 50 93" style="stroke-miterlimit: 50; fill: currentcolor; stroke: none;"></path></g></g></g><g transform="translate(48.387096774193544, 70.19500000000001)scale(0.57)"><g transform="translate(-50, -50)"><g><path stroke="currentColor" d="M 50 93 L 39.18 92.96 Q 45.6 82.59 46.6 69.98 C 46.6 69.98 39.06 77.22 30.52 77.06 S 18.73 71.57 16.55 66.19 C 7.01 42.48 43.41 28.04 50 7 C 56.59 28.04 92.99 42.48 83.45 66.19 C 81.27 71.57 78.02 76.9 69.48 77.06 C 60.94 77.22 53.4 69.98 53.4 69.98 Q 54.4 82.59 60.82 92.96 L 50 93" style="stroke-miterlimit: 50; fill: currentcolor; stroke: none;"></path></g></g></g></g></g></g></g></g></g></g></g><g transform="translate(192.8571428571428, 51.42857142857142)"><g transform="translate(-38.57142857142856, -51.42857142857142)"><g class="community-grid-card"><g transform="translate(1.5428571428571438, 1.5428571428571438)"><g transform="scale(0.9874285714285711,0.9874285714285711)"><g transform=""><g class="card-bg"><rect width="75" height="101" rx="5"></rect></g></g></g></g><g><g transform="translate(1.5428571428571438, 1.5428571428571438)"><g transform="scale(0.9874285714285711,0.9874285714285711)"><g transform=""><g style="color: var(--card-suit-black);"><rect fill="var(--card-b)" width="75" height="101" rx="5"></rect><g transform="translate(15.789473684210526, 21.715)scale(0.36)"><g transform="translate(-50, -50)"><g><path stroke="currentColor" d="M 32 26 L 32 11 L 70 11 L 73 18 C 57 42 44 74 44 91" style="fill: none; stroke: currentcolor; stroke-width: 10; stroke-linecap: butt;"></path></g></g></g><g transform="translate(15.789473684210526, 50.5)scale(0.275)"><g transform="translate(-50, -50)"><g><path stroke="currentColor" d="M 50 90 L 41.125 89.875 C 47.875 77.125 47 63.5 47 63.5 C 39.5 80.38 13.88 78.25 12.75 58.25 C 12.5 45.88 27.38 34.26 41.88 44.63 C 40.75 40.88 37.5 40.38 35.25 36.88 C 27.13 23.26 39.5 9.88 50 10 C 60.5 9.88 72.87 23.26 64.75 36.88 C 62.5 40.38 59.25 40.88 58.12 44.63 C 72.62 34.26 87.5 45.88 87.25 58.25 C 86.12 78.25 60.5 80.38 53 63.5 C 53 63.5 52.125 77.125 58.875 89.875 L 50 90" style="stroke-miterlimit: 50; fill: currentcolor; stroke: none;"></path></g></g></g><g transform="translate(48.387096774193544, 72.215)scale(0.57)"><g transform="translate(-50, -50)"><g><path stroke="currentColor" d="M 50 90 L 41.125 89.875 C 47.875 77.125 47 63.5 47 63.5 C 39.5 80.38 13.88 78.25 12.75 58.25 C 12.5 45.88 27.38 34.26 41.88 44.63 C 40.75 40.88 37.5 40.38 35.25 36.88 C 27.13 23.26 39.5 9.88 50 10 C 60.5 9.88 72.87 23.26 64.75 36.88 C 62.5 40.38 59.25 40.88 58.12 44.63 C 72.62 34.26 87.5 45.88 87.25 58.25 C 86.12 78.25 60.5 80.38 53 63.5 C 53 63.5 52.125 77.125 58.875 89.875 L 50 90" style="stroke-miterlimit: 50; fill: currentcolor; stroke: none;"></path></g></g></g></g></g></g></g></g></g></g></g><g transform="translate(269.99999999999994, 51.42857142857142)"><g transform="translate(-38.57142857142856, -51.42857142857142)"><g class="community-grid-card"><g transform="translate(1.5428571428571438, 1.5428571428571438)"><g transform="scale(0.9874285714285711,0.9874285714285711)"><g transform=""><g class="card-bg"><rect width="75" height="101" rx="5"></rect></g></g></g></g><g><g transform="translate(1.5428571428571438, 1.5428571428571438)"><g transform="scale(0.9874285714285711,0.9874285714285711)"><g transform=""><g style="color: var(--card-suit-black);"><rect fill="var(--card-b)" width="75" height="101" rx="5"></rect><g transform="translate(15.789473684210526, 21.715)scale(0.36)"><g transform="translate(-50, -50)"><g><path stroke="currentColor" d="M 61 90 L 61 12 L 60 12 L 26 62 L 26 68 L 77 68 M 49 90 L 73 90" style="fill: none; stroke: currentcolor; stroke-width: 10; stroke-linecap: butt;"></path></g></g></g><g transform="translate(15.789473684210526, 50.5)scale(0.275)"><g transform="translate(-50, -50)"><g><path stroke="currentColor" d="M 50 90 L 41.125 89.875 C 47.875 77.125 47 63.5 47 63.5 C 39.5 80.38 13.88 78.25 12.75 58.25 C 12.5 45.88 27.38 34.26 41.88 44.63 C 40.75 40.88 37.5 40.38 35.25 36.88 C 27.13 23.26 39.5 9.88 50 10 C 60.5 9.88 72.87 23.26 64.75 36.88 C 62.5 40.38 59.25 40.88 58.12 44.63 C 72.62 34.26 87.5 45.88 87.25 58.25 C 86.12 78.25 60.5 80.38 53 63.5 C 53 63.5 52.125 77.125 58.875 89.875 L 50 90" style="stroke-miterlimit: 50; fill: currentcolor; stroke: none;"></path></g></g></g><g transform="translate(48.387096774193544, 72.215)scale(0.57)"><g transform="translate(-50, -50)"><g><path stroke="currentColor" d="M 50 90 L 41.125 89.875 C 47.875 77.125 47 63.5 47 63.5 C 39.5 80.38 13.88 78.25 12.75 58.25 C 12.5 45.88 27.38 34.26 41.88 44.63 C 40.75 40.88 37.5 40.38 35.25 36.88 C 27.13 23.26 39.5 9.88 50 10 C 60.5 9.88 72.87 23.26 64.75 36.88 C 62.5 40.38 59.25 40.88 58.12 44.63 C 72.62 34.26 87.5 45.88 87.25 58.25 C 86.12 78.25 60.5 80.38 53 63.5 C 53 63.5 52.125 77.125 58.875 89.875 L 50 90" style="stroke-miterlimit: 50; fill: currentcolor; stroke: none;"></path></g></g></g></g></g></g></g></g></g></g></g><g transform="translate(347.14285714285705, 51.42857142857142)"><g transform="translate(-38.57142857142856, -51.42857142857142)"><g class="community-grid-card"><g transform="translate(1.5428571428571438, 1.5428571428571438)"><g transform="scale(0.9874285714285711,0.9874285714285711)"><g transform=""><g class="card-bg"><rect width="75" height="101" rx="5"></rect></g></g></g></g><g><g transform="translate(1.5428571428571438, 1.5428571428571438)"><g transform="scale(0.9874285714285711,0.9874285714285711)"><g transform=""><g style="color: var(--card-suit-red);"><rect fill="var(--card-b)" width="75" height="101" rx="5"></rect><g transform="translate(15.789473684210526, 21.715)scale(0.36)"><g transform="translate(-50, -50)"><g><path stroke="currentColor" d="M 33 26 L 33 10 L 73 10 L 73 12 L 42 45 L 42 45 C 59 32 80 42 79 64 C 78 89 46 100 30 72" style="fill: none; stroke: currentcolor; stroke-width: 10; stroke-linecap: butt;"></path></g></g></g><g transform="translate(15.789473684210526, 50.5)scale(0.275)"><g transform="translate(-50, -50)"><g><path stroke="currentColor" d="M 50 87 C 42 75 16 50 14 36 S 20 14 30 13 C 39 12 48 21 50 28 C 52 21 61 12 70 13 C 80 14 88 22 86 36 C 84 50 58 75 50 87" style="fill: currentcolor; stroke: none;"></path></g></g></g><g transform="translate(48.387096774193544, 73.22500000000001)scale(0.57)"><g transform="translate(-50, -50)"><g><path stroke="currentColor" d="M 50 87 C 42 75 16 50 14 36 S 20 14 30 13 C 39 12 48 21 50 28 C 52 21 61 12 70 13 C 80 14 88 22 86 36 C 84 50 58 75 50 87" style="fill: currentcolor; stroke: none;"></path></g></g></g></g></g></g></g></g></g></g></g></g></g></g></g></g><g transform=""><g transform="translate(60, 60)"><g transform="translate(400, 402.85714285714283)"><g transform=""><g class="text-circle pot-field"><g class="text-circle-main"><circle r="23.8"></circle><g transform=""><text font-size="15" x="0" y="0.5" fill="currentColor" text-anchor="middle" font-family="Roboto" alignment-baseline="central">2030</text></g></g></g></g></g></g></g></svg>