<svg viewBox="0 0 637.5 637.5" width="1" height="1" class="game-grid  fml_reversi theme-dark theme-plain"><g transform="translate(18.75, 18.75)"><g transform=""><rect width="637.5" height="637.5" rx="17.375" ry="17.375" x="-18.75" y="-18.75" class="board-bg-rect" style="fill: var(--grid-b); stroke: none;"></rect><g class="area-grid-ug"></g><g class="base-grid"><g><g transform="translate(0, 75)"><g class="square"><rect fill="transparent" stroke="var(--grid-f)" stroke-width="2" x="0" width="75" y="0" height="75" style="opacity: 1;"></rect></g></g><g transform="translate(375, 525)"><g class="square"><rect fill="transparent" stroke="var(--grid-f)" stroke-width="2" x="0" width="75" y="0" height="75" style="opacity: 1;"></rect></g></g><g transform="translate(300, 225)"><g class="square"><rect fill="transparent" stroke="var(--grid-f)" stroke-width="2" x="0" width="75" y="0" height="75" style="opacity: 1;"></rect></g></g><g transform="translate(225, 300)"><g class="square"><rect fill="transparent" stroke="var(--grid-f)" stroke-width="2" x="0" width="75" y="0" height="75" style="opacity: 1;"></rect></g></g><g transform="translate(75, 150)"><g class="square"><rect fill="transparent" stroke="var(--grid-f)" stroke-width="2" x="0" width="75" y="0" height="75" style="opacity: 1;"></rect></g></g><g transform="translate(0, 375)"><g class="square"><rect fill="transparent" stroke="var(--grid-f)" stroke-width="2" x="0" width="75" y="0" height="75" style="opacity: 1;"></rect></g></g><g transform=""><g class="square"><rect fill="transparent" stroke="var(--grid-f)" stroke-width="2" x="0" width="75" y="0" height="75" style="opacity: 1;"></rect></g></g><g transform="translate(375, 225)"><g class="square"><rect fill="transparent" stroke="var(--grid-f)" stroke-width="2" x="0" width="75" y="0" height="75" style="opacity: 1;"></rect></g></g><g transform="translate(150, 150)"><g class="square"><rect fill="transparent" stroke="var(--grid-f)" stroke-width="2" x="0" width="75" y="0" height="75" style="opacity: 1;"></rect></g></g><g transform="translate(75, 375)"><g class="square"><rect fill="transparent" stroke="var(--grid-f)" stroke-width="2" x="0" width="75" y="0" height="75" style="opacity: 1;"></rect></g></g><g transform="translate(225, 150)"><g class="square"><rect fill="transparent" stroke="var(--grid-f)" stroke-width="2" x="0" width="75" y="0" height="75" style="opacity: 1;"></rect></g></g><g transform="translate(300, 450)"><g class="square"><rect fill="transparent" stroke="var(--grid-f)" stroke-width="2" x="0" width="75" y="0" height="75" style="opacity: 1;"></rect></g></g><g transform="translate(525, 75)"><g class="square"><rect fill="transparent" stroke="var(--grid-f)" stroke-width="2" x="0" width="75" y="0" height="75" style="opacity: 1;"></rect></g></g><g transform="translate(0, 525)"><g class="square"><rect fill="transparent" stroke="var(--grid-f)" stroke-width="2" x="0" width="75" y="0" height="75" style="opacity: 1;"></rect></g></g><g transform="translate(150, 300)"><g class="square"><rect fill="transparent" stroke="var(--grid-f)" stroke-width="2" x="0" width="75" y="0" height="75" style="opacity: 1;"></rect></g></g><g transform="translate(525, 150)"><g class="square"><rect fill="transparent" stroke="var(--grid-f)" stroke-width="2" x="0" width="75" y="0" height="75" style="opacity: 1;"></rect></g></g><g transform="translate(300, 150)"><g class="square"><rect fill="transparent" stroke="var(--grid-f)" stroke-width="2" x="0" width="75" y="0" height="75" style="opacity: 1;"></rect></g></g><g transform="translate(75, 225)"><g class="square"><rect fill="transparent" stroke="var(--grid-f)" stroke-width="2" x="0" width="75" y="0" height="75" style="opacity: 1;"></rect></g></g><g transform="translate(375, 375)"><g class="square"><rect fill="transparent" stroke="var(--grid-f)" stroke-width="2" x="0" width="75" y="0" height="75" style="opacity: 1;"></rect></g></g><g transform="translate(375, 450)"><g class="square"><rect fill="transparent" stroke="var(--grid-f)" stroke-width="2" x="0" width="75" y="0" height="75" style="opacity: 1;"></rect></g></g><g transform="translate(150, 225)"><g class="square"><rect fill="transparent" stroke="var(--grid-f)" stroke-width="2" x="0" width="75" y="0" height="75" style="opacity: 1;"></rect></g></g><g transform="translate(375, 150)"><g class="square"><rect fill="transparent" stroke="var(--grid-f)" stroke-width="2" x="0" width="75" y="0" height="75" style="opacity: 1;"></rect></g></g><g transform="translate(300, 525)"><g class="square"><rect fill="transparent" stroke="var(--grid-f)" stroke-width="2" x="0" width="75" y="0" height="75" style="opacity: 1;"></rect></g></g><g transform="translate(225, 75)"><g class="square"><rect fill="transparent" stroke="var(--grid-f)" stroke-width="2" x="0" width="75" y="0" height="75" style="opacity: 1;"></rect></g></g><g transform="translate(525, 0)"><g class="square"><rect fill="transparent" stroke="var(--grid-f)" stroke-width="2" x="0" width="75" y="0" height="75" style="opacity: 1;"></rect></g></g><g transform="translate(0, 150)"><g class="square"><rect fill="transparent" stroke="var(--grid-f)" stroke-width="2" x="0" width="75" y="0" height="75" style="opacity: 1;"></rect></g></g><g transform="translate(375, 75)"><g class="square"><rect fill="transparent" stroke="var(--grid-f)" stroke-width="2" x="0" width="75" y="0" height="75" style="opacity: 1;"></rect></g></g><g transform="translate(225, 0)"><g class="square"><rect fill="transparent" stroke="var(--grid-f)" stroke-width="2" x="0" width="75" y="0" height="75" style="opacity: 1;"></rect></g></g><g transform="translate(150, 525)"><g class="square"><rect fill="transparent" stroke="var(--grid-f)" stroke-width="2" x="0" width="75" y="0" height="75" style="opacity: 1;"></rect></g></g><g transform="translate(0, 450)"><g class="square"><rect fill="transparent" stroke="var(--grid-f)" stroke-width="2" x="0" width="75" y="0" height="75" style="opacity: 1;"></rect></g></g><g transform="translate(300, 375)"><g class="square"><rect fill="transparent" stroke="var(--grid-f)" stroke-width="2" x="0" width="75" y="0" height="75" style="opacity: 1;"></rect></g></g><g transform="translate(75, 75)"><g class="square"><rect fill="transparent" stroke="var(--grid-f)" stroke-width="2" x="0" width="75" y="0" height="75" style="opacity: 1;"></rect></g></g><g transform="translate(450, 0)"><g class="square"><rect fill="transparent" stroke="var(--grid-f)" stroke-width="2" x="0" width="75" y="0" height="75" style="opacity: 1;"></rect></g></g><g transform="translate(525, 300)"><g class="square"><rect fill="transparent" stroke="var(--grid-f)" stroke-width="2" x="0" width="75" y="0" height="75" style="opacity: 1;"></rect></g></g><g transform="translate(525, 525)"><g class="square"><rect fill="transparent" stroke="var(--grid-f)" stroke-width="2" x="0" width="75" y="0" height="75" style="opacity: 1;"></rect></g></g><g transform="translate(225, 225)"><g class="square"><rect fill="transparent" stroke="var(--grid-f)" stroke-width="2" x="0" width="75" y="0" height="75" style="opacity: 1;"></rect></g></g><g transform="translate(375, 0)"><g class="square"><rect fill="transparent" stroke="var(--grid-f)" stroke-width="2" x="0" width="75" y="0" height="75" style="opacity: 1;"></rect></g></g><g transform="translate(375, 300)"><g class="square"><rect fill="transparent" stroke="var(--grid-f)" stroke-width="2" x="0" width="75" y="0" height="75" style="opacity: 1;"></rect></g></g><g transform="translate(150, 450)"><g class="square"><rect fill="transparent" stroke="var(--grid-f)" stroke-width="2" x="0" width="75" y="0" height="75" style="opacity: 1;"></rect></g></g><g transform="translate(450, 225)"><g class="square"><rect fill="transparent" stroke="var(--grid-f)" stroke-width="2" x="0" width="75" y="0" height="75" style="opacity: 1;"></rect></g></g><g transform="translate(225, 375)"><g class="square"><rect fill="transparent" stroke="var(--grid-f)" stroke-width="2" x="0" width="75" y="0" height="75" style="opacity: 1;"></rect></g></g><g transform="translate(450, 450)"><g class="square"><rect fill="transparent" stroke="var(--grid-f)" stroke-width="2" x="0" width="75" y="0" height="75" style="opacity: 1;"></rect></g></g><g transform="translate(75, 300)"><g class="square"><rect fill="transparent" stroke="var(--grid-f)" stroke-width="2" x="0" width="75" y="0" height="75" style="opacity: 1;"></rect></g></g><g transform="translate(450, 525)"><g class="square"><rect fill="transparent" stroke="var(--grid-f)" stroke-width="2" x="0" width="75" y="0" height="75" style="opacity: 1;"></rect></g></g><g transform="translate(75, 525)"><g class="square"><rect fill="transparent" stroke="var(--grid-f)" stroke-width="2" x="0" width="75" y="0" height="75" style="opacity: 1;"></rect></g></g><g transform="translate(0, 225)"><g class="square"><rect fill="transparent" stroke="var(--grid-f)" stroke-width="2" x="0" width="75" y="0" height="75" style="opacity: 1;"></rect></g></g><g transform="translate(450, 375)"><g class="square"><rect fill="transparent" stroke="var(--grid-f)" stroke-width="2" x="0" width="75" y="0" height="75" style="opacity: 1;"></rect></g></g><g transform="translate(150, 75)"><g class="square"><rect fill="transparent" stroke="var(--grid-f)" stroke-width="2" x="0" width="75" y="0" height="75" style="opacity: 1;"></rect></g></g><g transform="translate(300, 75)"><g class="square"><rect fill="transparent" stroke="var(--grid-f)" stroke-width="2" x="0" width="75" y="0" height="75" style="opacity: 1;"></rect></g></g><g transform="translate(525, 375)"><g class="square"><rect fill="transparent" stroke="var(--grid-f)" stroke-width="2" x="0" width="75" y="0" height="75" style="opacity: 1;"></rect></g></g><g transform="translate(225, 450)"><g class="square"><rect fill="transparent" stroke="var(--grid-f)" stroke-width="2" x="0" width="75" y="0" height="75" style="opacity: 1;"></rect></g></g><g transform="translate(450, 75)"><g class="square"><rect fill="transparent" stroke="var(--grid-f)" stroke-width="2" x="0" width="75" y="0" height="75" style="opacity: 1;"></rect></g></g><g transform="translate(75, 450)"><g class="square"><rect fill="transparent" stroke="var(--grid-f)" stroke-width="2" x="0" width="75" y="0" height="75" style="opacity: 1;"></rect></g></g><g transform="translate(300, 300)"><g class="square"><rect fill="transparent" stroke="var(--grid-f)" stroke-width="2" x="0" width="75" y="0" height="75" style="opacity: 1;"></rect></g></g><g transform="translate(225, 525)"><g class="square"><rect fill="transparent" stroke="var(--grid-f)" stroke-width="2" x="0" width="75" y="0" height="75" style="opacity: 1;"></rect></g></g><g transform="translate(75, 0)"><g class="square"><rect fill="transparent" stroke="var(--grid-f)" stroke-width="2" x="0" width="75" y="0" height="75" style="opacity: 1;"></rect></g></g><g transform="translate(525, 225)"><g class="square"><rect fill="transparent" stroke="var(--grid-f)" stroke-width="2" x="0" width="75" y="0" height="75" style="opacity: 1;"></rect></g></g><g transform="translate(150, 0)"><g class="square"><rect fill="transparent" stroke="var(--grid-f)" stroke-width="2" x="0" width="75" y="0" height="75" style="opacity: 1;"></rect></g></g><g transform="translate(300, 0)"><g class="square"><rect fill="transparent" stroke="var(--grid-f)" stroke-width="2" x="0" width="75" y="0" height="75" style="opacity: 1;"></rect></g></g><g transform="translate(450, 150)"><g class="square"><rect fill="transparent" stroke="var(--grid-f)" stroke-width="2" x="0" width="75" y="0" height="75" style="opacity: 1;"></rect></g></g><g transform="translate(450, 300)"><g class="square"><rect fill="transparent" stroke="var(--grid-f)" stroke-width="2" x="0" width="75" y="0" height="75" style="opacity: 1;"></rect></g></g><g transform="translate(150, 375)"><g class="square"><rect fill="transparent" stroke="var(--grid-f)" stroke-width="2" x="0" width="75" y="0" height="75" style="opacity: 1;"></rect></g></g><g transform="translate(0, 300)"><g class="square"><rect fill="transparent" stroke="var(--grid-f)" stroke-width="2" x="0" width="75" y="0" height="75" style="opacity: 1;"></rect></g></g><g transform="translate(525, 450)"><g class="square"><rect fill="transparent" stroke="var(--grid-f)" stroke-width="2" x="0" width="75" y="0" height="75" style="opacity: 1;"></rect></g></g></g></g><g class="area-grid-bg-mid"></g><g class="area-grid-bg"><g><g transform="translate(150, 150)"><circle r="6" fill="var(--grid-f)"></circle></g><g transform="translate(450, 450)"><circle r="6" fill="var(--grid-f)"></circle></g><g transform="translate(150, 450)"><circle r="6" fill="var(--grid-f)"></circle></g><g transform="translate(450, 150)"><circle r="6" fill="var(--grid-f)"></circle></g></g></g><g class="e-grid" transform=""><g><g class="tl-box" style="transition: transform 300ms linear 0s; transform: translate(262.5px, 337.5px);"><g class=" 1" transform=""><g><g transform="scale(0.6375,0.6375)"><g transform=""><g><circle r="50" fill="var(--e-black-bg)" stroke="var(--e-black-bo)" stroke-width="4" style="transition: all 600ms ease 0s;"></circle></g></g></g></g></g></g><g class="tl-box" style="transition: transform 300ms linear 0s; transform: translate(337.5px, 262.5px);"><g class=" 2" transform=""><g><g transform="scale(0.6375,0.6375)"><g transform=""><g><circle r="50" fill="var(--e-black-bg)" stroke="var(--e-black-bo)" stroke-width="4" style="transition: all 600ms ease 0s;"></circle></g></g></g></g></g></g><g class="tl-box" style="transition: transform 300ms linear 0s; transform: translate(262.5px, 262.5px);"><g class=" 3" transform=""><g><g transform="scale(0.6375,0.6375)"><g transform=""><g><circle r="50" fill="var(--e-white-bg)" stroke="var(--e-white-bo)" stroke-width="4" style="transition: all 600ms ease 0s;"></circle></g></g></g></g></g></g><g class="tl-box" style="transition: transform 300ms linear 0s; transform: translate(337.5px, 337.5px);"><g class=" 4" transform=""><g><g transform="scale(0.6375,0.6375)"><g transform=""><g><circle r="50" fill="var(--e-white-bg)" stroke="var(--e-white-bo)" stroke-width="4" style="transition: all 600ms ease 0s;"></circle></g></g></g></g></g></g></g></g><g class="arrow-grid"><g><defs><marker id="arrow-head" orient="auto" markerWidth="4" markerHeight="4" refX="2.9" refY="2"><path d="M 0 4 L 0 0 4 2 Z" stroke="none" fill="hsl(240deg 100% 85%)"></path></marker><marker id="arrow-head-capture" orient="auto" markerWidth="4" markerHeight="4" refX="2.9" refY="2"><path d="M 0 4 L 0 0 4 2 Z" stroke="none" fill="var(--red-light)"></path></marker></defs></g></g><g class="area-grid-fg"></g><g class="tt-grid"><g><g transform="translate(37.5, 112.5)"></g><g transform="translate(412.5, 562.5)"></g><g transform="translate(337.5, 262.5)"></g><g transform="translate(262.5, 337.5)"></g><g transform="translate(112.5, 187.5)"></g><g transform="translate(37.5, 412.5)"></g><g transform="translate(37.5, 37.5)"></g><g transform="translate(412.5, 262.5)"></g><g transform="translate(187.5, 187.5)"></g><g transform="translate(112.5, 412.5)"></g><g transform="translate(262.5, 187.5)"></g><g transform="translate(337.5, 487.5)"></g><g transform="translate(562.5, 112.5)"></g><g transform="translate(37.5, 562.5)"></g><g transform="translate(187.5, 337.5)"></g><g transform="translate(562.5, 187.5)"></g><g transform="translate(337.5, 187.5)"></g><g transform="translate(112.5, 262.5)"></g><g transform="translate(412.5, 412.5)"></g><g transform="translate(412.5, 487.5)"></g><g transform="translate(187.5, 262.5)"></g><g transform="translate(412.5, 187.5)"></g><g transform="translate(337.5, 562.5)"></g><g transform="translate(262.5, 112.5)"></g><g transform="translate(562.5, 37.5)"></g><g transform="translate(37.5, 187.5)"></g><g transform="translate(412.5, 112.5)"></g><g transform="translate(262.5, 37.5)"></g><g transform="translate(187.5, 562.5)"></g><g transform="translate(37.5, 487.5)"></g><g transform="translate(337.5, 412.5)"></g><g transform="translate(112.5, 112.5)"></g><g transform="translate(487.5, 37.5)"></g><g transform="translate(562.5, 337.5)"></g><g transform="translate(562.5, 562.5)"></g><g transform="translate(262.5, 262.5)"></g><g transform="translate(412.5, 37.5)"></g><g transform="translate(412.5, 337.5)"></g><g transform="translate(187.5, 487.5)"></g><g transform="translate(487.5, 262.5)"></g><g transform="translate(262.5, 412.5)"></g><g transform="translate(487.5, 487.5)"></g><g transform="translate(112.5, 337.5)"></g><g transform="translate(487.5, 562.5)"></g><g transform="translate(112.5, 562.5)"></g><g transform="translate(37.5, 262.5)"></g><g transform="translate(487.5, 412.5)"></g><g transform="translate(187.5, 112.5)"></g><g transform="translate(337.5, 112.5)"></g><g transform="translate(562.5, 412.5)"></g><g transform="translate(262.5, 487.5)"></g><g transform="translate(487.5, 112.5)"></g><g transform="translate(112.5, 487.5)"></g><g transform="translate(337.5, 337.5)"></g><g transform="translate(262.5, 562.5)"></g><g transform="translate(112.5, 37.5)"></g><g transform="translate(562.5, 262.5)"></g><g transform="translate(187.5, 37.5)"></g><g transform="translate(337.5, 37.5)"></g><g transform="translate(487.5, 187.5)"></g><g transform="translate(487.5, 337.5)"></g><g transform="translate(187.5, 412.5)"></g><g transform="translate(37.5, 337.5)"></g><g transform="translate(562.5, 487.5)"></g></g></g><g class="e-grid" transform=""><g></g></g><g class="pointer-grid"><g><g transform="translate(0, 75)"><rect fill="hsla(0,0%,0%,0)" width="75" id="0_1" class="click-receiver" height="75" style="fill: transparent;"></rect></g><g transform="translate(375, 525)"><rect fill="hsla(0,0%,0%,0)" width="75" id="5_7" class="click-receiver" height="75" style="fill: transparent;"></rect></g><g transform="translate(300, 225)"><rect fill="hsla(0,0%,0%,0)" width="75" id="4_3" class="click-receiver" height="75" style="fill: transparent;"></rect></g><g transform="translate(225, 300)"><rect fill="hsla(0,0%,0%,0)" width="75" id="3_4" class="click-receiver" height="75" style="fill: transparent;"></rect></g><g transform="translate(75, 150)"><rect fill="hsla(0,0%,0%,0)" width="75" id="1_2" class="click-receiver" height="75" style="fill: transparent;"></rect></g><g transform="translate(0, 375)"><rect fill="hsla(0,0%,0%,0)" width="75" id="0_5" class="click-receiver" height="75" style="fill: transparent;"></rect></g><g transform=""><rect fill="hsla(0,0%,0%,0)" width="75" id="0_0" class="click-receiver" height="75" style="fill: transparent;"></rect></g><g transform="translate(375, 225)"><rect fill="hsla(0,0%,0%,0)" width="75" id="5_3" class="click-receiver" height="75" style="fill: transparent;"></rect></g><g transform="translate(150, 150)"><rect fill="hsla(0,0%,0%,0)" width="75" id="2_2" class="click-receiver" height="75" style="fill: transparent;"></rect></g><g transform="translate(75, 375)"><rect fill="hsla(0,0%,0%,0)" width="75" id="1_5" class="click-receiver" height="75" style="fill: transparent;"></rect></g><g transform="translate(225, 150)"><rect fill="hsla(0,0%,0%,0)" width="75" id="3_2" class="click-receiver" height="75" style="fill: transparent;"></rect></g><g transform="translate(300, 450)"><rect fill="hsla(0,0%,0%,0)" width="75" id="4_6" class="click-receiver" height="75" style="fill: transparent;"></rect></g><g transform="translate(525, 75)"><rect fill="hsla(0,0%,0%,0)" width="75" id="7_1" class="click-receiver" height="75" style="fill: transparent;"></rect></g><g transform="translate(0, 525)"><rect fill="hsla(0,0%,0%,0)" width="75" id="0_7" class="click-receiver" height="75" style="fill: transparent;"></rect></g><g transform="translate(150, 300)"><rect fill="hsla(0,0%,0%,0)" width="75" id="2_4" class="click-receiver" height="75" style="fill: transparent;"></rect></g><g transform="translate(525, 150)"><rect fill="hsla(0,0%,0%,0)" width="75" id="7_2" class="click-receiver" height="75" style="fill: transparent;"></rect></g><g transform="translate(300, 150)"><rect fill="hsla(0,0%,0%,0)" width="75" id="4_2" class="click-receiver" height="75" style="fill: transparent;"></rect></g><g transform="translate(75, 225)"><rect fill="hsla(0,0%,0%,0)" width="75" id="1_3" class="click-receiver" height="75" style="fill: transparent;"></rect></g><g transform="translate(375, 375)"><rect fill="hsla(0,0%,0%,0)" width="75" id="5_5" class="click-receiver" height="75" style="fill: transparent;"></rect></g><g transform="translate(375, 450)"><rect fill="hsla(0,0%,0%,0)" width="75" id="5_6" class="click-receiver" height="75" style="fill: transparent;"></rect></g><g transform="translate(150, 225)"><rect fill="hsla(0,0%,0%,0)" width="75" id="2_3" class="click-receiver" height="75" style="fill: transparent;"></rect></g><g transform="translate(375, 150)"><rect fill="hsla(0,0%,0%,0)" width="75" id="5_2" class="click-receiver" height="75" style="fill: transparent;"></rect></g><g transform="translate(300, 525)"><rect fill="hsla(0,0%,0%,0)" width="75" id="4_7" class="click-receiver" height="75" style="fill: transparent;"></rect></g><g transform="translate(225, 75)"><rect fill="hsla(0,0%,0%,0)" width="75" id="3_1" class="click-receiver" height="75" style="fill: transparent;"></rect></g><g transform="translate(525, 0)"><rect fill="hsla(0,0%,0%,0)" width="75" id="7_0" class="click-receiver" height="75" style="fill: transparent;"></rect></g><g transform="translate(0, 150)"><rect fill="hsla(0,0%,0%,0)" width="75" id="0_2" class="click-receiver" height="75" style="fill: transparent;"></rect></g><g transform="translate(375, 75)"><rect fill="hsla(0,0%,0%,0)" width="75" id="5_1" class="click-receiver" height="75" style="fill: transparent;"></rect></g><g transform="translate(225, 0)"><rect fill="hsla(0,0%,0%,0)" width="75" id="3_0" class="click-receiver" height="75" style="fill: transparent;"></rect></g><g transform="translate(150, 525)"><rect fill="hsla(0,0%,0%,0)" width="75" id="2_7" class="click-receiver" height="75" style="fill: transparent;"></rect></g><g transform="translate(0, 450)"><rect fill="hsla(0,0%,0%,0)" width="75" id="0_6" class="click-receiver" height="75" style="fill: transparent;"></rect></g><g transform="translate(300, 375)"><rect fill="hsla(0,0%,0%,0)" width="75" id="4_5" class="click-receiver" height="75" style="fill: transparent;"></rect></g><g transform="translate(75, 75)"><rect fill="hsla(0,0%,0%,0)" width="75" id="1_1" class="click-receiver" height="75" style="fill: transparent;"></rect></g><g transform="translate(450, 0)"><rect fill="hsla(0,0%,0%,0)" width="75" id="6_0" class="click-receiver" height="75" style="fill: transparent;"></rect></g><g transform="translate(525, 300)"><rect fill="hsla(0,0%,0%,0)" width="75" id="7_4" class="click-receiver" height="75" style="fill: transparent;"></rect></g><g transform="translate(525, 525)"><rect fill="hsla(0,0%,0%,0)" width="75" id="7_7" class="click-receiver" height="75" style="fill: transparent;"></rect></g><g transform="translate(225, 225)"><rect fill="hsla(0,0%,0%,0)" width="75" id="3_3" class="click-receiver" height="75" style="fill: transparent;"></rect></g><g transform="translate(375, 0)"><rect fill="hsla(0,0%,0%,0)" width="75" id="5_0" class="click-receiver" height="75" style="fill: transparent;"></rect></g><g transform="translate(375, 300)"><rect fill="hsla(0,0%,0%,0)" width="75" id="5_4" class="click-receiver" height="75" style="fill: transparent;"></rect></g><g transform="translate(150, 450)"><rect fill="hsla(0,0%,0%,0)" width="75" id="2_6" class="click-receiver" height="75" style="fill: transparent;"></rect></g><g transform="translate(450, 225)"><rect fill="hsla(0,0%,0%,0)" width="75" id="6_3" class="click-receiver" height="75" style="fill: transparent;"></rect></g><g transform="translate(225, 375)"><rect fill="hsla(0,0%,0%,0)" width="75" id="3_5" class="click-receiver" height="75" style="fill: transparent;"></rect></g><g transform="translate(450, 450)"><rect fill="hsla(0,0%,0%,0)" width="75" id="6_6" class="click-receiver" height="75" style="fill: transparent;"></rect></g><g transform="translate(75, 300)"><rect fill="hsla(0,0%,0%,0)" width="75" id="1_4" class="click-receiver" height="75" style="fill: transparent;"></rect></g><g transform="translate(450, 525)"><rect fill="hsla(0,0%,0%,0)" width="75" id="6_7" class="click-receiver" height="75" style="fill: transparent;"></rect></g><g transform="translate(75, 525)"><rect fill="hsla(0,0%,0%,0)" width="75" id="1_7" class="click-receiver" height="75" style="fill: transparent;"></rect></g><g transform="translate(0, 225)"><rect fill="hsla(0,0%,0%,0)" width="75" id="0_3" class="click-receiver" height="75" style="fill: transparent;"></rect></g><g transform="translate(450, 375)"><rect fill="hsla(0,0%,0%,0)" width="75" id="6_5" class="click-receiver" height="75" style="fill: transparent;"></rect></g><g transform="translate(150, 75)"><rect fill="hsla(0,0%,0%,0)" width="75" id="2_1" class="click-receiver" height="75" style="fill: transparent;"></rect></g><g transform="translate(300, 75)"><rect fill="hsla(0,0%,0%,0)" width="75" id="4_1" class="click-receiver" height="75" style="fill: transparent;"></rect></g><g transform="translate(525, 375)"><rect fill="hsla(0,0%,0%,0)" width="75" id="7_5" class="click-receiver" height="75" style="fill: transparent;"></rect></g><g transform="translate(225, 450)"><rect fill="hsla(0,0%,0%,0)" width="75" id="3_6" class="click-receiver" height="75" style="fill: transparent;"></rect></g><g transform="translate(450, 75)"><rect fill="hsla(0,0%,0%,0)" width="75" id="6_1" class="click-receiver" height="75" style="fill: transparent;"></rect></g><g transform="translate(75, 450)"><rect fill="hsla(0,0%,0%,0)" width="75" id="1_6" class="click-receiver" height="75" style="fill: transparent;"></rect></g><g transform="translate(300, 300)"><rect fill="hsla(0,0%,0%,0)" width="75" id="4_4" class="click-receiver" height="75" style="fill: transparent;"></rect></g><g transform="translate(225, 525)"><rect fill="hsla(0,0%,0%,0)" width="75" id="3_7" class="click-receiver" height="75" style="fill: transparent;"></rect></g><g transform="translate(75, 0)"><rect fill="hsla(0,0%,0%,0)" width="75" id="1_0" class="click-receiver" height="75" style="fill: transparent;"></rect></g><g transform="translate(525, 225)"><rect fill="hsla(0,0%,0%,0)" width="75" id="7_3" class="click-receiver" height="75" style="fill: transparent;"></rect></g><g transform="translate(150, 0)"><rect fill="hsla(0,0%,0%,0)" width="75" id="2_0" class="click-receiver" height="75" style="fill: transparent;"></rect></g><g transform="translate(300, 0)"><rect fill="hsla(0,0%,0%,0)" width="75" id="4_0" class="click-receiver" height="75" style="fill: transparent;"></rect></g><g transform="translate(450, 150)"><rect fill="hsla(0,0%,0%,0)" width="75" id="6_2" class="click-receiver" height="75" style="fill: transparent;"></rect></g><g transform="translate(450, 300)"><rect fill="hsla(0,0%,0%,0)" width="75" id="6_4" class="click-receiver" height="75" style="fill: transparent;"></rect></g><g transform="translate(150, 375)"><rect fill="hsla(0,0%,0%,0)" width="75" id="2_5" class="click-receiver" height="75" style="fill: transparent;"></rect></g><g transform="translate(0, 300)"><rect fill="hsla(0,0%,0%,0)" width="75" id="0_4" class="click-receiver" height="75" style="fill: transparent;"></rect></g><g transform="translate(525, 450)"><rect fill="hsla(0,0%,0%,0)" width="75" id="7_6" class="click-receiver" height="75" style="fill: transparent;"></rect></g></g></g><g class="placeholder"></g></g></g></svg>