<svg viewBox="0 0 617.5 682.5" height="1" width="0.9047619047619048" class="game-grid  fml_xiangqi theme-dark theme-plain"><g transform="translate(16.25, 16.25)"><g transform=""><rect width="617.5" height="682.5" rx="16.125" ry="16.125" x="-16.25" y="-16.25" class="board-bg-rect" style="fill: var(--grid-b); stroke: none;"></rect><g class="edges-grid"><line x1="357.5" y1="487.5" x2="292.5" y2="552.5" stroke="var(--grid-f)" stroke-width="2"></line><line x1="357.5" y1="487.5" x2="357.5" y2="552.5" stroke="var(--grid-f)" stroke-width="2"></line><line x1="357.5" y1="487.5" x2="292.5" y2="487.5" stroke="var(--grid-f)" stroke-width="2"></line><line x1="357.5" y1="617.5" x2="292.5" y2="552.5" stroke="var(--grid-f)" stroke-width="2"></line><line x1="357.5" y1="617.5" x2="292.5" y2="617.5" stroke="var(--grid-f)" stroke-width="2"></line><line x1="357.5" y1="617.5" x2="357.5" y2="552.5" stroke="var(--grid-f)" stroke-width="2"></line><line x1="227.5" y1="162.5" x2="292.5" y2="97.5" stroke="var(--grid-f)" stroke-width="2"></line><line x1="227.5" y1="162.5" x2="292.5" y2="162.5" stroke="var(--grid-f)" stroke-width="2"></line><line x1="227.5" y1="162.5" x2="227.5" y2="97.5" stroke="var(--grid-f)" stroke-width="2"></line><line x1="292.5" y1="162.5" x2="357.5" y2="162.5" stroke="var(--grid-f)" stroke-width="2"></line><line x1="292.5" y1="162.5" x2="227.5" y2="162.5" stroke="var(--grid-f)" stroke-width="2"></line><line x1="292.5" y1="162.5" x2="292.5" y2="97.5" stroke="var(--grid-f)" stroke-width="2"></line><line x1="357.5" y1="162.5" x2="292.5" y2="162.5" stroke="var(--grid-f)" stroke-width="2"></line><line x1="357.5" y1="162.5" x2="292.5" y2="97.5" stroke="var(--grid-f)" stroke-width="2"></line><line x1="357.5" y1="162.5" x2="357.5" y2="97.5" stroke="var(--grid-f)" stroke-width="2"></line><line x1="292.5" y1="487.5" x2="227.5" y2="487.5" stroke="var(--grid-f)" stroke-width="2"></line><line x1="292.5" y1="487.5" x2="292.5" y2="552.5" stroke="var(--grid-f)" stroke-width="2"></line><line x1="292.5" y1="487.5" x2="357.5" y2="487.5" stroke="var(--grid-f)" stroke-width="2"></line><line x1="227.5" y1="97.5" x2="227.5" y2="162.5" stroke="var(--grid-f)" stroke-width="2"></line><line x1="227.5" y1="97.5" x2="292.5" y2="97.5" stroke="var(--grid-f)" stroke-width="2"></line><line x1="227.5" y1="97.5" x2="227.5" y2="32.5" stroke="var(--grid-f)" stroke-width="2"></line><line x1="292.5" y1="617.5" x2="227.5" y2="617.5" stroke="var(--grid-f)" stroke-width="2"></line><line x1="292.5" y1="617.5" x2="357.5" y2="617.5" stroke="var(--grid-f)" stroke-width="2"></line><line x1="292.5" y1="617.5" x2="292.5" y2="552.5" stroke="var(--grid-f)" stroke-width="2"></line><line x1="357.5" y1="97.5" x2="292.5" y2="97.5" stroke="var(--grid-f)" stroke-width="2"></line><line x1="357.5" y1="97.5" x2="357.5" y2="32.5" stroke="var(--grid-f)" stroke-width="2"></line><line x1="357.5" y1="97.5" x2="357.5" y2="162.5" stroke="var(--grid-f)" stroke-width="2"></line><line x1="227.5" y1="32.5" x2="292.5" y2="32.5" stroke="var(--grid-f)" stroke-width="2"></line><line x1="227.5" y1="32.5" x2="292.5" y2="97.5" stroke="var(--grid-f)" stroke-width="2"></line><line x1="227.5" y1="32.5" x2="227.5" y2="97.5" stroke="var(--grid-f)" stroke-width="2"></line><line x1="357.5" y1="32.5" x2="292.5" y2="97.5" stroke="var(--grid-f)" stroke-width="2"></line><line x1="357.5" y1="32.5" x2="292.5" y2="32.5" stroke="var(--grid-f)" stroke-width="2"></line><line x1="357.5" y1="32.5" x2="357.5" y2="97.5" stroke="var(--grid-f)" stroke-width="2"></line><line x1="227.5" y1="617.5" x2="292.5" y2="617.5" stroke="var(--grid-f)" stroke-width="2"></line><line x1="227.5" y1="617.5" x2="292.5" y2="552.5" stroke="var(--grid-f)" stroke-width="2"></line><line x1="227.5" y1="617.5" x2="227.5" y2="552.5" stroke="var(--grid-f)" stroke-width="2"></line><line x1="292.5" y1="552.5" x2="357.5" y2="617.5" stroke="var(--grid-f)" stroke-width="2"></line><line x1="292.5" y1="552.5" x2="357.5" y2="487.5" stroke="var(--grid-f)" stroke-width="2"></line><line x1="292.5" y1="552.5" x2="357.5" y2="552.5" stroke="var(--grid-f)" stroke-width="2"></line><line x1="292.5" y1="552.5" x2="292.5" y2="487.5" stroke="var(--grid-f)" stroke-width="2"></line><line x1="292.5" y1="552.5" x2="227.5" y2="617.5" stroke="var(--grid-f)" stroke-width="2"></line><line x1="292.5" y1="552.5" x2="292.5" y2="617.5" stroke="var(--grid-f)" stroke-width="2"></line><line x1="292.5" y1="552.5" x2="227.5" y2="552.5" stroke="var(--grid-f)" stroke-width="2"></line><line x1="292.5" y1="552.5" x2="227.5" y2="487.5" stroke="var(--grid-f)" stroke-width="2"></line><line x1="292.5" y1="97.5" x2="357.5" y2="32.5" stroke="var(--grid-f)" stroke-width="2"></line><line x1="292.5" y1="97.5" x2="227.5" y2="162.5" stroke="var(--grid-f)" stroke-width="2"></line><line x1="292.5" y1="97.5" x2="357.5" y2="97.5" stroke="var(--grid-f)" stroke-width="2"></line><line x1="292.5" y1="97.5" x2="292.5" y2="32.5" stroke="var(--grid-f)" stroke-width="2"></line><line x1="292.5" y1="97.5" x2="292.5" y2="162.5" stroke="var(--grid-f)" stroke-width="2"></line><line x1="292.5" y1="97.5" x2="227.5" y2="97.5" stroke="var(--grid-f)" stroke-width="2"></line><line x1="292.5" y1="97.5" x2="227.5" y2="32.5" stroke="var(--grid-f)" stroke-width="2"></line><line x1="292.5" y1="97.5" x2="357.5" y2="162.5" stroke="var(--grid-f)" stroke-width="2"></line><line x1="357.5" y1="552.5" x2="292.5" y2="552.5" stroke="var(--grid-f)" stroke-width="2"></line><line x1="357.5" y1="552.5" x2="357.5" y2="487.5" stroke="var(--grid-f)" stroke-width="2"></line><line x1="357.5" y1="552.5" x2="357.5" y2="617.5" stroke="var(--grid-f)" stroke-width="2"></line><line x1="227.5" y1="552.5" x2="227.5" y2="617.5" stroke="var(--grid-f)" stroke-width="2"></line><line x1="227.5" y1="552.5" x2="227.5" y2="487.5" stroke="var(--grid-f)" stroke-width="2"></line><line x1="227.5" y1="552.5" x2="292.5" y2="552.5" stroke="var(--grid-f)" stroke-width="2"></line><line x1="227.5" y1="487.5" x2="292.5" y2="487.5" stroke="var(--grid-f)" stroke-width="2"></line><line x1="227.5" y1="487.5" x2="227.5" y2="552.5" stroke="var(--grid-f)" stroke-width="2"></line><line x1="227.5" y1="487.5" x2="292.5" y2="552.5" stroke="var(--grid-f)" stroke-width="2"></line><line x1="292.5" y1="32.5" x2="227.5" y2="32.5" stroke="var(--grid-f)" stroke-width="2"></line><line x1="292.5" y1="32.5" x2="357.5" y2="32.5" stroke="var(--grid-f)" stroke-width="2"></line><line x1="292.5" y1="32.5" x2="292.5" y2="97.5" stroke="var(--grid-f)" stroke-width="2"></line></g><g class="area-grid-ug"></g><g class="base-grid"><g><g transform="translate(32.5, 97.5)"><g class="square"><rect fill="transparent" stroke="var(--grid-f)" stroke-width="2" x="0" width="65" y="0" height="65" style="opacity: 1;"></rect></g></g><g transform="translate(422.5, 552.5)"><g class="square"><rect fill="transparent" stroke="var(--grid-f)" stroke-width="2" x="0" width="65" y="0" height="65" style="opacity: 1;"></rect></g></g><g transform="translate(357.5, 487.5)"><g class="square"><rect fill="transparent" stroke="var(--grid-f)" stroke-width="2" x="0" width="65" y="0" height="65" style="opacity: 1;"></rect></g></g><g transform="translate(32.5, 552.5)"><g class="square"><rect fill="transparent" stroke="var(--grid-f)" stroke-width="2" x="0" width="65" y="0" height="65" style="opacity: 1;"></rect></g></g><g transform="translate(292.5, 227.5)"><g class="square"><rect fill="transparent" stroke="var(--grid-f)" stroke-width="2" x="0" width="65" y="0" height="65" style="opacity: 1;"></rect></g></g><g transform="translate(227.5, 292.5)"><g class="square"><rect fill="transparent" stroke="var(--grid-f)" stroke-width="2" x="0" width="65" y="0" height="65" style="opacity: 1;"></rect></g></g><g transform="translate(97.5, 162.5)"><g class="square"><rect fill="transparent" stroke="var(--grid-f)" stroke-width="2" x="0" width="65" y="0" height="65" style="opacity: 1;"></rect></g></g><g transform="translate(32.5, 357.5)"><g class="square"><rect fill="transparent" stroke="var(--grid-f)" stroke-width="2" x="0" width="65" y="0" height="65" style="opacity: 1;"></rect></g></g><g transform="translate(32.5, 32.5)"><g class="square"><rect fill="transparent" stroke="var(--grid-f)" stroke-width="2" x="0" width="65" y="0" height="65" style="opacity: 1;"></rect></g></g><g transform="translate(357.5, 227.5)"><g class="square"><rect fill="transparent" stroke="var(--grid-f)" stroke-width="2" x="0" width="65" y="0" height="65" style="opacity: 1;"></rect></g></g><g transform="translate(162.5, 162.5)"><g class="square"><rect fill="transparent" stroke="var(--grid-f)" stroke-width="2" x="0" width="65" y="0" height="65" style="opacity: 1;"></rect></g></g><g transform="translate(97.5, 357.5)"><g class="square"><rect fill="transparent" stroke="var(--grid-f)" stroke-width="2" x="0" width="65" y="0" height="65" style="opacity: 1;"></rect></g></g><g transform="translate(227.5, 162.5)"><g class="square"><rect fill="transparent" stroke="var(--grid-f)" stroke-width="2" x="0" width="65" y="0" height="65" style="opacity: 1;"></rect></g></g><g transform="translate(292.5, 422.5)"><g class="square"><rect fill="transparent" stroke="var(--grid-f)" stroke-width="2" x="0" width="65" y="0" height="65" style="opacity: 1;"></rect></g></g><g transform="translate(487.5, 97.5)"><g class="square"><rect fill="transparent" stroke="var(--grid-f)" stroke-width="2" x="0" width="65" y="0" height="65" style="opacity: 1;"></rect></g></g><g transform="translate(32.5, 487.5)"><g class="square"><rect fill="transparent" stroke="var(--grid-f)" stroke-width="2" x="0" width="65" y="0" height="65" style="opacity: 1;"></rect></g></g><g transform="translate(162.5, 292.5)"><g class="square"><rect fill="transparent" stroke="var(--grid-f)" stroke-width="2" x="0" width="65" y="0" height="65" style="opacity: 1;"></rect></g></g><g transform="translate(487.5, 162.5)"><g class="square"><rect fill="transparent" stroke="var(--grid-f)" stroke-width="2" x="0" width="65" y="0" height="65" style="opacity: 1;"></rect></g></g><g transform="translate(292.5, 162.5)"><g class="square"><rect fill="transparent" stroke="var(--grid-f)" stroke-width="2" x="0" width="65" y="0" height="65" style="opacity: 1;"></rect></g></g><g transform="translate(97.5, 227.5)"><g class="square"><rect fill="transparent" stroke="var(--grid-f)" stroke-width="2" x="0" width="65" y="0" height="65" style="opacity: 1;"></rect></g></g><g transform="translate(357.5, 357.5)"><g class="square"><rect fill="transparent" stroke="var(--grid-f)" stroke-width="2" x="0" width="65" y="0" height="65" style="opacity: 1;"></rect></g></g><g transform="translate(357.5, 422.5)"><g class="square"><rect fill="transparent" stroke="var(--grid-f)" stroke-width="2" x="0" width="65" y="0" height="65" style="opacity: 1;"></rect></g></g><g transform="translate(162.5, 227.5)"><g class="square"><rect fill="transparent" stroke="var(--grid-f)" stroke-width="2" x="0" width="65" y="0" height="65" style="opacity: 1;"></rect></g></g><g transform="translate(357.5, 162.5)"><g class="square"><rect fill="transparent" stroke="var(--grid-f)" stroke-width="2" x="0" width="65" y="0" height="65" style="opacity: 1;"></rect></g></g><g transform="translate(292.5, 487.5)"><g class="square"><rect fill="transparent" stroke="var(--grid-f)" stroke-width="2" x="0" width="65" y="0" height="65" style="opacity: 1;"></rect></g></g><g transform="translate(227.5, 97.5)"><g class="square"><rect fill="transparent" stroke="var(--grid-f)" stroke-width="2" x="0" width="65" y="0" height="65" style="opacity: 1;"></rect></g></g><g transform="translate(487.5, 32.5)"><g class="square"><rect fill="transparent" stroke="var(--grid-f)" stroke-width="2" x="0" width="65" y="0" height="65" style="opacity: 1;"></rect></g></g><g transform="translate(32.5, 162.5)"><g class="square"><rect fill="transparent" stroke="var(--grid-f)" stroke-width="2" x="0" width="65" y="0" height="65" style="opacity: 1;"></rect></g></g><g transform="translate(357.5, 97.5)"><g class="square"><rect fill="transparent" stroke="var(--grid-f)" stroke-width="2" x="0" width="65" y="0" height="65" style="opacity: 1;"></rect></g></g><g transform="translate(227.5, 32.5)"><g class="square"><rect fill="transparent" stroke="var(--grid-f)" stroke-width="2" x="0" width="65" y="0" height="65" style="opacity: 1;"></rect></g></g><g transform="translate(162.5, 487.5)"><g class="square"><rect fill="transparent" stroke="var(--grid-f)" stroke-width="2" x="0" width="65" y="0" height="65" style="opacity: 1;"></rect></g></g><g transform="translate(32.5, 422.5)"><g class="square"><rect fill="transparent" stroke="var(--grid-f)" stroke-width="2" x="0" width="65" y="0" height="65" style="opacity: 1;"></rect></g></g><g transform="translate(292.5, 357.5)"><g class="square"><rect fill="transparent" stroke="var(--grid-f)" stroke-width="2" x="0" width="65" y="0" height="65" style="opacity: 1;"></rect></g></g><g transform="translate(97.5, 97.5)"><g class="square"><rect fill="transparent" stroke="var(--grid-f)" stroke-width="2" x="0" width="65" y="0" height="65" style="opacity: 1;"></rect></g></g><g transform="translate(422.5, 32.5)"><g class="square"><rect fill="transparent" stroke="var(--grid-f)" stroke-width="2" x="0" width="65" y="0" height="65" style="opacity: 1;"></rect></g></g><g transform="translate(487.5, 292.5)"><g class="square"><rect fill="transparent" stroke="var(--grid-f)" stroke-width="2" x="0" width="65" y="0" height="65" style="opacity: 1;"></rect></g></g><g transform="translate(487.5, 487.5)"><g class="square"><rect fill="transparent" stroke="var(--grid-f)" stroke-width="2" x="0" width="65" y="0" height="65" style="opacity: 1;"></rect></g></g><g transform="translate(227.5, 227.5)"><g class="square"><rect fill="transparent" stroke="var(--grid-f)" stroke-width="2" x="0" width="65" y="0" height="65" style="opacity: 1;"></rect></g></g><g transform="translate(357.5, 32.5)"><g class="square"><rect fill="transparent" stroke="var(--grid-f)" stroke-width="2" x="0" width="65" y="0" height="65" style="opacity: 1;"></rect></g></g><g transform="translate(357.5, 292.5)"><g class="square"><rect fill="transparent" stroke="var(--grid-f)" stroke-width="2" x="0" width="65" y="0" height="65" style="opacity: 1;"></rect></g></g><g transform="translate(162.5, 422.5)"><g class="square"><rect fill="transparent" stroke="var(--grid-f)" stroke-width="2" x="0" width="65" y="0" height="65" style="opacity: 1;"></rect></g></g><g transform="translate(422.5, 227.5)"><g class="square"><rect fill="transparent" stroke="var(--grid-f)" stroke-width="2" x="0" width="65" y="0" height="65" style="opacity: 1;"></rect></g></g><g transform="translate(227.5, 357.5)"><g class="square"><rect fill="transparent" stroke="var(--grid-f)" stroke-width="2" x="0" width="65" y="0" height="65" style="opacity: 1;"></rect></g></g><g transform="translate(422.5, 422.5)"><g class="square"><rect fill="transparent" stroke="var(--grid-f)" stroke-width="2" x="0" width="65" y="0" height="65" style="opacity: 1;"></rect></g></g><g transform="translate(97.5, 292.5)"><g class="square"><rect fill="transparent" stroke="var(--grid-f)" stroke-width="2" x="0" width="65" y="0" height="65" style="opacity: 1;"></rect></g></g><g transform="translate(422.5, 487.5)"><g class="square"><rect fill="transparent" stroke="var(--grid-f)" stroke-width="2" x="0" width="65" y="0" height="65" style="opacity: 1;"></rect></g></g><g transform="translate(97.5, 487.5)"><g class="square"><rect fill="transparent" stroke="var(--grid-f)" stroke-width="2" x="0" width="65" y="0" height="65" style="opacity: 1;"></rect></g></g><g transform="translate(292.5, 552.5)"><g class="square"><rect fill="transparent" stroke="var(--grid-f)" stroke-width="2" x="0" width="65" y="0" height="65" style="opacity: 1;"></rect></g></g><g transform="translate(97.5, 552.5)"><g class="square"><rect fill="transparent" stroke="var(--grid-f)" stroke-width="2" x="0" width="65" y="0" height="65" style="opacity: 1;"></rect></g></g><g transform="translate(32.5, 227.5)"><g class="square"><rect fill="transparent" stroke="var(--grid-f)" stroke-width="2" x="0" width="65" y="0" height="65" style="opacity: 1;"></rect></g></g><g transform="translate(422.5, 357.5)"><g class="square"><rect fill="transparent" stroke="var(--grid-f)" stroke-width="2" x="0" width="65" y="0" height="65" style="opacity: 1;"></rect></g></g><g transform="translate(162.5, 97.5)"><g class="square"><rect fill="transparent" stroke="var(--grid-f)" stroke-width="2" x="0" width="65" y="0" height="65" style="opacity: 1;"></rect></g></g><g transform="translate(487.5, 552.5)"><g class="square"><rect fill="transparent" stroke="var(--grid-f)" stroke-width="2" x="0" width="65" y="0" height="65" style="opacity: 1;"></rect></g></g><g transform="translate(292.5, 97.5)"><g class="square"><rect fill="transparent" stroke="var(--grid-f)" stroke-width="2" x="0" width="65" y="0" height="65" style="opacity: 1;"></rect></g></g><g transform="translate(487.5, 357.5)"><g class="square"><rect fill="transparent" stroke="var(--grid-f)" stroke-width="2" x="0" width="65" y="0" height="65" style="opacity: 1;"></rect></g></g><g transform="translate(227.5, 422.5)"><g class="square"><rect fill="transparent" stroke="var(--grid-f)" stroke-width="2" x="0" width="65" y="0" height="65" style="opacity: 1;"></rect></g></g><g transform="translate(357.5, 552.5)"><g class="square"><rect fill="transparent" stroke="var(--grid-f)" stroke-width="2" x="0" width="65" y="0" height="65" style="opacity: 1;"></rect></g></g><g transform="translate(227.5, 552.5)"><g class="square"><rect fill="transparent" stroke="var(--grid-f)" stroke-width="2" x="0" width="65" y="0" height="65" style="opacity: 1;"></rect></g></g><g transform="translate(422.5, 97.5)"><g class="square"><rect fill="transparent" stroke="var(--grid-f)" stroke-width="2" x="0" width="65" y="0" height="65" style="opacity: 1;"></rect></g></g><g transform="translate(97.5, 422.5)"><g class="square"><rect fill="transparent" stroke="var(--grid-f)" stroke-width="2" x="0" width="65" y="0" height="65" style="opacity: 1;"></rect></g></g><g transform="translate(292.5, 292.5)"><g class="square"><rect fill="transparent" stroke="var(--grid-f)" stroke-width="2" x="0" width="65" y="0" height="65" style="opacity: 1;"></rect></g></g><g transform="translate(227.5, 487.5)"><g class="square"><rect fill="transparent" stroke="var(--grid-f)" stroke-width="2" x="0" width="65" y="0" height="65" style="opacity: 1;"></rect></g></g><g transform="translate(97.5, 32.5)"><g class="square"><rect fill="transparent" stroke="var(--grid-f)" stroke-width="2" x="0" width="65" y="0" height="65" style="opacity: 1;"></rect></g></g><g transform="translate(487.5, 227.5)"><g class="square"><rect fill="transparent" stroke="var(--grid-f)" stroke-width="2" x="0" width="65" y="0" height="65" style="opacity: 1;"></rect></g></g><g transform="translate(162.5, 32.5)"><g class="square"><rect fill="transparent" stroke="var(--grid-f)" stroke-width="2" x="0" width="65" y="0" height="65" style="opacity: 1;"></rect></g></g><g transform="translate(162.5, 552.5)"><g class="square"><rect fill="transparent" stroke="var(--grid-f)" stroke-width="2" x="0" width="65" y="0" height="65" style="opacity: 1;"></rect></g></g><g transform="translate(292.5, 32.5)"><g class="square"><rect fill="transparent" stroke="var(--grid-f)" stroke-width="2" x="0" width="65" y="0" height="65" style="opacity: 1;"></rect></g></g><g transform="translate(422.5, 162.5)"><g class="square"><rect fill="transparent" stroke="var(--grid-f)" stroke-width="2" x="0" width="65" y="0" height="65" style="opacity: 1;"></rect></g></g><g transform="translate(422.5, 292.5)"><g class="square"><rect fill="transparent" stroke="var(--grid-f)" stroke-width="2" x="0" width="65" y="0" height="65" style="opacity: 1;"></rect></g></g><g transform="translate(162.5, 357.5)"><g class="square"><rect fill="transparent" stroke="var(--grid-f)" stroke-width="2" x="0" width="65" y="0" height="65" style="opacity: 1;"></rect></g></g><g transform="translate(32.5, 292.5)"><g class="square"><rect fill="transparent" stroke="var(--grid-f)" stroke-width="2" x="0" width="65" y="0" height="65" style="opacity: 1;"></rect></g></g><g transform="translate(487.5, 422.5)"><g class="square"><rect fill="transparent" stroke="var(--grid-f)" stroke-width="2" x="0" width="65" y="0" height="65" style="opacity: 1;"></rect></g></g></g></g><g class="area-grid-bg-mid"><g><g transform="translate(32.5, 292.5)"><g class="square"><g><path d="M 0 0 L 520 0 520 65 0 65 z" style="stroke: var(--grid-f); fill: var(--app-bg);"></path></g></g></g><g transform="translate(97.5, 292.5)"><g class="square"></g></g><g transform="translate(162.5, 292.5)"><g class="square"></g></g><g transform="translate(227.5, 292.5)"><g class="square"></g></g><g transform="translate(292.5, 292.5)"><g class="square"></g></g><g transform="translate(357.5, 292.5)"><g class="square"></g></g><g transform="translate(422.5, 292.5)"><g class="square"></g></g><g transform="translate(487.5, 292.5)"><g class="square"></g></g></g></g><g class="area-grid-bg"></g><g class="e-grid" transform=""><g><g class="tl-box" style="transition: transform 300ms linear 0s; transform: translate(32.5px, 422.5px);"><g class=" 1" transform=""><g><g transform="scale(0.5525,0.5525)"><g transform="translate(-50, -50)"><g transform="scale(1,1)"><g><circle fill="var(--e-white-bg)" stroke="var(--e-white-bo)" stroke-width="2.3529411764705883" cx="50" cy="50" r="45"></circle><g transform="translate(14, 11)scale(0.07)"><path fill="var(--e-white-fg)" stroke="var(--e-white-bg)" stroke-width="2.3529411764705883" d="M593 185q0 20 -9 34.5t-22 14.5t-24 -11t-33 -52.5t-22 -47.5t10 -6q22 0 61 16.5t39 51.5zM755 210q23 0 37.5 9t14.5 14q0 10 -24.5 20t-73.5 15l-143 15q-91 10 -130 17t-74 7t-57 -13t-22 -19t21 -7q59 -2 187 -19t185.5 -28t78.5 -11zM655 421q82 23 109 39.5 t27 44.5t-21 28q-17 0 -37 -20l-87 -82q-32 38 -65.5 62.5t-44 24.5t-10.5 -5t9 -14q34 -30 67.5 -87t30.5 -70t-3 -20q0 -16 13.5 -16t43 12.5t29.5 23.5t-14 22t-47 57zM382 452q52 16 66.5 32t14.5 34t-6.5 26t-16.5 8t-16 -6.5t-54 -80.5q-51 57 -87.5 78.5t-51.5 21.5 q-5 0 -5 -4t11 -14q58 -51 97 -114.5t34 -84.5q-1 -5 -1 -9q0 -14 14 -14t42 16t28 27t-13 20.5t-56 63.5zM558 600q177 -19 226 -26.5t81 -7.5t68.5 18.5t36.5 37.5q0 24 -54 24q-28 0 -65.5 -7.5t-111 -7.5t-181.5 9q3 219 -8.5 313t-28.5 94q-9 0 -16.5 -31.5 t-7.5 -111.5l2 -258q-186 20 -254.5 36.5t-91.5 16.5t-49 -17.5t-26 -26t29 -8.5q41 0 392 -39q-2 -53 -7 -62t-5 -16q0 -14 18.5 -14t38.5 10.5t20 30.5q0 6 -3 16t-3 27z"></path></g></g></g></g></g></g></g></g><g class="tl-box" style="transition: transform 300ms linear 0s; transform: translate(162.5px, 422.5px);"><g class=" 2" transform=""><g><g transform="scale(0.5525,0.5525)"><g transform="translate(-50, -50)"><g transform="scale(1,1)"><g><circle fill="var(--e-white-bg)" stroke="var(--e-white-bo)" stroke-width="2.3529411764705883" cx="50" cy="50" r="45"></circle><g transform="translate(14, 11)scale(0.07)"><path fill="var(--e-white-fg)" stroke="var(--e-white-bg)" stroke-width="2.3529411764705883" d="M593 185q0 20 -9 34.5t-22 14.5t-24 -11t-33 -52.5t-22 -47.5t10 -6q22 0 61 16.5t39 51.5zM755 210q23 0 37.5 9t14.5 14q0 10 -24.5 20t-73.5 15l-143 15q-91 10 -130 17t-74 7t-57 -13t-22 -19t21 -7q59 -2 187 -19t185.5 -28t78.5 -11zM655 421q82 23 109 39.5 t27 44.5t-21 28q-17 0 -37 -20l-87 -82q-32 38 -65.5 62.5t-44 24.5t-10.5 -5t9 -14q34 -30 67.5 -87t30.5 -70t-3 -20q0 -16 13.5 -16t43 12.5t29.5 23.5t-14 22t-47 57zM382 452q52 16 66.5 32t14.5 34t-6.5 26t-16.5 8t-16 -6.5t-54 -80.5q-51 57 -87.5 78.5t-51.5 21.5 q-5 0 -5 -4t11 -14q58 -51 97 -114.5t34 -84.5q-1 -5 -1 -9q0 -14 14 -14t42 16t28 27t-13 20.5t-56 63.5zM558 600q177 -19 226 -26.5t81 -7.5t68.5 18.5t36.5 37.5q0 24 -54 24q-28 0 -65.5 -7.5t-111 -7.5t-181.5 9q3 219 -8.5 313t-28.5 94q-9 0 -16.5 -31.5 t-7.5 -111.5l2 -258q-186 20 -254.5 36.5t-91.5 16.5t-49 -17.5t-26 -26t29 -8.5q41 0 392 -39q-2 -53 -7 -62t-5 -16q0 -14 18.5 -14t38.5 10.5t20 30.5q0 6 -3 16t-3 27z"></path></g></g></g></g></g></g></g></g><g class="tl-box" style="transition: transform 300ms linear 0s; transform: translate(292.5px, 422.5px);"><g class=" 3" transform=""><g><g transform="scale(0.5525,0.5525)"><g transform="translate(-50, -50)"><g transform="scale(1,1)"><g><circle fill="var(--e-white-bg)" stroke="var(--e-white-bo)" stroke-width="2.3529411764705883" cx="50" cy="50" r="45"></circle><g transform="translate(14, 11)scale(0.07)"><path fill="var(--e-white-fg)" stroke="var(--e-white-bg)" stroke-width="2.3529411764705883" d="M593 185q0 20 -9 34.5t-22 14.5t-24 -11t-33 -52.5t-22 -47.5t10 -6q22 0 61 16.5t39 51.5zM755 210q23 0 37.5 9t14.5 14q0 10 -24.5 20t-73.5 15l-143 15q-91 10 -130 17t-74 7t-57 -13t-22 -19t21 -7q59 -2 187 -19t185.5 -28t78.5 -11zM655 421q82 23 109 39.5 t27 44.5t-21 28q-17 0 -37 -20l-87 -82q-32 38 -65.5 62.5t-44 24.5t-10.5 -5t9 -14q34 -30 67.5 -87t30.5 -70t-3 -20q0 -16 13.5 -16t43 12.5t29.5 23.5t-14 22t-47 57zM382 452q52 16 66.5 32t14.5 34t-6.5 26t-16.5 8t-16 -6.5t-54 -80.5q-51 57 -87.5 78.5t-51.5 21.5 q-5 0 -5 -4t11 -14q58 -51 97 -114.5t34 -84.5q-1 -5 -1 -9q0 -14 14 -14t42 16t28 27t-13 20.5t-56 63.5zM558 600q177 -19 226 -26.5t81 -7.5t68.5 18.5t36.5 37.5q0 24 -54 24q-28 0 -65.5 -7.5t-111 -7.5t-181.5 9q3 219 -8.5 313t-28.5 94q-9 0 -16.5 -31.5 t-7.5 -111.5l2 -258q-186 20 -254.5 36.5t-91.5 16.5t-49 -17.5t-26 -26t29 -8.5q41 0 392 -39q-2 -53 -7 -62t-5 -16q0 -14 18.5 -14t38.5 10.5t20 30.5q0 6 -3 16t-3 27z"></path></g></g></g></g></g></g></g></g><g class="tl-box" style="transition: transform 300ms linear 0s; transform: translate(422.5px, 422.5px);"><g class=" 4" transform=""><g><g transform="scale(0.5525,0.5525)"><g transform="translate(-50, -50)"><g transform="scale(1,1)"><g><circle fill="var(--e-white-bg)" stroke="var(--e-white-bo)" stroke-width="2.3529411764705883" cx="50" cy="50" r="45"></circle><g transform="translate(14, 11)scale(0.07)"><path fill="var(--e-white-fg)" stroke="var(--e-white-bg)" stroke-width="2.3529411764705883" d="M593 185q0 20 -9 34.5t-22 14.5t-24 -11t-33 -52.5t-22 -47.5t10 -6q22 0 61 16.5t39 51.5zM755 210q23 0 37.5 9t14.5 14q0 10 -24.5 20t-73.5 15l-143 15q-91 10 -130 17t-74 7t-57 -13t-22 -19t21 -7q59 -2 187 -19t185.5 -28t78.5 -11zM655 421q82 23 109 39.5 t27 44.5t-21 28q-17 0 -37 -20l-87 -82q-32 38 -65.5 62.5t-44 24.5t-10.5 -5t9 -14q34 -30 67.5 -87t30.5 -70t-3 -20q0 -16 13.5 -16t43 12.5t29.5 23.5t-14 22t-47 57zM382 452q52 16 66.5 32t14.5 34t-6.5 26t-16.5 8t-16 -6.5t-54 -80.5q-51 57 -87.5 78.5t-51.5 21.5 q-5 0 -5 -4t11 -14q58 -51 97 -114.5t34 -84.5q-1 -5 -1 -9q0 -14 14 -14t42 16t28 27t-13 20.5t-56 63.5zM558 600q177 -19 226 -26.5t81 -7.5t68.5 18.5t36.5 37.5q0 24 -54 24q-28 0 -65.5 -7.5t-111 -7.5t-181.5 9q3 219 -8.5 313t-28.5 94q-9 0 -16.5 -31.5 t-7.5 -111.5l2 -258q-186 20 -254.5 36.5t-91.5 16.5t-49 -17.5t-26 -26t29 -8.5q41 0 392 -39q-2 -53 -7 -62t-5 -16q0 -14 18.5 -14t38.5 10.5t20 30.5q0 6 -3 16t-3 27z"></path></g></g></g></g></g></g></g></g><g class="tl-box" style="transition: transform 300ms linear 0s; transform: translate(552.5px, 422.5px);"><g class=" 5" transform=""><g><g transform="scale(0.5525,0.5525)"><g transform="translate(-50, -50)"><g transform="scale(1,1)"><g><circle fill="var(--e-white-bg)" stroke="var(--e-white-bo)" stroke-width="2.3529411764705883" cx="50" cy="50" r="45"></circle><g transform="translate(14, 11)scale(0.07)"><path fill="var(--e-white-fg)" stroke="var(--e-white-bg)" stroke-width="2.3529411764705883" d="M593 185q0 20 -9 34.5t-22 14.5t-24 -11t-33 -52.5t-22 -47.5t10 -6q22 0 61 16.5t39 51.5zM755 210q23 0 37.5 9t14.5 14q0 10 -24.5 20t-73.5 15l-143 15q-91 10 -130 17t-74 7t-57 -13t-22 -19t21 -7q59 -2 187 -19t185.5 -28t78.5 -11zM655 421q82 23 109 39.5 t27 44.5t-21 28q-17 0 -37 -20l-87 -82q-32 38 -65.5 62.5t-44 24.5t-10.5 -5t9 -14q34 -30 67.5 -87t30.5 -70t-3 -20q0 -16 13.5 -16t43 12.5t29.5 23.5t-14 22t-47 57zM382 452q52 16 66.5 32t14.5 34t-6.5 26t-16.5 8t-16 -6.5t-54 -80.5q-51 57 -87.5 78.5t-51.5 21.5 q-5 0 -5 -4t11 -14q58 -51 97 -114.5t34 -84.5q-1 -5 -1 -9q0 -14 14 -14t42 16t28 27t-13 20.5t-56 63.5zM558 600q177 -19 226 -26.5t81 -7.5t68.5 18.5t36.5 37.5q0 24 -54 24q-28 0 -65.5 -7.5t-111 -7.5t-181.5 9q3 219 -8.5 313t-28.5 94q-9 0 -16.5 -31.5 t-7.5 -111.5l2 -258q-186 20 -254.5 36.5t-91.5 16.5t-49 -17.5t-26 -26t29 -8.5q41 0 392 -39q-2 -53 -7 -62t-5 -16q0 -14 18.5 -14t38.5 10.5t20 30.5q0 6 -3 16t-3 27z"></path></g></g></g></g></g></g></g></g><g class="tl-box" style="transition: transform 300ms linear 0s; transform: translate(97.5px, 487.5px);"><g class=" 6" transform=""><g><g transform="scale(0.5525,0.5525)"><g transform="translate(-50, -50)"><g transform="scale(1,1)"><g><circle fill="var(--e-white-bg)" stroke="var(--e-white-bo)" stroke-width="2.3529411764705883" cx="50" cy="50" r="45"></circle><g transform="translate(14, 11)scale(0.07)"><path fill="var(--e-white-fg)" stroke="var(--e-white-bg)" stroke-width="2.3529411764705883" d="M557 397q-25 35 -58.5 63.5t-44.5 28.5q-4 0 -4 -5t10 -17q60 -77 94 -149t34 -111q0 -8 -2.5 -16t-2.5 -18t14 -10t46.5 17t32.5 34q0 10 -14 22.5t-38.5 56.5t-47.5 78q36 -1 85.5 -13.5t73.5 -25t38 -12.5t47.5 16.5t33.5 28t-13 26.5q-16 18 -26 77 q-19 116 -27.5 154t-16.5 52t-25 28t-29.5 14t-16.5 -16q-7 -30 -22.5 -48t-15.5 -23t5.5 -5t17.5 4.5t20 4.5q25 0 37.5 -79.5t12.5 -151.5q0 -23 -15 -23q-5 0 -12 2q-93 18 -125 18t-46 -2zM197 641q-43 66 -93 107t-62 41q-6 0 -6 -5.5t7 -12.5q88 -98 141 -198 q-8 -26 -8 -36.5t7.5 -10.5t20.5 6q53 -111 53 -158q0 -9 -1 -17q-35 3 -68 3t-46 -7t-13 -14t23.5 -8.5t85.5 -14t109 -28.5t66 -16t33.5 8.5t14.5 15.5t-9.5 14.5t-67 22.5t-95.5 20q44 28 44 45q0 9 -11 22q-32 33 -70 119q53 -7 72.5 -19t31.5 -12t39.5 13t27.5 22.5 t-10.5 24t-16 30t-22.5 70.5q24 15 24 25t-9.5 15t-54.5 13t-92 10q3 54 -7 69.5t-17 15.5q-11 0 -12 -44q-1 -68 -9 -131zM237 568l-1 3q1 79 4 130q64 -11 74.5 -16.5t17 -32t6.5 -51.5t-5.5 -33.5t-20 -8.5t-75.5 9zM519 689q-3 110 24.5 151t121.5 41q65 0 117.5 -12 t74 -24t33 -39t26.5 -95q4 -18 9.5 -18t6.5 25t7 62t10.5 49t4.5 20q0 39 -84.5 66t-165.5 27t-134.5 -21t-73 -60t-19.5 -123l2 -82q0 -38 -3 -68t-8.5 -38t-5.5 -16t13.5 -8t41.5 11q53 -8 77 -32q6 -6 16.5 -6t39.5 15.5t29 30.5q0 7 -8 15q-33 33 -33 67q13 13 13 22.5 t-10 15t-52 15.5t-70 9zM522 559l-3 105q22 -2 42 -10.5t22.5 -14.5t8 -31t5.5 -39q0 -17 -11 -17q-3 0 -7 1q-26 6 -57 6z"></path></g></g></g></g></g></g></g></g><g class="tl-box" style="transition: transform 300ms linear 0s; transform: translate(487.5px, 487.5px);"><g class=" 7" transform=""><g><g transform="scale(0.5525,0.5525)"><g transform="translate(-50, -50)"><g transform="scale(1,1)"><g><circle fill="var(--e-white-bg)" stroke="var(--e-white-bo)" stroke-width="2.3529411764705883" cx="50" cy="50" r="45"></circle><g transform="translate(14, 11)scale(0.07)"><path fill="var(--e-white-fg)" stroke="var(--e-white-bg)" stroke-width="2.3529411764705883" d="M557 397q-25 35 -58.5 63.5t-44.5 28.5q-4 0 -4 -5t10 -17q60 -77 94 -149t34 -111q0 -8 -2.5 -16t-2.5 -18t14 -10t46.5 17t32.5 34q0 10 -14 22.5t-38.5 56.5t-47.5 78q36 -1 85.5 -13.5t73.5 -25t38 -12.5t47.5 16.5t33.5 28t-13 26.5q-16 18 -26 77 q-19 116 -27.5 154t-16.5 52t-25 28t-29.5 14t-16.5 -16q-7 -30 -22.5 -48t-15.5 -23t5.5 -5t17.5 4.5t20 4.5q25 0 37.5 -79.5t12.5 -151.5q0 -23 -15 -23q-5 0 -12 2q-93 18 -125 18t-46 -2zM197 641q-43 66 -93 107t-62 41q-6 0 -6 -5.5t7 -12.5q88 -98 141 -198 q-8 -26 -8 -36.5t7.5 -10.5t20.5 6q53 -111 53 -158q0 -9 -1 -17q-35 3 -68 3t-46 -7t-13 -14t23.5 -8.5t85.5 -14t109 -28.5t66 -16t33.5 8.5t14.5 15.5t-9.5 14.5t-67 22.5t-95.5 20q44 28 44 45q0 9 -11 22q-32 33 -70 119q53 -7 72.5 -19t31.5 -12t39.5 13t27.5 22.5 t-10.5 24t-16 30t-22.5 70.5q24 15 24 25t-9.5 15t-54.5 13t-92 10q3 54 -7 69.5t-17 15.5q-11 0 -12 -44q-1 -68 -9 -131zM237 568l-1 3q1 79 4 130q64 -11 74.5 -16.5t17 -32t6.5 -51.5t-5.5 -33.5t-20 -8.5t-75.5 9zM519 689q-3 110 24.5 151t121.5 41q65 0 117.5 -12 t74 -24t33 -39t26.5 -95q4 -18 9.5 -18t6.5 25t7 62t10.5 49t4.5 20q0 39 -84.5 66t-165.5 27t-134.5 -21t-73 -60t-19.5 -123l2 -82q0 -38 -3 -68t-8.5 -38t-5.5 -16t13.5 -8t41.5 11q53 -8 77 -32q6 -6 16.5 -6t39.5 15.5t29 30.5q0 7 -8 15q-33 33 -33 67q13 13 13 22.5 t-10 15t-52 15.5t-70 9zM522 559l-3 105q22 -2 42 -10.5t22.5 -14.5t8 -31t5.5 -39q0 -17 -11 -17q-3 0 -7 1q-26 6 -57 6z"></path></g></g></g></g></g></g></g></g><g class="tl-box" style="transition: transform 300ms linear 0s; transform: translate(32.5px, 617.5px);"><g class=" 8" transform=""><g><g transform="scale(0.5525,0.5525)"><g transform="translate(-50, -50)"><g transform="scale(1,1)"><g><circle fill="var(--e-white-bg)" stroke="var(--e-white-bo)" stroke-width="2.3529411764705883" cx="50" cy="50" r="45"></circle><g transform="translate(14, 11)scale(0.07)"><path fill="var(--e-white-fg)" stroke="var(--e-white-bg)" stroke-width="2.3529411764705883" d="M488 317q-51 7 -81.5 7t-56 -6.5t-25.5 -14t19 -8.5q54 -4 143 -22q-1 -53 -7 -75t-21 -39q-8 -10 -8 -19t18 -9t53.5 13t35.5 34q0 6 -3 13q-9 21 -11 71q51 -11 77.5 -18t41 -7t31.5 7t17 17.5t-23.5 18.5t-143.5 27q2 49 2 79q96 -17 121 -26q16 -6 32 -6t54.5 23 t38.5 38q0 8 -11 18.5t-19.5 29t-21 61t-30 73t-35.5 30.5q-12 0 -18 -11q-5 -8 -21.5 -8t-89.5 10v85q106 -13 161.5 -21.5t77 -12t42 -3.5t50 20t29.5 36q0 18 -34 15q-86 -9 -150.5 -9t-175.5 12q0 138 -8 211t-23 73q-4 0 -8 -5t-8 -38.5t-5 -69.5l-1 -166 q-196 23 -238.5 33.5t-61.5 10.5t-43.5 -15.5t-24.5 -22.5t6 -8t37 -1t132 -10t193 -23v-84l-109 17q2 15 -16 15q-8 0 -21.5 -24t-22.5 -61q-23 -98 -48 -128q-12 -14 -12 -23.5t18.5 -9.5t48.5 8l157 -25q-1 -39 -1 -77zM547 474q22 -4 51 -4t29 15q0 8 -11 16t-69 19 q2 31 0 66q94 -14 118 -13q15 1 19.5 -6.5t17.5 -61.5t13 -72t-6 -23t-24 -5q-58 0 -118 9v60zM493 529q-32 4 -50.5 4t-27.5 -7t-9 -11t14 -7t72 -17q-1 -50 -2 -68q-58 8 -136 26q14 71 28 161l111 -16v-65z"></path></g></g></g></g></g></g></g></g><g class="tl-box" style="transition: transform 300ms linear 0s; transform: translate(97.5px, 617.5px);"><g class=" 9" transform=""><g><g transform="scale(0.5525,0.5525)"><g transform="translate(-50, -50)"><g transform="scale(1,1)"><g><circle fill="var(--e-white-bg)" stroke="var(--e-white-bo)" stroke-width="2.3529411764705883" cx="50" cy="50" r="45"></circle><g transform="translate(14, 11)scale(0.07)"><path fill="var(--e-white-fg)" stroke="var(--e-white-bg)" stroke-width="2.3529411764705883" d="M537 571q148 -20 189 -34q18 -5 32.5 -5t58 22.5t43.5 32t-9 22t-12.5 32t-7.5 71.5q-7 103 -36.5 168t-64 87.5t-44.5 22.5q-9 0 -12.5 -24t-18 -48t-39 -51t-24.5 -29.5t4 -2.5t19 6q67 29 86.5 29t25.5 -10.5t26 -68.5t20 -111t-12.5 -75t-60 -22t-129.5 13.5 t-147.5 26t-79 17.5t-20.5 16t-15 11t-21 -21.5t-13 -39t3 -30.5q15 -70 15 -185.5t-16 -136.5q-11 -16 -11 -26t10.5 -10t36 10.5t28.5 17.5q151 -17 241 -47q43 -13 90 -13t47 16q0 14 -41.5 25.5t-133.5 24.5l-2 81q66 -19 82.5 -19t28 6.5t11.5 13.5q0 12 -38 18.5 t-85 16.5l-2 74q65 -19 90 -19q30 0 30 16q0 8 -8.5 13.5t-39.5 11.5q-51 11 -72 17zM346 268q-8 120 -15 331q90 -10 159 -21q3 -46 3 -84q-40 9 -57.5 9t-39.5 -4.5t-22 -10.5t19 -10q53 -8 100 -20q0 -56 -1 -78q-53 12 -71 12t-34.5 -8t-16.5 -13t19.5 -7.5t100.5 -17.5 q0 -43 -3 -86q-74 9 -100.5 9t-40.5 -1zM561 672q14 0 55.5 24t41.5 60q0 12 -4.5 25.5t-15.5 13.5q-21 0 -51.5 -51t-30.5 -67q0 -5 5 -5zM153 843q0 -14 13.5 -45t20 -49t9 -39.5t8.5 -21.5t16.5 23t10.5 62.5t-19.5 76t-30 36.5t-19.5 -14t-9 -29zM423 693q17 0 44 19.5 t27 48.5q0 14 -8 26.5t-15.5 12.5t-14.5 -8.5t-23.5 -46t-16.5 -45t7 -7.5zM305 714q16 0 36 26.5t20 56.5q0 15 -7 23t-16.5 8t-17.5 -14t-16 -45.5t-8 -43t9 -11.5z"></path></g></g></g></g></g></g></g></g><g class="tl-box" style="transition: transform 300ms linear 0s; transform: translate(162.5px, 617.5px);"><g class=" 10" transform=""><g><g transform="scale(0.5525,0.5525)"><g transform="translate(-50, -50)"><g transform="scale(1,1)"><g><circle fill="var(--e-white-bg)" stroke="var(--e-white-bo)" stroke-width="2.3529411764705883" cx="50" cy="50" r="45"></circle><g transform="translate(14, 11)scale(0.07)"><path fill="var(--e-white-fg)" stroke="var(--e-white-bg)" stroke-width="2.3529411764705883" d="M567 658q102 57 195.5 88t220.5 39q21 2 21 11q0 6 -12.5 11.5t-83 20.5t-99.5 15t-52 -14.5t-97 -70.5t-113 -88q22 35 35 86t13 94q0 68 -35.5 118.5t-61.5 50.5q-11 0 -17 -12t-25.5 -33.5t-41.5 -36.5q-7 -5 -7 -10t13 -5l52 3q30 0 41.5 -10.5t18.5 -39t7 -56.5 q0 -62 -30 -124q-74 96 -171.5 161t-150.5 65q-15 0 -15 -5t10 -10q71 -29 163 -107t135 -148q-16 -17 -37 -34q-73 87 -149 127t-98 40q-10 0 -10 -6.5t9 -11.5q161 -90 216 -175q-20 -17 -38 -29q-57 46 -97.5 66.5t-54.5 20.5q-5 0 -5 -4t12 -13q117 -84 164 -139l-55 7 q0 17 -17 17q-8 0 -13.5 -7.5t-15.5 -32t-29.5 -45.5t-36.5 -31t-17 -18q0 -13 17.5 -13t34.5 5q181 -24 208 -29q68 -82 79 -116q-47 9 -73.5 9t-54.5 -7q-45 45 -92 70t-61 25q-6 0 -6 -5t17 -18.5t50.5 -47t48 -54t18.5 -32.5t4 -26.5t16 -14.5t43.5 10.5t27.5 21.5 q0 8 -22.5 28t-27.5 25q40 -1 78.5 -10t56.5 -22q6 -4 19.5 -4t48.5 18t35 28t-32 17q-19 6 -59.5 33t-83.5 67q125 -17 149 -26q10 -4 18 -4q21 0 64.5 26.5t43.5 42.5q0 11 -26 19.5t-96 83.5q-17 19 -32.5 19t-19.5 -13.5t-25 -13.5q-36 0 -125 11q-27 35 -62 65 q100 48 147 103q127 -108 130 -138q3 -23 16 -23t43 15t30 25.5t-16 17.5q-45 20 -170 107zM470 458q75 -13 97.5 -13t32.5 3t16 3q12 0 31 -36.5t19 -45.5q0 -15 -24 -15q-17 0 -64.5 3.5t-89.5 9.5q21 21 21 33q0 6 -9 16t-30 42zM452 372q-116 20 -160 23q28 28 42 87 q44 -9 78 -15q29 -42 40 -95z"></path></g></g></g></g></g></g></g></g><g class="tl-box" style="transition: transform 300ms linear 0s; transform: translate(227.5px, 617.5px);"><g class=" 11" transform=""><g><g transform="scale(0.5525,0.5525)"><g transform="translate(-50, -50)"><g transform="scale(1,1)"><g><circle fill="var(--e-white-bg)" stroke="var(--e-white-bo)" stroke-width="2.3529411764705883" cx="50" cy="50" r="45"></circle><g transform="translate(14, 11)scale(0.07)"><path fill="var(--e-white-fg)" stroke="var(--e-white-bg)" stroke-width="2.3529411764705883" d="M558 527q126 -17 200 -32t101 -15t63 21t36 36q0 20 -58 20l-77 -3q-103 0 -266 18l-7 255q80 -9 108 -18t48 -9q45 0 80 20.5t35 36.5q0 20 -46 20q-12 0 -45 -4t-83 -4q-112 0 -261 31q-57 13 -75.5 13t-41.5 -16t-23 -22q0 -10 44 -12t208 -29l1 -255 q-119 14 -210.5 33t-108.5 19q-13 0 -38 -19t-25 -28t20 -9l25 2q56 0 337 -41q1 -181 -6 -243t-32 -93q-11 -14 -11 -23q0 -13 20 -13t67 15.5t47 39.5q0 10 -7.5 33.5t-11 80t-7.5 194.5z"></path></g></g></g></g></g></g></g></g><g class="tl-box" style="transition: transform 300ms linear 0s; transform: translate(292.5px, 617.5px);"><g class=" 12" transform=""><g><g transform="scale(0.5525,0.5525)"><g transform="translate(-50, -50)"><g transform="scale(1,1)"><g><circle fill="var(--e-white-bg)" stroke="var(--e-white-bo)" stroke-width="2.3529411764705883" cx="50" cy="50" r="45"></circle><g transform="translate(14, 11)scale(0.07)"><path fill="var(--e-white-fg)" stroke="var(--e-white-bg)" stroke-width="2.3529411764705883" d="M534 629q-8 1 -22.5 4t-29 3t-35 -10.5t-20.5 -15.5t16 -6q106 -6 285 -37q-2 -42 -5 -57.5t-10.5 -24.5t-9.5 -17q-55 53 -121 89t-77.5 36t-11.5 -5t7 -10q133 -79 209 -180.5t76 -116.5q0 -5 -6 -5t-13 2q-43 8 -72.5 8t-49.5 -7q-25 34 -36 47q39 3 61 18t22 35 q0 21 -14.5 21t-23.5 -11t-56 -51q-32 36 -62 60q39 3 62 22.5t23 43t-17 23.5q-12 0 -20 -13t-56 -68q-55 46 -70 46q-6 0 -6 -5.5t12 -15.5q42 -34 104.5 -125t62.5 -127q0 -8 -1.5 -17t-1.5 -13q0 -13 10.5 -13t40.5 15.5t30 31.5q0 7 -8 15q-24 28 -43 59 q37 -1 80.5 -9.5t58 -16t26 -7.5t36 17.5t24.5 27.5t-15.5 17t-65.5 72q-57 71 -85 98q17 0 47.5 12.5t30.5 28.5q0 6 -6 20t-8 41q23 -5 57.5 -13t58 -8t49 14.5t25.5 25.5q0 15 -36 15l-43 -1q-45 0 -112 5q-2 27 3.5 135.5t5.5 126.5q0 44 -19 85t-34.5 41t-24.5 -16 q-24 -41 -95 -87q-11 -7 -11 -13t6.5 -6t11.5 1q44 10 65 10t29.5 -6t9.5 -20l4 -49q2 -36 2 -69t-3 -128q-98 10 -179 25q39 22 58 42t19 38t-7 34.5t-17 16.5q-22 0 -69 -128zM378 448q-56 12 -86 22t-44 24q-8 8 -18 8t-24 -18.5t-14 -29t10 -17.5t16 -26t6 -42 q0 -53 -27 -76q-12 -10 -12 -19.5t14 -9.5t46.5 16t32.5 33q0 5 -3.5 12t-6.5 41.5t-1 71.5q55 -14 111 -18q2 -98 -2 -154.5t-19 -74.5q-9 -11 -9 -20t14 -9t49 17.5t35 36.5q0 6 -7 25t-10.5 57.5t-8.5 213.5t-5.5 268.5t-7.5 130t-22 36.5t-29 -28t-14 -45.5t9.5 -42.5 t15 -77.5t8.5 -171.5q-73 16 -114 27q21 19 21 28t-4.5 21t-15.5 57.5t-32 79t-63 65.5t-51 32t-9 -4.5t9 -12.5q50 -45 81 -116.5t29 -137.5q-31 9 -55 18.5t-40.5 9.5t-38.5 -18.5t-22 -25.5t5.5 -8t31.5 -1q70 0 269 -42q0 -35 2 -106z"></path></g></g></g></g></g></g></g></g><g class="tl-box" style="transition: transform 300ms linear 0s; transform: translate(357.5px, 617.5px);"><g class=" 13" transform=""><g><g transform="scale(0.5525,0.5525)"><g transform="translate(-50, -50)"><g transform="scale(1,1)"><g><circle fill="var(--e-white-bg)" stroke="var(--e-white-bo)" stroke-width="2.3529411764705883" cx="50" cy="50" r="45"></circle><g transform="translate(14, 11)scale(0.07)"><path fill="var(--e-white-fg)" stroke="var(--e-white-bg)" stroke-width="2.3529411764705883" d="M558 527q126 -17 200 -32t101 -15t63 21t36 36q0 20 -58 20l-77 -3q-103 0 -266 18l-7 255q80 -9 108 -18t48 -9q45 0 80 20.5t35 36.5q0 20 -46 20q-12 0 -45 -4t-83 -4q-112 0 -261 31q-57 13 -75.5 13t-41.5 -16t-23 -22q0 -10 44 -12t208 -29l1 -255 q-119 14 -210.5 33t-108.5 19q-13 0 -38 -19t-25 -28t20 -9l25 2q56 0 337 -41q1 -181 -6 -243t-32 -93q-11 -14 -11 -23q0 -13 20 -13t67 15.5t47 39.5q0 10 -7.5 33.5t-11 80t-7.5 194.5z"></path></g></g></g></g></g></g></g></g><g class="tl-box" style="transition: transform 300ms linear 0s; transform: translate(422.5px, 617.5px);"><g class=" 14" transform=""><g><g transform="scale(0.5525,0.5525)"><g transform="translate(-50, -50)"><g transform="scale(1,1)"><g><circle fill="var(--e-white-bg)" stroke="var(--e-white-bo)" stroke-width="2.3529411764705883" cx="50" cy="50" r="45"></circle><g transform="translate(14, 11)scale(0.07)"><path fill="var(--e-white-fg)" stroke="var(--e-white-bg)" stroke-width="2.3529411764705883" d="M567 658q102 57 195.5 88t220.5 39q21 2 21 11q0 6 -12.5 11.5t-83 20.5t-99.5 15t-52 -14.5t-97 -70.5t-113 -88q22 35 35 86t13 94q0 68 -35.5 118.5t-61.5 50.5q-11 0 -17 -12t-25.5 -33.5t-41.5 -36.5q-7 -5 -7 -10t13 -5l52 3q30 0 41.5 -10.5t18.5 -39t7 -56.5 q0 -62 -30 -124q-74 96 -171.5 161t-150.5 65q-15 0 -15 -5t10 -10q71 -29 163 -107t135 -148q-16 -17 -37 -34q-73 87 -149 127t-98 40q-10 0 -10 -6.5t9 -11.5q161 -90 216 -175q-20 -17 -38 -29q-57 46 -97.5 66.5t-54.5 20.5q-5 0 -5 -4t12 -13q117 -84 164 -139l-55 7 q0 17 -17 17q-8 0 -13.5 -7.5t-15.5 -32t-29.5 -45.5t-36.5 -31t-17 -18q0 -13 17.5 -13t34.5 5q181 -24 208 -29q68 -82 79 -116q-47 9 -73.5 9t-54.5 -7q-45 45 -92 70t-61 25q-6 0 -6 -5t17 -18.5t50.5 -47t48 -54t18.5 -32.5t4 -26.5t16 -14.5t43.5 10.5t27.5 21.5 q0 8 -22.5 28t-27.5 25q40 -1 78.5 -10t56.5 -22q6 -4 19.5 -4t48.5 18t35 28t-32 17q-19 6 -59.5 33t-83.5 67q125 -17 149 -26q10 -4 18 -4q21 0 64.5 26.5t43.5 42.5q0 11 -26 19.5t-96 83.5q-17 19 -32.5 19t-19.5 -13.5t-25 -13.5q-36 0 -125 11q-27 35 -62 65 q100 48 147 103q127 -108 130 -138q3 -23 16 -23t43 15t30 25.5t-16 17.5q-45 20 -170 107zM470 458q75 -13 97.5 -13t32.5 3t16 3q12 0 31 -36.5t19 -45.5q0 -15 -24 -15q-17 0 -64.5 3.5t-89.5 9.5q21 21 21 33q0 6 -9 16t-30 42zM452 372q-116 20 -160 23q28 28 42 87 q44 -9 78 -15q29 -42 40 -95z"></path></g></g></g></g></g></g></g></g><g class="tl-box" style="transition: transform 300ms linear 0s; transform: translate(487.5px, 617.5px);"><g class=" 15" transform=""><g><g transform="scale(0.5525,0.5525)"><g transform="translate(-50, -50)"><g transform="scale(1,1)"><g><circle fill="var(--e-white-bg)" stroke="var(--e-white-bo)" stroke-width="2.3529411764705883" cx="50" cy="50" r="45"></circle><g transform="translate(14, 11)scale(0.07)"><path fill="var(--e-white-fg)" stroke="var(--e-white-bg)" stroke-width="2.3529411764705883" d="M537 571q148 -20 189 -34q18 -5 32.5 -5t58 22.5t43.5 32t-9 22t-12.5 32t-7.5 71.5q-7 103 -36.5 168t-64 87.5t-44.5 22.5q-9 0 -12.5 -24t-18 -48t-39 -51t-24.5 -29.5t4 -2.5t19 6q67 29 86.5 29t25.5 -10.5t26 -68.5t20 -111t-12.5 -75t-60 -22t-129.5 13.5 t-147.5 26t-79 17.5t-20.5 16t-15 11t-21 -21.5t-13 -39t3 -30.5q15 -70 15 -185.5t-16 -136.5q-11 -16 -11 -26t10.5 -10t36 10.5t28.5 17.5q151 -17 241 -47q43 -13 90 -13t47 16q0 14 -41.5 25.5t-133.5 24.5l-2 81q66 -19 82.5 -19t28 6.5t11.5 13.5q0 12 -38 18.5 t-85 16.5l-2 74q65 -19 90 -19q30 0 30 16q0 8 -8.5 13.5t-39.5 11.5q-51 11 -72 17zM346 268q-8 120 -15 331q90 -10 159 -21q3 -46 3 -84q-40 9 -57.5 9t-39.5 -4.5t-22 -10.5t19 -10q53 -8 100 -20q0 -56 -1 -78q-53 12 -71 12t-34.5 -8t-16.5 -13t19.5 -7.5t100.5 -17.5 q0 -43 -3 -86q-74 9 -100.5 9t-40.5 -1zM561 672q14 0 55.5 24t41.5 60q0 12 -4.5 25.5t-15.5 13.5q-21 0 -51.5 -51t-30.5 -67q0 -5 5 -5zM153 843q0 -14 13.5 -45t20 -49t9 -39.5t8.5 -21.5t16.5 23t10.5 62.5t-19.5 76t-30 36.5t-19.5 -14t-9 -29zM423 693q17 0 44 19.5 t27 48.5q0 14 -8 26.5t-15.5 12.5t-14.5 -8.5t-23.5 -46t-16.5 -45t7 -7.5zM305 714q16 0 36 26.5t20 56.5q0 15 -7 23t-16.5 8t-17.5 -14t-16 -45.5t-8 -43t9 -11.5z"></path></g></g></g></g></g></g></g></g><g class="tl-box" style="transition: transform 300ms linear 0s; transform: translate(552.5px, 617.5px);"><g class=" 16" transform=""><g><g transform="scale(0.5525,0.5525)"><g transform="translate(-50, -50)"><g transform="scale(1,1)"><g><circle fill="var(--e-white-bg)" stroke="var(--e-white-bo)" stroke-width="2.3529411764705883" cx="50" cy="50" r="45"></circle><g transform="translate(14, 11)scale(0.07)"><path fill="var(--e-white-fg)" stroke="var(--e-white-bg)" stroke-width="2.3529411764705883" d="M488 317q-51 7 -81.5 7t-56 -6.5t-25.5 -14t19 -8.5q54 -4 143 -22q-1 -53 -7 -75t-21 -39q-8 -10 -8 -19t18 -9t53.5 13t35.5 34q0 6 -3 13q-9 21 -11 71q51 -11 77.5 -18t41 -7t31.5 7t17 17.5t-23.5 18.5t-143.5 27q2 49 2 79q96 -17 121 -26q16 -6 32 -6t54.5 23 t38.5 38q0 8 -11 18.5t-19.5 29t-21 61t-30 73t-35.5 30.5q-12 0 -18 -11q-5 -8 -21.5 -8t-89.5 10v85q106 -13 161.5 -21.5t77 -12t42 -3.5t50 20t29.5 36q0 18 -34 15q-86 -9 -150.5 -9t-175.5 12q0 138 -8 211t-23 73q-4 0 -8 -5t-8 -38.5t-5 -69.5l-1 -166 q-196 23 -238.5 33.5t-61.5 10.5t-43.5 -15.5t-24.5 -22.5t6 -8t37 -1t132 -10t193 -23v-84l-109 17q2 15 -16 15q-8 0 -21.5 -24t-22.5 -61q-23 -98 -48 -128q-12 -14 -12 -23.5t18.5 -9.5t48.5 8l157 -25q-1 -39 -1 -77zM547 474q22 -4 51 -4t29 15q0 8 -11 16t-69 19 q2 31 0 66q94 -14 118 -13q15 1 19.5 -6.5t17.5 -61.5t13 -72t-6 -23t-24 -5q-58 0 -118 9v60zM493 529q-32 4 -50.5 4t-27.5 -7t-9 -11t14 -7t72 -17q-1 -50 -2 -68q-58 8 -136 26q14 71 28 161l111 -16v-65z"></path></g></g></g></g></g></g></g></g><g class="tl-box" style="transition: transform 300ms linear 0s; transform: translate(32.5px, 227.5px);"><g class=" 17" transform=""><g><g transform="scale(0.5525,0.5525)"><g transform="translate(-50, -50)"><g transform="scale(1,1)"><g><circle fill="var(--e-black-bg)" stroke="var(--e-black-bo)" stroke-width="2.3529411764705883" cx="50" cy="50" r="45"></circle><g transform="translate(14, 11)scale(0.07)"><path fill="var(--e-black-fg)" stroke="var(--e-black-bg)" stroke-width="2.3529411764705883" d="M593 185q0 20 -9 34.5t-22 14.5t-24 -11t-33 -52.5t-22 -47.5t10 -6q22 0 61 16.5t39 51.5zM755 210q23 0 37.5 9t14.5 14q0 10 -24.5 20t-73.5 15l-143 15q-91 10 -130 17t-74 7t-57 -13t-22 -19t21 -7q59 -2 187 -19t185.5 -28t78.5 -11zM655 421q82 23 109 39.5 t27 44.5t-21 28q-17 0 -37 -20l-87 -82q-32 38 -65.5 62.5t-44 24.5t-10.5 -5t9 -14q34 -30 67.5 -87t30.5 -70t-3 -20q0 -16 13.5 -16t43 12.5t29.5 23.5t-14 22t-47 57zM382 452q52 16 66.5 32t14.5 34t-6.5 26t-16.5 8t-16 -6.5t-54 -80.5q-51 57 -87.5 78.5t-51.5 21.5 q-5 0 -5 -4t11 -14q58 -51 97 -114.5t34 -84.5q-1 -5 -1 -9q0 -14 14 -14t42 16t28 27t-13 20.5t-56 63.5zM558 600q177 -19 226 -26.5t81 -7.5t68.5 18.5t36.5 37.5q0 24 -54 24q-28 0 -65.5 -7.5t-111 -7.5t-181.5 9q3 219 -8.5 313t-28.5 94q-9 0 -16.5 -31.5 t-7.5 -111.5l2 -258q-186 20 -254.5 36.5t-91.5 16.5t-49 -17.5t-26 -26t29 -8.5q41 0 392 -39q-2 -53 -7 -62t-5 -16q0 -14 18.5 -14t38.5 10.5t20 30.5q0 6 -3 16t-3 27z"></path></g></g></g></g></g></g></g></g><g class="tl-box" style="transition: transform 300ms linear 0s; transform: translate(162.5px, 227.5px);"><g class=" 18" transform=""><g><g transform="scale(0.5525,0.5525)"><g transform="translate(-50, -50)"><g transform="scale(1,1)"><g><circle fill="var(--e-black-bg)" stroke="var(--e-black-bo)" stroke-width="2.3529411764705883" cx="50" cy="50" r="45"></circle><g transform="translate(14, 11)scale(0.07)"><path fill="var(--e-black-fg)" stroke="var(--e-black-bg)" stroke-width="2.3529411764705883" d="M593 185q0 20 -9 34.5t-22 14.5t-24 -11t-33 -52.5t-22 -47.5t10 -6q22 0 61 16.5t39 51.5zM755 210q23 0 37.5 9t14.5 14q0 10 -24.5 20t-73.5 15l-143 15q-91 10 -130 17t-74 7t-57 -13t-22 -19t21 -7q59 -2 187 -19t185.5 -28t78.5 -11zM655 421q82 23 109 39.5 t27 44.5t-21 28q-17 0 -37 -20l-87 -82q-32 38 -65.5 62.5t-44 24.5t-10.5 -5t9 -14q34 -30 67.5 -87t30.5 -70t-3 -20q0 -16 13.5 -16t43 12.5t29.5 23.5t-14 22t-47 57zM382 452q52 16 66.5 32t14.5 34t-6.5 26t-16.5 8t-16 -6.5t-54 -80.5q-51 57 -87.5 78.5t-51.5 21.5 q-5 0 -5 -4t11 -14q58 -51 97 -114.5t34 -84.5q-1 -5 -1 -9q0 -14 14 -14t42 16t28 27t-13 20.5t-56 63.5zM558 600q177 -19 226 -26.5t81 -7.5t68.5 18.5t36.5 37.5q0 24 -54 24q-28 0 -65.5 -7.5t-111 -7.5t-181.5 9q3 219 -8.5 313t-28.5 94q-9 0 -16.5 -31.5 t-7.5 -111.5l2 -258q-186 20 -254.5 36.5t-91.5 16.5t-49 -17.5t-26 -26t29 -8.5q41 0 392 -39q-2 -53 -7 -62t-5 -16q0 -14 18.5 -14t38.5 10.5t20 30.5q0 6 -3 16t-3 27z"></path></g></g></g></g></g></g></g></g><g class="tl-box" style="transition: transform 300ms linear 0s; transform: translate(292.5px, 227.5px);"><g class=" 19" transform=""><g><g transform="scale(0.5525,0.5525)"><g transform="translate(-50, -50)"><g transform="scale(1,1)"><g><circle fill="var(--e-black-bg)" stroke="var(--e-black-bo)" stroke-width="2.3529411764705883" cx="50" cy="50" r="45"></circle><g transform="translate(14, 11)scale(0.07)"><path fill="var(--e-black-fg)" stroke="var(--e-black-bg)" stroke-width="2.3529411764705883" d="M593 185q0 20 -9 34.5t-22 14.5t-24 -11t-33 -52.5t-22 -47.5t10 -6q22 0 61 16.5t39 51.5zM755 210q23 0 37.5 9t14.5 14q0 10 -24.5 20t-73.5 15l-143 15q-91 10 -130 17t-74 7t-57 -13t-22 -19t21 -7q59 -2 187 -19t185.5 -28t78.5 -11zM655 421q82 23 109 39.5 t27 44.5t-21 28q-17 0 -37 -20l-87 -82q-32 38 -65.5 62.5t-44 24.5t-10.5 -5t9 -14q34 -30 67.5 -87t30.5 -70t-3 -20q0 -16 13.5 -16t43 12.5t29.5 23.5t-14 22t-47 57zM382 452q52 16 66.5 32t14.5 34t-6.5 26t-16.5 8t-16 -6.5t-54 -80.5q-51 57 -87.5 78.5t-51.5 21.5 q-5 0 -5 -4t11 -14q58 -51 97 -114.5t34 -84.5q-1 -5 -1 -9q0 -14 14 -14t42 16t28 27t-13 20.5t-56 63.5zM558 600q177 -19 226 -26.5t81 -7.5t68.5 18.5t36.5 37.5q0 24 -54 24q-28 0 -65.5 -7.5t-111 -7.5t-181.5 9q3 219 -8.5 313t-28.5 94q-9 0 -16.5 -31.5 t-7.5 -111.5l2 -258q-186 20 -254.5 36.5t-91.5 16.5t-49 -17.5t-26 -26t29 -8.5q41 0 392 -39q-2 -53 -7 -62t-5 -16q0 -14 18.5 -14t38.5 10.5t20 30.5q0 6 -3 16t-3 27z"></path></g></g></g></g></g></g></g></g><g class="tl-box" style="transition: transform 300ms linear 0s; transform: translate(422.5px, 227.5px);"><g class=" 20" transform=""><g><g transform="scale(0.5525,0.5525)"><g transform="translate(-50, -50)"><g transform="scale(1,1)"><g><circle fill="var(--e-black-bg)" stroke="var(--e-black-bo)" stroke-width="2.3529411764705883" cx="50" cy="50" r="45"></circle><g transform="translate(14, 11)scale(0.07)"><path fill="var(--e-black-fg)" stroke="var(--e-black-bg)" stroke-width="2.3529411764705883" d="M593 185q0 20 -9 34.5t-22 14.5t-24 -11t-33 -52.5t-22 -47.5t10 -6q22 0 61 16.5t39 51.5zM755 210q23 0 37.5 9t14.5 14q0 10 -24.5 20t-73.5 15l-143 15q-91 10 -130 17t-74 7t-57 -13t-22 -19t21 -7q59 -2 187 -19t185.5 -28t78.5 -11zM655 421q82 23 109 39.5 t27 44.5t-21 28q-17 0 -37 -20l-87 -82q-32 38 -65.5 62.5t-44 24.5t-10.5 -5t9 -14q34 -30 67.5 -87t30.5 -70t-3 -20q0 -16 13.5 -16t43 12.5t29.5 23.5t-14 22t-47 57zM382 452q52 16 66.5 32t14.5 34t-6.5 26t-16.5 8t-16 -6.5t-54 -80.5q-51 57 -87.5 78.5t-51.5 21.5 q-5 0 -5 -4t11 -14q58 -51 97 -114.5t34 -84.5q-1 -5 -1 -9q0 -14 14 -14t42 16t28 27t-13 20.5t-56 63.5zM558 600q177 -19 226 -26.5t81 -7.5t68.5 18.5t36.5 37.5q0 24 -54 24q-28 0 -65.5 -7.5t-111 -7.5t-181.5 9q3 219 -8.5 313t-28.5 94q-9 0 -16.5 -31.5 t-7.5 -111.5l2 -258q-186 20 -254.5 36.5t-91.5 16.5t-49 -17.5t-26 -26t29 -8.5q41 0 392 -39q-2 -53 -7 -62t-5 -16q0 -14 18.5 -14t38.5 10.5t20 30.5q0 6 -3 16t-3 27z"></path></g></g></g></g></g></g></g></g><g class="tl-box" style="transition: transform 300ms linear 0s; transform: translate(552.5px, 227.5px);"><g class=" 21" transform=""><g><g transform="scale(0.5525,0.5525)"><g transform="translate(-50, -50)"><g transform="scale(1,1)"><g><circle fill="var(--e-black-bg)" stroke="var(--e-black-bo)" stroke-width="2.3529411764705883" cx="50" cy="50" r="45"></circle><g transform="translate(14, 11)scale(0.07)"><path fill="var(--e-black-fg)" stroke="var(--e-black-bg)" stroke-width="2.3529411764705883" d="M593 185q0 20 -9 34.5t-22 14.5t-24 -11t-33 -52.5t-22 -47.5t10 -6q22 0 61 16.5t39 51.5zM755 210q23 0 37.5 9t14.5 14q0 10 -24.5 20t-73.5 15l-143 15q-91 10 -130 17t-74 7t-57 -13t-22 -19t21 -7q59 -2 187 -19t185.5 -28t78.5 -11zM655 421q82 23 109 39.5 t27 44.5t-21 28q-17 0 -37 -20l-87 -82q-32 38 -65.5 62.5t-44 24.5t-10.5 -5t9 -14q34 -30 67.5 -87t30.5 -70t-3 -20q0 -16 13.5 -16t43 12.5t29.5 23.5t-14 22t-47 57zM382 452q52 16 66.5 32t14.5 34t-6.5 26t-16.5 8t-16 -6.5t-54 -80.5q-51 57 -87.5 78.5t-51.5 21.5 q-5 0 -5 -4t11 -14q58 -51 97 -114.5t34 -84.5q-1 -5 -1 -9q0 -14 14 -14t42 16t28 27t-13 20.5t-56 63.5zM558 600q177 -19 226 -26.5t81 -7.5t68.5 18.5t36.5 37.5q0 24 -54 24q-28 0 -65.5 -7.5t-111 -7.5t-181.5 9q3 219 -8.5 313t-28.5 94q-9 0 -16.5 -31.5 t-7.5 -111.5l2 -258q-186 20 -254.5 36.5t-91.5 16.5t-49 -17.5t-26 -26t29 -8.5q41 0 392 -39q-2 -53 -7 -62t-5 -16q0 -14 18.5 -14t38.5 10.5t20 30.5q0 6 -3 16t-3 27z"></path></g></g></g></g></g></g></g></g><g class="tl-box" style="transition: transform 300ms linear 0s; transform: translate(97.5px, 162.5px);"><g class=" 22" transform=""><g><g transform="scale(0.5525,0.5525)"><g transform="translate(-50, -50)"><g transform="scale(1,1)"><g><circle fill="var(--e-black-bg)" stroke="var(--e-black-bo)" stroke-width="2.3529411764705883" cx="50" cy="50" r="45"></circle><g transform="translate(14, 11)scale(0.07)"><path fill="var(--e-black-fg)" stroke="var(--e-black-bg)" stroke-width="2.3529411764705883" d="M557 397q-25 35 -58.5 63.5t-44.5 28.5q-4 0 -4 -5t10 -17q60 -77 94 -149t34 -111q0 -8 -2.5 -16t-2.5 -18t14 -10t46.5 17t32.5 34q0 10 -14 22.5t-38.5 56.5t-47.5 78q36 -1 85.5 -13.5t73.5 -25t38 -12.5t47.5 16.5t33.5 28t-13 26.5q-16 18 -26 77 q-19 116 -27.5 154t-16.5 52t-25 28t-29.5 14t-16.5 -16q-7 -30 -22.5 -48t-15.5 -23t5.5 -5t17.5 4.5t20 4.5q25 0 37.5 -79.5t12.5 -151.5q0 -23 -15 -23q-5 0 -12 2q-93 18 -125 18t-46 -2zM197 641q-43 66 -93 107t-62 41q-6 0 -6 -5.5t7 -12.5q88 -98 141 -198 q-8 -26 -8 -36.5t7.5 -10.5t20.5 6q53 -111 53 -158q0 -9 -1 -17q-35 3 -68 3t-46 -7t-13 -14t23.5 -8.5t85.5 -14t109 -28.5t66 -16t33.5 8.5t14.5 15.5t-9.5 14.5t-67 22.5t-95.5 20q44 28 44 45q0 9 -11 22q-32 33 -70 119q53 -7 72.5 -19t31.5 -12t39.5 13t27.5 22.5 t-10.5 24t-16 30t-22.5 70.5q24 15 24 25t-9.5 15t-54.5 13t-92 10q3 54 -7 69.5t-17 15.5q-11 0 -12 -44q-1 -68 -9 -131zM237 568l-1 3q1 79 4 130q64 -11 74.5 -16.5t17 -32t6.5 -51.5t-5.5 -33.5t-20 -8.5t-75.5 9zM519 689q-3 110 24.5 151t121.5 41q65 0 117.5 -12 t74 -24t33 -39t26.5 -95q4 -18 9.5 -18t6.5 25t7 62t10.5 49t4.5 20q0 39 -84.5 66t-165.5 27t-134.5 -21t-73 -60t-19.5 -123l2 -82q0 -38 -3 -68t-8.5 -38t-5.5 -16t13.5 -8t41.5 11q53 -8 77 -32q6 -6 16.5 -6t39.5 15.5t29 30.5q0 7 -8 15q-33 33 -33 67q13 13 13 22.5 t-10 15t-52 15.5t-70 9zM522 559l-3 105q22 -2 42 -10.5t22.5 -14.5t8 -31t5.5 -39q0 -17 -11 -17q-3 0 -7 1q-26 6 -57 6z"></path></g></g></g></g></g></g></g></g><g class="tl-box" style="transition: transform 300ms linear 0s; transform: translate(487.5px, 162.5px);"><g class=" 23" transform=""><g><g transform="scale(0.5525,0.5525)"><g transform="translate(-50, -50)"><g transform="scale(1,1)"><g><circle fill="var(--e-black-bg)" stroke="var(--e-black-bo)" stroke-width="2.3529411764705883" cx="50" cy="50" r="45"></circle><g transform="translate(14, 11)scale(0.07)"><path fill="var(--e-black-fg)" stroke="var(--e-black-bg)" stroke-width="2.3529411764705883" d="M557 397q-25 35 -58.5 63.5t-44.5 28.5q-4 0 -4 -5t10 -17q60 -77 94 -149t34 -111q0 -8 -2.5 -16t-2.5 -18t14 -10t46.5 17t32.5 34q0 10 -14 22.5t-38.5 56.5t-47.5 78q36 -1 85.5 -13.5t73.5 -25t38 -12.5t47.5 16.5t33.5 28t-13 26.5q-16 18 -26 77 q-19 116 -27.5 154t-16.5 52t-25 28t-29.5 14t-16.5 -16q-7 -30 -22.5 -48t-15.5 -23t5.5 -5t17.5 4.5t20 4.5q25 0 37.5 -79.5t12.5 -151.5q0 -23 -15 -23q-5 0 -12 2q-93 18 -125 18t-46 -2zM197 641q-43 66 -93 107t-62 41q-6 0 -6 -5.5t7 -12.5q88 -98 141 -198 q-8 -26 -8 -36.5t7.5 -10.5t20.5 6q53 -111 53 -158q0 -9 -1 -17q-35 3 -68 3t-46 -7t-13 -14t23.5 -8.5t85.5 -14t109 -28.5t66 -16t33.5 8.5t14.5 15.5t-9.5 14.5t-67 22.5t-95.5 20q44 28 44 45q0 9 -11 22q-32 33 -70 119q53 -7 72.5 -19t31.5 -12t39.5 13t27.5 22.5 t-10.5 24t-16 30t-22.5 70.5q24 15 24 25t-9.5 15t-54.5 13t-92 10q3 54 -7 69.5t-17 15.5q-11 0 -12 -44q-1 -68 -9 -131zM237 568l-1 3q1 79 4 130q64 -11 74.5 -16.5t17 -32t6.5 -51.5t-5.5 -33.5t-20 -8.5t-75.5 9zM519 689q-3 110 24.5 151t121.5 41q65 0 117.5 -12 t74 -24t33 -39t26.5 -95q4 -18 9.5 -18t6.5 25t7 62t10.5 49t4.5 20q0 39 -84.5 66t-165.5 27t-134.5 -21t-73 -60t-19.5 -123l2 -82q0 -38 -3 -68t-8.5 -38t-5.5 -16t13.5 -8t41.5 11q53 -8 77 -32q6 -6 16.5 -6t39.5 15.5t29 30.5q0 7 -8 15q-33 33 -33 67q13 13 13 22.5 t-10 15t-52 15.5t-70 9zM522 559l-3 105q22 -2 42 -10.5t22.5 -14.5t8 -31t5.5 -39q0 -17 -11 -17q-3 0 -7 1q-26 6 -57 6z"></path></g></g></g></g></g></g></g></g><g class="tl-box" style="transition: transform 300ms linear 0s; transform: translate(32.5px, 32.5px);"><g class=" 24" transform=""><g><g transform="scale(0.5525,0.5525)"><g transform="translate(-50, -50)"><g transform="scale(1,1)"><g><circle fill="var(--e-black-bg)" stroke="var(--e-black-bo)" stroke-width="2.3529411764705883" cx="50" cy="50" r="45"></circle><g transform="translate(14, 11)scale(0.07)"><path fill="var(--e-black-fg)" stroke="var(--e-black-bg)" stroke-width="2.3529411764705883" d="M488 317q-51 7 -81.5 7t-56 -6.5t-25.5 -14t19 -8.5q54 -4 143 -22q-1 -53 -7 -75t-21 -39q-8 -10 -8 -19t18 -9t53.5 13t35.5 34q0 6 -3 13q-9 21 -11 71q51 -11 77.5 -18t41 -7t31.5 7t17 17.5t-23.5 18.5t-143.5 27q2 49 2 79q96 -17 121 -26q16 -6 32 -6t54.5 23 t38.5 38q0 8 -11 18.5t-19.5 29t-21 61t-30 73t-35.5 30.5q-12 0 -18 -11q-5 -8 -21.5 -8t-89.5 10v85q106 -13 161.5 -21.5t77 -12t42 -3.5t50 20t29.5 36q0 18 -34 15q-86 -9 -150.5 -9t-175.5 12q0 138 -8 211t-23 73q-4 0 -8 -5t-8 -38.5t-5 -69.5l-1 -166 q-196 23 -238.5 33.5t-61.5 10.5t-43.5 -15.5t-24.5 -22.5t6 -8t37 -1t132 -10t193 -23v-84l-109 17q2 15 -16 15q-8 0 -21.5 -24t-22.5 -61q-23 -98 -48 -128q-12 -14 -12 -23.5t18.5 -9.5t48.5 8l157 -25q-1 -39 -1 -77zM547 474q22 -4 51 -4t29 15q0 8 -11 16t-69 19 q2 31 0 66q94 -14 118 -13q15 1 19.5 -6.5t17.5 -61.5t13 -72t-6 -23t-24 -5q-58 0 -118 9v60zM493 529q-32 4 -50.5 4t-27.5 -7t-9 -11t14 -7t72 -17q-1 -50 -2 -68q-58 8 -136 26q14 71 28 161l111 -16v-65z"></path></g></g></g></g></g></g></g></g><g class="tl-box" style="transition: transform 300ms linear 0s; transform: translate(97.5px, 32.5px);"><g class=" 25" transform=""><g><g transform="scale(0.5525,0.5525)"><g transform="translate(-50, -50)"><g transform="scale(1,1)"><g><circle fill="var(--e-black-bg)" stroke="var(--e-black-bo)" stroke-width="2.3529411764705883" cx="50" cy="50" r="45"></circle><g transform="translate(14, 11)scale(0.07)"><path fill="var(--e-black-fg)" stroke="var(--e-black-bg)" stroke-width="2.3529411764705883" d="M537 571q148 -20 189 -34q18 -5 32.5 -5t58 22.5t43.5 32t-9 22t-12.5 32t-7.5 71.5q-7 103 -36.5 168t-64 87.5t-44.5 22.5q-9 0 -12.5 -24t-18 -48t-39 -51t-24.5 -29.5t4 -2.5t19 6q67 29 86.5 29t25.5 -10.5t26 -68.5t20 -111t-12.5 -75t-60 -22t-129.5 13.5 t-147.5 26t-79 17.5t-20.5 16t-15 11t-21 -21.5t-13 -39t3 -30.5q15 -70 15 -185.5t-16 -136.5q-11 -16 -11 -26t10.5 -10t36 10.5t28.5 17.5q151 -17 241 -47q43 -13 90 -13t47 16q0 14 -41.5 25.5t-133.5 24.5l-2 81q66 -19 82.5 -19t28 6.5t11.5 13.5q0 12 -38 18.5 t-85 16.5l-2 74q65 -19 90 -19q30 0 30 16q0 8 -8.5 13.5t-39.5 11.5q-51 11 -72 17zM346 268q-8 120 -15 331q90 -10 159 -21q3 -46 3 -84q-40 9 -57.5 9t-39.5 -4.5t-22 -10.5t19 -10q53 -8 100 -20q0 -56 -1 -78q-53 12 -71 12t-34.5 -8t-16.5 -13t19.5 -7.5t100.5 -17.5 q0 -43 -3 -86q-74 9 -100.5 9t-40.5 -1zM561 672q14 0 55.5 24t41.5 60q0 12 -4.5 25.5t-15.5 13.5q-21 0 -51.5 -51t-30.5 -67q0 -5 5 -5zM153 843q0 -14 13.5 -45t20 -49t9 -39.5t8.5 -21.5t16.5 23t10.5 62.5t-19.5 76t-30 36.5t-19.5 -14t-9 -29zM423 693q17 0 44 19.5 t27 48.5q0 14 -8 26.5t-15.5 12.5t-14.5 -8.5t-23.5 -46t-16.5 -45t7 -7.5zM305 714q16 0 36 26.5t20 56.5q0 15 -7 23t-16.5 8t-17.5 -14t-16 -45.5t-8 -43t9 -11.5z"></path></g></g></g></g></g></g></g></g><g class="tl-box" style="transition: transform 300ms linear 0s; transform: translate(162.5px, 32.5px);"><g class=" 26" transform=""><g><g transform="scale(0.5525,0.5525)"><g transform="translate(-50, -50)"><g transform="scale(1,1)"><g><circle fill="var(--e-black-bg)" stroke="var(--e-black-bo)" stroke-width="2.3529411764705883" cx="50" cy="50" r="45"></circle><g transform="translate(14, 11)scale(0.07)"><path fill="var(--e-black-fg)" stroke="var(--e-black-bg)" stroke-width="2.3529411764705883" d="M567 658q102 57 195.5 88t220.5 39q21 2 21 11q0 6 -12.5 11.5t-83 20.5t-99.5 15t-52 -14.5t-97 -70.5t-113 -88q22 35 35 86t13 94q0 68 -35.5 118.5t-61.5 50.5q-11 0 -17 -12t-25.5 -33.5t-41.5 -36.5q-7 -5 -7 -10t13 -5l52 3q30 0 41.5 -10.5t18.5 -39t7 -56.5 q0 -62 -30 -124q-74 96 -171.5 161t-150.5 65q-15 0 -15 -5t10 -10q71 -29 163 -107t135 -148q-16 -17 -37 -34q-73 87 -149 127t-98 40q-10 0 -10 -6.5t9 -11.5q161 -90 216 -175q-20 -17 -38 -29q-57 46 -97.5 66.5t-54.5 20.5q-5 0 -5 -4t12 -13q117 -84 164 -139l-55 7 q0 17 -17 17q-8 0 -13.5 -7.5t-15.5 -32t-29.5 -45.5t-36.5 -31t-17 -18q0 -13 17.5 -13t34.5 5q181 -24 208 -29q68 -82 79 -116q-47 9 -73.5 9t-54.5 -7q-45 45 -92 70t-61 25q-6 0 -6 -5t17 -18.5t50.5 -47t48 -54t18.5 -32.5t4 -26.5t16 -14.5t43.5 10.5t27.5 21.5 q0 8 -22.5 28t-27.5 25q40 -1 78.5 -10t56.5 -22q6 -4 19.5 -4t48.5 18t35 28t-32 17q-19 6 -59.5 33t-83.5 67q125 -17 149 -26q10 -4 18 -4q21 0 64.5 26.5t43.5 42.5q0 11 -26 19.5t-96 83.5q-17 19 -32.5 19t-19.5 -13.5t-25 -13.5q-36 0 -125 11q-27 35 -62 65 q100 48 147 103q127 -108 130 -138q3 -23 16 -23t43 15t30 25.5t-16 17.5q-45 20 -170 107zM470 458q75 -13 97.5 -13t32.5 3t16 3q12 0 31 -36.5t19 -45.5q0 -15 -24 -15q-17 0 -64.5 3.5t-89.5 9.5q21 21 21 33q0 6 -9 16t-30 42zM452 372q-116 20 -160 23q28 28 42 87 q44 -9 78 -15q29 -42 40 -95z"></path></g></g></g></g></g></g></g></g><g class="tl-box" style="transition: transform 300ms linear 0s; transform: translate(227.5px, 32.5px);"><g class=" 27" transform=""><g><g transform="scale(0.5525,0.5525)"><g transform="translate(-50, -50)"><g transform="scale(1,1)"><g><circle fill="var(--e-black-bg)" stroke="var(--e-black-bo)" stroke-width="2.3529411764705883" cx="50" cy="50" r="45"></circle><g transform="translate(14, 11)scale(0.07)"><path fill="var(--e-black-fg)" stroke="var(--e-black-bg)" stroke-width="2.3529411764705883" d="M558 527q126 -17 200 -32t101 -15t63 21t36 36q0 20 -58 20l-77 -3q-103 0 -266 18l-7 255q80 -9 108 -18t48 -9q45 0 80 20.5t35 36.5q0 20 -46 20q-12 0 -45 -4t-83 -4q-112 0 -261 31q-57 13 -75.5 13t-41.5 -16t-23 -22q0 -10 44 -12t208 -29l1 -255 q-119 14 -210.5 33t-108.5 19q-13 0 -38 -19t-25 -28t20 -9l25 2q56 0 337 -41q1 -181 -6 -243t-32 -93q-11 -14 -11 -23q0 -13 20 -13t67 15.5t47 39.5q0 10 -7.5 33.5t-11 80t-7.5 194.5z"></path></g></g></g></g></g></g></g></g><g class="tl-box" style="transition: transform 300ms linear 0s; transform: translate(292.5px, 32.5px);"><g class=" 28" transform=""><g><g transform="scale(0.5525,0.5525)"><g transform="translate(-50, -50)"><g transform="scale(1,1)"><g><circle fill="var(--e-black-bg)" stroke="var(--e-black-bo)" stroke-width="2.3529411764705883" cx="50" cy="50" r="45"></circle><g transform="translate(14, 11)scale(0.07)"><path fill="var(--e-black-fg)" stroke="var(--e-black-bg)" stroke-width="2.3529411764705883" d="M534 629q-8 1 -22.5 4t-29 3t-35 -10.5t-20.5 -15.5t16 -6q106 -6 285 -37q-2 -42 -5 -57.5t-10.5 -24.5t-9.5 -17q-55 53 -121 89t-77.5 36t-11.5 -5t7 -10q133 -79 209 -180.5t76 -116.5q0 -5 -6 -5t-13 2q-43 8 -72.5 8t-49.5 -7q-25 34 -36 47q39 3 61 18t22 35 q0 21 -14.5 21t-23.5 -11t-56 -51q-32 36 -62 60q39 3 62 22.5t23 43t-17 23.5q-12 0 -20 -13t-56 -68q-55 46 -70 46q-6 0 -6 -5.5t12 -15.5q42 -34 104.5 -125t62.5 -127q0 -8 -1.5 -17t-1.5 -13q0 -13 10.5 -13t40.5 15.5t30 31.5q0 7 -8 15q-24 28 -43 59 q37 -1 80.5 -9.5t58 -16t26 -7.5t36 17.5t24.5 27.5t-15.5 17t-65.5 72q-57 71 -85 98q17 0 47.5 12.5t30.5 28.5q0 6 -6 20t-8 41q23 -5 57.5 -13t58 -8t49 14.5t25.5 25.5q0 15 -36 15l-43 -1q-45 0 -112 5q-2 27 3.5 135.5t5.5 126.5q0 44 -19 85t-34.5 41t-24.5 -16 q-24 -41 -95 -87q-11 -7 -11 -13t6.5 -6t11.5 1q44 10 65 10t29.5 -6t9.5 -20l4 -49q2 -36 2 -69t-3 -128q-98 10 -179 25q39 22 58 42t19 38t-7 34.5t-17 16.5q-22 0 -69 -128zM378 448q-56 12 -86 22t-44 24q-8 8 -18 8t-24 -18.5t-14 -29t10 -17.5t16 -26t6 -42 q0 -53 -27 -76q-12 -10 -12 -19.5t14 -9.5t46.5 16t32.5 33q0 5 -3.5 12t-6.5 41.5t-1 71.5q55 -14 111 -18q2 -98 -2 -154.5t-19 -74.5q-9 -11 -9 -20t14 -9t49 17.5t35 36.5q0 6 -7 25t-10.5 57.5t-8.5 213.5t-5.5 268.5t-7.5 130t-22 36.5t-29 -28t-14 -45.5t9.5 -42.5 t15 -77.5t8.5 -171.5q-73 16 -114 27q21 19 21 28t-4.5 21t-15.5 57.5t-32 79t-63 65.5t-51 32t-9 -4.5t9 -12.5q50 -45 81 -116.5t29 -137.5q-31 9 -55 18.5t-40.5 9.5t-38.5 -18.5t-22 -25.5t5.5 -8t31.5 -1q70 0 269 -42q0 -35 2 -106z"></path></g></g></g></g></g></g></g></g><g class="tl-box" style="transition: transform 300ms linear 0s; transform: translate(357.5px, 32.5px);"><g class=" 29" transform=""><g><g transform="scale(0.5525,0.5525)"><g transform="translate(-50, -50)"><g transform="scale(1,1)"><g><circle fill="var(--e-black-bg)" stroke="var(--e-black-bo)" stroke-width="2.3529411764705883" cx="50" cy="50" r="45"></circle><g transform="translate(14, 11)scale(0.07)"><path fill="var(--e-black-fg)" stroke="var(--e-black-bg)" stroke-width="2.3529411764705883" d="M558 527q126 -17 200 -32t101 -15t63 21t36 36q0 20 -58 20l-77 -3q-103 0 -266 18l-7 255q80 -9 108 -18t48 -9q45 0 80 20.5t35 36.5q0 20 -46 20q-12 0 -45 -4t-83 -4q-112 0 -261 31q-57 13 -75.5 13t-41.5 -16t-23 -22q0 -10 44 -12t208 -29l1 -255 q-119 14 -210.5 33t-108.5 19q-13 0 -38 -19t-25 -28t20 -9l25 2q56 0 337 -41q1 -181 -6 -243t-32 -93q-11 -14 -11 -23q0 -13 20 -13t67 15.5t47 39.5q0 10 -7.5 33.5t-11 80t-7.5 194.5z"></path></g></g></g></g></g></g></g></g><g class="tl-box" style="transition: transform 300ms linear 0s; transform: translate(422.5px, 32.5px);"><g class=" 30" transform=""><g><g transform="scale(0.5525,0.5525)"><g transform="translate(-50, -50)"><g transform="scale(1,1)"><g><circle fill="var(--e-black-bg)" stroke="var(--e-black-bo)" stroke-width="2.3529411764705883" cx="50" cy="50" r="45"></circle><g transform="translate(14, 11)scale(0.07)"><path fill="var(--e-black-fg)" stroke="var(--e-black-bg)" stroke-width="2.3529411764705883" d="M567 658q102 57 195.5 88t220.5 39q21 2 21 11q0 6 -12.5 11.5t-83 20.5t-99.5 15t-52 -14.5t-97 -70.5t-113 -88q22 35 35 86t13 94q0 68 -35.5 118.5t-61.5 50.5q-11 0 -17 -12t-25.5 -33.5t-41.5 -36.5q-7 -5 -7 -10t13 -5l52 3q30 0 41.5 -10.5t18.5 -39t7 -56.5 q0 -62 -30 -124q-74 96 -171.5 161t-150.5 65q-15 0 -15 -5t10 -10q71 -29 163 -107t135 -148q-16 -17 -37 -34q-73 87 -149 127t-98 40q-10 0 -10 -6.5t9 -11.5q161 -90 216 -175q-20 -17 -38 -29q-57 46 -97.5 66.5t-54.5 20.5q-5 0 -5 -4t12 -13q117 -84 164 -139l-55 7 q0 17 -17 17q-8 0 -13.5 -7.5t-15.5 -32t-29.5 -45.5t-36.5 -31t-17 -18q0 -13 17.5 -13t34.5 5q181 -24 208 -29q68 -82 79 -116q-47 9 -73.5 9t-54.5 -7q-45 45 -92 70t-61 25q-6 0 -6 -5t17 -18.5t50.5 -47t48 -54t18.5 -32.5t4 -26.5t16 -14.5t43.5 10.5t27.5 21.5 q0 8 -22.5 28t-27.5 25q40 -1 78.5 -10t56.5 -22q6 -4 19.5 -4t48.5 18t35 28t-32 17q-19 6 -59.5 33t-83.5 67q125 -17 149 -26q10 -4 18 -4q21 0 64.5 26.5t43.5 42.5q0 11 -26 19.5t-96 83.5q-17 19 -32.5 19t-19.5 -13.5t-25 -13.5q-36 0 -125 11q-27 35 -62 65 q100 48 147 103q127 -108 130 -138q3 -23 16 -23t43 15t30 25.5t-16 17.5q-45 20 -170 107zM470 458q75 -13 97.5 -13t32.5 3t16 3q12 0 31 -36.5t19 -45.5q0 -15 -24 -15q-17 0 -64.5 3.5t-89.5 9.5q21 21 21 33q0 6 -9 16t-30 42zM452 372q-116 20 -160 23q28 28 42 87 q44 -9 78 -15q29 -42 40 -95z"></path></g></g></g></g></g></g></g></g><g class="tl-box" style="transition: transform 300ms linear 0s; transform: translate(487.5px, 32.5px);"><g class=" 31" transform=""><g><g transform="scale(0.5525,0.5525)"><g transform="translate(-50, -50)"><g transform="scale(1,1)"><g><circle fill="var(--e-black-bg)" stroke="var(--e-black-bo)" stroke-width="2.3529411764705883" cx="50" cy="50" r="45"></circle><g transform="translate(14, 11)scale(0.07)"><path fill="var(--e-black-fg)" stroke="var(--e-black-bg)" stroke-width="2.3529411764705883" d="M537 571q148 -20 189 -34q18 -5 32.5 -5t58 22.5t43.5 32t-9 22t-12.5 32t-7.5 71.5q-7 103 -36.5 168t-64 87.5t-44.5 22.5q-9 0 -12.5 -24t-18 -48t-39 -51t-24.5 -29.5t4 -2.5t19 6q67 29 86.5 29t25.5 -10.5t26 -68.5t20 -111t-12.5 -75t-60 -22t-129.5 13.5 t-147.5 26t-79 17.5t-20.5 16t-15 11t-21 -21.5t-13 -39t3 -30.5q15 -70 15 -185.5t-16 -136.5q-11 -16 -11 -26t10.5 -10t36 10.5t28.5 17.5q151 -17 241 -47q43 -13 90 -13t47 16q0 14 -41.5 25.5t-133.5 24.5l-2 81q66 -19 82.5 -19t28 6.5t11.5 13.5q0 12 -38 18.5 t-85 16.5l-2 74q65 -19 90 -19q30 0 30 16q0 8 -8.5 13.5t-39.5 11.5q-51 11 -72 17zM346 268q-8 120 -15 331q90 -10 159 -21q3 -46 3 -84q-40 9 -57.5 9t-39.5 -4.5t-22 -10.5t19 -10q53 -8 100 -20q0 -56 -1 -78q-53 12 -71 12t-34.5 -8t-16.5 -13t19.5 -7.5t100.5 -17.5 q0 -43 -3 -86q-74 9 -100.5 9t-40.5 -1zM561 672q14 0 55.5 24t41.5 60q0 12 -4.5 25.5t-15.5 13.5q-21 0 -51.5 -51t-30.5 -67q0 -5 5 -5zM153 843q0 -14 13.5 -45t20 -49t9 -39.5t8.5 -21.5t16.5 23t10.5 62.5t-19.5 76t-30 36.5t-19.5 -14t-9 -29zM423 693q17 0 44 19.5 t27 48.5q0 14 -8 26.5t-15.5 12.5t-14.5 -8.5t-23.5 -46t-16.5 -45t7 -7.5zM305 714q16 0 36 26.5t20 56.5q0 15 -7 23t-16.5 8t-17.5 -14t-16 -45.5t-8 -43t9 -11.5z"></path></g></g></g></g></g></g></g></g><g class="tl-box" style="transition: transform 300ms linear 0s; transform: translate(552.5px, 32.5px);"><g class=" 32" transform=""><g><g transform="scale(0.5525,0.5525)"><g transform="translate(-50, -50)"><g transform="scale(1,1)"><g><circle fill="var(--e-black-bg)" stroke="var(--e-black-bo)" stroke-width="2.3529411764705883" cx="50" cy="50" r="45"></circle><g transform="translate(14, 11)scale(0.07)"><path fill="var(--e-black-fg)" stroke="var(--e-black-bg)" stroke-width="2.3529411764705883" d="M488 317q-51 7 -81.5 7t-56 -6.5t-25.5 -14t19 -8.5q54 -4 143 -22q-1 -53 -7 -75t-21 -39q-8 -10 -8 -19t18 -9t53.5 13t35.5 34q0 6 -3 13q-9 21 -11 71q51 -11 77.5 -18t41 -7t31.5 7t17 17.5t-23.5 18.5t-143.5 27q2 49 2 79q96 -17 121 -26q16 -6 32 -6t54.5 23 t38.5 38q0 8 -11 18.5t-19.5 29t-21 61t-30 73t-35.5 30.5q-12 0 -18 -11q-5 -8 -21.5 -8t-89.5 10v85q106 -13 161.5 -21.5t77 -12t42 -3.5t50 20t29.5 36q0 18 -34 15q-86 -9 -150.5 -9t-175.5 12q0 138 -8 211t-23 73q-4 0 -8 -5t-8 -38.5t-5 -69.5l-1 -166 q-196 23 -238.5 33.5t-61.5 10.5t-43.5 -15.5t-24.5 -22.5t6 -8t37 -1t132 -10t193 -23v-84l-109 17q2 15 -16 15q-8 0 -21.5 -24t-22.5 -61q-23 -98 -48 -128q-12 -14 -12 -23.5t18.5 -9.5t48.5 8l157 -25q-1 -39 -1 -77zM547 474q22 -4 51 -4t29 15q0 8 -11 16t-69 19 q2 31 0 66q94 -14 118 -13q15 1 19.5 -6.5t17.5 -61.5t13 -72t-6 -23t-24 -5q-58 0 -118 9v60zM493 529q-32 4 -50.5 4t-27.5 -7t-9 -11t14 -7t72 -17q-1 -50 -2 -68q-58 8 -136 26q14 71 28 161l111 -16v-65z"></path></g></g></g></g></g></g></g></g></g></g><g class="arrow-grid"><g><defs><marker id="arrow-head" orient="auto" markerWidth="4" markerHeight="4" refX="2.9" refY="2"><path d="M 0 4 L 0 0 4 2 Z" stroke="none" fill="hsl(240deg 100% 85%)"></path></marker><marker id="arrow-head-capture" orient="auto" markerWidth="4" markerHeight="4" refX="2.9" refY="2"><path d="M 0 4 L 0 0 4 2 Z" stroke="none" fill="var(--red-light)"></path></marker></defs></g></g><g class="area-grid-fg"></g><g class="e-grid" transform=""><g></g></g><g class="pointer-grid"><g><g transform="translate(0, 65)"><rect fill="hsla(0,0%,0%,0)" width="65" id="0_1" class="click-receiver" height="65" style="fill: transparent;"></rect></g><g transform="translate(390, 520)"><rect fill="hsla(0,0%,0%,0)" width="65" id="6_8" class="click-receiver" height="65" style="fill: transparent;"></rect></g><g transform="translate(390, 585)"><rect fill="hsla(0,0%,0%,0)" width="65" id="6_9" class="click-receiver" height="65" style="fill: transparent;"></rect></g><g transform="translate(325, 455)"><rect fill="hsla(0,0%,0%,0)" width="65" id="5_7" class="click-receiver" height="65" style="fill: transparent;"></rect></g><g transform="translate(325, 585)"><rect fill="hsla(0,0%,0%,0)" width="65" id="5_9" class="click-receiver" height="65" style="fill: transparent;"></rect></g><g transform="translate(0, 520)"><rect fill="hsla(0,0%,0%,0)" width="65" id="0_8" class="click-receiver" height="65" style="fill: transparent;"></rect></g><g transform="translate(260, 195)"><rect fill="hsla(0,0%,0%,0)" width="65" id="4_3" class="click-receiver" height="65" style="fill: transparent;"></rect></g><g transform="translate(195, 260)"><rect fill="hsla(0,0%,0%,0)" width="65" id="3_4" class="click-receiver" height="65" style="fill: transparent;"></rect></g><g transform="translate(65, 130)"><rect fill="hsla(0,0%,0%,0)" width="65" id="1_2" class="click-receiver" height="65" style="fill: transparent;"></rect></g><g transform="translate(0, 325)"><rect fill="hsla(0,0%,0%,0)" width="65" id="0_5" class="click-receiver" height="65" style="fill: transparent;"></rect></g><g transform=""><rect fill="hsla(0,0%,0%,0)" width="65" id="0_0" class="click-receiver" height="65" style="fill: transparent;"></rect></g><g transform="translate(325, 195)"><rect fill="hsla(0,0%,0%,0)" width="65" id="5_3" class="click-receiver" height="65" style="fill: transparent;"></rect></g><g transform="translate(130, 130)"><rect fill="hsla(0,0%,0%,0)" width="65" id="2_2" class="click-receiver" height="65" style="fill: transparent;"></rect></g><g transform="translate(65, 325)"><rect fill="hsla(0,0%,0%,0)" width="65" id="1_5" class="click-receiver" height="65" style="fill: transparent;"></rect></g><g transform="translate(195, 130)"><rect fill="hsla(0,0%,0%,0)" width="65" id="3_2" class="click-receiver" height="65" style="fill: transparent;"></rect></g><g transform="translate(260, 390)"><rect fill="hsla(0,0%,0%,0)" width="65" id="4_6" class="click-receiver" height="65" style="fill: transparent;"></rect></g><g transform="translate(520, 325)"><rect fill="hsla(0,0%,0%,0)" width="65" id="8_5" class="click-receiver" height="65" style="fill: transparent;"></rect></g><g transform="translate(455, 65)"><rect fill="hsla(0,0%,0%,0)" width="65" id="7_1" class="click-receiver" height="65" style="fill: transparent;"></rect></g><g transform="translate(0, 455)"><rect fill="hsla(0,0%,0%,0)" width="65" id="0_7" class="click-receiver" height="65" style="fill: transparent;"></rect></g><g transform="translate(455, 585)"><rect fill="hsla(0,0%,0%,0)" width="65" id="7_9" class="click-receiver" height="65" style="fill: transparent;"></rect></g><g transform="translate(130, 260)"><rect fill="hsla(0,0%,0%,0)" width="65" id="2_4" class="click-receiver" height="65" style="fill: transparent;"></rect></g><g transform="translate(455, 130)"><rect fill="hsla(0,0%,0%,0)" width="65" id="7_2" class="click-receiver" height="65" style="fill: transparent;"></rect></g><g transform="translate(260, 130)"><rect fill="hsla(0,0%,0%,0)" width="65" id="4_2" class="click-receiver" height="65" style="fill: transparent;"></rect></g><g transform="translate(65, 195)"><rect fill="hsla(0,0%,0%,0)" width="65" id="1_3" class="click-receiver" height="65" style="fill: transparent;"></rect></g><g transform="translate(325, 325)"><rect fill="hsla(0,0%,0%,0)" width="65" id="5_5" class="click-receiver" height="65" style="fill: transparent;"></rect></g><g transform="translate(325, 390)"><rect fill="hsla(0,0%,0%,0)" width="65" id="5_6" class="click-receiver" height="65" style="fill: transparent;"></rect></g><g transform="translate(130, 195)"><rect fill="hsla(0,0%,0%,0)" width="65" id="2_3" class="click-receiver" height="65" style="fill: transparent;"></rect></g><g transform="translate(520, 65)"><rect fill="hsla(0,0%,0%,0)" width="65" id="8_1" class="click-receiver" height="65" style="fill: transparent;"></rect></g><g transform="translate(0, 585)"><rect fill="hsla(0,0%,0%,0)" width="65" id="0_9" class="click-receiver" height="65" style="fill: transparent;"></rect></g><g transform="translate(325, 130)"><rect fill="hsla(0,0%,0%,0)" width="65" id="5_2" class="click-receiver" height="65" style="fill: transparent;"></rect></g><g transform="translate(260, 455)"><rect fill="hsla(0,0%,0%,0)" width="65" id="4_7" class="click-receiver" height="65" style="fill: transparent;"></rect></g><g transform="translate(520, 195)"><rect fill="hsla(0,0%,0%,0)" width="65" id="8_3" class="click-receiver" height="65" style="fill: transparent;"></rect></g><g transform="translate(195, 65)"><rect fill="hsla(0,0%,0%,0)" width="65" id="3_1" class="click-receiver" height="65" style="fill: transparent;"></rect></g><g transform="translate(455, 0)"><rect fill="hsla(0,0%,0%,0)" width="65" id="7_0" class="click-receiver" height="65" style="fill: transparent;"></rect></g><g transform="translate(0, 130)"><rect fill="hsla(0,0%,0%,0)" width="65" id="0_2" class="click-receiver" height="65" style="fill: transparent;"></rect></g><g transform="translate(130, 585)"><rect fill="hsla(0,0%,0%,0)" width="65" id="2_9" class="click-receiver" height="65" style="fill: transparent;"></rect></g><g transform="translate(260, 585)"><rect fill="hsla(0,0%,0%,0)" width="65" id="4_9" class="click-receiver" height="65" style="fill: transparent;"></rect></g><g transform="translate(325, 65)"><rect fill="hsla(0,0%,0%,0)" width="65" id="5_1" class="click-receiver" height="65" style="fill: transparent;"></rect></g><g transform="translate(195, 0)"><rect fill="hsla(0,0%,0%,0)" width="65" id="3_0" class="click-receiver" height="65" style="fill: transparent;"></rect></g><g transform="translate(130, 455)"><rect fill="hsla(0,0%,0%,0)" width="65" id="2_7" class="click-receiver" height="65" style="fill: transparent;"></rect></g><g transform="translate(0, 390)"><rect fill="hsla(0,0%,0%,0)" width="65" id="0_6" class="click-receiver" height="65" style="fill: transparent;"></rect></g><g transform="translate(520, 520)"><rect fill="hsla(0,0%,0%,0)" width="65" id="8_8" class="click-receiver" height="65" style="fill: transparent;"></rect></g><g transform="translate(260, 325)"><rect fill="hsla(0,0%,0%,0)" width="65" id="4_5" class="click-receiver" height="65" style="fill: transparent;"></rect></g><g transform="translate(65, 65)"><rect fill="hsla(0,0%,0%,0)" width="65" id="1_1" class="click-receiver" height="65" style="fill: transparent;"></rect></g><g transform="translate(390, 0)"><rect fill="hsla(0,0%,0%,0)" width="65" id="6_0" class="click-receiver" height="65" style="fill: transparent;"></rect></g><g transform="translate(520, 455)"><rect fill="hsla(0,0%,0%,0)" width="65" id="8_7" class="click-receiver" height="65" style="fill: transparent;"></rect></g><g transform="translate(455, 260)"><rect fill="hsla(0,0%,0%,0)" width="65" id="7_4" class="click-receiver" height="65" style="fill: transparent;"></rect></g><g transform="translate(520, 260)"><rect fill="hsla(0,0%,0%,0)" width="65" id="8_4" class="click-receiver" height="65" style="fill: transparent;"></rect></g><g transform="translate(455, 455)"><rect fill="hsla(0,0%,0%,0)" width="65" id="7_7" class="click-receiver" height="65" style="fill: transparent;"></rect></g><g transform="translate(195, 195)"><rect fill="hsla(0,0%,0%,0)" width="65" id="3_3" class="click-receiver" height="65" style="fill: transparent;"></rect></g><g transform="translate(325, 0)"><rect fill="hsla(0,0%,0%,0)" width="65" id="5_0" class="click-receiver" height="65" style="fill: transparent;"></rect></g><g transform="translate(325, 260)"><rect fill="hsla(0,0%,0%,0)" width="65" id="5_4" class="click-receiver" height="65" style="fill: transparent;"></rect></g><g transform="translate(130, 390)"><rect fill="hsla(0,0%,0%,0)" width="65" id="2_6" class="click-receiver" height="65" style="fill: transparent;"></rect></g><g transform="translate(390, 195)"><rect fill="hsla(0,0%,0%,0)" width="65" id="6_3" class="click-receiver" height="65" style="fill: transparent;"></rect></g><g transform="translate(195, 325)"><rect fill="hsla(0,0%,0%,0)" width="65" id="3_5" class="click-receiver" height="65" style="fill: transparent;"></rect></g><g transform="translate(520, 390)"><rect fill="hsla(0,0%,0%,0)" width="65" id="8_6" class="click-receiver" height="65" style="fill: transparent;"></rect></g><g transform="translate(195, 585)"><rect fill="hsla(0,0%,0%,0)" width="65" id="3_9" class="click-receiver" height="65" style="fill: transparent;"></rect></g><g transform="translate(390, 390)"><rect fill="hsla(0,0%,0%,0)" width="65" id="6_6" class="click-receiver" height="65" style="fill: transparent;"></rect></g><g transform="translate(65, 260)"><rect fill="hsla(0,0%,0%,0)" width="65" id="1_4" class="click-receiver" height="65" style="fill: transparent;"></rect></g><g transform="translate(390, 455)"><rect fill="hsla(0,0%,0%,0)" width="65" id="6_7" class="click-receiver" height="65" style="fill: transparent;"></rect></g><g transform="translate(65, 455)"><rect fill="hsla(0,0%,0%,0)" width="65" id="1_7" class="click-receiver" height="65" style="fill: transparent;"></rect></g><g transform="translate(260, 520)"><rect fill="hsla(0,0%,0%,0)" width="65" id="4_8" class="click-receiver" height="65" style="fill: transparent;"></rect></g><g transform="translate(65, 520)"><rect fill="hsla(0,0%,0%,0)" width="65" id="1_8" class="click-receiver" height="65" style="fill: transparent;"></rect></g><g transform="translate(0, 195)"><rect fill="hsla(0,0%,0%,0)" width="65" id="0_3" class="click-receiver" height="65" style="fill: transparent;"></rect></g><g transform="translate(390, 325)"><rect fill="hsla(0,0%,0%,0)" width="65" id="6_5" class="click-receiver" height="65" style="fill: transparent;"></rect></g><g transform="translate(65, 585)"><rect fill="hsla(0,0%,0%,0)" width="65" id="1_9" class="click-receiver" height="65" style="fill: transparent;"></rect></g><g transform="translate(130, 65)"><rect fill="hsla(0,0%,0%,0)" width="65" id="2_1" class="click-receiver" height="65" style="fill: transparent;"></rect></g><g transform="translate(455, 520)"><rect fill="hsla(0,0%,0%,0)" width="65" id="7_8" class="click-receiver" height="65" style="fill: transparent;"></rect></g><g transform="translate(260, 65)"><rect fill="hsla(0,0%,0%,0)" width="65" id="4_1" class="click-receiver" height="65" style="fill: transparent;"></rect></g><g transform="translate(455, 325)"><rect fill="hsla(0,0%,0%,0)" width="65" id="7_5" class="click-receiver" height="65" style="fill: transparent;"></rect></g><g transform="translate(195, 390)"><rect fill="hsla(0,0%,0%,0)" width="65" id="3_6" class="click-receiver" height="65" style="fill: transparent;"></rect></g><g transform="translate(325, 520)"><rect fill="hsla(0,0%,0%,0)" width="65" id="5_8" class="click-receiver" height="65" style="fill: transparent;"></rect></g><g transform="translate(195, 520)"><rect fill="hsla(0,0%,0%,0)" width="65" id="3_8" class="click-receiver" height="65" style="fill: transparent;"></rect></g><g transform="translate(390, 65)"><rect fill="hsla(0,0%,0%,0)" width="65" id="6_1" class="click-receiver" height="65" style="fill: transparent;"></rect></g><g transform="translate(520, 0)"><rect fill="hsla(0,0%,0%,0)" width="65" id="8_0" class="click-receiver" height="65" style="fill: transparent;"></rect></g><g transform="translate(65, 390)"><rect fill="hsla(0,0%,0%,0)" width="65" id="1_6" class="click-receiver" height="65" style="fill: transparent;"></rect></g><g transform="translate(260, 260)"><rect fill="hsla(0,0%,0%,0)" width="65" id="4_4" class="click-receiver" height="65" style="fill: transparent;"></rect></g><g transform="translate(195, 455)"><rect fill="hsla(0,0%,0%,0)" width="65" id="3_7" class="click-receiver" height="65" style="fill: transparent;"></rect></g><g transform="translate(65, 0)"><rect fill="hsla(0,0%,0%,0)" width="65" id="1_0" class="click-receiver" height="65" style="fill: transparent;"></rect></g><g transform="translate(455, 195)"><rect fill="hsla(0,0%,0%,0)" width="65" id="7_3" class="click-receiver" height="65" style="fill: transparent;"></rect></g><g transform="translate(130, 0)"><rect fill="hsla(0,0%,0%,0)" width="65" id="2_0" class="click-receiver" height="65" style="fill: transparent;"></rect></g><g transform="translate(130, 520)"><rect fill="hsla(0,0%,0%,0)" width="65" id="2_8" class="click-receiver" height="65" style="fill: transparent;"></rect></g><g transform="translate(520, 585)"><rect fill="hsla(0,0%,0%,0)" width="65" id="8_9" class="click-receiver" height="65" style="fill: transparent;"></rect></g><g transform="translate(260, 0)"><rect fill="hsla(0,0%,0%,0)" width="65" id="4_0" class="click-receiver" height="65" style="fill: transparent;"></rect></g><g transform="translate(390, 130)"><rect fill="hsla(0,0%,0%,0)" width="65" id="6_2" class="click-receiver" height="65" style="fill: transparent;"></rect></g><g transform="translate(520, 130)"><rect fill="hsla(0,0%,0%,0)" width="65" id="8_2" class="click-receiver" height="65" style="fill: transparent;"></rect></g><g transform="translate(390, 260)"><rect fill="hsla(0,0%,0%,0)" width="65" id="6_4" class="click-receiver" height="65" style="fill: transparent;"></rect></g><g transform="translate(130, 325)"><rect fill="hsla(0,0%,0%,0)" width="65" id="2_5" class="click-receiver" height="65" style="fill: transparent;"></rect></g><g transform="translate(0, 260)"><rect fill="hsla(0,0%,0%,0)" width="65" id="0_4" class="click-receiver" height="65" style="fill: transparent;"></rect></g><g transform="translate(455, 390)"><rect fill="hsla(0,0%,0%,0)" width="65" id="7_6" class="click-receiver" height="65" style="fill: transparent;"></rect></g></g></g><g class="placeholder"></g></g></g></svg>